<?xml version="1.0" encoding="utf-8"?>
<!-- Generator: Adobe Illustrator 26.3.1, SVG Export Plug-In . SVG Version: 6.00 Build 0)  -->
<svg version="1.1" id="Layer_1" xmlns="http://www.w3.org/2000/svg" xmlns:xlink="http://www.w3.org/1999/xlink" x="0px" y="0px"
	 viewBox="0 0 100 100" style="enable-background:new 0 0 100 100;" xml:space="preserve">
<style type="text/css">
	.st0{fill:#2F3947;}
	.st1{fill:#B3BAC2;}
	.st2{fill:#4D54BE;}
	.st3{fill:#7E85EC;}
	.st4{fill:#515ACB;}
	.st5{fill:#8A96A0;}
	.st6{fill:#111010;}
	.st7{fill:#444B8E;}
	.st8{fill:#45494B;}
	.st9{fill:#FDFEFE;}
	.st10{fill:#FDFDFD;}
	.st11{fill:#E4F4FC;}
	.st12{fill:#F7F5FC;}
	.st13{fill:#DF7013;}
	.st14{fill:#E87C0D;}
	.st15{fill:#693CC5;}
	.st16{fill:#EF870C;}
	.st17{fill:#D66415;}
	.st18{fill:#8652E3;}
	.st19{fill:#7C4BD8;}
	.st20{fill:#7B4AD6;}
	.st21{fill:#7244CE;}
	.st22{fill:#7444D0;}
	.st23{fill:#6036BC;}
	.st24{fill:#8E58EB;}
	.st25{fill:#824FDE;}
	.st26{fill:#FDF8F3;}
	.st27{fill:#7848D3;}
	.st28{fill:#E47610;}
</style>
<g>
	<g>
		<path class="st0" d="M80.18,41.26c0.14,0.06,0.23,0.11,0.32,0.15c1.5,0.59,2.74,1.51,3.64,2.79c0.86,1.23,1.35,2.59,1.35,4.09
			c0,0.36,0,0.71,0,1.07c0,0.35-0.11,0.45-0.49,0.46c-0.07,0-0.14,0-0.21,0c-4.95,0-9.9,0-14.84,0c-0.58,0-0.74-0.05-0.7-0.66
			c0.03-0.52,0-1.05,0.05-1.57c0.09-0.94,0.41-1.83,0.86-2.67c0.64-1.19,1.58-2.12,2.75-2.85c0.44-0.28,0.9-0.52,1.4-0.69
			c0.06-0.02,0.12-0.06,0.19-0.09c-0.29-0.39-0.6-0.75-0.85-1.14c-0.26-0.4-0.39-0.86-0.46-1.32c-0.07-0.48-0.06-0.95,0.04-1.43
			c0.11-0.46,0.29-0.89,0.54-1.3c0.25-0.41,0.59-0.75,0.98-1.04c1.65-1.21,3.91-1.15,5.47,0.18c0.93,0.79,1.38,1.82,1.39,3
			C81.59,39.43,81.1,40.42,80.18,41.26z M69.95,49.1c0.49,0.08,14.57,0.05,14.86-0.03c-0.03-0.48-0.04-0.97-0.1-1.45
			c-0.21-1.61-0.93-2.98-2.15-4.11c-0.85-0.79-1.88-1.28-2.98-1.66c-0.08-0.03-0.19-0.01-0.27,0.03c-1.31,0.59-2.61,0.6-3.92,0
			c-0.08-0.03-0.19-0.05-0.26-0.03c-0.28,0.09-0.55,0.19-0.81,0.3c-1.57,0.65-2.77,1.69-3.56,3.14
			C70.12,46.49,69.89,47.76,69.95,49.1z M80.86,38.22c-0.01-1.66-1.37-3.31-3.49-3.32c-2.07-0.01-3.5,1.58-3.51,3.34
			c-0.01,1.83,1.5,3.34,3.51,3.33C79.37,41.55,80.86,40.05,80.86,38.22z"/>
		<path class="st1" d="M62.91,56.06c0,9.3,0,18.59,0.01,27.89c0,0.56-0.16,1.03-0.53,1.44c-0.43,0.48-0.97,0.77-1.65,0.77
			c-5.33,0-10.67,0-16,0c-1.1,0-2.23-1.08-2.16-2.06c0.01-0.08,0-0.16,0-0.23c0-18.57,0-37.14-0.01-55.71c0-0.51,0.1-0.97,0.43-1.38
			c0.45-0.56,1.02-0.9,1.79-0.9c5.31,0.01,10.62,0,15.93,0c1.01,0,1.97,0.75,2.17,1.69c0.03,0.16,0.02,0.33,0.02,0.5
			c0,2.16,0,4.33,0,6.49C62.91,41.73,62.91,48.89,62.91,56.06z M42.72,56.04c0,9.25,0,18.5,0,27.75c0,0.21,0.02,0.42,0.06,0.63
			c0.16,0.8,1.09,1.56,2.02,1.55c5.3-0.03,10.6-0.02,15.9-0.01c0.54,0,0.98-0.18,1.36-0.52c0.51-0.45,0.69-1.01,0.69-1.65
			c0-18.51,0-37.03,0-55.54c0-0.18-0.04-0.35-0.05-0.53c-0.07-0.84-1.05-1.71-2.03-1.71c-5.29,0.01-10.58,0-15.86,0.01
			c-0.79,0-1.37,0.39-1.79,1.01c-0.25,0.37-0.3,0.79-0.3,1.22C42.72,37.52,42.72,46.78,42.72,56.04z"/>
		<path class="st2" d="M28.12,40.61c0.01,0.1,0.02,0.19,0.03,0.29c0,0.02-0.01,0.04-0.01,0.06c-0.02,0.12-0.06,0.23-0.06,0.35
			c-0.01,0.8,0,1.61,0,2.41c0,0.31-0.14,0.44-0.47,0.45c-0.37,0-0.75,0-1.12,0c-0.12,0-0.25,0.04-0.37,0.06
			c-0.13-0.01-0.25-0.03-0.38-0.03c-0.56,0-1.12,0-1.68,0c-0.34-0.01-0.47-0.13-0.47-0.45c0-1.16,0-2.32,0-3.47
			c0-0.32,0.13-0.44,0.47-0.44c1.02,0,2.04,0,3.05,0.01c0.28-0.01,0.56-0.01,0.83-0.02c0.13,0.21,0.16,0.44,0.15,0.68
			C28.1,40.53,28.11,40.57,28.12,40.61z M25.55,43.36c0.15,0.01,0.24,0.02,0.33,0.02c0.07,0,0.14-0.01,0.24-0.03
			c0.01-0.71,0.01-1.42,0.02-2.14c0.3-0.01,0.55-0.03,0.8-0.04c0-0.19,0-0.35,0-0.51c-0.75,0-1.47,0-2.22,0c0,0.18,0,0.33,0,0.53
			c0.28,0,0.53,0,0.82,0C25.55,41.93,25.55,42.62,25.55,43.36z"/>
		<path class="st2" d="M77.4,72.02c0,0.11,0.01,0.23,0.01,0.34c-0.01,0.02-0.01,0.03-0.01,0.05c-0.02,0.12-0.07,0.23-0.07,0.35
			c-0.01,0.8,0,1.6,0,2.4c0,0.35-0.13,0.47-0.51,0.48c-0.48,0.01-0.96,0.01-1.44,0.01l-0.01,0.02c0,0-0.02,0-0.02,0
			c-0.12-0.03-0.23-0.08-0.35-0.08c-0.67-0.01-1.35-0.01-2.02-0.02c-0.04-0.05-0.08-0.11-0.13-0.16c0.01-0.09,0.03-0.17,0.03-0.26
			c0-1.12,0-2.24,0-3.35c0-0.09-0.02-0.17-0.03-0.26c0.06-0.06,0.11-0.12,0.17-0.18c0.1,0,0.21,0.01,0.31,0.01
			c1.28,0,2.56,0.03,3.84-0.07c0.09,0.19,0.18,0.38,0.16,0.59c0,0.03,0.03,0.06,0.05,0.08C77.39,71.98,77.4,72,77.4,72.02z
			 M74.81,74.82c0.12,0.01,0.2,0.02,0.28,0.02c0.08,0,0.16-0.01,0.29-0.02c0-0.72,0-1.42,0-2.17c0.3,0,0.55,0,0.82,0
			c0-0.2,0-0.36,0-0.51c-0.51-0.06-1.98-0.04-2.22,0.03c0,0.15,0,0.3,0,0.49c0.28,0,0.53,0,0.83,0
			C74.81,73.39,74.81,74.1,74.81,74.82z"/>
		<path class="st3" d="M30.62,44.61c-0.15,0.23-0.28,0.48-0.45,0.7c-0.91,1.13-2.86,1.05-3.66-0.15c-0.02-0.04-0.03-0.08-0.04-0.12
			c0.5,0,1.01,0,1.51,0c0.24,0,0.39-0.1,0.43-0.31c0.03-0.13-0.02-0.28-0.03-0.42c0-0.66,0-1.32,0-1.97c0-0.46-0.01-0.91-0.02-1.37
			c0.09-0.01,0.17-0.03,0.26-0.04c0.6,0,1.21,0,1.81,0c0.04,0.01,0.09,0.03,0.13,0.04c0.15,0.36,0.12,0.73,0.12,1.11
			c0,0.44,0.01,0.89,0,1.33C30.67,43.8,30.64,44.21,30.62,44.61z"/>
		<path class="st3" d="M77.41,72.41c0-0.02,0-0.03,0.01-0.05c0.79,0.01,1.59,0.01,2.38,0.02c-0.01,0.04-0.03,0.11-0.01,0.12
			c0.17,0.13,0.15,0.31,0.15,0.49c0,0.53,0.01,1.06,0,1.59c-0.01,0.4-0.05,0.79-0.06,1.19c0,0.1,0.04,0.21,0.06,0.32
			c-0.16,0.02-0.18,0.16-0.24,0.26c-0.33,0.64-0.87,1.04-1.6,1.18c-0.96,0.19-1.8-0.2-2.35-0.93c-0.02-0.02-0.01-0.06-0.02-0.1
			c0.45,0,0.91,0.01,1.36,0c0.48-0.01,0.67-0.28,0.53-0.73c0-0.84,0-1.67,0-2.51c0-0.21-0.01-0.42,0-0.64
			C77.64,72.47,77.56,72.41,77.41,72.41z"/>
		<path class="st4" d="M79.94,76.09c-0.02-0.11-0.07-0.21-0.06-0.32c0.01-0.4,0.05-0.79,0.06-1.19c0.01-0.53,0-1.06,0-1.59
			c0-0.18,0.02-0.36-0.15-0.49c-0.02-0.01,0.01-0.08,0.01-0.12c0.54,0,1.08-0.01,1.61-0.01c0.34,0,0.49,0.15,0.5,0.47
			c0.01,0.68,0.01,1.36,0,2.04C81.89,75.74,80.92,76.53,79.94,76.09z"/>
		<path class="st4" d="M30.62,44.61c0.02-0.41,0.05-0.81,0.06-1.22c0.01-0.44,0-0.89,0-1.33c0-0.37,0.03-0.75-0.12-1.11
			c0.58-0.01,1.16-0.01,1.74-0.02c0.17,0.02,0.27,0.1,0.31,0.25c-0.01,0.53-0.02,1.07-0.03,1.6c-0.01,0.42,0.04,0.85-0.14,1.25
			c0,0.02-0.01,0.04-0.03,0.05c-0.04,0.05-0.08,0.1-0.12,0.14c-0.05,0.04-0.09,0.09-0.14,0.13c-0.05,0.04-0.1,0.07-0.15,0.11
			c-0.01,0.02-0.03,0.02-0.05,0.03c-0.31,0.1-0.64,0.16-0.97,0.13c-0.08-0.01-0.16,0-0.24,0C30.71,44.63,30.67,44.62,30.62,44.61z"
			/>
		<path class="st3" d="M77.19,71.29c-1.28,0.09-2.56,0.06-3.84,0.07c-0.1,0-0.21,0-0.31-0.01c0.14-0.03,0.29-0.09,0.43-0.09
			c0.82-0.01,1.64,0,2.46,0c0.13,0,0.25,0,0.41,0c0-0.13,0.01-0.22,0-0.32c-0.1-0.73,0.37-1.41,1.24-1.49
			c0.71-0.07,1.4,0.56,1.42,1.29c0.02,0.7-0.63,1.31-1.33,1.27c0-0.08,0.01-0.15,0.01-0.23C77.68,71.42,77.56,71.31,77.19,71.29z"/>
		<path class="st3" d="M27.94,39.82c-0.28,0.01-0.56,0.01-0.83,0.02c0-0.27-0.04-0.55,0-0.82c0.08-0.56,0.6-0.98,1.18-1.01
			c0.66-0.03,1.22,0.32,1.39,0.89c0.23,0.75-0.24,1.49-1.02,1.61c-0.08-0.01-0.16-0.01-0.25-0.02
			C28.45,39.97,28.39,39.88,27.94,39.82z"/>
		<path class="st4" d="M32.37,39.7c0,0.53-0.44,0.95-1,0.95c-0.55,0-1.01-0.44-1-0.96c0.01-0.53,0.46-0.97,0.99-0.98
			C31.92,38.71,32.37,39.15,32.37,39.7z"/>
		<path class="st4" d="M81.62,71.17c-0.01,0.53-0.46,0.96-1.01,0.94c-0.54-0.02-0.98-0.44-0.98-0.95c0-0.52,0.46-0.96,1.01-0.96
			C81.18,70.2,81.63,70.64,81.62,71.17z"/>
		<path class="st5" d="M77.46,53.37c0,2.33,0,4.66,0,7.01c0.21,0.01,0.4,0.02,0.63,0.04c-0.23,0.66-0.46,1.29-0.69,1.93
			c-0.02,0-0.05,0-0.07,0c-0.23-0.63-0.45-1.25-0.69-1.92c0.21-0.02,0.4-0.04,0.62-0.06c0-0.14,0-0.27,0-0.4c0-2.08,0-4.15,0-6.23
			c0-0.1,0-0.2,0.01-0.3c0.01-0.04,0.06-0.07,0.09-0.11C77.4,53.35,77.43,53.36,77.46,53.37z"/>
		<path class="st6" d="M-0.18,3.31c0.05,0.17,0.07,0.35,0.15,0.5c0.19,0.36,0.71,0.38,0.95,0.05c0.2-0.27,0.2-0.77,0-1.05
			C0.68,2.46,0.18,2.48-0.02,2.85C-0.1,2.98-0.12,3.14-0.18,3.31z"/>
		<path class="st6" d="M-2.43,3.29c0.05,0.18,0.07,0.36,0.15,0.51c0.19,0.36,0.7,0.39,0.95,0.06c0.2-0.27,0.2-0.8,0-1.07
			c-0.24-0.32-0.73-0.31-0.94,0.03C-2.35,2.96-2.38,3.13-2.43,3.29z"/>
		<path class="st7" d="M77.41,72.41c0.16,0,0.23,0.06,0.23,0.22c-0.01,0.21,0,0.42,0,0.64c0,0.84,0,1.67,0,2.51
			c-0.2,0.19-0.44,0.21-0.71,0.21c-0.48-0.01-0.96-0.01-1.44-0.01c-0.03-0.11-0.06-0.22-0.09-0.32c0.48,0,0.96-0.01,1.44-0.01
			c0.38,0,0.51-0.12,0.51-0.48c0-0.8,0-1.6,0-2.4C77.34,72.64,77.38,72.53,77.41,72.41z"/>
		<path class="st7" d="M28.36,40.96c0.01,0.46,0.02,0.91,0.02,1.37c0,0.66,0,1.32,0,1.97c-0.23,0.15-0.48,0.2-0.75,0.2
			c-0.46,0-0.93,0.01-1.39,0.01c-0.04-0.09-0.08-0.19-0.11-0.28c0.12-0.02,0.25-0.06,0.37-0.06c0.37-0.01,0.75,0,1.12,0
			c0.33,0,0.47-0.14,0.47-0.45c0-0.8,0-1.61,0-2.41c0-0.12,0.04-0.23,0.06-0.35C28.22,40.96,28.29,40.96,28.36,40.96z"/>
		<path class="st8" d="M28.49,52.65c0-0.36,0-0.73,0-1.07c0.18-0.03,0.35-0.07,0.51-0.06c0.15,0.01,0.3,0.07,0.5,0.12
			c-0.01,0.01,0.03-0.03,0.08-0.06c0.33-0.18,0.63-0.06,0.67,0.29c0.03,0.23,0.02,0.47,0.01,0.7c0,0.04-0.09,0.08-0.21,0.16
			c0-0.33,0.01-0.57,0-0.81c0-0.13-0.07-0.24-0.23-0.25c-0.16-0.01-0.27,0.07-0.31,0.21c-0.02,0.09-0.02,0.18-0.02,0.27
			c0,0.13,0.01,0.27-0.01,0.4c-0.01,0.05-0.08,0.09-0.12,0.14c-0.03-0.01-0.05-0.02-0.08-0.03c0-0.17,0-0.35,0-0.52
			c0-0.06,0-0.11,0-0.17c-0.02-0.2-0.11-0.3-0.26-0.3c-0.16,0-0.29,0.11-0.31,0.3c-0.02,0.19-0.01,0.38-0.01,0.57
			C28.68,52.68,28.61,52.7,28.49,52.65z"/>
		<path class="st8" d="M77.74,83.05c0.17-0.02,0.3-0.03,0.43-0.05c0.2-0.04,0.37,0,0.5,0.16c0.1-0.06,0.18-0.12,0.27-0.15
			c0.26-0.09,0.49,0.02,0.53,0.28c0.04,0.26,0.03,0.53,0.02,0.8c0,0.03-0.1,0.05-0.2,0.1c0-0.2,0-0.35,0-0.5c0-0.09,0-0.18,0-0.27
			c-0.01-0.13-0.07-0.24-0.22-0.26c-0.15-0.02-0.31,0.09-0.32,0.24c-0.02,0.2-0.02,0.4-0.02,0.6c0,0.11-0.03,0.17-0.21,0.13
			c0-0.15,0-0.31,0-0.47c0-0.09,0.01-0.18-0.01-0.27c-0.02-0.13-0.08-0.24-0.24-0.24c-0.16,0-0.28,0.08-0.3,0.23
			c-0.03,0.21-0.02,0.42-0.03,0.63c0,0.13-0.06,0.16-0.2,0.11C77.74,83.77,77.74,83.41,77.74,83.05z"/>
		<path class="st2" d="M26.23,44.52c0.46,0,0.93-0.01,1.39-0.01c0.27,0,0.53-0.06,0.75-0.2c0.01,0.14,0.06,0.28,0.03,0.42
			c-0.04,0.21-0.19,0.31-0.43,0.31c-0.5,0-1.01,0-1.51,0C26.39,44.86,26.31,44.69,26.23,44.52z"/>
		<path class="st2" d="M75.48,75.98c0.48,0,0.96-0.01,1.44,0.01c0.27,0.01,0.51-0.02,0.71-0.21c0.14,0.44-0.06,0.72-0.53,0.73
			c-0.45,0.01-0.91,0-1.36,0C75.65,76.33,75.56,76.15,75.48,75.98z"/>
		<path class="st8" d="M75.93,51.14c0.08,0,0.13,0,0.17,0c0.02,0.02,0.04,0.04,0.04,0.06c0,0.31,0.02,0.62,0.01,0.94
			c-0.02,0.5-0.53,0.76-0.98,0.5c-0.15-0.09-0.24-0.22-0.24-0.38c-0.01-0.36,0-0.73,0-1.11c0.07,0,0.13,0,0.22,0
			c0,0.25,0,0.49,0,0.73c0,0.1,0,0.2,0.01,0.3c0.02,0.25,0.14,0.35,0.37,0.35c0.23,0,0.37-0.1,0.39-0.34
			c0.02-0.29,0.01-0.58,0.01-0.87C75.92,51.27,75.92,51.22,75.93,51.14z"/>
		<path class="st8" d="M28.02,52.72c-0.19-0.11-0.32-0.07-0.46-0.03c-0.26,0.08-0.48-0.03-0.54-0.23c-0.07-0.26,0.06-0.46,0.36-0.51
			c0.14-0.02,0.28-0.02,0.45-0.03c-0.18-0.37-0.48-0.2-0.72-0.18c-0.01-0.04-0.02-0.07-0.01-0.08c0.17-0.2,0.39-0.16,0.61-0.12
			c0.2,0.03,0.3,0.18,0.31,0.36C28.03,52.15,28.02,52.4,28.02,52.72z M27.79,52.13c-0.13,0-0.25-0.01-0.38,0
			c-0.14,0.01-0.21,0.09-0.2,0.22c0.02,0.13,0.12,0.18,0.25,0.18C27.67,52.53,27.77,52.42,27.79,52.13z"/>
		<path class="st8" d="M77.27,84.19c-0.19-0.09-0.32-0.07-0.46-0.03c-0.27,0.09-0.5-0.04-0.55-0.26c-0.05-0.26,0.09-0.44,0.39-0.48
			c0.13-0.02,0.25-0.02,0.39-0.02c-0.11-0.27-0.12-0.27-0.69-0.2c0-0.03-0.01-0.08,0-0.09c0.19-0.15,0.41-0.15,0.63-0.09
			c0.21,0.06,0.29,0.22,0.29,0.41C77.28,83.66,77.27,83.89,77.27,84.19z M77.04,83.59c-0.16,0.01-0.29,0-0.41,0.03
			c-0.07,0.02-0.14,0.11-0.16,0.18c-0.02,0.11,0.06,0.18,0.18,0.2C76.88,84.05,77.02,83.91,77.04,83.59z"/>
		<path class="st8" d="M75.93,83.62c-0.27,0-0.55,0-0.83,0c0.01,0.38,0.08,0.41,0.83,0.35c-0.05,0.07-0.08,0.15-0.12,0.16
			c-0.19,0.02-0.4,0.07-0.58,0.03c-0.32-0.06-0.47-0.36-0.39-0.71c0.07-0.32,0.32-0.49,0.66-0.45
			C75.82,83.02,75.95,83.21,75.93,83.62z M75.07,83.42c0.23,0,0.44,0,0.68,0c-0.05-0.2-0.16-0.28-0.33-0.27
			C75.24,83.16,75.11,83.22,75.07,83.42z"/>
		<path class="st8" d="M26.69,52.49c-0.05,0.07-0.08,0.15-0.12,0.16c-0.19,0.02-0.4,0.07-0.58,0.03c-0.32-0.06-0.47-0.36-0.4-0.71
			c0.07-0.32,0.32-0.49,0.66-0.45c0.32,0.04,0.44,0.22,0.42,0.63c-0.27,0-0.55,0-0.82,0C25.86,52.52,25.95,52.56,26.69,52.49z
			 M26.49,51.96c-0.05-0.24-0.19-0.3-0.37-0.28c-0.15,0.02-0.28,0.08-0.29,0.28C26.05,51.96,26.26,51.96,26.49,51.96z"/>
		<path class="st8" d="M78.75,52.49c-0.05,0.07-0.07,0.15-0.11,0.16c-0.18,0.03-0.37,0.07-0.55,0.04c-0.35-0.06-0.51-0.35-0.43-0.72
			c0.07-0.32,0.32-0.49,0.66-0.45c0.31,0.04,0.44,0.21,0.43,0.63c-0.27,0-0.55,0-0.82,0C77.92,52.52,78.01,52.56,78.75,52.49z
			 M78.51,51.97c-0.01-0.22-0.08-0.29-0.27-0.29c-0.19,0-0.29,0.08-0.32,0.29C78.12,51.97,78.31,51.97,78.51,51.97z"/>
		<path class="st8" d="M76.5,52.48c0.19,0.02,0.35,0.05,0.51,0.05c0.07,0,0.14-0.09,0.21-0.14c-0.06-0.06-0.11-0.13-0.18-0.17
			c-0.09-0.04-0.2-0.05-0.3-0.09c-0.15-0.05-0.22-0.16-0.21-0.31c0.01-0.15,0.1-0.26,0.25-0.28c0.17-0.02,0.35-0.01,0.52,0.01
			c0.04,0,0.06,0.09,0.1,0.16c-0.19-0.01-0.34-0.03-0.48-0.02c-0.06,0.01-0.12,0.09-0.18,0.13c0.05,0.05,0.09,0.12,0.16,0.15
			c0.1,0.05,0.23,0.06,0.33,0.1c0.13,0.05,0.23,0.15,0.21,0.28c-0.02,0.11-0.09,0.24-0.19,0.29c-0.21,0.12-0.45,0.08-0.68,0.01
			C76.54,52.64,76.53,52.55,76.5,52.48z"/>
		<path class="st8" d="M79.82,83.95c0.2,0.02,0.35,0.06,0.5,0.05c0.07,0,0.14-0.09,0.21-0.14c-0.06-0.06-0.1-0.14-0.17-0.17
			c-0.08-0.04-0.18-0.05-0.27-0.07c-0.17-0.05-0.26-0.15-0.25-0.32c0.01-0.17,0.11-0.28,0.31-0.3c0.15-0.02,0.3,0,0.45,0.02
			c0.04,0.01,0.07,0.09,0.12,0.16c-0.25,0.03-0.5-0.14-0.7,0.14c0.08,0.05,0.14,0.1,0.22,0.14c0.1,0.04,0.2,0.05,0.3,0.08
			c0.13,0.04,0.21,0.14,0.22,0.28c0.01,0.15-0.07,0.26-0.21,0.32c-0.22,0.09-0.44,0.06-0.65-0.01
			C79.85,84.12,79.84,84.02,79.82,83.95z"/>
		<path class="st8" d="M30.55,52.47c0.19,0.03,0.32,0.05,0.46,0.06c0.12,0.01,0.25-0.02,0.27-0.15c0.02-0.12-0.11-0.15-0.21-0.18
			c-0.1-0.03-0.22-0.03-0.3-0.09c-0.08-0.06-0.15-0.17-0.17-0.26c-0.03-0.13,0.05-0.27,0.18-0.29c0.2-0.03,0.41-0.01,0.62,0
			c0.02,0,0.04,0.09,0.06,0.15c-0.15-0.01-0.28-0.05-0.41-0.03c-0.09,0.01-0.16,0.09-0.24,0.14c0.06,0.05,0.12,0.13,0.19,0.16
			c0.1,0.05,0.23,0.05,0.33,0.1c0.24,0.12,0.24,0.4,0.02,0.55c-0.17,0.11-0.57,0.11-0.74,0C30.58,52.62,30.58,52.56,30.55,52.47z"/>
		<path class="st8" d="M25.85,51.15c-0.17,0.26-0.4,0.11-0.6,0.21c0,0.41,0,0.85,0,1.3c-0.1,0-0.17,0-0.25,0c0-0.44,0-0.87,0-1.27
			c-0.17-0.17-0.47,0.07-0.58-0.23C24.89,51.15,25.34,51.15,25.85,51.15z"/>
		<path class="st8" d="M75.1,82.61c-0.16,0.29-0.43,0.09-0.61,0.24c0,0.4,0,0.83,0,1.28c-0.09,0-0.15,0.01-0.25,0.01
			c0-0.46,0-0.9,0-1.31c-0.19-0.11-0.45,0.07-0.6-0.23C74.14,82.61,74.59,82.6,75.1,82.61z"/>
		<path class="st3" d="M72.86,71.53c0.01,0.09,0.03,0.17,0.03,0.26c0,1.12,0,2.24,0,3.35c0,0.09-0.02,0.17-0.03,0.26
			c-0.02-0.1-0.07-0.21-0.07-0.31c-0.01-1.08-0.01-2.17,0-3.25C72.79,71.74,72.84,71.63,72.86,71.53z"/>
		<path class="st8" d="M79.85,51.66c-0.44,0.06-0.5,0.12-0.51,0.53c0,0.12,0,0.25,0,0.37c0,0.11-0.06,0.13-0.18,0.11
			c0-0.37,0-0.74,0-1.09c0.18-0.02,0.34-0.05,0.5-0.07C79.75,51.5,79.86,51.49,79.85,51.66z"/>
		<path class="st3" d="M32.45,44.04c0.17-0.4,0.13-0.83,0.14-1.25c0.01-0.53,0.02-1.07,0.03-1.6c0.03,0.09,0.08,0.19,0.08,0.28
			c0.01,0.63,0.01,1.27,0,1.9C32.69,43.62,32.66,43.86,32.45,44.04z"/>
		<path class="st3" d="M72.99,75.57c0.67,0,1.35,0,2.02,0.02c0.12,0,0.23,0.05,0.35,0.08c-0.71,0.01-1.42,0.02-2.13,0.02
			C73.14,75.68,73.07,75.61,72.99,75.57z"/>
		<path class="st7" d="M77.19,71.29c0.38,0.02,0.49,0.13,0.49,0.48c0,0.08-0.01,0.15-0.01,0.23c-0.07,0-0.13,0-0.2,0
			c-0.03-0.01-0.05-0.03-0.08-0.04c-0.02-0.03-0.05-0.06-0.05-0.08C77.37,71.66,77.28,71.48,77.19,71.29z"/>
		<path class="st3" d="M30.75,44.64c0.08,0,0.16-0.01,0.24,0c0.33,0.03,0.66-0.02,0.97-0.13C31.6,44.82,31.15,44.86,30.75,44.64z"/>
		<path class="st5" d="M32.3,40.94c-0.58,0.01-1.16,0.01-1.74,0.02c-0.04-0.01-0.09-0.03-0.13-0.04
			C31.05,40.93,31.68,40.93,32.3,40.94z"/>
		<path class="st5" d="M28.42,40.49c0.08,0.01,0.17,0.01,0.25,0.02c-0.18,0.03-0.37,0.06-0.55,0.1c-0.01-0.04-0.01-0.07-0.02-0.11
			C28.2,40.49,28.31,40.49,28.42,40.49z"/>
		<path class="st5" d="M28.36,40.96c-0.07,0-0.14,0-0.22,0c0-0.02,0-0.04,0.01-0.06c0.16,0.01,0.31,0.02,0.47,0.03
			C28.53,40.94,28.45,40.95,28.36,40.96z"/>
		<path class="st3" d="M32.31,44.24c0.04-0.05,0.08-0.1,0.12-0.14C32.38,44.14,32.34,44.19,32.31,44.24z"/>
		<path class="st3" d="M32.02,44.48c0.05-0.04,0.1-0.07,0.15-0.11C32.12,44.41,32.07,44.45,32.02,44.48z"/>
		<path class="st3" d="M77.39,71.96c0.03,0.01,0.05,0.03,0.08,0.04c-0.02,0.01-0.05,0.01-0.07,0.02C77.4,72,77.39,71.98,77.39,71.96
			z"/>
		<path class="st9" d="M69.95,49.1c-0.06-1.35,0.17-2.61,0.82-3.8c0.79-1.45,1.98-2.49,3.56-3.14c0.27-0.11,0.54-0.21,0.81-0.3
			c0.08-0.02,0.19-0.01,0.26,0.03c1.31,0.59,2.61,0.59,3.92,0c0.08-0.03,0.19-0.05,0.27-0.03c1.1,0.37,2.13,0.87,2.98,1.66
			c1.22,1.13,1.93,2.51,2.15,4.11c0.06,0.48,0.07,0.97,0.1,1.45C84.53,49.15,70.45,49.18,69.95,49.1z"/>
		<path class="st10" d="M80.86,38.22c0.01,1.83-1.49,3.34-3.5,3.34c-2.01,0.01-3.52-1.5-3.51-3.33c0.01-1.76,1.45-3.34,3.51-3.34
			C79.49,34.91,80.84,36.56,80.86,38.22z"/>
		<path class="st11" d="M42.72,56.04c0-9.26,0-18.52,0-27.79c0-0.43,0.05-0.85,0.3-1.22c0.42-0.62,0.99-1.01,1.79-1.01
			c5.29-0.01,10.58,0,15.86-0.01c0.99,0,1.97,0.87,2.03,1.71c0.01,0.18,0.05,0.35,0.05,0.53c0,18.51,0,37.03,0,55.54
			c0,0.64-0.19,1.21-0.69,1.65c-0.39,0.34-0.82,0.52-1.36,0.52c-5.3-0.01-10.6-0.02-15.9,0.01c-0.94,0.01-1.86-0.75-2.02-1.55
			c-0.04-0.21-0.06-0.42-0.06-0.63C42.72,74.54,42.72,65.29,42.72,56.04z M45.74,50.26c0.13,0.02,0.27,0.06,0.4,0.06
			c2.54,0,5.07,0,7.61,0c0.12,0,0.23-0.01,0.35-0.02c0.12,0,0.24,0,0.37,0c0.07,0,0.13,0,0.2,0c0.31,0,0.61,0,0.92,0
			c0.05,0.01,0.09,0.02,0.14,0.02c1.24,0,2.49,0,3.73,0c0.28,0,0.55-0.08,0.78-0.26c0.72-0.31,1.07-0.88,1.12-1.59
			c0.05-0.74,0-1.48,0-2.23c0-1.05,0-2.1,0-3.15c0-1.25,0-2.5,0-3.75c0-1.26,0.05-2.52,0-3.78c-0.04-1.16-1.16-1.93-2.08-1.86
			c-0.19,0.01-0.37,0-0.56,0c-1.04,0-2.08,0.01-3.13,0.01c-0.13,0-0.26-0.01-0.38-0.01c-1.5,0-3.01,0-4.51,0
			c-0.24,0-0.49,0.01-0.73,0.01c-1.29,0-2.57-0.01-3.86-0.01c-0.44,0-0.82,0.14-1.15,0.41c-0.38,0.26-0.65,0.6-0.75,1.04
			c-0.06,0.26-0.09,0.52-0.09,0.79c-0.01,1,0.01,2,0.01,3c0,0.07-0.01,0.13-0.01,0.2c0,1.66,0,3.33,0,4.99
			c0,0.08,0.01,0.15,0.02,0.23c0,0.11-0.01,0.22-0.01,0.33c0,1.18,0,2.36,0,3.55c0,0.51,0.15,0.97,0.5,1.36
			C44.91,49.94,45.28,50.18,45.74,50.26z M61.36,74.64c0.01-0.11,0.02-0.22,0.02-0.33c0-2.33,0-4.66,0.01-6.99
			c0-0.29-0.06-0.57-0.15-0.85c-0.24-0.75-1.22-1.33-1.92-1.32c-2.45,0.02-4.9,0.01-7.35,0.01c-0.13,0-0.26,0.02-0.38,0.02
			c-0.03-0.01-0.07-0.02-0.1-0.02c-1.82,0-3.64-0.01-5.47,0.01c-0.54,0-0.97,0.26-1.32,0.64c-0.4,0.37-0.57,0.83-0.57,1.34
			c-0.01,1.96,0,3.92,0,5.88c0,0.09,0.01,0.18,0.02,0.27c-0.01,0.11-0.02,0.22-0.02,0.33c0,2.02,0,4.04,0,6.06
			c0,0.51,0.15,0.97,0.49,1.36c0.42,0.47,0.93,0.76,1.63,0.76c2.1-0.02,4.2-0.01,6.3-0.01c0.13,0,0.26-0.01,0.39-0.01
			c0.05,0,0.09,0.01,0.14,0.01c2.13,0,4.26,0.01,6.39,0c0.51,0,0.94-0.22,1.27-0.6c0.45-0.37,0.65-0.86,0.66-1.41
			c0.01-1.64,0-3.28,0-4.91C61.37,74.79,61.36,74.72,61.36,74.64z M52.72,62.39c0.27-0.5,0.68-1.71,0.67-1.97
			c-0.17-0.02-0.34-0.03-0.55-0.05c0-0.14,0-0.28,0-0.41c0-2.06,0-4.13,0-6.19c0-0.1,0.01-0.2-0.01-0.3
			c-0.01-0.05-0.05-0.09-0.08-0.14c-0.18,0.1-0.11,0.25-0.11,0.37c0,2.09,0,4.17,0,6.26c0,0.13,0,0.26,0,0.41
			c-0.22,0.02-0.39,0.04-0.62,0.07C52.26,61.1,52.48,61.72,52.72,62.39z M51.35,83.02c-0.23,0.02-0.24,0.02-0.28,0.15
			c-0.06,0.18-0.11,0.37-0.17,0.55c-0.12-0.2-0.18-0.38-0.23-0.57c-0.03-0.13-0.1-0.16-0.24-0.1c0.11,0.38,0.21,0.74,0.31,1.11
			c0.1-0.01,0.18-0.02,0.24-0.02c0.08-0.26,0.15-0.5,0.22-0.74c0.13,0.22,0.18,0.43,0.25,0.63c0.02,0.05,0.11,0.11,0.17,0.12
			c0.04,0.01,0.13-0.06,0.14-0.11c0.1-0.33,0.18-0.66,0.27-0.99c-0.17-0.08-0.21,0.01-0.24,0.11c-0.06,0.19-0.11,0.38-0.17,0.57
			c-0.02,0-0.04,0-0.06-0.01C51.5,83.5,51.43,83.27,51.35,83.02z M52.47,52.64c0.19,0.03,0.34,0.07,0.49,0.06
			c0.13,0,0.28-0.03,0.39-0.1c0.23-0.16,0.28-0.59,0.12-0.86c-0.14-0.24-0.32-0.28-0.69-0.17c-0.02,0.01-0.04,0-0.08,0
			c-0.01-0.16-0.02-0.33-0.04-0.48c-0.11-0.04-0.19-0.04-0.19,0.07C52.46,51.67,52.47,52.16,52.47,52.64z M44.25,28.23
			c0.25-0.02,0.48-0.02,0.69-0.05c0.35-0.06,0.5-0.22,0.53-0.56c0.01-0.1,0.01-0.2,0-0.3c-0.03-0.26-0.17-0.45-0.44-0.5
			c-0.25-0.05-0.51-0.05-0.78-0.08C44.25,27.24,44.25,27.7,44.25,28.23z M45.76,26.76c0,0.5,0,0.97,0,1.46
			c0.24-0.01,0.47,0,0.68-0.04c0.35-0.06,0.47-0.38,0.27-0.66c-0.03-0.04-0.08-0.08-0.13-0.12c0.13-0.14,0.21-0.29,0.11-0.46
			c-0.09-0.15-0.25-0.19-0.42-0.19C46.11,26.76,45.95,26.76,45.76,26.76z M53.78,84.11c0.18,0.03,0.33,0.04,0.47,0.07
			c0.16,0.03,0.3-0.01,0.42-0.11c0.21-0.19,0.25-0.61,0.08-0.87c-0.15-0.23-0.33-0.26-0.7-0.14c-0.02,0.01-0.04-0.01-0.06-0.01
			c-0.03-0.46-0.03-0.46-0.21-0.49C53.78,83.08,53.78,83.6,53.78,84.11z M53.35,83.61c0.01-0.42-0.11-0.59-0.43-0.63
			c-0.34-0.04-0.59,0.13-0.66,0.45c-0.08,0.36,0.09,0.66,0.43,0.72c0.17,0.03,0.37-0.01,0.55-0.04c0.04-0.01,0.07-0.09,0.12-0.15
			c-0.74,0.07-0.83,0.03-0.83-0.35C52.8,83.61,53.08,83.61,53.35,83.61z M48.96,26.98c-0.03-0.05-0.05-0.13-0.1-0.16
			c-0.41-0.25-0.98-0.04-1.09,0.41c-0.03,0.15-0.02,0.31,0,0.46c0.05,0.51,0.67,0.67,1.09,0.46c0.05-0.03,0.07-0.11,0.12-0.21
			c-0.48,0.21-0.72,0.2-0.89-0.01c-0.16-0.2-0.16-0.69,0-0.89C48.25,26.84,48.51,26.83,48.96,26.98z M53.74,27.67
			c0.02-0.3-0.02-0.44-0.17-0.53c-0.17-0.11-0.36-0.1-0.54-0.03c-0.26,0.11-0.37,0.45-0.27,0.76c0.12,0.36,0.63,0.5,0.95,0.26
			c0.01-0.01,0-0.04,0.01-0.08c-0.17,0.01-0.34,0.04-0.5,0.02c-0.18-0.02-0.23-0.13-0.23-0.4C53.23,27.67,53.48,27.67,53.74,27.67z
			 M50.44,27.1c0,0.25,0.01,0.47,0,0.69c-0.01,0.19-0.15,0.3-0.31,0.3c-0.15-0.01-0.22-0.1-0.23-0.32c-0.01-0.19,0-0.38-0.01-0.57
			c0-0.11-0.06-0.13-0.19-0.09c0,0.25-0.02,0.52,0.01,0.78c0.03,0.28,0.28,0.43,0.53,0.3c0.15-0.08,0.26,0.05,0.37-0.01
			c0.07-0.38,0.06-0.98-0.02-1.08C50.57,27.09,50.52,27.11,50.44,27.1z M51.77,27.22c-0.05-0.07-0.07-0.12-0.1-0.13
			c-0.11-0.02-0.23-0.03-0.35-0.03c-0.24,0.01-0.36,0.11-0.38,0.27c-0.02,0.17,0.06,0.27,0.29,0.35c0.1,0.03,0.2,0.06,0.28,0.12
			c0.11,0.08,0.08,0.22-0.05,0.26c-0.09,0.02-0.18,0.02-0.28,0.01c-0.08-0.01-0.16-0.03-0.29-0.05c0.18,0.2,0.44,0.26,0.65,0.18
			c0.14-0.05,0.24-0.14,0.24-0.3c0.01-0.16-0.07-0.28-0.23-0.33c-0.1-0.03-0.21-0.05-0.3-0.09c-0.05-0.02-0.11-0.1-0.1-0.14
			c0.01-0.05,0.08-0.11,0.13-0.12C51.42,27.21,51.56,27.22,51.77,27.22z M52.25,27.07c-0.03-0.1-0.05-0.19-0.08-0.28
			c-0.06,0.01-0.1,0.01-0.1,0.01c-0.01,0.16-0.25,0.29-0.08,0.49c0.05,0.06,0.01,0.17,0.02,0.26c0.01,0.13-0.01,0.27,0.02,0.4
			c0.05,0.25,0.3,0.32,0.57,0.15c-0.13-0.04-0.25-0.07-0.37-0.11c0-0.25,0-0.49,0-0.73c0.13-0.03,0.24-0.06,0.36-0.08
			c0-0.02,0-0.04,0-0.07C52.49,27.11,52.38,27.09,52.25,27.07z M51.85,52.65c0.03,0.02,0.05,0.03,0.08,0.05
			c0.04-0.05,0.12-0.09,0.12-0.14c0.01-0.46,0.01-0.91,0-1.37c0-0.13-0.07-0.15-0.2-0.09C51.85,51.61,51.85,52.13,51.85,52.65z
			 M49.33,28.24c0.1-0.25,0.11-1.16,0.03-1.54c-0.1-0.02-0.15,0.01-0.15,0.12c0,0.42,0,0.85,0,1.27
			C49.22,28.13,49.28,28.18,49.33,28.24z M54.75,27.15c-0.23-0.2-0.46,0.1-0.67-0.07c0,0.39,0,0.74,0,1.09
			c0,0.01,0.07,0.03,0.1,0.04c0.03-0.03,0.05-0.05,0.05-0.07c0.01-0.11,0.01-0.22,0.01-0.33C54.26,27.3,54.26,27.3,54.75,27.15z"/>
		<path class="st12" d="M25.55,43.36c0-0.74,0-1.43,0-2.17c-0.29,0-0.54,0-0.82,0c0-0.2,0-0.36,0-0.53c0.74,0,1.47,0,2.22,0
			c0,0.16,0,0.32,0,0.51c-0.26,0.01-0.51,0.02-0.8,0.04c-0.01,0.72-0.01,1.43-0.02,2.14c-0.11,0.01-0.18,0.03-0.24,0.03
			C25.79,43.38,25.7,43.37,25.55,43.36z"/>
		<path class="st7" d="M28.42,40.49c-0.11,0-0.22,0.01-0.32,0.01c0.01-0.24-0.03-0.47-0.15-0.68
			C28.39,39.88,28.45,39.97,28.42,40.49z"/>
		<path class="st12" d="M74.81,74.82c0-0.72,0-1.42,0-2.17c-0.3,0-0.55,0-0.83,0c0-0.19,0-0.34,0-0.49
			c0.24-0.07,1.71-0.09,2.22-0.03c0,0.16,0,0.31,0,0.51c-0.28,0-0.53,0-0.82,0c0,0.75,0,1.45,0,2.17c-0.12,0.01-0.21,0.02-0.29,0.02
			C75.02,74.84,74.94,74.83,74.81,74.82z"/>
		<path class="st12" d="M-0.18,3.31c0.05-0.17,0.08-0.32,0.15-0.46c0.21-0.37,0.7-0.38,0.95-0.04c0.2,0.27,0.19,0.78,0,1.05
			C0.68,4.19,0.16,4.17-0.03,3.81C-0.11,3.65-0.13,3.47-0.18,3.31z"/>
		<path class="st12" d="M15.86,3.34c0.05-0.18,0.08-0.35,0.15-0.5c0.1-0.2,0.28-0.29,0.52-0.28c0.22,0.01,0.38,0.11,0.47,0.29
			c0.15,0.31,0.15,0.63,0,0.94c-0.18,0.37-0.72,0.41-0.95,0.07C15.95,3.71,15.92,3.52,15.86,3.34z"/>
		<path class="st12" d="M-2.43,3.29c0.06-0.16,0.08-0.33,0.17-0.47c0.2-0.34,0.7-0.34,0.94-0.03c0.2,0.27,0.2,0.8,0,1.07
			C-1.58,4.19-2.1,4.17-2.28,3.8C-2.36,3.65-2.38,3.47-2.43,3.29z"/>
		<path class="st12" d="M27.79,52.13c-0.03,0.29-0.12,0.4-0.32,0.4c-0.13,0-0.23-0.04-0.25-0.18c-0.02-0.13,0.06-0.21,0.2-0.22
			C27.54,52.13,27.67,52.13,27.79,52.13z"/>
		<path class="st12" d="M77.04,83.59c-0.02,0.32-0.16,0.46-0.38,0.42c-0.12-0.02-0.21-0.09-0.18-0.2c0.01-0.07,0.09-0.16,0.16-0.18
			C76.75,83.59,76.88,83.6,77.04,83.59z"/>
		<path class="st11" d="M75.07,83.42c0.04-0.2,0.17-0.27,0.35-0.27c0.17,0,0.28,0.07,0.33,0.27C75.51,83.42,75.3,83.42,75.07,83.42z
			"/>
		<path class="st11" d="M26.49,51.96c-0.23,0-0.44,0-0.66,0c0-0.19,0.13-0.26,0.29-0.28C26.3,51.66,26.44,51.72,26.49,51.96z"/>
		<path class="st11" d="M78.51,51.97c-0.2,0-0.39,0-0.59,0c0.04-0.21,0.13-0.3,0.32-0.29C78.43,51.68,78.49,51.75,78.51,51.97z"/>
		<path class="st13" d="M44.13,73.3c-0.01-0.09-0.02-0.18-0.02-0.27c0-1.96,0-3.92,0-5.88c0-0.51,0.17-0.98,0.57-1.34
			c0.03,0.04,0.05,0.08,0.08,0.11c0.88,0.86,1.75,1.72,2.64,2.58c0.7,0.67,1.4,1.34,2.1,2.01c0.09,0.09,0.17,0.18,0.25,0.28
			c-0.04,0.09-0.08,0.17-0.12,0.28c-0.2,0-0.39,0-0.56,0c0,0.16,0,0.28,0,0.44c0.23,0,0.44,0,0.64,0c0,0.23,0,0.42,0,0.62
			c-0.23,0.01-0.44,0.02-0.64,0.03c0,0.16,0,0.28,0,0.44c0.23,0,0.44,0,0.65,0c0,0.24,0,0.44,0,0.65c-0.23,0.01-0.44,0.02-0.65,0.03
			c0,0.15,0,0.28,0,0.45c0.24,0,0.45,0,0.65,0c0,0.24,0,0.43,0,0.66c-0.23,0-0.44,0-0.65,0c0,0.15,0,0.27,0,0.4
			c0.23,0.01,0.43,0.02,0.65,0.03c0,0.22,0,0.43,0,0.66c-0.23,0-0.44,0-0.64,0c0,0.17,0,0.31,0,0.46c0.22,0,0.42,0,0.55,0
			c0.21,0.2,0.38,0.36,0.59,0.57c0,0.12,0,0.31,0,0.51c0.16,0,0.29,0,0.44,0c0.01-0.22,0.02-0.41,0.03-0.61c0.24,0,0.45,0,0.66,0
			c0.01,0.22,0.02,0.42,0.03,0.63c0.16-0.01,0.29-0.01,0.43-0.02c0.01-0.22,0.03-0.42,0.04-0.62c0.23,0,0.43,0,0.67,0
			c0,0.22,0,0.41,0,0.61c0.17,0,0.3,0,0.45,0c0.01-0.22,0.02-0.42,0.03-0.63c0.14,0,0.24,0,0.34,0c0.1,0,0.2,0.01,0.32,0.02
			c0,0.13,0,0.23,0,0.33c0,0.1,0.02,0.19,0.02,0.28c0.16,0,0.28,0,0.42,0c0.01-0.21,0.02-0.41,0.03-0.61c0.24,0,0.45,0,0.66,0
			c0.01,0.22,0.02,0.42,0.03,0.61c0.16,0,0.29,0,0.43,0c0.01-0.22,0.02-0.41,0.03-0.61c0.11-0.05,0.2-0.1,0.29-0.14
			c0.04,0.07,0.07,0.16,0.12,0.22c0.34,0.33,0.7,0.65,1.04,0.99c0.39,0.38,0.76,0.78,1.15,1.16c0.81,0.78,1.62,1.55,2.44,2.32
			c0.11,0.1,0.24,0.17,0.36,0.26c-0.33,0.38-0.76,0.6-1.27,0.6c-2.13,0.01-4.26,0-6.39,0c-0.05,0-0.09-0.01-0.14-0.01
			c0.02-0.16-0.05-0.27-0.17-0.38c-0.34-0.32-0.67-0.64-1.01-0.96c-0.3-0.29-0.61-0.57-0.91-0.87c-0.16-0.17-0.41-0.27-0.45-0.53
			c0.78-0.01,1.57-0.01,2.35-0.02c0.11,0,0.21,0,0.32-0.01c0.21-0.03,0.36-0.15,0.37-0.35c0.02-0.4,0-0.79,0-1.19
			c-0.17,0-0.31,0-0.47,0c0,0.35,0,0.68,0,1.03c-1.84,0-3.65,0-5.46,0c0-1.76,0-3.49,0-5.27c0.38,0,0.73,0,1.09,0
			c0-0.17,0-0.3,0-0.46c-0.42,0-0.81-0.01-1.21,0.01c-0.21,0.01-0.34,0.17-0.38,0.38c-0.02,0.1-0.01,0.2-0.01,0.3
			c-0.01,0.75-0.01,1.49-0.02,2.24c-0.12-0.08-0.26-0.14-0.37-0.24c-0.25-0.23-0.49-0.47-0.73-0.7c-0.39-0.38-0.78-0.76-1.18-1.12
			C44.52,73.51,44.4,73.29,44.13,73.3z"/>
		<path class="st14" d="M60.71,81.2c-0.12-0.09-0.26-0.16-0.36-0.26c-0.82-0.77-1.63-1.54-2.44-2.32c-0.39-0.38-0.76-0.78-1.15-1.16
			c-0.34-0.33-0.7-0.66-1.04-0.99c-0.06-0.06-0.08-0.14-0.12-0.22c0.06-0.11,0.13-0.21,0.2-0.34c0.19,0,0.4,0,0.61,0
			c0-0.17,0-0.3,0-0.45c-0.23-0.01-0.44-0.02-0.65-0.03c0-0.22,0-0.41,0-0.62c0.23-0.01,0.45-0.03,0.66-0.04c0-0.15,0-0.26,0-0.39
			c-0.23-0.01-0.43-0.02-0.66-0.03c0-0.22,0-0.41,0-0.65c0.23,0,0.45,0,0.65,0c0-0.17,0-0.3,0-0.46c-0.23,0-0.44,0-0.64,0
			c0-0.24,0-0.44,0-0.68c0.23,0,0.44,0,0.65,0c0-0.16,0-0.28,0-0.44c-0.23,0-0.43,0-0.65,0c0-0.23,0-0.42,0-0.65
			c0.23,0,0.44,0,0.65,0c0-0.16,0-0.29,0-0.44c-0.23,0-0.44,0-0.55,0c-0.22-0.21-0.37-0.36-0.59-0.57c0-0.13,0-0.34,0-0.54
			c-0.17,0-0.3,0-0.47,0c0,0.23,0,0.44,0,0.65c-0.24,0-0.44,0-0.66,0c-0.01-0.23-0.02-0.44-0.03-0.65c-0.16,0-0.29,0-0.46,0
			c0,0.23,0,0.44,0,0.66c-0.23,0-0.43,0-0.65,0c-0.01-0.23-0.02-0.45-0.03-0.66c-0.17,0-0.3,0-0.47,0c0,0.23,0,0.44,0,0.65
			c-0.23,0-0.42,0-0.64,0c-0.02-0.23-0.03-0.45-0.05-0.66c-0.16,0-0.28,0-0.43,0c-0.01,0.22-0.02,0.43-0.03,0.66
			c-0.22,0-0.43,0-0.68,0c0-0.22,0-0.44,0-0.66c-0.17,0-0.3,0-0.45,0c-0.01,0.23-0.02,0.45-0.03,0.66
			c-0.16,0.08-0.29,0.14-0.42,0.21c-0.08-0.09-0.16-0.19-0.25-0.28c-0.7-0.67-1.41-1.33-2.1-2.01c-0.88-0.85-1.76-1.72-2.64-2.58
			c-0.03-0.03-0.06-0.07-0.08-0.11c0.35-0.38,0.78-0.64,1.32-0.64c1.82-0.02,3.64-0.01,5.47-0.01c0.03,0,0.07,0.01,0.1,0.02
			c-0.03,0.17,0.08,0.27,0.19,0.37c0.65,0.61,1.29,1.23,1.94,1.85c0.16,0.15,0.32,0.3,0.33,0.53c-0.52,0-1.03,0.01-1.55,0.02
			c-0.25,0-0.4,0.09-0.43,0.3c-0.06,0.4-0.03,0.81-0.02,1.21c0.19,0,0.32,0,0.46,0c0.05-0.36-0.02-0.71,0.04-1.03
			c0.69-0.07,5.19-0.04,5.44,0.03c0,1.74,0,3.47,0,5.25c-0.37,0-0.73,0-1.11,0c0.01,0.16,0.01,0.28,0.02,0.43c0.36,0,0.68,0,1.01,0
			c0.45,0,0.57-0.13,0.58-0.57c0-0.47,0.01-0.94,0.02-1.41c0.11,0.06,0.23,0.1,0.32,0.18c0.31,0.29,0.6,0.59,0.9,0.89
			c0.38,0.37,0.76,0.74,1.15,1.09c0.14,0.13,0.32,0.21,0.47,0.32c0.01,0.08,0.02,0.16,0.02,0.23c0,1.64,0.01,3.28,0,4.91
			C61.36,80.34,61.17,80.82,60.71,81.2z"/>
		<path class="st15" d="M44.13,44.37c-0.01-0.08-0.02-0.15-0.02-0.23c0-1.66,0-3.33,0-4.99c0-0.07,0.01-0.13,0.01-0.2
			c0.22-0.03,0.38,0.03,0.49,0.23c0.04,0.08,0.13,0.13,0.19,0.19c0.68,0.65,1.36,1.29,2.03,1.94c0.1,0.09,0.18,0.2,0.27,0.3
			c-0.05,0.6,0.02,1.18,0.29,1.73c0.48,0.96,1.25,1.59,2.35,1.86c0.04,0.01,0.07,0.02,0.11,0.03c0.06,0.01,0.11,0.01,0.17,0.02
			c0.13,0.02,0.27,0.05,0.4,0.06c0.11,0.01,0.19,0.04,0.27,0.12c1.49,1.46,2.99,2.91,4.49,4.36c0.09,0.09,0.19,0.17,0.27,0.26
			c0.06,0.07,0.09,0.17,0.13,0.26c-0.31,0-0.61,0-0.92,0c-0.07,0-0.13,0-0.2,0c-0.12,0-0.24,0-0.37,0
			c-0.12-0.01-0.25-0.04-0.37-0.04c-1.14,0-2.28,0-3.42-0.01c0.03-0.19-0.12-0.28-0.23-0.39c-1.73-1.65-3.46-3.29-5.18-4.94
			c-0.1-0.09-0.2-0.19-0.28-0.3C44.5,44.47,44.35,44.37,44.13,44.37z"/>
		<path class="st16" d="M54.04,67.92c-0.02-0.23-0.18-0.38-0.33-0.53c-0.64-0.62-1.29-1.23-1.94-1.85c-0.11-0.1-0.22-0.2-0.19-0.37
			c0.13-0.01,0.26-0.02,0.38-0.02c2.45,0,4.9,0.01,7.35-0.01c0.7-0.01,1.68,0.57,1.92,1.32c0.09,0.28,0.15,0.55,0.15,0.85
			c-0.01,2.33-0.01,4.66-0.01,6.99c0,0.11-0.01,0.22-0.02,0.33c-0.16-0.11-0.34-0.19-0.47-0.32c-0.39-0.36-0.77-0.73-1.15-1.09
			c-0.3-0.29-0.59-0.6-0.9-0.89c-0.08-0.08-0.21-0.12-0.32-0.18c-0.01-0.12-0.02-0.24-0.02-0.37c0-1.1,0-2.21,0-3.31
			c0-0.43-0.13-0.55-0.59-0.55c-0.34,0-0.68,0-1.02,0C55.94,67.93,54.99,67.92,54.04,67.92z"/>
		<path class="st17" d="M44.13,73.3c0.27-0.01,0.4,0.21,0.56,0.35c0.4,0.36,0.79,0.74,1.18,1.12c0.25,0.23,0.48,0.48,0.73,0.7
			c0.11,0.09,0.24,0.16,0.37,0.24c0.01,0.87,0.03,1.74,0.01,2.6c-0.01,0.59,0.12,0.74,0.78,0.72c0.88-0.02,1.75,0.01,2.63,0.01
			c0.04,0.26,0.29,0.37,0.45,0.53c0.29,0.3,0.6,0.58,0.91,0.87c0.34,0.32,0.67,0.64,1.01,0.96c0.12,0.11,0.19,0.22,0.17,0.38
			c-0.13,0-0.26,0.01-0.39,0.01c-2.1,0-4.2-0.01-6.3,0.01c-0.7,0.01-1.21-0.29-1.63-0.76c-0.35-0.38-0.49-0.85-0.49-1.36
			c0-2.02,0-4.04,0-6.06C44.11,73.52,44.12,73.41,44.13,73.3z"/>
		<path class="st18" d="M61.36,39.35c0,1.25,0,2.5,0,3.75c-0.1-0.07-0.22-0.12-0.31-0.2c-1.24-1.17-2.48-2.35-3.71-3.53
			c-0.08-0.08-0.14-0.17-0.21-0.26c0.14-0.12,0.29-0.23,0.41-0.36c0.48-0.52,0.48-1.27,0.01-1.81c-0.44-0.5-1.23-0.62-1.84-0.28
			c-0.61,0.34-0.86,1.03-0.61,1.68c0.03,0.08,0.06,0.16,0.1,0.26c-0.08,0.06-0.15,0.11-0.23,0.17c-0.03-0.06-0.04-0.13-0.08-0.18
			c-0.05-0.06-0.11-0.11-0.17-0.17c-1.52-1.47-3.05-2.95-4.57-4.42c-0.08-0.08-0.13-0.18-0.19-0.27c0.24,0,0.49-0.01,0.73-0.01
			c1.5,0,3.01,0,4.51,0c0.13,0,0.26,0.01,0.38,0.01c-0.03,0.19,0.12,0.28,0.24,0.39c1.55,1.48,3.11,2.96,4.66,4.44
			c0.21,0.2,0.38,0.42,0.59,0.61C61.15,39.24,61.26,39.29,61.36,39.35z"/>
		<path class="st19" d="M49.96,33.73c0.06,0.09,0.11,0.19,0.19,0.27c1.52,1.48,3.05,2.95,4.57,4.42c0.06,0.06,0.12,0.11,0.17,0.17
			c0.04,0.05,0.05,0.12,0.08,0.18c-0.53,0.52-1.12,0.96-1.71,1.42c-0.08-0.09-0.13-0.15-0.18-0.21c-0.49-0.55-1.1-0.93-1.82-1.12
			c-0.47-0.12-0.95-0.09-1.43-0.04c-0.08-0.13-0.14-0.29-0.24-0.39c-1.44-1.38-2.89-2.76-4.34-4.13c-0.08-0.07-0.19-0.11-0.29-0.17
			c0.33-0.26,0.71-0.41,1.15-0.41C47.39,33.72,48.68,33.72,49.96,33.73z"/>
		<path class="st20" d="M61.36,46.25c0,0.74,0.05,1.49,0,2.23c-0.05,0.71-0.4,1.28-1.12,1.59c-0.06-0.09-0.11-0.2-0.18-0.27
			c-0.8-0.77-1.61-1.54-2.42-2.3c-0.09-0.08-0.21-0.13-0.32-0.19c0.06-0.06,0.12-0.11,0.17-0.17c0.49-0.5,0.54-1.23,0.11-1.78
			c-0.41-0.53-1.15-0.69-1.79-0.4c-0.08,0.04-0.17,0.08-0.27,0.12c-0.68-0.56-1.36-1.11-2.01-1.65c0.12-0.42,0.22-0.78,0.32-1.16
			c0.54,0,1.07,0,1.61,0c0.06,0.13,0.11,0.26,0.17,0.37c0.27,0.51,0.71,0.75,1.3,0.77c0.39,0.01,0.72-0.13,1.01-0.37
			c0.25,0.26,0.5,0.53,0.75,0.78c0.73,0.71,1.47,1.43,2.21,2.13C61.04,46.07,61.21,46.15,61.36,46.25z"/>
		<path class="st21" d="M57.31,47.3c0.11,0.06,0.23,0.11,0.32,0.19c0.81,0.76,1.62,1.53,2.42,2.3c0.08,0.07,0.12,0.18,0.18,0.27
			c-0.23,0.18-0.5,0.25-0.78,0.26c-1.24,0.01-2.49,0-3.73,0c-0.05,0-0.09-0.01-0.14-0.02c-0.04-0.09-0.07-0.18-0.13-0.26
			c-0.08-0.1-0.18-0.18-0.27-0.26c-1.5-1.45-3-2.9-4.49-4.36c-0.08-0.08-0.16-0.11-0.27-0.12c-0.13-0.01-0.27-0.04-0.4-0.06
			c0.15,0,0.3,0,0.45,0c0.68-0.01,1.33-0.13,1.87-0.58c0.16-0.13,0.32-0.24,0.49-0.36c0.15,0.08,0.32,0.14,0.44,0.25
			c0.46,0.42,0.91,0.86,1.37,1.29c0.09,0.09,0.23,0.14,0.34,0.21c0.01,0.45,0.07,0.87,0.5,1.15c0.02,0.01,0.03,0.03,0.04,0.05
			c0.02,0.02,0.04,0.04,0.06,0.06c0.3,0.19,0.64,0.32,1,0.25C56.84,47.53,57.07,47.39,57.31,47.3z"/>
		<path class="st22" d="M44.95,34.12c0.1,0.06,0.21,0.1,0.29,0.17c1.45,1.37,2.9,2.75,4.34,4.13c0.11,0.1,0.16,0.26,0.24,0.39
			c-0.04,0.01-0.09,0.03-0.13,0.04c-1.09,0.28-1.85,0.93-2.31,1.9c-0.13,0.27-0.18,0.57-0.27,0.86c-0.09-0.1-0.17-0.21-0.27-0.3
			c-0.68-0.65-1.36-1.29-2.03-1.94c-0.07-0.06-0.15-0.12-0.19-0.19c-0.11-0.2-0.27-0.26-0.49-0.23c0-1-0.02-2-0.01-3
			c0-0.26,0.03-0.53,0.09-0.79C44.3,34.72,44.58,34.38,44.95,34.12z"/>
		<path class="st23" d="M44.13,44.37c0.22,0,0.37,0.1,0.49,0.27c0.08,0.11,0.18,0.2,0.28,0.3c1.73,1.65,3.46,3.29,5.18,4.94
			c0.11,0.11,0.26,0.2,0.23,0.39c-1.52,0-3.05,0-4.57,0.01c-0.47-0.08-0.84-0.32-1.14-0.66c-0.34-0.39-0.5-0.85-0.5-1.36
			c0-1.18,0-2.36,0-3.55C44.11,44.59,44.12,44.48,44.13,44.37z"/>
		<path class="st24" d="M61.36,39.35c-0.09-0.06-0.2-0.1-0.28-0.18c-0.2-0.2-0.38-0.42-0.59-0.61c-1.55-1.48-3.11-2.96-4.66-4.44
			c-0.11-0.11-0.26-0.2-0.24-0.39c1.04,0,2.08-0.01,3.13-0.01c0.19,0,0.38,0.01,0.56,0c0.92-0.07,2.04,0.69,2.08,1.86
			C61.4,36.83,61.36,38.09,61.36,39.35z"/>
		<path class="st25" d="M61.36,46.25c-0.15-0.1-0.32-0.18-0.45-0.3c-0.74-0.71-1.48-1.42-2.21-2.13c-0.26-0.25-0.5-0.52-0.75-0.78
			c0.07-0.09,0.14-0.18,0.2-0.27c0.54-0.85,0.07-1.91-0.94-2.12c-0.4-0.08-0.76,0.02-1.11,0.2c-0.07-0.1-0.11-0.22-0.2-0.3
			c-0.34-0.33-0.69-0.65-1.03-0.98c0.23-0.21,0.46-0.42,0.68-0.62c0.38,0.23,0.56,0.32,0.84,0.3c0.25-0.02,0.5-0.09,0.74-0.14
			c0.07,0.09,0.13,0.18,0.21,0.26c1.24,1.18,2.47,2.36,3.71,3.53c0.09,0.08,0.2,0.13,0.31,0.2C61.36,44.15,61.36,45.2,61.36,46.25z"
			/>
		<path class="st5" d="M52.72,62.39c-0.24-0.68-0.46-1.29-0.7-1.96c0.23-0.02,0.4-0.04,0.62-0.07c0-0.14,0-0.28,0-0.41
			c0-2.09,0-4.17,0-6.26c0-0.12-0.07-0.27,0.11-0.37c0.03,0.05,0.07,0.09,0.08,0.14c0.01,0.1,0.01,0.2,0.01,0.3
			c0,2.06,0,4.13,0,6.19c0,0.13,0,0.26,0,0.41c0.21,0.02,0.38,0.04,0.55,0.05C53.39,60.68,52.99,61.89,52.72,62.39z"/>
		<path class="st8" d="M51.35,83.02c0.08,0.25,0.15,0.48,0.22,0.71c0.02,0,0.04,0,0.06,0.01c0.06-0.19,0.11-0.38,0.17-0.57
			c0.03-0.1,0.07-0.2,0.24-0.11c-0.09,0.33-0.17,0.66-0.27,0.99c-0.01,0.05-0.1,0.11-0.14,0.11c-0.06-0.01-0.15-0.06-0.17-0.12
			c-0.07-0.21-0.12-0.42-0.25-0.63c-0.07,0.24-0.15,0.48-0.22,0.74c-0.07,0.01-0.15,0.01-0.24,0.02c-0.1-0.37-0.21-0.74-0.31-1.11
			c0.14-0.06,0.21-0.03,0.24,0.1c0.05,0.19,0.11,0.38,0.23,0.57c0.06-0.18,0.11-0.37,0.17-0.55C51.12,83.04,51.12,83.04,51.35,83.02
			z"/>
		<path class="st8" d="M52.47,52.64c0-0.47,0-0.97,0-1.47c0-0.12,0.08-0.12,0.19-0.07c0.01,0.16,0.02,0.32,0.04,0.48
			c0.04,0,0.06,0.01,0.08,0c0.38-0.11,0.55-0.07,0.69,0.17c0.16,0.27,0.11,0.7-0.12,0.86c-0.1,0.07-0.26,0.09-0.39,0.1
			C52.81,52.71,52.65,52.67,52.47,52.64z M52.68,52.1c0.01,0.06,0.01,0.11,0.02,0.17c0.04,0.17,0.15,0.27,0.3,0.27
			c0.18,0,0.28-0.11,0.31-0.26c0.02-0.13,0.01-0.27-0.02-0.39c-0.04-0.14-0.16-0.22-0.32-0.21c-0.14,0.01-0.23,0.1-0.27,0.23
			C52.69,51.97,52.69,52.04,52.68,52.1z"/>
		<path class="st8" d="M44.25,28.23c0-0.52,0-0.98,0-1.49c0.28,0.02,0.53,0.03,0.78,0.08c0.27,0.05,0.41,0.24,0.44,0.5
			c0.01,0.1,0.01,0.2,0,0.3c-0.03,0.34-0.18,0.51-0.53,0.56C44.72,28.21,44.5,28.21,44.25,28.23z M44.46,26.92c0,0.39,0,0.76,0,1.12
			c0.58,0.06,0.78-0.08,0.8-0.54C45.27,27.03,45.08,26.88,44.46,26.92z"/>
		<path class="st8" d="M45.76,26.76c0.19,0,0.35,0,0.51,0c0.17,0,0.34,0.03,0.42,0.19c0.1,0.17,0.02,0.32-0.11,0.46
			c0.05,0.04,0.1,0.07,0.13,0.12c0.2,0.28,0.08,0.6-0.27,0.66c-0.21,0.04-0.44,0.02-0.68,0.04C45.76,27.72,45.76,27.26,45.76,26.76z
			 M45.97,28.06c0.23,0,0.45,0.07,0.57-0.13c0.05-0.09,0.04-0.26-0.01-0.34c-0.13-0.18-0.35-0.1-0.55-0.1
			C45.97,27.68,45.97,27.85,45.97,28.06z M45.97,27.33c0.21-0.02,0.4,0.05,0.52-0.11c0.04-0.05,0.03-0.17,0-0.22
			c-0.14-0.17-0.33-0.1-0.52-0.09C45.97,27.06,45.97,27.17,45.97,27.33z"/>
		<path class="st8" d="M53.78,84.11c0-0.51,0-1.03,0-1.55c0.18,0.03,0.18,0.03,0.21,0.49c0.02,0.01,0.05,0.02,0.06,0.01
			c0.37-0.12,0.56-0.09,0.7,0.14c0.17,0.25,0.13,0.68-0.08,0.87c-0.12,0.11-0.26,0.14-0.42,0.11
			C54.11,84.15,53.96,84.14,53.78,84.11z M54.65,83.59c-0.01-0.06-0.02-0.12-0.03-0.17c-0.05-0.17-0.16-0.27-0.31-0.26
			c-0.16,0.01-0.27,0.1-0.29,0.24c-0.02,0.14-0.02,0.28,0.02,0.42c0.03,0.13,0.14,0.2,0.29,0.2c0.15,0,0.24-0.08,0.28-0.2
			C54.62,83.73,54.63,83.66,54.65,83.59z"/>
		<path class="st8" d="M53.35,83.61c-0.27,0-0.55,0-0.82,0c-0.01,0.38,0.08,0.42,0.83,0.35c-0.05,0.07-0.08,0.15-0.12,0.15
			c-0.18,0.03-0.37,0.07-0.55,0.04c-0.34-0.06-0.51-0.36-0.43-0.72c0.07-0.32,0.32-0.5,0.66-0.45
			C53.24,83.02,53.36,83.2,53.35,83.61z M53.16,83.44c-0.04-0.25-0.18-0.31-0.36-0.3c-0.17,0.01-0.3,0.09-0.32,0.3
			C52.71,83.44,52.92,83.44,53.16,83.44z"/>
		<path class="st8" d="M48.96,26.98c-0.44-0.15-0.7-0.14-0.87,0.06c-0.16,0.2-0.16,0.69,0,0.89c0.17,0.21,0.41,0.22,0.89,0.01
			c-0.06,0.1-0.07,0.19-0.12,0.21c-0.42,0.21-1.03,0.06-1.09-0.46c-0.02-0.15-0.03-0.31,0-0.46c0.11-0.45,0.68-0.66,1.09-0.41
			C48.9,26.85,48.92,26.92,48.96,26.98z"/>
		<path class="st8" d="M53.74,27.67c-0.25,0-0.5,0-0.76,0c0,0.27,0.06,0.38,0.23,0.4c0.16,0.02,0.33-0.01,0.5-0.02
			c0,0.04,0,0.07-0.01,0.08c-0.32,0.24-0.83,0.1-0.95-0.26c-0.1-0.31,0.01-0.65,0.27-0.76c0.18-0.08,0.37-0.08,0.54,0.03
			C53.71,27.24,53.76,27.38,53.74,27.67z M53.56,27.51c-0.02-0.22-0.12-0.3-0.3-0.3c-0.19,0-0.28,0.1-0.31,0.3
			C53.16,27.51,53.35,27.51,53.56,27.51z"/>
		<path class="st8" d="M50.44,27.1c0.08,0,0.13-0.01,0.14,0.01c0.08,0.1,0.09,0.7,0.02,1.08c-0.11,0.06-0.22-0.07-0.37,0.01
			c-0.25,0.13-0.5-0.02-0.53-0.3c-0.03-0.26-0.01-0.53-0.01-0.78c0.12-0.04,0.19-0.02,0.19,0.09c0,0.19,0,0.38,0.01,0.57
			c0.01,0.22,0.08,0.31,0.23,0.32c0.16,0.01,0.3-0.11,0.31-0.3C50.45,27.57,50.44,27.35,50.44,27.1z"/>
		<path class="st8" d="M51.77,27.22c-0.2,0-0.34-0.01-0.48,0.01c-0.05,0.01-0.13,0.07-0.13,0.12c-0.01,0.05,0.05,0.12,0.1,0.14
			c0.09,0.04,0.2,0.06,0.3,0.09c0.16,0.06,0.24,0.17,0.23,0.33c-0.01,0.15-0.1,0.24-0.24,0.3c-0.21,0.08-0.47,0.02-0.65-0.18
			c0.13,0.02,0.21,0.05,0.29,0.05c0.09,0.01,0.19,0.01,0.28-0.01c0.14-0.04,0.17-0.17,0.05-0.26c-0.08-0.06-0.18-0.09-0.28-0.12
			c-0.24-0.08-0.32-0.18-0.29-0.35c0.02-0.17,0.14-0.26,0.38-0.27c0.11-0.01,0.23,0.01,0.35,0.03C51.7,27.1,51.72,27.15,51.77,27.22
			z"/>
		<path class="st21" d="M45.74,50.26c1.52,0,3.05,0,4.57-0.01c1.14,0,2.28,0,3.42,0.01c0.12,0,0.25,0.03,0.37,0.04
			c-0.12,0.01-0.23,0.02-0.35,0.02c-2.54,0-5.07,0-7.61,0C46.01,50.32,45.88,50.28,45.74,50.26z"/>
		<path class="st8" d="M52.25,27.07c0.13,0.02,0.23,0.03,0.34,0.05c0,0.02,0,0.04,0,0.07c-0.11,0.03-0.23,0.05-0.36,0.08
			c0,0.24,0,0.48,0,0.73c0.12,0.04,0.24,0.07,0.37,0.11c-0.27,0.17-0.52,0.1-0.57-0.15c-0.03-0.13-0.01-0.27-0.02-0.4
			c0-0.09,0.03-0.21-0.02-0.26c-0.17-0.2,0.06-0.33,0.08-0.49c0,0,0.04-0.01,0.1-0.01C52.2,26.88,52.23,26.97,52.25,27.07z"/>
		<path class="st8" d="M51.85,52.65c0-0.52,0-1.04,0-1.55c0.12-0.06,0.2-0.03,0.2,0.09c0,0.46,0.01,0.91,0,1.37
			c0,0.05-0.08,0.09-0.12,0.14C51.9,52.69,51.88,52.67,51.85,52.65z"/>
		<path class="st8" d="M49.33,28.24c-0.05-0.06-0.11-0.11-0.11-0.15c-0.01-0.42,0-0.85,0-1.27c0-0.1,0.05-0.14,0.15-0.12
			C49.44,27.08,49.43,27.99,49.33,28.24z"/>
		<path class="st8" d="M54.75,27.15c-0.49,0.15-0.49,0.15-0.49,0.66c0,0.11-0.01,0.22-0.01,0.33c0,0.02-0.03,0.03-0.05,0.07
			c-0.03-0.01-0.1-0.02-0.1-0.04c-0.01-0.35,0-0.7,0-1.09C54.3,27.25,54.53,26.95,54.75,27.15z"/>
		<path class="st21" d="M54.47,50.31c0.07,0,0.13,0,0.2,0C54.6,50.31,54.54,50.31,54.47,50.31z"/>
		<path class="st26" d="M49.76,70.77c0.13-0.07,0.27-0.13,0.42-0.21c0.01-0.21,0.02-0.43,0.03-0.66c0.15,0,0.28,0,0.45,0
			c0,0.22,0,0.44,0,0.66c0.25,0,0.46,0,0.68,0c0.01-0.23,0.02-0.44,0.03-0.66c0.14,0,0.27,0,0.43,0c0.01,0.21,0.03,0.43,0.05,0.66
			c0.22,0,0.41,0,0.64,0c0-0.21,0-0.42,0-0.65c0.17,0,0.3,0,0.47,0c0.01,0.21,0.02,0.42,0.03,0.66c0.22,0,0.41,0,0.65,0
			c0-0.22,0-0.43,0-0.66c0.17,0,0.3,0,0.46,0c0.01,0.21,0.02,0.42,0.03,0.65c0.22,0,0.42,0,0.66,0c0-0.21,0-0.41,0-0.65
			c0.17,0,0.3,0,0.47,0c0,0.2,0,0.41,0,0.54c0.21,0.21,0.37,0.36,0.59,0.57c0.12,0,0.32,0,0.55,0c0,0.15,0,0.28,0,0.44
			c-0.21,0-0.42,0-0.65,0c0,0.22,0,0.42,0,0.65c0.21,0,0.42,0,0.65,0c0,0.16,0,0.29,0,0.44c-0.21,0-0.42,0-0.65,0
			c0,0.23,0,0.44,0,0.68c0.21,0,0.41,0,0.64,0c0,0.16,0,0.29,0,0.46c-0.21,0-0.42,0-0.65,0c0,0.24,0,0.43,0,0.65
			c0.22,0.01,0.43,0.02,0.66,0.03c0,0.13,0,0.24,0,0.39c-0.21,0.01-0.42,0.03-0.66,0.04c0,0.21,0,0.41,0,0.62
			c0.22,0.01,0.42,0.02,0.65,0.03c0,0.15,0,0.29,0,0.45c-0.21,0-0.42,0-0.61,0c-0.08,0.13-0.14,0.24-0.2,0.34
			c-0.09,0.05-0.19,0.09-0.29,0.14c-0.01,0.19-0.02,0.39-0.03,0.61c-0.14,0-0.27,0-0.43,0c-0.01-0.19-0.02-0.38-0.03-0.61
			c-0.21,0-0.43,0-0.66,0c-0.01,0.2-0.02,0.39-0.03,0.61c-0.14,0-0.26,0-0.42,0c-0.01-0.09-0.02-0.19-0.02-0.28c0-0.1,0-0.2,0-0.33
			c-0.12-0.01-0.22-0.02-0.32-0.02c-0.1,0-0.21,0-0.34,0c-0.01,0.22-0.02,0.41-0.03,0.63c-0.14,0-0.28,0-0.45,0
			c0-0.19,0-0.39,0-0.61c-0.24,0-0.44,0-0.67,0c-0.01,0.2-0.02,0.39-0.04,0.62c-0.14,0.01-0.26,0.01-0.43,0.02
			c-0.01-0.21-0.02-0.41-0.03-0.63c-0.21,0-0.43,0-0.66,0c-0.01,0.19-0.02,0.39-0.03,0.61c-0.15,0-0.28,0-0.44,0
			c0-0.21,0-0.39,0-0.51c-0.21-0.21-0.38-0.37-0.59-0.57c-0.12,0-0.32,0-0.55,0c0-0.15,0-0.29,0-0.46c0.2,0,0.41,0,0.64,0
			c0-0.23,0-0.43,0-0.66c-0.22-0.01-0.42-0.02-0.65-0.03c0-0.13,0-0.25,0-0.4c0.21,0,0.41,0,0.65,0c0-0.23,0-0.42,0-0.66
			c-0.2,0-0.41,0-0.65,0c0-0.17,0-0.3,0-0.45c0.21-0.01,0.42-0.02,0.65-0.03c0-0.21,0-0.42,0-0.65c-0.21,0-0.42,0-0.65,0
			c0-0.16,0-0.28,0-0.44c0.2-0.01,0.41-0.02,0.64-0.03c0-0.2,0-0.39,0-0.62c-0.21,0-0.41,0-0.64,0c0-0.16,0-0.28,0-0.44
			c0.18,0,0.36,0,0.56,0C49.68,70.95,49.72,70.86,49.76,70.77z M50.24,75.9c1.68,0,3.34,0,5.01,0c0-1.62,0-3.22,0-4.84
			c-1.68,0-3.34,0-5.01,0C50.24,72.68,50.24,74.28,50.24,75.9z"/>
		<path class="st26" d="M50.38,79.05c-0.88-0.01-1.75-0.03-2.63-0.01c-0.66,0.01-0.79-0.14-0.78-0.72c0.02-0.87,0-1.74-0.01-2.6
			c0.01-0.75,0.01-1.49,0.02-2.24c0-0.1-0.01-0.2,0.01-0.3c0.03-0.22,0.17-0.37,0.38-0.38c0.39-0.02,0.79-0.01,1.21-0.01
			c0,0.16,0,0.29,0,0.46c-0.36,0-0.71,0-1.09,0c0,1.78,0,3.51,0,5.27c1.81,0,3.62,0,5.46,0c0-0.35,0-0.68,0-1.03
			c0.17,0,0.3,0,0.47,0c0,0.4,0.01,0.8,0,1.19c-0.01,0.19-0.15,0.32-0.37,0.35c-0.1,0.02-0.21,0.01-0.32,0.01
			C51.95,79.04,51.17,79.04,50.38,79.05z"/>
		<path class="st26" d="M54.04,67.92c0.95,0,1.9,0.01,2.84,0.01c0.34,0,0.68,0,1.02,0c0.46,0,0.59,0.12,0.59,0.55
			c0,1.1,0,2.21,0,3.31c0,0.12,0.01,0.24,0.02,0.37c-0.01,0.47-0.01,0.94-0.02,1.41c0,0.44-0.13,0.56-0.58,0.57
			c-0.33,0-0.65,0-1.01,0c-0.01-0.15-0.01-0.27-0.02-0.43c0.38,0,0.73,0,1.11,0c0-1.78,0-3.52,0-5.25
			c-0.25-0.08-4.74-0.11-5.44-0.03c-0.07,0.33,0,0.67-0.04,1.03c-0.14,0-0.28,0-0.46,0c-0.01-0.4-0.04-0.81,0.02-1.21
			c0.03-0.22,0.17-0.3,0.43-0.3C53.01,67.93,53.53,67.92,54.04,67.92z"/>
		<path class="st12" d="M56.09,40.84c0.35-0.18,0.71-0.28,1.11-0.2c1.01,0.2,1.48,1.26,0.94,2.12c-0.06,0.09-0.13,0.18-0.2,0.27
			c-0.29,0.24-0.62,0.38-1.01,0.37c-0.58-0.02-1.03-0.26-1.3-0.77c-0.06-0.12-0.11-0.24-0.17-0.37c-0.54,0-1.08,0-1.61,0
			c-0.1,0.38-0.2,0.74-0.32,1.16c0.65,0.53,1.33,1.09,2.01,1.65c0.1-0.05,0.18-0.08,0.27-0.12c0.64-0.29,1.38-0.12,1.79,0.4
			c0.42,0.55,0.38,1.28-0.11,1.78c-0.06,0.06-0.11,0.11-0.17,0.17c-0.24,0.09-0.48,0.23-0.73,0.27c-0.36,0.06-0.7-0.07-1-0.25
			c-0.02-0.02-0.04-0.04-0.06-0.06c-0.01-0.02-0.02-0.04-0.04-0.05c-0.42-0.28-0.49-0.7-0.5-1.15c0.07-0.21,0.14-0.42,0.21-0.64
			c-0.64-0.53-1.28-1.06-1.93-1.6c-0.16,0.18-0.29,0.33-0.42,0.49c-0.16,0.12-0.33,0.23-0.49,0.36c-0.54,0.44-1.18,0.56-1.87,0.58
			c-0.15,0-0.3,0-0.45,0c-0.06-0.01-0.11-0.01-0.17-0.02c-0.04-0.01-0.07-0.02-0.11-0.03c-1.09-0.26-1.86-0.9-2.35-1.86
			c-0.27-0.55-0.34-1.13-0.29-1.73c0.09-0.29,0.14-0.59,0.27-0.86c0.46-0.97,1.21-1.62,2.31-1.9c0.04-0.01,0.09-0.03,0.13-0.04
			c0.48-0.05,0.96-0.08,1.43,0.04c0.73,0.19,1.33,0.58,1.82,1.12c0.05,0.06,0.1,0.12,0.18,0.21c0.59-0.46,1.18-0.91,1.71-1.42
			c0.07-0.05,0.14-0.11,0.23-0.17c-0.04-0.1-0.07-0.18-0.1-0.26c-0.25-0.64,0-1.34,0.61-1.68c0.61-0.34,1.41-0.22,1.84,0.28
			c0.47,0.54,0.47,1.28-0.01,1.81c-0.12,0.13-0.27,0.24-0.41,0.36c-0.25,0.05-0.49,0.12-0.74,0.14c-0.27,0.02-0.46-0.07-0.84-0.3
			c-0.22,0.2-0.45,0.41-0.68,0.62c-0.42,0.32-0.84,0.64-1.25,0.96c-0.04,0.03-0.08,0.12-0.07,0.17c0.1,0.35,0.21,0.7,0.31,1.05
			c0.55,0,1.09,0,1.65,0C55.57,41.35,55.82,41.09,56.09,40.84z M52.7,43.7c0.63-0.73,0.78-1.56,0.51-2.44
			c-0.39-1.31-1.69-2.13-3.11-1.97c-0.6,0.07-1.15,0.29-1.58,0.72c-0.63,0.52-0.91,1.19-0.93,1.97c-0.04,1.55,1.33,2.78,2.9,2.8
			c0.44,0.01,0.83-0.14,1.21-0.31C52.11,44.3,52.46,44.06,52.7,43.7z M57.89,42.03c0.01-0.51-0.41-0.93-0.93-0.95
			c-0.54-0.01-0.98,0.4-0.99,0.92c-0.01,0.49,0.44,0.94,0.95,0.94C57.43,42.95,57.88,42.53,57.89,42.03z M56.43,45.26
			c-0.51,0-0.96,0.44-0.96,0.92c0.01,0.49,0.47,0.92,0.97,0.91c0.51-0.01,0.97-0.45,0.96-0.92C57.4,45.68,56.95,45.26,56.43,45.26z
			 M56.46,36.94c-0.54-0.01-0.96,0.38-0.97,0.89c-0.01,0.5,0.4,0.9,0.91,0.92c0.52,0.01,0.98-0.39,1-0.88
			C57.43,37.39,56.98,36.95,56.46,36.94z"/>
		<path class="st21" d="M49.76,45.19c0.04,0.01,0.07,0.02,0.11,0.03C49.83,45.22,49.79,45.2,49.76,45.19z"/>
		<path class="st27" d="M52.84,44.3c0.13-0.15,0.26-0.3,0.42-0.49c0.65,0.54,1.29,1.06,1.93,1.6c-0.07,0.22-0.14,0.43-0.21,0.64
			c-0.11-0.07-0.25-0.12-0.34-0.21c-0.46-0.43-0.9-0.87-1.37-1.29C53.16,44.44,52.99,44.38,52.84,44.3z"/>
		<path class="st24" d="M55.52,47.25c0.02,0.02,0.04,0.04,0.06,0.06C55.56,47.29,55.54,47.27,55.52,47.25z"/>
		<path class="st19" d="M56.09,40.84c-0.27,0.25-0.52,0.51-0.59,0.9c-0.55,0-1.1,0-1.65,0c-0.11-0.35-0.22-0.7-0.31-1.05
			c-0.01-0.05,0.02-0.14,0.07-0.17c0.41-0.32,0.83-0.64,1.25-0.96c0.34,0.32,0.69,0.65,1.03,0.98
			C55.98,40.63,56.03,40.74,56.09,40.84z"/>
		<path class="st11" d="M52.68,52.1c0.01-0.06,0.02-0.13,0.03-0.19c0.04-0.13,0.13-0.21,0.27-0.23c0.16-0.02,0.28,0.07,0.32,0.21
			c0.03,0.12,0.04,0.26,0.02,0.39c-0.03,0.15-0.13,0.26-0.31,0.26c-0.15,0-0.26-0.09-0.3-0.27C52.69,52.22,52.68,52.16,52.68,52.1z"
			/>
		<path class="st11" d="M44.46,26.92c0.61-0.04,0.81,0.11,0.8,0.59c-0.01,0.46-0.21,0.6-0.8,0.54
			C44.46,27.67,44.46,27.3,44.46,26.92z"/>
		<path class="st11" d="M45.97,28.06c0-0.2,0-0.37,0-0.56c0.21-0.01,0.42-0.09,0.55,0.1c0.06,0.08,0.06,0.25,0.01,0.34
			C46.42,28.13,46.2,28.06,45.97,28.06z"/>
		<path class="st11" d="M45.97,27.33c0-0.16,0-0.28,0-0.42c0.19-0.01,0.38-0.07,0.52,0.09c0.04,0.05,0.04,0.17,0,0.22
			C46.37,27.38,46.18,27.32,45.97,27.33z"/>
		<path class="st11" d="M54.65,83.59c-0.01,0.07-0.02,0.15-0.05,0.22c-0.05,0.12-0.14,0.2-0.28,0.2c-0.15,0-0.26-0.07-0.29-0.2
			c-0.03-0.13-0.04-0.28-0.02-0.42c0.02-0.14,0.13-0.23,0.29-0.24c0.15-0.01,0.26,0.09,0.31,0.26
			C54.63,83.47,54.63,83.52,54.65,83.59z"/>
		<path class="st1" d="M53.16,83.44c-0.24,0-0.45,0-0.68,0c0.02-0.21,0.15-0.29,0.32-0.3C52.98,83.13,53.12,83.2,53.16,83.44z"/>
		<path class="st11" d="M53.56,27.51c-0.21,0-0.4,0-0.61,0c0.03-0.19,0.12-0.3,0.31-0.3C53.44,27.21,53.54,27.29,53.56,27.51z"/>
		<path class="st28" d="M50.24,75.9c0-1.62,0-3.22,0-4.84c1.67,0,3.33,0,5.01,0c0,1.62,0,3.22,0,4.84
			C53.57,75.9,51.92,75.9,50.24,75.9z"/>
		<path class="st21" d="M52.7,43.7c-0.24,0.36-0.59,0.6-0.99,0.78c-0.38,0.17-0.77,0.31-1.21,0.31c-1.58-0.02-2.94-1.24-2.9-2.8
			c0.02-0.78,0.3-1.45,0.93-1.97c0.21,0.02,0.35,0.16,0.49,0.29c1.11,1.06,2.22,2.12,3.34,3.18C52.46,43.57,52.59,43.63,52.7,43.7z"
			/>
		<path class="st27" d="M52.7,43.7c-0.11-0.07-0.24-0.13-0.33-0.22c-1.12-1.06-2.23-2.12-3.34-3.18c-0.14-0.13-0.28-0.27-0.49-0.29
			c0.43-0.43,0.97-0.65,1.58-0.72c1.42-0.16,2.72,0.66,3.11,1.97C53.48,42.14,53.33,42.97,52.7,43.7z"/>
		<path class="st25" d="M57.89,42.03c-0.01,0.49-0.46,0.92-0.98,0.92c-0.51,0-0.96-0.45-0.95-0.94c0.01-0.53,0.45-0.94,0.99-0.92
			C57.48,41.1,57.89,41.52,57.89,42.03z"/>
		<path class="st20" d="M56.43,45.26c0.51,0,0.96,0.41,0.97,0.91c0.01,0.48-0.44,0.92-0.96,0.92c-0.5,0.01-0.97-0.43-0.97-0.91
			C55.47,45.7,55.92,45.27,56.43,45.26z"/>
		<path class="st18" d="M56.46,36.94c0.52,0.01,0.96,0.45,0.94,0.93c-0.02,0.49-0.48,0.89-1,0.88c-0.52-0.01-0.92-0.42-0.91-0.92
			C55.5,37.32,55.93,36.93,56.46,36.94z"/>
	</g>
</g>
</svg>
