<svg width="572" height="635" viewBox="0 0 572 635" fill="none" xmlns="http://www.w3.org/2000/svg">
<path d="M548.14 429.614H514.509V330.532C514.509 317.098 506.101 305.342 497.693 305.342H300.952V260H263.958V308.701H72.2619C62.1726 308.701 55.4464 320.456 55.4464 333.891V427.934H21.8155C11.7262 427.934 5 439.69 5 453.124V604.265C5 617.7 13.4077 629.455 21.8155 629.455H126.071C136.161 629.455 142.887 617.7 142.887 604.265V453.124C142.887 439.69 134.479 427.934 126.071 427.934H92.4405V357.402H269.003V427.934H232.009C221.92 427.934 215.193 439.69 215.193 453.124V604.265C215.193 617.7 223.601 629.455 232.009 629.455H336.265C346.354 629.455 353.08 617.7 353.08 604.265V453.124C353.08 439.69 344.673 427.934 336.265 427.934H302.634V357.402H479.196V427.934H445.565C435.476 427.934 428.75 439.69 428.75 453.124V604.265C428.75 617.7 437.158 629.455 445.565 629.455H549.821C559.911 629.455 566.637 617.7 566.637 604.265V453.124C564.955 441.369 556.548 429.614 548.14 429.614Z" fill="#5DA3E4" stroke="#E3F2F9" stroke-width="10" stroke-miterlimit="10"/>
<path d="M499.65 5H85.9889C74.2181 5 62.4473 20.1141 62.4473 36.9075V223.315C62.4473 240.108 72.5366 255.222 85.9889 255.222H499.65C513.102 255.222 523.191 241.787 523.191 223.315V36.9075C523.191 20.1141 513.102 5 499.65 5Z" fill="#5DA3E4" stroke="#E3F2F9" stroke-width="10" stroke-miterlimit="10"/>
</svg>
