<?xml version="1.0" encoding="UTF-8" standalone="no"?>
<!-- Created with Inkscape (http://www.inkscape.org/) -->

<svg
   version="1.1"
   id="svg1"
   width="661"
   height="157"
   viewBox="0 0 661 157"
   xmlns="http://www.w3.org/2000/svg"
   xmlns:svg="http://www.w3.org/2000/svg">
  <defs
     id="defs1" />
  <g
     id="g1">
    <g
       id="g2381">
      <path
         style="fill:#1e1e1e"
         d="m 5.2773078,130.6216 v -24.5 H 66.998314 128.71931 l 5.67489,-5.61568 c 5.31757,-5.262084 5.719,-5.476704 6.3754,-3.408584 0.46534,1.46617 1.28841,2.05336 2.45176,1.74914 0.96319,-0.25188 20.65544,-9.40552 43.76055,-20.34142 l 42.0093,-19.88346 -9.85695,-0.28498 -9.85696,-0.28498 V 33.086616 8.121596 h 72.5 72.5 v 24.93964 24.93963 l -3.49605,0.31037 c -2.77961,0.24676 7.78185,4.58919 51.53713,21.1899 30.26825,11.48374 55.17511,20.708744 55.34857,20.500004 0.17347,-0.208754 0.73406,-1.161534 1.24577,-2.117304 0.82157,-1.53452 1.62823,-1.1574 6.89748,3.224614 l 5.9671,4.96236 92.75,0.0254 92.75,0.0254 v 24.5 24.5 h -126 -126 v -24.5 -24.5 h 25.39301 c 22.78101,0 25.45882,-0.1715 26.03278,-1.66722 0.35188,-0.91697 0.28752,-2.0042 -0.14301,-2.41607 -0.43053,-0.41186 -26.37802,-10.461624 -57.66109,-22.332784 L 342.02067,58.121606 H 312.14899 282.2773 v 17 17 h 2.5 c 3.00262,0 2.9786,-0.28825 0.5,6 -1.1,2.790724 -2,5.732384 -2,6.537024 0,1.26407 6.66219,1.46298 49,1.46298 h 49 v 24.5 24.5 h -100 -100 v -24.5 -24.5 h 49.5 c 31.0647,0 49.5,-0.35864 49.5,-0.96298 0,-0.52964 -0.9,-3.2463 -2,-6.037024 -2.55555,-6.48349 -2.51866,-7 0.5,-7 h 2.5 v -17 -17 h -23.93702 -23.93703 l -44.81297,21.14184 c -24.64714,11.62802 -44.94738,21.249924 -45.11165,21.382004 -0.16426,0.13209 -0.003,1.41826 0.35841,2.85816 0.62926,2.50718 0.9488,2.618 7.54867,2.618 h 6.89159 v 24.5 24.5 H 81.777304 5.2773078 Z m 151.7684222,-0.25 0.26843,-23.25 H 81.795734 6.2773078 v 23.50633 23.50632 L 81.527304,153.87793 156.7773,153.6216 Z m -138.101755,8.08333 c -1.346784,-1.34678 -0.619009,-2.53867 0.820598,-1.3439 1.779656,1.47698 4.512735,0.65064 4.512735,-1.36443 0,-0.9467 -0.684902,-1.25865 -2.005326,-0.91336 -2.593906,0.67833 -4.994674,-1.34607 -4.994674,-4.21164 0,-3.17698 1.810803,-4.28469 7,-4.28204 2.475,10e-4 3.9375,0.21523 3.25,0.4755 -0.756437,0.28636 -1.25,2.33558 -1.25,5.18987 0,2.59417 -0.54,5.25667 -1.2,5.91667 -1.293509,1.29351 -5.046786,1.61988 -6.133333,0.53333 z m 4.833333,-7.84703 c 0,-2.31277 -0.44799,-2.9863 -1.986305,-2.9863 -2.079264,0 -3.107255,2.51082 -2.101293,5.13232 1.044962,2.72313 4.087598,1.12572 4.087598,-2.14602 z m 113.166662,7.84703 c -1.34679,-1.34678 -0.61901,-2.53867 0.8206,-1.3439 1.77965,1.47698 4.51273,0.65064 4.51273,-1.36443 0,-0.9467 -0.6849,-1.25865 -2.00533,-0.91336 -2.5939,0.67833 -4.99467,-1.34607 -4.99467,-4.21164 0,-3.17698 1.8108,-4.28469 7,-4.28204 2.475,10e-4 3.9375,0.21523 3.25,0.4755 -0.75644,0.28636 -1.25,2.33558 -1.25,5.18987 0,2.59417 -0.54,5.25667 -1.2,5.91667 -1.29351,1.29351 -5.04679,1.61988 -6.13333,0.53333 z m 4.83333,-7.84703 c 0,-2.31277 -0.44799,-2.9863 -1.9863,-2.9863 -2.07927,0 -3.10726,2.51082 -2.1013,5.13232 1.04496,2.72313 4.0876,1.12572 4.0876,-2.14602 z m -111.299992,3.3137 c -1.542501,-1.5425 -1.542501,-5.0575 0,-6.6 2.476225,-2.47623 7.8,-0.76989 7.8,2.5 0,0.82481 -1.309829,1.3 -3.583333,1.3 -2.419553,0 -3.449636,0.40597 -3.171672,1.25 0.511769,1.55398 4.755005,2.28532 4.755005,0.81955 0,-0.58825 0.5051,-1.06955 1.122445,-1.06955 0.775506,0 0.737659,0.46364 -0.122445,1.5 -1.495389,1.80183 -5.137486,1.96251 -6.8,0.3 z m 5.55,-5.05 c -0.229167,-0.6875 -1.241667,-1.25 -2.25,-1.25 -1.008333,0 -2.020833,0.5625 -2.25,1.25 -0.263889,0.79167 0.561111,1.25 2.25,1.25 1.688889,0 2.513889,-0.45833 2.25,-1.25 z m 4.75,1.81804 v -4.43196 l 3.999996,0.18196 c 3.79821,0.17278 4.01672,0.35809 4.33136,3.67322 0.18224,1.9202 0.85724,3.8258 1.5,4.23469 0.68853,0.438 0.13071,0.74972 -1.35778,0.75874 -2.35611,0.0143 -2.5001,-0.26076 -2.13588,-4.07999 0.3396,-3.56097 0.14733,-4.04914 -1.47357,-3.74145 -2.26838,0.43059 -3.17352,5.70815 -1.1942,6.96293 0.92835,0.58852 0.57499,0.84782 -1.16993,0.85851 -2.29291,0.014 -2.499996,-0.35181 -2.499996,-4.41665 z m 11.999996,0.0464 v -4.38556 l 3.75,-0.0518 c 2.0625,-0.0285 3.75,0.29327 3.75,0.71497 0,0.4217 -1.0125,0.73099 -2.25,0.68732 -1.76176,-0.0622 -2.32162,0.54804 -2.58007,2.81209 -0.18748,1.64233 0.24453,3.25577 1,3.73469 0.92835,0.58852 0.57499,0.84782 -1.16993,0.85851 -2.28896,0.014 -2.5,-0.3549 -2.5,-4.37026 z m 9.7,3.18557 c -1.5425,-1.5425 -1.5425,-5.0575 0,-6.6 2.47623,-2.47623 7.8,-0.76989 7.8,2.5 0,0.82481 -1.30982,1.3 -3.58333,1.3 -2.41955,0 -3.44963,0.40597 -3.17167,1.25 0.51177,1.55398 4.755,2.28532 4.755,0.81955 0,-0.58825 0.5051,-1.06955 1.12245,-1.06955 0.77551,0 0.73766,0.46364 -0.12245,1.5 -1.49538,1.80183 -5.13748,1.96251 -6.8,0.3 z m 5.55,-5.05 c -0.22916,-0.6875 -1.24166,-1.25 -2.25,-1.25 -1.00833,0 -2.02083,0.5625 -2.25,1.25 -0.26388,0.79167 0.56112,1.25 2.25,1.25 1.68889,0 2.51389,-0.45833 2.25,-1.25 z m 11.25,5.25 c 0,-0.55 0.45,-1 1,-1 0.55,0 1,0.45 1,1 0,0.55 -0.45,1 -1,1 -0.55,0 -1,-0.45 -1,-1 z m 11.66667,0.33333 c -1.47452,-1.47452 -0.54072,-2.27162 1.30838,-1.11684 1.54685,0.96602 2.23776,0.97071 3.18687,0.0216 0.94911,-0.94911 0.50986,-1.45654 -2.0261,-2.34058 -2.1437,-0.7473 -3.13156,-1.68107 -2.92318,-2.76312 0.40945,-2.12608 5.93596,-2.23896 6.57903,-0.13438 0.3699,1.2106 0.2027,1.25884 -0.86667,0.25 -1.61392,-1.52257 -3.925,-1.63914 -3.925,-0.19798 0,0.57861 1.35,1.52263 3,2.09782 3.24541,1.13136 3.95954,3.26797 1.41821,4.24317 -2.08856,0.80146 -4.91978,0.77208 -5.75154,-0.0597 z m 11.034566,0.0346 c -0.38568,-0.38568 -0.70124,-2.16373 -0.70124,-3.95123 0,-1.7875 -0.5625,-3.47698 -1.25,-3.75439 -0.999996,-0.40351 -0.999996,-0.52017 0,-0.58333 0.6875,-0.0434 1.25,-0.75395 1.25,-1.57895 0,-0.825 0.45,-1.5 1,-1.5 0.55,0 1,0.642 1,1.42668 0,0.78467 0.7875,1.63247 1.75,1.88399 1.66667,0.43555 1.66667,0.46285 0,0.57333 -1.31124,0.0869 -1.75,0.99352 -1.75,3.616 0,3.33621 1.25613,4.66387 2.34167,2.475 0.27958,-0.56375 0.39229,-0.45125 0.25046,0.25 -0.29338,1.45064 -2.83623,2.19757 -3.89089,1.1429 z m 6.79876,-3.75347 v -4.38556 l 3.75,-0.0518 c 2.0625,-0.0285 3.75,0.29327 3.75,0.71497 0,0.4217 -1.0125,0.73099 -2.25,0.68732 -1.76176,-0.0622 -2.32162,0.54804 -2.58007,2.81209 -0.18748,1.64233 0.24453,3.25577 1,3.73469 0.92834,0.58852 0.57498,0.84782 -1.16993,0.85851 -2.28896,0.014 -2.5,-0.3549 -2.5,-4.37026 z m 9,-0.11443 c 0,-2.93333 0.43519,-4.5 1.25,-4.5 0.78723,0 1.25,1.45 1.25,3.91667 0,2.19766 0.54862,4.13804 1.25,4.42105 0.6875,0.27741 0.125,0.53991 -1.25,0.58333 -2.30799,0.0729 -2.5,-0.26666 -2.5,-4.42105 z m 6,0.068 v -4.43196 l 4,0.18196 c 3.79821,0.17278 4.01672,0.35809 4.33135,3.67322 0.18225,1.9202 0.85725,3.8258 1.5,4.23469 0.68854,0.438 0.13072,0.74972 -1.35777,0.75874 -2.35612,0.0143 -2.5001,-0.26076 -2.13588,-4.07999 0.33959,-3.56097 0.14733,-4.04914 -1.47358,-3.74145 -2.26837,0.43059 -3.17352,5.70815 -1.19419,6.96293 0.92834,0.58852 0.57498,0.84782 -1.16993,0.85851 -2.29291,0.014 -2.5,-0.35181 -2.5,-4.41665 z M 79.277304,128.1216 c 0,-0.55 0.45,-1 1,-1 0.55,0 1,0.45 1,1 0,0.55 -0.45,1 -1,1 -0.55,0 -1,-0.45 -1,-1 z m 38.999996,-5 c 0,-0.55 0.45,-1 1,-1 0.55,0 1,0.45 1,1 0,0.55 -0.45,1 -1,1 -0.55,0 -1,-0.45 -1,-1 z m 262,7.505 v -23.495 h -98.5 -98.5 v 23.495 23.495 h 98.5 98.5 z m -168.25745,6.06146 c 0.39601,-2.07161 0.1515,-2.35151 -1.644,-1.88198 -2.68658,0.70256 -5.09855,-1.277 -5.09855,-4.18448 0,-3.34185 1.81521,-4.25207 8.75,-4.38765 l 6.25,-0.12218 v 4.07824 c 0,3.34939 0.31275,4.0163 1.75,3.73168 1.29169,-0.25579 1.75,-1.32274 1.75,-4.07398 0,-2.31562 0.47345,-3.72717 1.25,-3.72677 0.78712,4.2e-4 1.25,1.45101 1.25,3.91733 0,2.20397 0.54661,4.13205 1.25,4.40922 0.6875,0.2709 -1,0.4209 -3.75,0.33333 l -5,-0.15922 -0.31036,-3.75 c -0.24315,-2.93776 -0.73049,-3.75 -2.25,-3.75 -1.68079,0 -1.93964,0.72286 -1.93964,5.41667 0,3.39766 0.46593,5.60467 1.25,5.92105 0.6875,0.27741 0.0749,0.53991 -1.36133,0.58333 -2.24163,0.0678 -2.54547,-0.26557 -2.14612,-2.35459 z m -0.24255,-6.08016 c 0,-2.31277 -0.44799,-2.9863 -1.9863,-2.9863 -2.07927,0 -3.10726,2.51082 -2.1013,5.13232 1.04496,2.72313 4.0876,1.12572 4.0876,-2.14602 z m 23.25,7.85142 c 0.7807,-0.31502 1.25,-2.50673 1.25,-5.83772 0,-3.34762 -0.4654,-5.50952 -1.25,-5.80654 -0.6875,-0.26027 0.775,-0.47424 3.25,-0.4755 5.1892,-0.003 7,1.10506 7,4.28204 0,2.86557 -2.40077,4.88997 -4.99467,4.21164 -1.46555,-0.38325 -2.00533,-0.0337 -2.00533,1.29865 0,1.00267 0.5625,2.05002 1.25,2.32743 0.6875,0.27741 -0.325,0.50439 -2.25,0.50439 -1.925,0 -2.9375,-0.22698 -2.25,-0.50439 z m 7.75,-7.85142 c 0,-2.31277 -0.44799,-2.9863 -1.9863,-2.9863 -2.07927,0 -3.10726,2.51082 -2.1013,5.13232 1.04496,2.72313 4.0876,1.12572 4.0876,-2.14602 z m 118.16667,7.84703 c -1.34679,-1.34678 -0.61901,-2.53867 0.8206,-1.3439 1.77965,1.47698 4.51273,0.65064 4.51273,-1.36443 0,-0.9467 -0.6849,-1.25865 -2.00533,-0.91336 -2.5939,0.67833 -4.99467,-1.34607 -4.99467,-4.21164 0,-3.17698 1.8108,-4.28469 7,-4.28204 2.475,10e-4 3.9375,0.21523 3.25,0.4755 -0.75644,0.28636 -1.25,2.33558 -1.25,5.18987 0,2.59417 -0.54,5.25667 -1.2,5.91667 -1.29351,1.29351 -5.04679,1.61988 -6.13333,0.53333 z m 4.83333,-7.84703 c 0,-2.31277 -0.44799,-2.9863 -1.9863,-2.9863 -2.07927,0 -3.10726,2.51082 -2.1013,5.13232 1.04496,2.72313 4.0876,1.12572 4.0876,-2.14602 z m -170.3,3.3137 c -0.66,-0.66 -1.2,-2.145 -1.2,-3.3 0,-1.155 0.54,-2.64 1.2,-3.3 2.47623,-2.47623 7.8,-0.76989 7.8,2.5 0,0.82481 -1.30983,1.3 -3.58333,1.3 -2.41956,0 -3.44964,0.40597 -3.17167,1.25 0.51176,1.55398 4.755,2.28532 4.755,0.81955 0,-0.58825 0.5051,-1.06955 1.12245,-1.06955 0.7755,0 0.73766,0.46364 -0.12245,1.5 -1.49539,1.80183 -5.13749,1.96251 -6.8,0.3 z m 5.55,-5.05 c -0.22917,-0.6875 -1.24167,-1.25 -2.25,-1.25 -1.00833,0 -2.02083,0.5625 -2.25,1.25 -0.26389,0.79167 0.56111,1.25 2.25,1.25 1.68889,0 2.51389,-0.45833 2.25,-1.25 z m 28.75,1.75 c 0,-2.93333 0.43519,-4.5 1.25,-4.5 0.78723,0 1.25,1.45 1.25,3.91667 0,2.19766 0.54862,4.13804 1.25,4.42105 0.6875,0.27741 0.125,0.53991 -1.25,0.58333 -2.30799,0.0729 -2.5,-0.26666 -2.5,-4.42105 z m 18,0.10522 v -4.39479 l 7,0.14479 7,0.14478 0.33135,3.49126 c 0.18225,1.9202 0.85725,3.8258 1.5,4.23469 0.68854,0.438 0.13072,0.74972 -1.35777,0.75874 -2.35612,0.0143 -2.5001,-0.26076 -2.13588,-4.07999 0.33959,-3.56097 0.14733,-4.04914 -1.47358,-3.74145 -2.26837,0.43059 -3.17352,5.70815 -1.19419,6.96293 0.9262,0.58716 0.56294,0.84784 -1.19635,0.85851 -2.35612,0.0143 -2.5001,-0.26076 -2.13588,-4.07999 0.33959,-3.56097 0.14733,-4.04914 -1.47358,-3.74145 -2.26837,0.43059 -3.17352,5.70815 -1.19419,6.96293 0.92834,0.58852 0.57498,0.84782 -1.16993,0.85851 -2.28975,0.014 -2.5,-0.35429 -2.5,-4.37947 z m 18.7,3.19478 c -2.805,-2.805 -0.69173,-7.8 3.3,-7.8 2.36855,0 4.5,1.75253 4.5,3.7 0,0.82481 -1.30983,1.3 -3.58333,1.3 -2.41956,0 -3.44964,0.40597 -3.17167,1.25 0.51176,1.55398 4.755,2.28532 4.755,0.81955 0,-0.58825 0.5051,-1.06955 1.12245,-1.06955 0.7755,0 0.73766,0.46364 -0.12245,1.5 -1.49539,1.80183 -5.13749,1.96251 -6.8,0.3 z m 5.55,-5.05 c -0.22917,-0.6875 -1.24167,-1.25 -2.25,-1.25 -1.00833,0 -2.02083,0.5625 -2.25,1.25 -0.26389,0.79167 0.56111,1.25 2.25,1.25 1.68889,0 2.51389,-0.45833 2.25,-1.25 z m 4.75,1.81804 v -4.43196 l 4,0.18196 c 3.79821,0.17278 4.01672,0.35809 4.33135,3.67322 0.18225,1.9202 0.85725,3.8258 1.5,4.23469 0.68854,0.438 0.13072,0.74972 -1.35777,0.75874 -2.35612,0.0143 -2.5001,-0.26076 -2.13588,-4.07999 0.33959,-3.56097 0.14733,-4.04914 -1.47358,-3.74145 -2.26837,0.43059 -3.17352,5.70815 -1.19419,6.96293 0.92834,0.58852 0.57498,0.84782 -1.16993,0.85851 -2.29291,0.014 -2.5,-0.35181 -2.5,-4.41665 z m 13.20124,3.79986 c -0.38568,-0.38568 -0.70124,-2.16373 -0.70124,-3.95123 0,-1.7875 -0.5625,-3.47698 -1.25,-3.75439 -1,-0.40351 -1,-0.52017 0,-0.58333 0.6875,-0.0434 1.25,-0.75395 1.25,-1.57895 0,-0.825 0.45,-1.5 1,-1.5 0.55,0 1,0.642 1,1.42668 0,0.78467 0.7875,1.63247 1.75,1.88399 1.66667,0.43555 1.66667,0.46285 0,0.57333 -1.31124,0.0869 -1.75,0.99352 -1.75,3.616 0,3.33621 1.25613,4.66387 2.34167,2.475 0.27958,-0.56375 0.39229,-0.45125 0.25046,0.25 -0.29338,1.45064 -2.83623,2.19757 -3.89089,1.1429 z m 13.29876,-0.3679 c 0,-0.55 0.45,-1 1,-1 0.55,0 1,0.45 1,1 0,0.55 -0.45,1 -1,1 -0.55,0 -1,-0.45 -1,-1 z m 11.66667,0.33333 c -1.47452,-1.47452 -0.54072,-2.27162 1.30837,-1.11684 1.54686,0.96602 2.23776,0.97071 3.18688,0.0216 0.94911,-0.94911 0.50986,-1.45654 -2.0261,-2.34058 -2.1437,-0.7473 -3.13157,-1.68107 -2.92318,-2.76312 0.40944,-2.12608 5.93596,-2.23896 6.57903,-0.13438 0.3699,1.2106 0.2027,1.25884 -0.86667,0.25 -1.61393,-1.52257 -3.925,-1.63914 -3.925,-0.19798 0,0.57861 1.35,1.52263 3,2.09782 3.24541,1.13136 3.95954,3.26797 1.41821,4.24317 -2.08856,0.80146 -4.91978,0.77208 -5.75154,-0.0597 z m 11.03457,0.0346 c -0.38568,-0.38568 -0.70124,-2.16373 -0.70124,-3.95123 0,-1.7875 -0.5625,-3.47698 -1.25,-3.75439 -1,-0.40351 -1,-0.52017 0,-0.58333 0.6875,-0.0434 1.25,-0.75395 1.25,-1.57895 0,-0.825 0.45,-1.5 1,-1.5 0.55,0 1,0.642 1,1.42668 0,0.78467 0.7875,1.63247 1.75,1.88399 1.66667,0.43555 1.66667,0.46285 0,0.57333 -1.31124,0.0869 -1.75,0.99352 -1.75,3.616 0,3.33621 1.25613,4.66387 2.34167,2.475 0.27958,-0.56375 0.39229,-0.45125 0.25046,0.25 -0.29338,1.45064 -2.83623,2.19757 -3.89089,1.1429 z m 6.79876,-3.75347 v -4.38556 l 3.75,-0.0518 c 2.0625,-0.0285 3.75,0.29327 3.75,0.71497 0,0.4217 -1.0125,0.73099 -2.25,0.68732 -1.76176,-0.0622 -2.32162,0.54804 -2.58007,2.81209 -0.18748,1.64233 0.24453,3.25577 1,3.73469 0.92834,0.58852 0.57498,0.84782 -1.16993,0.85851 -2.28896,0.014 -2.5,-0.3549 -2.5,-4.37026 z m 9,-0.11443 c 0,-2.93333 0.43519,-4.5 1.25,-4.5 0.78723,0 1.25,1.45 1.25,3.91667 0,2.19766 0.54862,4.13804 1.25,4.42105 0.6875,0.27741 0.125,0.53991 -1.25,0.58333 -2.30799,0.0729 -2.5,-0.26666 -2.5,-4.42105 z m 6,0.068 v -4.43196 l 4,0.18196 c 3.79821,0.17278 4.01672,0.35809 4.33135,3.67322 0.18225,1.9202 0.85725,3.8258 1.5,4.23469 0.68854,0.438 0.13072,0.74972 -1.35777,0.75874 -2.35612,0.0143 -2.5001,-0.26076 -2.13588,-4.07999 0.33959,-3.56097 0.14733,-4.04914 -1.47358,-3.74145 -2.26837,0.43059 -3.17352,5.70815 -1.19419,6.96293 0.92834,0.58852 0.57498,0.84782 -1.16993,0.85851 -2.29291,0.014 -2.5,-0.35181 -2.5,-4.41665 z m -44.5,-2.56804 c 0,-0.55 0.45,-1 1,-1 0.55,0 1,0.45 1,1 0,0.55 -0.45,1 -1,1 -0.55,0 -1,-0.45 -1,-1 z m -73,-5 c 0,-0.55 0.45,-1 1,-1 0.55,0 1,0.45 1,1 0,0.55 -0.45,1 -1,1 -0.55,0 -1,-0.45 -1,-1 z m 112,0 c 0,-0.55 0.45,-1 1,-1 0.55,0 1,0.45 1,1 0,0.55 -0.45,1 -1,1 -0.55,0 -1,-0.45 -1,-1 z m 313,7.5 v -23.5 h -124.5 -124.5 v 23.5 23.5 h 124.5 124.5 z m -238.25,7.83772 c 0.7807,-0.31502 1.25,-2.50673 1.25,-5.83772 0,-3.34762 -0.4654,-5.50952 -1.25,-5.80654 -0.6875,-0.26027 0.775,-0.47424 3.25,-0.4755 5.1892,-0.003 7,1.10506 7,4.28204 0,2.86557 -2.40077,4.88997 -4.99467,4.21164 -1.46555,-0.38325 -2.00533,-0.0337 -2.00533,1.29865 0,1.00267 0.5625,2.05002 1.25,2.32743 0.6875,0.27741 -0.325,0.50439 -2.25,0.50439 -1.925,0 -2.9375,-0.22698 -2.25,-0.50439 z m 7.75,-7.85142 c 0,-2.31277 -0.44799,-2.9863 -1.9863,-2.9863 -2.07927,0 -3.10726,2.51082 -2.1013,5.13232 1.04496,2.72313 4.0876,1.12572 4.0876,-2.14602 z m 37.75,7.77471 5.75,-0.36082 v -5.36676 c 0,-3.37437 -0.46406,-5.54244 -1.25,-5.83997 -0.6875,-0.26027 0.775,-0.47424 3.25,-0.4755 5.1892,-0.003 7,1.10506 7,4.28204 0,2.86557 -2.40077,4.88997 -4.99467,4.21164 -1.46555,-0.38325 -2.00533,-0.0337 -2.00533,1.29865 0,1.00267 0.5625,2.05002 1.25,2.32743 0.6875,0.27741 -2.35,0.45482 -6.75,0.39425 -6.54382,-0.0901 -6.95337,-0.17582 -2.25,-0.47096 z m 12.25,-7.77471 c 0,-2.31277 -0.44799,-2.9863 -1.9863,-2.9863 -2.07927,0 -3.10726,2.51082 -2.1013,5.13232 1.04496,2.72313 4.0876,1.12572 4.0876,-2.14602 z m 85.16667,7.84703 c -1.34679,-1.34678 -0.61901,-2.53867 0.8206,-1.3439 1.77965,1.47698 4.51273,0.65064 4.51273,-1.36443 0,-0.9467 -0.6849,-1.25865 -2.00533,-0.91336 -2.5939,0.67833 -4.99467,-1.34607 -4.99467,-4.21164 0,-3.17698 1.8108,-4.28469 7,-4.28204 2.475,10e-4 3.9375,0.21523 3.25,0.4755 -0.75644,0.28636 -1.25,2.33558 -1.25,5.18987 0,2.59417 -0.54,5.25667 -1.2,5.91667 -1.29351,1.29351 -5.04679,1.61988 -6.13333,0.53333 z m 4.83333,-7.84703 c 0,-2.31277 -0.44799,-2.9863 -1.9863,-2.9863 -2.07927,0 -3.10726,2.51082 -2.1013,5.13232 1.04496,2.72313 4.0876,1.12572 4.0876,-2.14602 z m 70.16667,7.84703 c -1.34679,-1.34678 -0.61901,-2.53867 0.8206,-1.3439 1.77965,1.47698 4.51273,0.65064 4.51273,-1.36443 0,-0.9467 -0.6849,-1.25865 -2.00533,-0.91336 -2.5939,0.67833 -4.99467,-1.34607 -4.99467,-4.21164 0,-3.17698 1.8108,-4.28469 7,-4.28204 2.475,10e-4 3.9375,0.21523 3.25,0.4755 -0.75644,0.28636 -1.25,2.33558 -1.25,5.18987 0,2.59417 -0.54,5.25667 -1.2,5.91667 -1.29351,1.29351 -5.04679,1.61988 -6.13333,0.53333 z m 4.83333,-7.84703 c 0,-2.31277 -0.44799,-2.9863 -1.9863,-2.9863 -2.07927,0 -3.10726,2.51082 -2.1013,5.13232 1.04496,2.72313 4.0876,1.12572 4.0876,-2.14602 z m -209.3,3.3137 c -1.64218,-1.64219 -1.50959,-5.29817 0.24496,-6.75432 2.01846,-1.67517 5.5704,-0.93249 7.17721,1.5007 2.69849,4.08631 -3.91106,8.76473 -7.42217,5.25362 z m 5.3,-3.3137 c 0,-2.31277 -0.44799,-2.9863 -1.9863,-2.9863 -2.07927,0 -3.10726,2.51082 -2.1013,5.13232 1.04496,2.72313 4.0876,1.12572 4.0876,-2.14602 z m 5.16667,3.84703 c -1.47452,-1.47452 -0.54072,-2.27162 1.30837,-1.11684 1.54686,0.96602 2.23776,0.97071 3.18688,0.0216 0.94911,-0.94911 0.50986,-1.45654 -2.0261,-2.34058 -2.1437,-0.7473 -3.13157,-1.68107 -2.92318,-2.76312 0.40944,-2.12608 5.93596,-2.23896 6.57903,-0.13438 0.3699,1.2106 0.2027,1.25884 -0.86667,0.25 -1.61393,-1.52257 -3.925,-1.63914 -3.925,-0.19798 0,0.57861 1.35,1.52263 3,2.09782 3.24541,1.13136 3.95954,3.26797 1.41821,4.24317 -2.08856,0.80146 -4.91978,0.77208 -5.75154,-0.0597 z m 11.03457,0.0346 c -0.38568,-0.38568 -0.70124,-2.16373 -0.70124,-3.95123 0,-1.7875 -0.5625,-3.47698 -1.25,-3.75439 -1,-0.40351 -1,-0.52017 0,-0.58333 0.6875,-0.0434 1.25,-0.75395 1.25,-1.57895 0,-0.825 0.45,-1.5 1,-1.5 0.55,0 1,0.642 1,1.42668 0,0.78467 0.7875,1.63247 1.75,1.88399 1.66667,0.43555 1.66667,0.46285 0,0.57333 -1.31124,0.0869 -1.75,0.99352 -1.75,3.616 0,3.33621 1.25613,4.66387 2.34167,2.475 0.27958,-0.56375 0.39229,-0.45125 0.25046,0.25 -0.29338,1.45064 -2.83623,2.19757 -3.89089,1.1429 z m 27.79876,-3.75347 v -4.38556 l 3.75,-0.0518 c 2.0625,-0.0285 3.75,0.29327 3.75,0.71497 0,0.4217 -1.0125,0.73099 -2.25,0.68732 -1.76176,-0.0622 -2.32162,0.54804 -2.58007,2.81209 -0.18748,1.64233 0.24453,3.25577 1,3.73469 0.92834,0.58852 0.57498,0.84782 -1.16993,0.85851 -2.28896,0.014 -2.5,-0.3549 -2.5,-4.37026 z m 9.7,3.18557 c -1.64218,-1.64219 -1.50959,-5.29817 0.24496,-6.75432 2.01846,-1.67517 5.5704,-0.93249 7.17721,1.5007 2.69849,4.08631 -3.91106,8.76473 -7.42217,5.25362 z m 5.3,-3.3137 c 0,-2.31277 -0.44799,-2.9863 -1.9863,-2.9863 -2.07927,0 -3.10726,2.51082 -2.1013,5.13232 1.04496,2.72313 4.0876,1.12572 4.0876,-2.14602 z m 5.7,3.3137 c -1.64218,-1.64219 -1.50959,-5.29817 0.24496,-6.75432 1.87165,-1.55334 5.7586,-0.97278 6.38933,0.95432 0.41957,1.28189 0.25105,1.30197 -1.15893,0.13812 -2.2981,-1.89692 -4.67536,-0.69599 -4.67536,2.36188 0,2.84358 2.50865,4.39136 4.26722,2.63278 1.68635,-1.68635 3.17523,-1.37082 1.73278,0.36722 -1.49539,1.80183 -5.13749,1.96251 -6.8,0.3 z m 10,0 c -2.805,-2.805 -0.69173,-7.8 3.3,-7.8 2.36855,0 4.5,1.75253 4.5,3.7 0,0.82481 -1.30983,1.3 -3.58333,1.3 -2.41956,0 -3.44964,0.40597 -3.17167,1.25 0.51176,1.55398 4.755,2.28532 4.755,0.81955 0,-0.58825 0.5051,-1.06955 1.12245,-1.06955 0.7755,0 0.73766,0.46364 -0.12245,1.5 -1.49539,1.80183 -5.13749,1.96251 -6.8,0.3 z m 5.55,-5.05 c -0.22917,-0.6875 -1.24167,-1.25 -2.25,-1.25 -1.00833,0 -2.02083,0.5625 -2.25,1.25 -0.26389,0.79167 0.56111,1.25 2.25,1.25 1.68889,0 2.51389,-0.45833 2.25,-1.25 z m 4.91667,5.58333 c -1.47452,-1.47452 -0.54072,-2.27162 1.30837,-1.11684 1.54686,0.96602 2.23776,0.97071 3.18688,0.0216 0.94911,-0.94911 0.50986,-1.45654 -2.0261,-2.34058 -2.1437,-0.7473 -3.13157,-1.68107 -2.92318,-2.76312 0.40944,-2.12608 5.93596,-2.23896 6.57903,-0.13438 0.3699,1.2106 0.2027,1.25884 -0.86667,0.25 -1.61393,-1.52257 -3.925,-1.63914 -3.925,-0.19798 0,0.57861 1.35,1.52263 3,2.09782 3.24541,1.13136 3.95954,3.26797 1.41821,4.24317 -2.08856,0.80146 -4.91978,0.77208 -5.75154,-0.0597 z m 10,0 c -1.47452,-1.47452 -0.54072,-2.27162 1.30837,-1.11684 1.54686,0.96602 2.23776,0.97071 3.18688,0.0216 0.94911,-0.94911 0.50986,-1.45654 -2.0261,-2.34058 -2.1437,-0.7473 -3.13157,-1.68107 -2.92318,-2.76312 0.40944,-2.12608 5.93596,-2.23896 6.57903,-0.13438 0.3699,1.2106 0.2027,1.25884 -0.86667,0.25 -1.61393,-1.52257 -3.925,-1.63914 -3.925,-0.19798 0,0.57861 1.35,1.52263 3,2.09782 3.24541,1.13136 3.95954,3.26797 1.41821,4.24317 -2.08856,0.80146 -4.91978,0.77208 -5.75154,-0.0597 z m 9.83333,-3.83333 c 0,-2.93333 0.43519,-4.5 1.25,-4.5 0.78723,0 1.25,1.45 1.25,3.91667 0,2.19766 0.54862,4.13804 1.25,4.42105 0.6875,0.27741 0.125,0.53991 -1.25,0.58333 -2.30799,0.0729 -2.5,-0.26666 -2.5,-4.42105 z m 6,0.068 v -4.43196 l 4,0.18196 c 3.79821,0.17278 4.01672,0.35809 4.33135,3.67322 0.18225,1.9202 0.85725,3.8258 1.5,4.23469 0.68854,0.438 0.13072,0.74972 -1.35777,0.75874 -2.35612,0.0143 -2.5001,-0.26076 -2.13588,-4.07999 0.33959,-3.56097 0.14733,-4.04914 -1.47358,-3.74145 -2.26837,0.43059 -3.17352,5.70815 -1.19419,6.96293 0.92834,0.58852 0.57498,0.84782 -1.16993,0.85851 -2.29291,0.014 -2.5,-0.35181 -2.5,-4.41665 z m 30.5,3.43196 c 0,-0.55 0.45,-1 1,-1 0.55,0 1,0.45 1,1 0,0.55 -0.45,1 -1,1 -0.55,0 -1,-0.45 -1,-1 z m 11.66667,0.33333 c -1.47452,-1.47452 -0.54072,-2.27162 1.30837,-1.11684 1.54686,0.96602 2.23776,0.97071 3.18688,0.0216 0.94911,-0.94911 0.50986,-1.45654 -2.0261,-2.34058 -2.1437,-0.7473 -3.13157,-1.68107 -2.92318,-2.76312 0.40944,-2.12608 5.93596,-2.23896 6.57903,-0.13438 0.3699,1.2106 0.2027,1.25884 -0.86667,0.25 -1.61393,-1.52257 -3.925,-1.63914 -3.925,-0.19798 0,0.57861 1.35,1.52263 3,2.09782 3.24541,1.13136 3.95954,3.26797 1.41821,4.24317 -2.08856,0.80146 -4.91978,0.77208 -5.75154,-0.0597 z m 11.03457,0.0346 c -0.38568,-0.38568 -0.70124,-2.16373 -0.70124,-3.95123 0,-1.7875 -0.5625,-3.47698 -1.25,-3.75439 -1,-0.40351 -1,-0.52017 0,-0.58333 0.6875,-0.0434 1.25,-0.75395 1.25,-1.57895 0,-0.825 0.45,-1.5 1,-1.5 0.55,0 1,0.642 1,1.42668 0,0.78467 0.7875,1.63247 1.75,1.88399 1.66667,0.43555 1.66667,0.46285 0,0.57333 -1.31124,0.0869 -1.75,0.99352 -1.75,3.616 0,3.33621 1.25613,4.66387 2.34167,2.475 0.27958,-0.56375 0.39229,-0.45125 0.25046,0.25 -0.29338,1.45064 -2.83623,2.19757 -3.89089,1.1429 z m 6.79876,-3.75347 v -4.38556 l 3.75,-0.0518 c 2.0625,-0.0285 3.75,0.29327 3.75,0.71497 0,0.4217 -1.0125,0.73099 -2.25,0.68732 -1.76176,-0.0622 -2.32162,0.54804 -2.58007,2.81209 -0.18748,1.64233 0.24453,3.25577 1,3.73469 0.92834,0.58852 0.57498,0.84782 -1.16993,0.85851 -2.28896,0.014 -2.5,-0.3549 -2.5,-4.37026 z m 9,-0.11443 c 0,-2.93333 0.43519,-4.5 1.25,-4.5 0.78723,0 1.25,1.45 1.25,3.91667 0,2.19766 0.54862,4.13804 1.25,4.42105 0.6875,0.27741 0.125,0.53991 -1.25,0.58333 -2.30799,0.0729 -2.5,-0.26666 -2.5,-4.42105 z m 6,0.068 v -4.43196 l 4,0.18196 c 3.79821,0.17278 4.01672,0.35809 4.33135,3.67322 0.18225,1.9202 0.85725,3.8258 1.5,4.23469 0.68854,0.438 0.13072,0.74972 -1.35777,0.75874 -2.35612,0.0143 -2.5001,-0.26076 -2.13588,-4.07999 0.33959,-3.56097 0.14733,-4.04914 -1.47358,-3.74145 -2.26837,0.43059 -3.17352,5.70815 -1.19419,6.96293 0.92834,0.58852 0.57498,0.84782 -1.16993,0.85851 -2.29291,0.014 -2.5,-0.35181 -2.5,-4.41665 z m -44.5,-2.56804 c 0,-0.55 0.45,-1 1,-1 0.55,0 1,0.45 1,1 0,0.55 -0.45,1 -1,1 -0.55,0 -1,-0.45 -1,-1 z m -36,-5 c 0,-0.55 0.45,-1 1,-1 0.55,0 1,0.45 1,1 0,0.55 -0.45,1 -1,1 -0.55,0 -1,-0.45 -1,-1 z m 75,0 c 0,-0.55 0.45,-1 1,-1 0.55,0 1,0.45 1,1 0,0.55 -0.45,1 -1,1 -0.55,0 -1,-0.45 -1,-1 z m -263,-90.000004 v -22.99997 h -71.5 -71.5 v 23 23 h 71.5 71.5 z m -75.33333,8.33333 c -1.34679,-1.34678 -0.61901,-2.53867 0.8206,-1.3439 1.77965,1.47699 4.51273,0.65064 4.51273,-1.36442 0,-0.94671 -0.6849,-1.25866 -2.00533,-0.91336 -2.5939,0.67832 -4.99467,-1.34608 -4.99467,-4.21165 0,-3.17698 1.8108,-4.28468 7,-4.28204 2.475,0.001 3.9375,0.21524 3.25,0.4755 -0.75644,0.28636 -1.25,2.33559 -1.25,5.18987 0,2.59417 -0.54,5.25667 -1.2,5.91667 -1.29351,1.29351 -5.04679,1.61988 -6.13333,0.53333 z m 4.83333,-7.84702 c 0,-2.31278 -0.44799,-2.98631 -1.9863,-2.98631 -2.07927,0 -3.10726,2.51083 -2.1013,5.13232 1.04496,2.72313 4.0876,1.12572 4.0876,-2.14601 z m 25.25,7.85141 c 0.7807,-0.31502 1.25,-2.50672 1.25,-5.83772 0,-3.34762 -0.4654,-5.50952 -1.25,-5.80654 -0.6875,-0.26026 0.775,-0.47424 3.25,-0.4755 5.1892,-0.003 7,1.10506 7,4.28204 0,2.86557 -2.40077,4.88997 -4.99467,4.21165 -1.46555,-0.38325 -2.00533,-0.0337 -2.00533,1.29864 0,1.00267 0.5625,2.05002 1.25,2.32743 0.6875,0.27741 -0.325,0.50439 -2.25,0.50439 -1.925,0 -2.9375,-0.22698 -2.25,-0.50439 z m 7.75,-7.85141 c 0,-2.31278 -0.44799,-2.98631 -1.9863,-2.98631 -2.07927,0 -3.10726,2.51083 -2.1013,5.13232 1.04496,2.72313 4.0876,1.12572 4.0876,-2.14601 z m 16.5,7.54508 c 0,-0.53274 0.61693,-0.73188 1.37096,-0.44253 2.41675,0.92739 2.49015,-2.08736 0.16811,-6.90529 l -2.25727,-4.68357 2.6091,0.0153 c 1.51827,0.009 2.12187,0.32529 1.44372,0.75672 -0.8778,0.55845 -0.84695,1.33641 0.125,3.15251 l 1.29038,2.4111 1.17125,-2.18849 c 0.64418,-1.20366 0.89887,-2.62919 0.56598,-3.16782 -0.3329,-0.53863 0.43379,-0.97244 1.70375,-0.96402 1.26996,0.008 1.85902,0.34592 1.30902,0.75 -0.55,0.40408 -2.23261,3.32219 -3.73913,6.48469 -1.5502,3.25418 -3.39494,5.75 -4.25,5.75 -0.83098,0 -1.51087,-0.43588 -1.51087,-0.96862 z m -110.25,-3.69367 c 0.7995,-0.3226 1.25,-2.60672 1.25,-6.33772 0,-3.7128 -0.4544,-6.02909 -1.25,-6.37183 -0.6875,-0.29618 0.95391,-0.44618 3.64757,-0.33334 3.4198,0.14327 5.22866,0.73321 5.99488,1.95517 1.5124,2.41196 -0.33517,5.15934 -3.74331,5.56642 -2.02431,0.24179 -2.64914,0.87076 -2.64914,2.66667 0,1.29263 0.5625,2.57722 1.25,2.85463 0.6875,0.27741 -0.325,0.50439 -2.25,0.50439 -1.925,0 -2.9375,-0.22698 -2.25,-0.50439 z m 7.75,-9.33772 c 0,-1.83124 -0.60188,-2.58548 -2.25,-2.81955 -1.92335,-0.27316 -2.25,0.13617 -2.25,2.81955 0,2.68338 0.32665,3.09271 2.25,2.81955 1.64812,-0.23407 2.25,-0.9883 2.25,-2.81955 z m 5,3 c 0,-4.93333 0.36905,-7 1.25,-7 0.70125,0 1.25,1.22455 1.25,2.78942 0,2.3859 0.39782,2.78372 2.75,2.75 2.42083,-0.0347 2.78966,0.37848 3.08135,3.45184 0.18225,1.9202 0.85725,3.82581 1.5,4.23469 0.68854,0.438 0.13072,0.74972 -1.35777,0.75874 -2.35612,0.0143 -2.5001,-0.26076 -2.13588,-4.07999 0.33959,-3.56097 0.14733,-4.04913 -1.47358,-3.74145 -2.26837,0.43059 -3.17352,5.70815 -1.19419,6.96293 0.92834,0.58852 0.57498,0.84782 -1.16993,0.85851 -2.43003,0.0149 -2.5,-0.18061 -2.5,-6.98469 z m 12.7,5.8 c -1.64218,-1.64218 -1.50959,-5.29817 0.24496,-6.75432 2.01846,-1.67517 5.5704,-0.93249 7.17721,1.5007 2.69849,4.08631 -3.91106,8.76473 -7.42217,5.25362 z m 5.3,-3.31369 c 0,-2.31278 -0.44799,-2.98631 -1.9863,-2.98631 -2.07927,0 -3.10726,2.51083 -2.1013,5.13232 1.04496,2.72313 4.0876,1.12572 4.0876,-2.14601 z m 6.20124,3.88159 c -0.38568,-0.38568 -0.70124,-2.16373 -0.70124,-3.95123 0,-1.7875 -0.5625,-3.47698 -1.25,-3.75439 -1,-0.40351 -1,-0.52017 0,-0.58333 0.6875,-0.0434 1.25,-0.75395 1.25,-1.57895 0,-0.825 0.45,-1.5 1,-1.5 0.55,0 1,0.64201 1,1.42668 0,0.78467 0.7875,1.63247 1.75,1.884 1.66667,0.43554 1.66667,0.46284 0,0.57332 -1.31124,0.0869 -1.75,0.99353 -1.75,3.616 0,3.33621 1.25613,4.66387 2.34167,2.475 0.27958,-0.56375 0.39229,-0.45125 0.25046,0.25 -0.29338,1.45064 -2.83623,2.19757 -3.89089,1.1429 z m 7.49876,-0.5679 c -1.64218,-1.64218 -1.50959,-5.29817 0.24496,-6.75432 2.01846,-1.67517 5.5704,-0.93249 7.17721,1.5007 2.69849,4.08631 -3.91106,8.76473 -7.42217,5.25362 z m 5.3,-3.31369 c 0,-2.31278 -0.44799,-2.98631 -1.9863,-2.98631 -2.07927,0 -3.10726,2.51083 -2.1013,5.13232 1.04496,2.72313 4.0876,1.12572 4.0876,-2.14601 z m 17,0.12812 v -4.38556 l 3.75,-0.0517 c 2.0625,-0.0285 3.75,0.29327 3.75,0.71497 0,0.42169 -1.0125,0.73099 -2.25,0.68732 -1.76176,-0.0622 -2.32162,0.54803 -2.58007,2.81209 -0.18748,1.64233 0.24453,3.25576 1,3.73469 0.92834,0.58852 0.57498,0.84781 -1.16993,0.8585 -2.28896,0.014 -2.5,-0.3549 -2.5,-4.37025 z m 8.88,2.93346 c -0.82613,-2.15288 0.42384,-3.54789 3.17902,-3.54789 1.50309,0 2.44098,-0.57634 2.44098,-1.5 0,-1.80026 -2.13146,-1.96854 -3.8,-0.3 -0.86437,0.86437 -1.2,0.88088 -1.2,0.059 0,-1.75974 1.86396,-2.50997 4.55684,-1.83411 1.99118,0.49976 2.44316,1.24176 2.44316,4.01081 0,1.86869 0.5625,3.62459 1.25,3.902 0.6875,0.27742 -0.90162,0.53992 -3.53138,0.58334 -3.3132,0.0547 -4.95249,-0.36695 -5.33862,-1.37317 z m 5.98163,-1.04789 c 0.41585,-1.08369 -0.10953,-1.5 -1.89301,-1.5 -2.40041,0 -3.15638,0.97891 -1.80195,2.33333 1.15985,1.15986 3.09782,0.72279 3.69496,-0.83333 z m 17.13837,-4.5 c 0,-4.93333 0.36905,-7 1.25,-7 0.70125,0 1.25,1.22455 1.25,2.78942 0,2.3859 0.39782,2.78372 2.75,2.75 2.42083,-0.0347 2.78966,0.37848 3.08135,3.45184 0.18225,1.9202 0.85725,3.82581 1.5,4.23469 0.68854,0.438 0.13072,0.74972 -1.35777,0.75874 -2.35612,0.0143 -2.5001,-0.26076 -2.13588,-4.07999 0.33959,-3.56097 0.14733,-4.04913 -1.47358,-3.74145 -2.26837,0.43059 -3.17352,5.70815 -1.19419,6.96293 0.92834,0.58852 0.57498,0.84782 -1.16993,0.85851 -2.43003,0.0149 -2.5,-0.18061 -2.5,-6.98469 z"
         id="path2381" />
    </g>
  </g>
</svg>
