<?xml version="1.0" encoding="UTF-8" standalone="no"?>
<!-- Uploaded to: SVG Repo, www.svgrepo.com, Generator: SVG Repo Mixer Tools -->

<svg
   width="346.69711"
   height="111.4819"
   viewBox="0 0 13.867885 4.4592761"
   version="1.1"
   id="svg2"
   xmlns="http://www.w3.org/2000/svg"
   xmlns:svg="http://www.w3.org/2000/svg">
  <defs
     id="defs2" />
  <title
     id="title1">file_type_avro</title>
  <g
     id="g1"
     transform="scale(0.49526389,0.5123838)"
     style="fill:#ffffff;fill-opacity:1">
    <path
       d="m 0.00100008,0.00100028 h 0.025 A 4.785,4.785 0 0 0 2.937,1.3370002 c 2.308,0.221 4.59,-0.48499992 6.9,-0.326 a 7.03,7.03 0 0 1 2.68,0.664 c 0.5,-0.319 0.989,-0.662 1.486,-0.98899992 0.5,0.32699992 0.984,0.67399992 1.488,0.98899992 a 6.834,6.834 0 0 1 2.487,-0.65 c 1.995,-0.16699992 3.967,0.308 5.957,0.359 a 5.2,5.2 0 0 0 4.026,-1.38299992 h 0.04 v 0.236 c -0.178,0.747 -0.882,1.17599992 -1.284,1.78999992 a 4.948,4.948 0 0 1 -0.731,0.791 3.8,3.8 0 0 1 -0.565,0.748 2.551,2.551 0 0 0 -0.594,0.541 2.181,2.181 0 0 1 -0.96,0.749 1.149,1.149 0 0 1 -0.565,0.56 6.69,6.69 0 0 1 -1.94,0.184 c 0.723,0.548 1.5,1.02 2.246,1.535 0.782,0.513 1.54,1.061 2.326,1.568 H 2.09 c 1.5,-1.058 3.057,-2.035 4.55,-3.1 a 6.8,6.8 0 0 1 -1.939,-0.186 1.155,1.155 0 0 1 -0.569,-0.562 2.28,2.28 0 0 1 -1.043,-0.86 c -0.268,-0.3 -0.67,-0.466 -0.853,-0.843 -0.2,-0.436 -0.658,-0.664 -0.909,-1.067 C 0.92700008,1.4430002 0.19000008,1.0090002 7.9915382e-8,0.23900028 V 2.7990432e-7 M 2.939,8.5280002 q 11.059,0.009 22.12,0 c -3.668,-2.51 -7.376,-4.961 -11.059,-7.448 -3.684,2.487 -7.392,4.941 -11.061,7.449 m -0.771,-6.977 a 7.842,7.842 0 0 0 2.84,0.731 c 1.163,0.123 2.341,0.046 3.5,0.236 a 2.7,2.7 0 0 1 1.607,0.781 c 0.659,-0.452 1.332,-0.885 1.987,-1.342 l 0.012,-0.064 a 5.294,5.294 0 0 0 -1.877,-0.5 c -2.693,-0.316 -5.387,0.712 -8.067,0.16 m 13.652,0.356 c 0.688,0.466 1.382,0.925 2.07,1.392 a 2.488,2.488 0 0 1 1.3,-0.719 19.859,19.859 0 0 1 3.137,-0.248 9.105,9.105 0 0 0 3.5,-0.768 c -2.582,0.5 -5.168,-0.409 -7.761,-0.2 a 6.256,6.256 0 0 0 -2.245,0.545 m -14.483,-0.394 a 7.264,7.264 0 0 0 2.723,1.3 c -0.219,-0.153 -0.376,-0.416 -0.657,-0.457 a 7.955,7.955 0 0 1 -2.066,-0.844 m 23.333,0.825 c -0.317,0.023 -0.5,0.3 -0.733,0.473 a 7.232,7.232 0 0 0 2.724,-1.3 8.106,8.106 0 0 1 -1.991,0.824 m -22.5,0.126 a 5.121,5.121 0 0 0 2.589,1.1 c -0.115,-0.128 -0.209,-0.312 -0.4,-0.334 a 10.459,10.459 0 0 1 -2.19,-0.771 m 21.467,0.768 c -0.189,0.022 -0.284,0.2 -0.394,0.336 a 5.187,5.187 0 0 0 2.6,-1.109 10.477,10.477 0 0 1 -2.2,0.773 m -19.344,-0.67 a 3.243,3.243 0 0 0 2.445,0.352 c -0.1,-0.08 -0.181,-0.215 -0.325,-0.206 q -1.063,-0.04 -2.12,-0.146 m 17.351,0.139 c -0.171,-0.019 -0.291,0.1 -0.406,0.211 a 3.108,3.108 0 0 0 2.42,-0.352 q -1,0.112 -2.014,0.141 m -16.741,0.538 a 3.669,3.669 0 0 0 2.482,0.319 1.107,1.107 0 0 0 -0.281,-0.376 5.158,5.158 0 0 1 -2.2,0.057 m 15.7,0.318 a 3.678,3.678 0 0 0 2.487,-0.319 5.127,5.127 0 0 1 -2.2,-0.057 1.1,1.1 0 0 0 -0.283,0.376 m -17.777,-0.224 a 4.11,4.11 0 0 0 2.133,0.841 c -0.057,-0.084 -0.114,-0.168 -0.171,-0.254 a 6.948,6.948 0 0 1 -1.962,-0.587 m 20.361,0.589 -0.169,0.253 a 4.141,4.141 0 0 0 2.136,-0.843 7.015,7.015 0 0 1 -1.967,0.59 m -18.1,-0.13 a 0.8,0.8 0 0 0 0.534,0.31 7.579,7.579 0 0 0 2.037,-0.073 c -0.009,-0.03 -0.027,-0.09 -0.036,-0.12 -0.457,-0.051 -0.923,0.074 -1.385,0.047 a 7.054,7.054 0 0 1 -1.149,-0.163 m 16.191,0.151 a 6.28,6.28 0 0 0 -0.913,-0.041 l -0.042,0.126 a 7.416,7.416 0 0 0 2.045,0.072 0.7,0.7 0 0 0 0.522,-0.331 4.349,4.349 0 0 1 -1.613,0.174 m -17.52,0.327 a 3.12,3.12 0 0 0 1.754,0.481 c -0.065,-0.24 -0.334,-0.2 -0.523,-0.236 -0.419,-0.041 -0.816,-0.186 -1.231,-0.246 m 19.23,0.249 c -0.188,0.041 -0.452,-0.006 -0.521,0.232 a 2.874,2.874 0 0 0 1.732,-0.482 c -0.4,0.079 -0.8,0.207 -1.211,0.251 m -17.265,-0.045 a 1,1 0 0 0 0.789,0.275 9.331,9.331 0 0 0 1.325,-0.158 c -0.021,-0.093 -0.009,-0.278 -0.163,-0.228 a 9.983,9.983 0 0 1 -1.951,0.111 m 14.415,0.118 a 8.157,8.157 0 0 0 1.412,0.154 0.9,0.9 0 0 0 0.7,-0.274 9.387,9.387 0 0 1 -1.934,-0.11 c -0.16,-0.06 -0.155,0.132 -0.176,0.23 m -15.438,0.44 a 1.962,1.962 0 0 0 1.3,0.181 l -0.091,-0.126 c -0.4,0.006 -0.807,-0.022 -1.209,-0.055 m 1.615,0.043 a 1.03,1.03 0 0 0 0.716,0.294 c 0.179,-0.125 0.358,-0.252 0.531,-0.386 a 5.747,5.747 0 0 1 -1.247,0.092 m 14.1,-0.093 c 0.237,0.144 0.467,0.477 0.782,0.345 0.166,-0.05 0.369,-0.089 0.461,-0.257 a 5.271,5.271 0 0 1 -1.243,-0.088 m 1.713,0.263 a 2.007,2.007 0 0 0 1.145,-0.213 10.269,10.269 0 0 1 -1.144,0.049 c -0.15,-0.059 -0.159,0.235 -0.005,0.164 z"
       style="fill:#ffffff;fill-opacity:1"
       id="path1" />
    <path
       d="m 5.436,7.2380002 q 4.284,-2.873 8.565,-5.749 l 9.3,6.244 c 0.221,0.147 0.439,0.3 0.648,0.464 q -9.947,-0.01 -19.894,0 c 0.443,-0.344 0.92,-0.64 1.383,-0.958 m 8.255,-5.066 c -0.457,1.859 -0.907,3.719 -1.375,5.576 0.52,0.015 1.041,0.012 1.562,0 q -0.013,-2.841 0,-5.68 l -0.184,0.1 m -2.5,1.684 c 0.255,0.859 0.48,1.728 0.763,2.579 0.289,-1.238 0.6,-2.471 0.9,-3.707 -0.55,0.386 -1.114,0.75 -1.668,1.129 m 3.357,-0.873 c -0.006,0.682 0,1.364 0,2.046 a 2.1,2.1 0 0 0 1.014,-0.254 c 0.193,-0.145 0.1,-0.409 0.011,-0.586 a 4.276,4.276 0 0 0 -1.024,-1.207 m 1.779,1.772 c -0.1,0.544 -0.666,0.792 -1.151,0.9 0.474,0.7 0.96,1.389 1.416,2.1 0.469,0.024 0.94,0.011 1.411,0.009 a 1.631,1.631 0 0 1 0.16,-2.976 c -0.834,-0.6 -1.7,-1.14 -2.544,-1.727 0.349,0.5 0.831,1.037 0.708,1.7 m -6.822,0.242 c 0.267,0.921 0.529,1.845 0.794,2.767 0.44,0 0.88,0.008 1.321,-0.007 -0.339,-1.161 -0.685,-2.319 -1.009,-3.484 -0.385,0.215 -0.737,0.482 -1.1,0.724 m 8.8,0.452 a 0.946,0.946 0 0 0 0.057,1.7 c 0.533,0.09 0.855,-0.533 0.779,-0.99 -0.026,-0.4 -0.4,-0.861 -0.836,-0.714 m -12.911,2.304 q 1.324,0.018 2.65,0 c 0.256,-0.7 0.413,-1.468 0.629,-2.2 -1.1,0.715 -2.187,1.461 -3.279,2.194 m 14.377,-1.9 a 1.616,1.616 0 0 1 -0.876,1.9 c 1.233,0.018 2.465,0.015 3.7,0 -0.934,-0.644 -1.883,-1.266 -2.822,-1.9 m -5.223,0.115 c -0.01,0.6 0,1.2 0,1.8 0.415,0 0.831,0 1.248,0 -0.419,-0.6 -0.8,-1.219 -1.243,-1.794 m -5.546,0.941 h 0.346 c -0.055,-0.187 -0.108,-0.376 -0.166,-0.562 a 3.751,3.751 0 0 0 -0.181,0.563 m -0.18,0.693 c -0.015,0.04 -0.045,0.119 -0.061,0.159 0.275,-0.026 0.59,0.071 0.842,-0.05 -0.162,-0.247 -0.541,-0.084 -0.789,-0.115 z"
       style="fill:#ffffff;fill-opacity:1"
       id="path2" />
  </g>
</svg>
