<?xml version="1.0" encoding="UTF-8" standalone="no"?>
<!-- Uploaded to: SVG Repo, www.svgrepo.com, Generator: SVG Repo Mixer Tools -->

<svg
   version="1.1"
   id="Icons"
   viewBox="0 0 896 896"
   xml:space="preserve"
   width="896"
   height="896"
   xmlns="http://www.w3.org/2000/svg"
   xmlns:svg="http://www.w3.org/2000/svg"><defs
   id="defs5" />
<style
   type="text/css"
   id="style1">
	.st0{fill:none;stroke:#000000;stroke-width:2;stroke-linecap:round;stroke-linejoin:round;stroke-miterlimit:10;}
</style>





<g
   id="g6"
   transform="translate(-64,-64)"><path
     class="st0"
     d="m 16,25.5 c 0,1.9 1.6,3.5 3.5,3.5 1.8,0 3.2,-1.3 3.5,-3 2.8,-0.2 5,-2.6 5,-5.5 0,-1.4 -0.5,-2.6 -1.3,-3.6 1.4,-1 2.3,-2.6 2.3,-4.4 C 29,9.5 26.5,7 23.5,7 23.3,7 23.2,7 23,7 V 6.5 C 23,4.6 21.4,3 19.5,3 17.6,3 16,4.6 16,6.5"
     id="path1"
     style="fill:#ffffff;fill-opacity:0;stroke:#0288d1;stroke-opacity:1" /><path
     class="st0"
     d="M 16,25.5 C 16,27.4 14.4,29 12.5,29 10.7,29 9.3,27.7 9,26 6.2,25.8 4,23.4 4,20.5 4,19.1 4.5,17.9 5.3,16.9 3.9,16 3,14.3 3,12.5 3,9.5 5.5,7 8.5,7 8.7,7 8.8,7 9,7 V 6.5 C 9,4.6 10.6,3 12.5,3 14.4,3 16,4.6 16,6.5"
     id="path2"
     style="fill:#ffffff;fill-opacity:0;stroke:#0288d1;stroke-opacity:1" /><path
     class="st0"
     d="m 28,21 c 0,-2.1 -1.3,-3.9 -3.2,-4.7"
     id="path3"
     style="mix-blend-mode:darken;fill:#ffffff;fill-opacity:0;stroke:#0288d1;stroke-opacity:1" /><path
     class="st0"
     d="M 6.8,17.7 C 4.6,17 3,14.9 3,12.5"
     id="path4"
     style="fill:#ffffff;fill-opacity:0;stroke:#0288d1;stroke-opacity:1" /><path
     class="st0"
     d="M 10.2,9.2 C 9.5,8.5 9,7.6 9,6.5"
     id="path5"
     style="fill:#ffffff;fill-opacity:0;stroke:#0288d1;stroke-opacity:1" /><polygon
     class="st0"
     points="15,17 13,23 21,15 17,15 19.5,9 11,17 "
     id="polygon5"
     style="fill:#ffffff;fill-opacity:0;stroke:#0288d1;stroke-opacity:1" /></g>
</svg>
