<svg width="63" height="54" viewBox="0 0 63 54" fill="none" xmlns="http://www.w3.org/2000/svg">
<g clip-path="url(#clip0_55_8664)">
<path d="M58.3875 11.7017C57.9531 10.7085 57.4276 9.75779 56.8175 8.8617C55.657 7.08467 54.1627 5.54965 52.4175 4.3417C50.6266 3.14189 48.6138 2.31229 46.4975 1.9017C44.5632 1.53724 42.5948 1.38633 40.6275 1.4517L33.1175 1.3517C32.9299 1.34904 32.7435 1.38387 32.5695 1.45416C32.3954 1.52445 32.2372 1.62879 32.104 1.76105C31.9708 1.89331 31.8653 2.05083 31.7938 2.22438C31.7223 2.39793 31.6862 2.584 31.6875 2.7717L31.7975 34.7717C31.7975 34.9176 31.8555 35.0575 31.9586 35.1606C32.0618 35.2638 32.2017 35.3217 32.3475 35.3217C34.6075 35.3217 36.5575 35.3217 38.1075 35.3217C40.1435 35.3782 42.1809 35.3047 44.2075 35.1017C45.6811 34.9562 47.1376 34.6716 48.5575 34.2517C52.267 32.929 55.4022 30.3593 57.4275 26.9817C58.7405 24.664 59.5124 22.0794 59.6855 19.4212C59.8587 16.7631 59.4286 14.1002 58.4275 11.6317L58.3875 11.7017ZM51.9175 19.1917C51.8204 20.4133 51.4804 21.6032 50.9175 22.6917C50.0215 24.3467 48.5797 25.64 46.8375 26.3517C46.189 26.5672 45.518 26.7081 44.8375 26.7717C43.9087 26.8844 42.9726 26.9245 42.0375 26.8917H39.6875C39.5408 26.8891 39.4009 26.8289 39.298 26.7242C39.1951 26.6195 39.1375 26.4785 39.1375 26.3317C39.1375 20.9984 39.1375 15.665 39.1375 10.3317C39.1375 10.2582 39.152 10.1853 39.1802 10.1174C39.2083 10.0495 39.2495 9.98772 39.3016 9.93572C39.3536 9.88372 39.4153 9.84247 39.4832 9.81433C39.5512 9.78619 39.624 9.7717 39.6975 9.7717L43.2475 9.82171C44.1535 9.78812 45.0603 9.86535 45.9475 10.0517C46.9313 10.2584 47.859 10.6745 48.6675 11.2717C49.4791 11.8912 50.159 12.6663 50.6675 13.5517C50.9509 14.0034 51.1951 14.4784 51.3975 14.9717C51.8875 16.321 52.0686 17.7631 51.9275 19.1917H51.9175Z" fill="#002366"/>
<path d="M27.3864 11.0618C27.2756 11.2278 27.1296 11.3675 26.9588 11.4708C26.788 11.5742 26.5965 11.6386 26.398 11.6596C26.1994 11.6806 25.9987 11.6576 25.8101 11.5923C25.6214 11.527 25.4494 11.421 25.3064 11.2818C23.6414 9.6108 21.4037 8.63494 19.0464 8.55176C17.7802 8.47872 16.5121 8.6589 15.3164 9.08176C14.2099 9.48779 13.1915 10.1022 12.3164 10.8918C11.4475 11.6903 10.7442 12.6518 10.2464 13.7218C9.19595 16.0509 9.06731 18.6916 9.88637 21.1118C10.2828 22.2229 10.8983 23.243 11.6964 24.1118C12.4936 24.995 13.4547 25.7149 14.5264 26.2318C15.6494 26.7713 16.8714 27.0743 18.1164 27.1218C20.1164 27.2218 22.8764 27.1218 24.6664 25.9818C25.5364 25.4418 25.8764 25.6418 25.8364 26.5818L25.4964 33.5818C25.4702 33.8156 25.3741 34.0361 25.2207 34.2145C25.0673 34.3929 24.8636 34.5209 24.6364 34.5818H24.5364C23.269 34.9644 21.9756 35.2552 20.6664 35.4518C19.5043 35.6189 18.3288 35.6724 17.1564 35.6118C12.4923 35.4006 8.09273 33.3855 4.88637 29.9918C3.29732 28.2814 2.0454 26.2865 1.19637 24.1118C0.326803 21.8047 -0.0614475 19.3441 0.0554963 16.8814C0.17244 14.4187 0.792104 12.006 1.87637 9.79175C2.92422 7.73811 4.35685 5.90489 6.09637 4.39176C9.66578 1.35678 14.2566 -0.205679 18.9364 0.0217567C20.2874 0.0915136 21.6277 0.29926 22.9364 0.641756C23.3724 0.798245 23.7939 0.992309 24.1964 1.22176C27.9964 3.29176 29.3964 7.57176 27.4064 11.0618H27.3864Z" fill="#002366"/>
<path d="M23.9173 27.1918C24.1969 26.3014 24.645 25.473 25.2373 24.7518C25.844 24.0495 26.6034 23.4953 27.4573 23.1318C28.426 22.7282 29.4681 22.5307 30.5173 22.5518C31.3736 22.5463 32.2249 22.6814 33.0373 22.9518C33.8037 23.2085 34.5158 23.6052 35.1373 24.1218C35.7477 24.6289 36.2393 25.2639 36.5773 25.9818C36.9456 26.7595 37.1303 27.6114 37.1173 28.4718C37.1369 29.3191 36.9767 30.1609 36.6473 30.9418C36.3379 31.618 35.9113 32.2341 35.3873 32.7618C34.8624 33.3077 34.2789 33.7939 33.6473 34.2118L31.6473 35.4918C30.9873 35.9218 30.3473 36.3718 29.7273 36.8618C29.3724 37.1297 29.0381 37.4238 28.7273 37.7418C28.6649 37.8189 28.6262 37.9125 28.6162 38.0112C28.6061 38.11 28.6251 38.2095 28.6707 38.2976C28.7164 38.3857 28.7867 38.4585 28.8731 38.5072C28.9596 38.556 29.0583 38.5784 29.1573 38.5718H36.5873C36.7263 38.5664 36.8618 38.6157 36.9647 38.7093C37.0676 38.8028 37.1296 38.933 37.1373 39.0718V41.3618C37.1348 41.4314 37.1185 41.4999 37.0894 41.5632C37.0604 41.6265 37.0192 41.6835 36.9681 41.7309C36.917 41.7782 36.8571 41.8151 36.7917 41.8392C36.7264 41.8634 36.657 41.8745 36.5873 41.8718H23.5873C23.5156 41.8745 23.444 41.8628 23.3769 41.8375C23.3097 41.8122 23.2482 41.7738 23.1961 41.7244C23.1439 41.6751 23.1021 41.6158 23.0732 41.5501C23.0442 41.4844 23.0286 41.4136 23.0273 41.3418C23.0578 40.5417 23.2164 39.7516 23.4973 39.0018C23.809 38.207 24.2518 37.4701 24.8073 36.8218C25.3802 36.1593 26.0278 35.5653 26.7373 35.0518C27.4873 34.5118 28.2673 33.9618 29.0873 33.4018C29.5173 33.1118 29.9573 32.8218 30.4373 32.5218C30.9025 32.2276 31.3409 31.893 31.7473 31.5218C32.1374 31.1651 32.4741 30.7543 32.7473 30.3018C33.0169 29.8339 33.1551 29.3018 33.1473 28.7618C33.1753 28.372 33.1222 27.9806 32.9914 27.6123C32.8606 27.2439 32.6549 26.9067 32.3873 26.6218C31.8259 26.1022 31.0819 25.8254 30.3173 25.8518C29.8091 25.8348 29.3075 25.9706 28.8773 26.2418C28.4676 26.4888 28.1243 26.8321 27.8773 27.2418C27.6344 27.6909 27.4687 28.1777 27.3873 28.6818C27.3293 28.9916 27.3092 29.3072 27.3273 29.6218C27.3273 29.7118 27.3273 30.2518 27.3273 30.9318C27.3545 31.7514 27.1048 32.5563 26.6186 33.2166C26.1324 33.877 25.438 34.3544 24.6473 34.5718L24.1773 34.6918C23.8473 34.7618 23.7973 30.5018 23.7773 30.1918C23.6736 29.1905 23.7208 28.1792 23.9173 27.1918Z" fill="#3A8ABE"/>
<path d="M45.85 41.8117C46.7337 41.8117 47.45 41.0685 47.45 40.1517C47.45 39.2349 46.7337 38.4917 45.85 38.4917C44.9663 38.4917 44.25 39.2349 44.25 40.1517C44.25 41.0685 44.9663 41.8117 45.85 41.8117Z" fill="#3A8ABE"/>
<path d="M50.1898 41.8117C51.0735 41.8117 51.7898 41.0685 51.7898 40.1517C51.7898 39.2349 51.0735 38.4917 50.1898 38.4917C49.3062 38.4917 48.5898 39.2349 48.5898 40.1517C48.5898 41.0685 49.3062 41.8117 50.1898 41.8117Z" fill="#62B5D7"/>
<path d="M41.518 41.8117C42.4016 41.8117 43.118 41.0685 43.118 40.1517C43.118 39.2349 42.4016 38.4917 41.518 38.4917C40.6343 38.4917 39.918 39.2349 39.918 40.1517C39.918 41.0685 40.6343 41.8117 41.518 41.8117Z" fill="#002366"/>
<path d="M1.28133 46.5002V51.4619H0.623625V46.5002H1.28133ZM3.02032 48.4774V51.4619H2.38004V47.7373H2.98589L3.02032 48.4774ZM2.88951 49.4584L2.59346 49.4481C2.59576 49.1934 2.62903 48.9582 2.69329 48.7424C2.75755 48.5244 2.85279 48.3351 2.97901 48.1744C3.10523 48.0138 3.26243 47.8899 3.45062 47.8027C3.6388 47.7132 3.85682 47.6684 4.10467 47.6684C4.27908 47.6684 4.43973 47.6937 4.5866 47.7441C4.73348 47.7923 4.86085 47.8692 4.96871 47.9748C5.07657 48.0803 5.16033 48.2157 5.22 48.381C5.27967 48.5462 5.3095 48.7459 5.3095 48.98V51.4619H4.67266V49.0109C4.67266 48.8159 4.63939 48.6598 4.57283 48.5428C4.50858 48.4257 4.41678 48.3408 4.29744 48.288C4.17811 48.233 4.03812 48.2054 3.87747 48.2054C3.68929 48.2054 3.53209 48.2387 3.40587 48.3052C3.27964 48.3718 3.17867 48.4636 3.10294 48.5806C3.0272 48.6977 2.97213 48.8319 2.9377 48.9834C2.90557 49.1326 2.88951 49.2909 2.88951 49.4584ZM5.30262 49.1073L4.87576 49.2381C4.87806 49.0339 4.91133 48.8377 4.97559 48.6495C5.04215 48.4613 5.13738 48.2938 5.26131 48.1469C5.38753 48 5.54244 47.8841 5.72603 47.7992C5.90963 47.712 6.11961 47.6684 6.35599 47.6684C6.55565 47.6684 6.73236 47.6948 6.88611 47.7476C7.04217 47.8004 7.17298 47.8818 7.27855 47.992C7.38641 48.0999 7.46788 48.2387 7.52296 48.4085C7.57803 48.5783 7.60557 48.7803 7.60557 49.0144V51.4619H6.96529V49.0075C6.96529 48.7987 6.93201 48.6369 6.86546 48.5221C6.8012 48.4051 6.70941 48.3236 6.59007 48.2777C6.47303 48.2295 6.33304 48.2054 6.1701 48.2054C6.03011 48.2054 5.90618 48.2295 5.79832 48.2777C5.69046 48.3259 5.59981 48.3925 5.52637 48.4774C5.45294 48.56 5.39671 48.6552 5.3577 48.7631C5.32098 48.8709 5.30262 48.9857 5.30262 49.1073ZM10.7657 50.8251V48.9077C10.7657 48.7608 10.7358 48.6334 10.6762 48.5256C10.6188 48.4154 10.5316 48.3305 10.4146 48.2708C10.2975 48.2112 10.1529 48.1813 9.98082 48.1813C9.82017 48.1813 9.67904 48.2089 9.5574 48.2639C9.43807 48.319 9.34398 48.3913 9.27513 48.4808C9.20858 48.5703 9.1753 48.6667 9.1753 48.77H8.53846C8.53846 48.6369 8.57288 48.5049 8.64173 48.3741C8.71058 48.2433 8.80926 48.1251 8.93778 48.0195C9.06859 47.9117 9.22464 47.8268 9.40594 47.7648C9.58953 47.7005 9.79378 47.6684 10.0187 47.6684C10.2895 47.6684 10.5282 47.7143 10.7347 47.8061C10.9435 47.8979 11.1065 48.0367 11.2235 48.2226C11.3429 48.4062 11.4025 48.6369 11.4025 48.9146V50.6495C11.4025 50.7734 11.4128 50.9054 11.4335 51.0454C11.4565 51.1854 11.4897 51.3059 11.5333 51.4068V51.4619H10.869C10.8368 51.3885 10.8116 51.2909 10.7932 51.1693C10.7749 51.0454 10.7657 50.9306 10.7657 50.8251ZM10.8758 49.2037L10.8827 49.6512H10.239C10.0577 49.6512 9.89591 49.6661 9.75362 49.696C9.61134 49.7235 9.492 49.766 9.39561 49.8233C9.29923 49.8807 9.22579 49.953 9.1753 50.0402C9.12481 50.1251 9.09957 50.225 9.09957 50.3397C9.09957 50.4567 9.12596 50.5635 9.17874 50.6598C9.23153 50.7562 9.3107 50.8331 9.41627 50.8905C9.52413 50.9456 9.65609 50.9731 9.81214 50.9731C10.0072 50.9731 10.1793 50.9318 10.3285 50.8492C10.4777 50.7666 10.5959 50.6656 10.6831 50.5462C10.7726 50.4269 10.8208 50.311 10.8276 50.1986L11.0996 50.5049C11.0835 50.6013 11.0399 50.708 10.9688 50.8251C10.8976 50.9421 10.8024 51.0546 10.6831 51.1624C10.566 51.268 10.426 51.3563 10.2631 51.4275C10.1024 51.4963 9.92115 51.5308 9.7192 51.5308C9.46675 51.5308 9.24529 51.4814 9.05482 51.3827C8.86663 51.2841 8.71976 51.1521 8.61419 50.9869C8.51092 50.8193 8.45928 50.6323 8.45928 50.4258C8.45928 50.2261 8.4983 50.0505 8.57633 49.8991C8.65435 49.7453 8.7668 49.6179 8.91368 49.517C9.06055 49.4137 9.23726 49.3357 9.44381 49.2829C9.65035 49.2301 9.88099 49.2037 10.1357 49.2037H10.8758ZM14.8174 47.7373H15.3957V51.3827C15.3957 51.7109 15.3291 51.9909 15.196 52.2227C15.0629 52.4545 14.877 52.63 14.6384 52.7494C14.402 52.871 14.1289 52.9318 13.8191 52.9318C13.6906 52.9318 13.5391 52.9112 13.3647 52.8698C13.1926 52.8308 13.0227 52.7631 12.8552 52.6667C12.69 52.5727 12.5511 52.4453 12.4387 52.2846L12.7726 51.906C12.9286 52.0942 13.0916 52.225 13.2614 52.2984C13.4335 52.3719 13.6034 52.4086 13.7709 52.4086C13.9728 52.4086 14.1472 52.3707 14.2941 52.295C14.441 52.2192 14.5546 52.1068 14.6349 51.9576C14.7175 51.8107 14.7588 51.6294 14.7588 51.4137V48.5565L14.8174 47.7373ZM12.2528 49.6409V49.5686C12.2528 49.284 12.2861 49.0259 12.3526 48.7941C12.4215 48.56 12.519 48.3592 12.6452 48.1917C12.7737 48.0241 12.9286 47.8956 13.1099 47.8061C13.2912 47.7143 13.4955 47.6684 13.7227 47.6684C13.9568 47.6684 14.161 47.7097 14.3354 47.7923C14.5121 47.8727 14.6613 47.9908 14.7829 48.1469C14.9069 48.3007 15.0044 48.4865 15.0755 48.7046C15.1467 48.9226 15.196 49.1693 15.2236 49.4447V49.7614C15.1983 50.0345 15.149 50.28 15.0755 50.498C15.0044 50.7161 14.9069 50.902 14.7829 51.0557C14.6613 51.2095 14.5121 51.3277 14.3354 51.4103C14.1587 51.4906 13.9522 51.5308 13.7158 51.5308C13.4932 51.5308 13.2912 51.4837 13.1099 51.3896C12.9309 51.2955 12.7772 51.1636 12.6487 50.9937C12.5201 50.8239 12.4215 50.6243 12.3526 50.3948C12.2861 50.163 12.2528 49.9117 12.2528 49.6409ZM12.8896 49.5686V49.6409C12.8896 49.8268 12.908 50.0012 12.9447 50.1641C12.9837 50.3271 13.0422 50.4705 13.1203 50.5944C13.2006 50.7184 13.3027 50.8159 13.4266 50.887C13.5506 50.9559 13.6986 50.9903 13.8707 50.9903C14.0818 50.9903 14.2563 50.9456 14.394 50.8561C14.5316 50.7666 14.6407 50.6484 14.721 50.5015C14.8036 50.3546 14.8679 50.1951 14.9138 50.023V49.1934C14.8885 49.0672 14.8495 48.9455 14.7967 48.8285C14.7462 48.7092 14.6797 48.6036 14.5971 48.5118C14.5167 48.4177 14.4169 48.3431 14.2976 48.288C14.1782 48.233 14.0382 48.2054 13.8776 48.2054C13.7032 48.2054 13.5529 48.2421 13.4266 48.3156C13.3027 48.3867 13.2006 48.4854 13.1203 48.6116C13.0422 48.7355 12.9837 48.8801 12.9447 49.0454C12.908 49.2083 12.8896 49.3827 12.8896 49.5686ZM17.0549 47.7373V51.4619H16.4146V47.7373H17.0549ZM16.3664 46.7493C16.3664 46.646 16.3974 46.5588 16.4594 46.4877C16.5236 46.4165 16.6177 46.381 16.7417 46.381C16.8633 46.381 16.9562 46.4165 17.0205 46.4877C17.087 46.5588 17.1203 46.646 17.1203 46.7493C17.1203 46.848 17.087 46.9329 17.0205 47.004C16.9562 47.0729 16.8633 47.1073 16.7417 47.1073C16.6177 47.1073 16.5236 47.0729 16.4594 47.004C16.3974 46.9329 16.3664 46.848 16.3664 46.7493ZM18.7141 48.5324V51.4619H18.0773V47.7373H18.6797L18.7141 48.5324ZM18.5627 49.4584L18.2976 49.4481C18.2999 49.1934 18.3378 48.9582 18.4112 48.7424C18.4847 48.5244 18.5879 48.3351 18.721 48.1744C18.8541 48.0138 19.0125 47.8899 19.1961 47.8027C19.382 47.7132 19.5874 47.6684 19.8123 47.6684C19.9959 47.6684 20.1611 47.6937 20.308 47.7441C20.4548 47.7923 20.5799 47.8704 20.6832 47.9782C20.7888 48.0861 20.8691 48.2261 20.9242 48.3982C20.9792 48.568 21.0068 48.7757 21.0068 49.0213V51.4619H20.3665V49.0144C20.3665 48.8193 20.3378 48.6633 20.2804 48.5462C20.2231 48.4269 20.1393 48.3408 20.0291 48.288C19.919 48.233 19.7836 48.2054 19.6229 48.2054C19.4646 48.2054 19.32 48.2387 19.1892 48.3052C19.0607 48.3718 18.9494 48.4636 18.8553 48.5806C18.7635 48.6977 18.6912 48.8319 18.6384 48.9834C18.5879 49.1326 18.5627 49.2909 18.5627 49.4584ZM23.5197 51.5308C23.2604 51.5308 23.0252 51.4872 22.814 51.4C22.6052 51.3104 22.425 51.1854 22.2736 51.0247C22.1244 50.8641 22.0097 50.6736 21.9293 50.4533C21.849 50.233 21.8088 49.992 21.8088 49.7304V49.5858C21.8088 49.2829 21.8536 49.0132 21.9431 48.7769C22.0326 48.5382 22.1542 48.3362 22.308 48.171C22.4617 48.0058 22.6362 47.8807 22.8312 47.7958C23.0263 47.7109 23.2283 47.6684 23.4371 47.6684C23.7033 47.6684 23.9328 47.7143 24.1256 47.8061C24.3206 47.8979 24.4801 48.0264 24.6041 48.1917C24.728 48.3546 24.8198 48.5474 24.8794 48.77C24.9391 48.9903 24.969 49.2312 24.969 49.4929V49.7786H22.1875V49.2588H24.3321V49.2106C24.3229 49.0454 24.2885 48.8847 24.2288 48.7287C24.1715 48.5726 24.0797 48.4441 23.9534 48.3431C23.8272 48.2421 23.6551 48.1917 23.4371 48.1917C23.2925 48.1917 23.1594 48.2226 23.0378 48.2846C22.9161 48.3443 22.8117 48.4338 22.7245 48.5531C22.6373 48.6724 22.5696 48.8182 22.5214 48.9903C22.4732 49.1624 22.4491 49.3609 22.4491 49.5858V49.7304C22.4491 49.9071 22.4732 50.0735 22.5214 50.2295C22.5719 50.3833 22.6442 50.5187 22.7383 50.6357C22.8347 50.7528 22.9506 50.8446 23.086 50.9111C23.2237 50.9777 23.3797 51.011 23.5541 51.011C23.779 51.011 23.9695 50.9651 24.1256 50.8733C24.2816 50.7815 24.4182 50.6587 24.5352 50.5049L24.9208 50.8113C24.8404 50.9329 24.7383 51.0488 24.6144 51.159C24.4905 51.2691 24.3378 51.3586 24.1565 51.4275C23.9775 51.4963 23.7653 51.5308 23.5197 51.5308ZM25.7228 51.1246C25.7228 51.0167 25.7561 50.926 25.8227 50.8526C25.8915 50.7769 25.9902 50.739 26.1187 50.739C26.2472 50.739 26.3448 50.7769 26.4113 50.8526C26.4802 50.926 26.5146 51.0167 26.5146 51.1246C26.5146 51.2301 26.4802 51.3196 26.4113 51.3931C26.3448 51.4665 26.2472 51.5032 26.1187 51.5032C25.9902 51.5032 25.8915 51.4665 25.8227 51.3931C25.7561 51.3196 25.7228 51.2301 25.7228 51.1246ZM32.4424 49.8681H33.1033C33.0689 50.1848 32.9782 50.4682 32.8314 50.7184C32.6845 50.9685 32.4768 51.167 32.2083 51.3139C31.9398 51.4585 31.6047 51.5308 31.2031 51.5308C30.9094 51.5308 30.642 51.4757 30.401 51.3655C30.1624 51.2554 29.957 51.0993 29.7848 50.8974C29.6127 50.6931 29.4796 50.4487 29.3855 50.1641C29.2937 49.8773 29.2478 49.5583 29.2478 49.2072V48.708C29.2478 48.3569 29.2937 48.039 29.3855 47.7545C29.4796 47.4676 29.6139 47.222 29.7883 47.0178C29.965 46.8135 30.1773 46.6563 30.4251 46.5462C30.673 46.436 30.9518 46.381 31.2616 46.381C31.6403 46.381 31.9604 46.4521 32.2221 46.5944C32.4837 46.7367 32.6868 46.934 32.8314 47.1865C32.9782 47.4366 33.0689 47.7269 33.1033 48.0574H32.4424C32.4102 47.8233 32.3506 47.6225 32.2634 47.455C32.1762 47.2852 32.0522 47.1543 31.8916 47.0625C31.7309 46.9708 31.521 46.9249 31.2616 46.9249C31.039 46.9249 30.8428 46.9673 30.673 47.0522C30.5055 47.1371 30.3643 47.2576 30.2496 47.4137C30.1371 47.5697 30.0522 47.7568 29.9948 47.9748C29.9375 48.1928 29.9088 48.4349 29.9088 48.7011V49.2072C29.9088 49.4527 29.934 49.6833 29.9845 49.8991C30.0373 50.1148 30.1165 50.3041 30.222 50.4671C30.3276 50.63 30.4618 50.7585 30.6248 50.8526C30.7877 50.9444 30.9805 50.9903 31.2031 50.9903C31.4854 50.9903 31.7103 50.9456 31.8778 50.8561C32.0453 50.7666 32.1716 50.638 32.2565 50.4705C32.3437 50.303 32.4056 50.1022 32.4424 49.8681ZM33.7436 49.6409V49.5617C33.7436 49.2932 33.7826 49.0442 33.8606 48.8147C33.9387 48.5829 34.0511 48.3821 34.198 48.2123C34.3449 48.0402 34.5227 47.9071 34.7316 47.813C34.9404 47.7166 35.1745 47.6684 35.4338 47.6684C35.6954 47.6684 35.9306 47.7166 36.1395 47.813C36.3506 47.9071 36.5296 48.0402 36.6765 48.2123C36.8257 48.3821 36.9393 48.5829 37.0173 48.8147C37.0953 49.0442 37.1343 49.2932 37.1343 49.5617V49.6409C37.1343 49.9094 37.0953 50.1584 37.0173 50.3879C36.9393 50.6174 36.8257 50.8182 36.6765 50.9903C36.5296 51.1601 36.3518 51.2932 36.1429 51.3896C35.9364 51.4837 35.7023 51.5308 35.4407 51.5308C35.1791 51.5308 34.9438 51.4837 34.735 51.3896C34.5262 51.2932 34.3472 51.1601 34.198 50.9903C34.0511 50.8182 33.9387 50.6174 33.8606 50.3879C33.7826 50.1584 33.7436 49.9094 33.7436 49.6409ZM34.3804 49.5617V49.6409C34.3804 49.8268 34.4022 50.0023 34.4458 50.1676C34.4894 50.3305 34.5548 50.4751 34.642 50.6013C34.7316 50.7275 34.8429 50.8274 34.976 50.9008C35.1091 50.9719 35.264 51.0075 35.4407 51.0075C35.6151 51.0075 35.7677 50.9719 35.8985 50.9008C36.0316 50.8274 36.1418 50.7275 36.229 50.6013C36.3162 50.4751 36.3816 50.3305 36.4252 50.1676C36.4711 50.0023 36.4941 49.8268 36.4941 49.6409V49.5617C36.4941 49.3781 36.4711 49.2049 36.4252 49.0419C36.3816 48.8767 36.315 48.731 36.2255 48.6047C36.1383 48.4762 36.0282 48.3752 35.8951 48.3018C35.7643 48.2284 35.6105 48.1917 35.4338 48.1917C35.2594 48.1917 35.1056 48.2284 34.9725 48.3018C34.8417 48.3752 34.7316 48.4762 34.642 48.6047C34.5548 48.731 34.4894 48.8767 34.4458 49.0419C34.4022 49.2049 34.3804 49.3781 34.3804 49.5617ZM40.2807 50.739V46.1744H40.921V51.4619H40.3357L40.2807 50.739ZM37.7746 49.6409V49.5686C37.7746 49.284 37.809 49.0259 37.8779 48.7941C37.949 48.56 38.0489 48.3592 38.1774 48.1917C38.3082 48.0241 38.4631 47.8956 38.6421 47.8061C38.8234 47.7143 39.0253 47.6684 39.248 47.6684C39.482 47.6684 39.6863 47.7097 39.8607 47.7923C40.0374 47.8727 40.1866 47.9908 40.3082 48.1469C40.4321 48.3007 40.5297 48.4865 40.6008 48.7046C40.672 48.9226 40.7213 49.1693 40.7488 49.4447V49.7614C40.7236 50.0345 40.6743 50.28 40.6008 50.498C40.5297 50.7161 40.4321 50.902 40.3082 51.0557C40.1866 51.2095 40.0374 51.3277 39.8607 51.4103C39.684 51.4906 39.4774 51.5308 39.2411 51.5308C39.0231 51.5308 38.8234 51.4837 38.6421 51.3896C38.4631 51.2955 38.3082 51.1636 38.1774 50.9937C38.0489 50.8239 37.949 50.6243 37.8779 50.3948C37.809 50.163 37.7746 49.9117 37.7746 49.6409ZM38.4149 49.5686V49.6409C38.4149 49.8268 38.4333 50.0012 38.47 50.1641C38.509 50.3271 38.5687 50.4705 38.649 50.5944C38.7293 50.7184 38.8314 50.8159 38.9554 50.887C39.0793 50.9559 39.2273 50.9903 39.3994 50.9903C39.6106 50.9903 39.7838 50.9456 39.9192 50.8561C40.0569 50.7666 40.1671 50.6484 40.2497 50.5015C40.3323 50.3546 40.3966 50.1951 40.4425 50.023V49.1934C40.4149 49.0672 40.3748 48.9455 40.322 48.8285C40.2715 48.7092 40.2049 48.6036 40.1223 48.5118C40.042 48.4177 39.9422 48.3431 39.8228 48.288C39.7058 48.233 39.567 48.2054 39.4063 48.2054C39.2319 48.2054 39.0816 48.2421 38.9554 48.3156C38.8314 48.3867 38.7293 48.4854 38.649 48.6116C38.5687 48.7355 38.509 48.8801 38.47 49.0454C38.4333 49.2083 38.4149 49.3827 38.4149 49.5686ZM43.458 51.5308C43.1987 51.5308 42.9634 51.4872 42.7523 51.4C42.5435 51.3104 42.3633 51.1854 42.2118 51.0247C42.0627 50.8641 41.9479 50.6736 41.8676 50.4533C41.7873 50.233 41.7471 49.992 41.7471 49.7304V49.5858C41.7471 49.2829 41.7919 49.0132 41.8814 48.7769C41.9709 48.5382 42.0925 48.3362 42.2463 48.171C42.4 48.0058 42.5744 47.8807 42.7695 47.7958C42.9646 47.7109 43.1665 47.6684 43.3754 47.6684C43.6416 47.6684 43.8711 47.7143 44.0639 47.8061C44.2589 47.8979 44.4184 48.0264 44.5423 48.1917C44.6663 48.3546 44.7581 48.5474 44.8177 48.77C44.8774 48.9903 44.9072 49.2312 44.9072 49.4929V49.7786H42.1258V49.2588H44.2704V49.2106C44.2612 49.0454 44.2268 48.8847 44.1671 48.7287C44.1098 48.5726 44.018 48.4441 43.8917 48.3431C43.7655 48.2421 43.5934 48.1917 43.3754 48.1917C43.2308 48.1917 43.0977 48.2226 42.9761 48.2846C42.8544 48.3443 42.75 48.4338 42.6628 48.5531C42.5756 48.6724 42.5079 48.8182 42.4597 48.9903C42.4115 49.1624 42.3874 49.3609 42.3874 49.5858V49.7304C42.3874 49.9071 42.4115 50.0735 42.4597 50.2295C42.5102 50.3833 42.5825 50.5187 42.6766 50.6357C42.773 50.7528 42.8889 50.8446 43.0243 50.9111C43.1619 50.9777 43.318 51.011 43.4924 51.011C43.7173 51.011 43.9078 50.9651 44.0639 50.8733C44.2199 50.7815 44.3565 50.6587 44.4735 50.5049L44.859 50.8113C44.7787 50.9329 44.6766 51.0488 44.5527 51.159C44.4287 51.2691 44.2761 51.3586 44.0948 51.4275C43.9158 51.4963 43.7035 51.5308 43.458 51.5308ZM45.6611 51.1246C45.6611 51.0167 45.6944 50.926 45.7609 50.8526C45.8298 50.7769 45.9285 50.739 46.057 50.739C46.1855 50.739 46.283 50.7769 46.3496 50.8526C46.4184 50.926 46.4529 51.0167 46.4529 51.1246C46.4529 51.2301 46.4184 51.3196 46.3496 51.3931C46.283 51.4665 46.1855 51.5032 46.057 51.5032C45.9285 51.5032 45.8298 51.4665 45.7609 51.3931C45.6944 51.3196 45.6611 51.2301 45.6611 51.1246ZM52.0261 50.1951C52.0261 50.0781 52.0077 49.9748 51.971 49.8853C51.9366 49.7935 51.8746 49.7109 51.7851 49.6375C51.6979 49.564 51.5763 49.494 51.4202 49.4275C51.2665 49.3609 51.0714 49.2932 50.835 49.2244C50.5872 49.1509 50.3634 49.0695 50.1638 48.98C49.9641 48.8882 49.7931 48.7837 49.6508 48.6667C49.5086 48.5497 49.3995 48.4154 49.3238 48.2639C49.2481 48.1125 49.2102 47.9392 49.2102 47.7441C49.2102 47.5491 49.2504 47.3689 49.3307 47.2037C49.411 47.0385 49.5258 46.895 49.6749 46.7734C49.8264 46.6495 50.0065 46.5531 50.2154 46.4842C50.4242 46.4154 50.6572 46.381 50.9142 46.381C51.2906 46.381 51.6096 46.4532 51.8712 46.5978C52.1351 46.7401 52.3359 46.9271 52.4736 47.1589C52.6113 47.3884 52.6801 47.634 52.6801 47.8956H52.0192C52.0192 47.7074 51.979 47.541 51.8987 47.3965C51.8184 47.2496 51.6968 47.1348 51.5338 47.0522C51.3709 46.9673 51.1643 46.9249 50.9142 46.9249C50.6778 46.9249 50.4827 46.9604 50.329 47.0316C50.1752 47.1027 50.0605 47.1991 49.9847 47.3207C49.9113 47.4424 49.8746 47.5812 49.8746 47.7373C49.8746 47.8428 49.8964 47.9392 49.94 48.0264C49.9859 48.1113 50.0559 48.1905 50.15 48.2639C50.2464 48.3374 50.368 48.4051 50.5149 48.467C50.664 48.529 50.8419 48.5887 51.0484 48.646C51.333 48.7264 51.5786 48.8159 51.7851 48.9146C51.9917 49.0132 52.1615 49.1245 52.2946 49.2485C52.43 49.3701 52.5298 49.5089 52.5941 49.665C52.6606 49.8187 52.6939 49.9932 52.6939 50.1882C52.6939 50.3925 52.6526 50.5772 52.57 50.7425C52.4874 50.9077 52.3692 51.0488 52.2154 51.1659C52.0617 51.2829 51.8769 51.3736 51.6612 51.4378C51.4478 51.4998 51.2091 51.5308 50.9452 51.5308C50.7134 51.5308 50.485 51.4986 50.2601 51.4344C50.0375 51.3701 49.8344 51.2737 49.6508 51.1452C49.4695 51.0167 49.3238 50.8583 49.2137 50.6702C49.1058 50.4797 49.0519 50.2594 49.0519 50.0092H49.7128C49.7128 50.1813 49.7461 50.3294 49.8126 50.4533C49.8792 50.5749 49.9698 50.6759 50.0846 50.7562C50.2016 50.8365 50.3336 50.8962 50.4805 50.9352C50.6296 50.9719 50.7845 50.9903 50.9452 50.9903C51.177 50.9903 51.3732 50.9582 51.5338 50.8939C51.6945 50.8297 51.8161 50.7379 51.8987 50.6185C51.9836 50.4992 52.0261 50.3581 52.0261 50.1951ZM54.99 51.5308C54.7306 51.5308 54.4954 51.4872 54.2843 51.4C54.0754 51.3104 53.8953 51.1854 53.7438 51.0247C53.5947 50.8641 53.4799 50.6736 53.3996 50.4533C53.3193 50.233 53.2791 49.992 53.2791 49.7304V49.5858C53.2791 49.2829 53.3239 49.0132 53.4134 48.7769C53.5029 48.5382 53.6245 48.3362 53.7783 48.171C53.932 48.0058 54.1064 47.8807 54.3015 47.7958C54.4966 47.7109 54.6985 47.6684 54.9074 47.6684C55.1736 47.6684 55.4031 47.7143 55.5958 47.8061C55.7909 47.8979 55.9504 48.0264 56.0743 48.1917C56.1983 48.3546 56.29 48.5474 56.3497 48.77C56.4094 48.9903 56.4392 49.2312 56.4392 49.4929V49.7786H53.6578V49.2588H55.8024V49.2106C55.7932 49.0454 55.7588 48.8847 55.6991 48.7287C55.6417 48.5726 55.5499 48.4441 55.4237 48.3431C55.2975 48.2421 55.1254 48.1917 54.9074 48.1917C54.7628 48.1917 54.6297 48.2226 54.508 48.2846C54.3864 48.3443 54.282 48.4338 54.1948 48.5531C54.1076 48.6724 54.0399 48.8182 53.9917 48.9903C53.9435 49.1624 53.9194 49.3609 53.9194 49.5858V49.7304C53.9194 49.9071 53.9435 50.0735 53.9917 50.2295C54.0422 50.3833 54.1145 50.5187 54.2086 50.6357C54.3049 50.7528 54.4208 50.8446 54.5562 50.9111C54.6939 50.9777 54.85 51.011 55.0244 51.011C55.2493 51.011 55.4398 50.9651 55.5958 50.8733C55.7519 50.7815 55.8884 50.6587 56.0055 50.5049L56.391 50.8113C56.3107 50.9329 56.2086 51.0488 56.0847 51.159C55.9607 51.2691 55.8081 51.3586 55.6268 51.4275C55.4478 51.4963 55.2355 51.5308 54.99 51.5308ZM58.7284 51.5308C58.4691 51.5308 58.2338 51.4872 58.0227 51.4C57.8139 51.3104 57.6337 51.1854 57.4823 51.0247C57.3331 50.8641 57.2183 50.6736 57.138 50.4533C57.0577 50.233 57.0175 49.992 57.0175 49.7304V49.5858C57.0175 49.2829 57.0623 49.0132 57.1518 48.7769C57.2413 48.5382 57.3629 48.3362 57.5167 48.171C57.6704 48.0058 57.8449 47.8807 58.0399 47.7958C58.235 47.7109 58.4369 47.6684 58.6458 47.6684C58.912 47.6684 59.1415 47.7143 59.3343 47.8061C59.5293 47.8979 59.6888 48.0264 59.8128 48.1917C59.9367 48.3546 60.0285 48.5474 60.0881 48.77C60.1478 48.9903 60.1776 49.2312 60.1776 49.4929V49.7786H57.3962V49.2588H59.5408V49.2106C59.5316 49.0454 59.4972 48.8847 59.4375 48.7287C59.3802 48.5726 59.2884 48.4441 59.1621 48.3431C59.0359 48.2421 58.8638 48.1917 58.6458 48.1917C58.5012 48.1917 58.3681 48.2226 58.2465 48.2846C58.1248 48.3443 58.0204 48.4338 57.9332 48.5531C57.846 48.6724 57.7783 48.8182 57.7301 48.9903C57.6819 49.1624 57.6578 49.3609 57.6578 49.5858V49.7304C57.6578 49.9071 57.6819 50.0735 57.7301 50.2295C57.7806 50.3833 57.8529 50.5187 57.947 50.6357C58.0434 50.7528 58.1593 50.8446 58.2947 50.9111C58.4324 50.9777 58.5884 51.011 58.7628 51.011C58.9877 51.011 59.1782 50.9651 59.3343 50.8733C59.4903 50.7815 59.6269 50.6587 59.7439 50.5049L60.1295 50.8113C60.0491 50.9329 59.947 51.0488 59.8231 51.159C59.6992 51.2691 59.5465 51.3586 59.3652 51.4275C59.1862 51.4963 58.974 51.5308 58.7284 51.5308ZM60.9315 51.1246C60.9315 51.0167 60.9648 50.926 61.0314 50.8526C61.1002 50.7769 61.1989 50.739 61.3274 50.739C61.4559 50.739 61.5534 50.7769 61.62 50.8526C61.6888 50.926 61.7233 51.0167 61.7233 51.1246C61.7233 51.2301 61.6888 51.3196 61.62 51.3931C61.5534 51.4665 61.4559 51.5032 61.3274 51.5032C61.1989 51.5032 61.1002 51.4665 61.0314 51.3931C60.9648 51.3196 60.9315 51.2301 60.9315 51.1246Z" fill="#002366"/>
</g>
<defs>
<clipPath id="clip0_55_8664">
<rect width="63" height="53.4619" fill="white"/>
</clipPath>
</defs>
</svg>
