<?xml version="1.0" encoding="utf-8"?>
<!-- Generator: Adobe Illustrator 26.3.1, SVG Export Plug-In . SVG Version: 6.00 Build 0)  -->
<svg version="1.1" id="Layer_1" xmlns="http://www.w3.org/2000/svg" xmlns:xlink="http://www.w3.org/1999/xlink" x="0px" y="0px"
	 viewBox="0 0 1000 700" style="enable-background:new 0 0 1000 700;" xml:space="preserve">
<g>
	<g>
		<path d="M476.08,181.15c0,44.27,0,88.53,0,133.72c-25.31,0-50.14,0-75.44,0c0,23.34,0,45.75,0,68.7c57.65,0,115.16,0,173.84,0
			c0-6.59,0-13.14,0-19.7c0.65-0.24,1.31-0.48,1.96-0.73c7.52,7.39,15.04,14.79,22.56,22.18c0.63-0.4,1.26-0.8,1.9-1.2
			c0-22.6,0-45.2,0-68.75c-24.58,0-49.39,0-75.33,0c0-45.36,0-89.8,0-134.23c52.78,0,105.56,0,158.34,0c0,44.62,0,89.24,0,133.86
			c-24.96,0-49.91,0-76.11,0c0,3.76,0,6.91,0,10.06c0,74.93,0,149.86,0,224.79c0,2,0.42,4.11-0.12,5.99c-0.58,2-2.09,3.78-3.19,5.65
			c-0.99-1.94-2.84-3.87-2.85-5.81c-0.19-27.06-0.13-54.13-0.13-81.2c0-2.99,0-5.99,0-9.62c-58.02,0-115.53,0-174.19,0
			c0,6.46,0,13.04,0,21.85c-9.13-9.18-16.56-16.65-24-24.12c-0.92,0.55-1.85,1.1-2.77,1.65c0,32.08,0,64.17,0,96.25
			c-0.64,0.47-1.29,0.94-1.93,1.42c-1.56-1.14-3.91-2.02-4.49-3.49c-0.79-2-0.26-4.45-0.26-6.7c0-75.43,0-150.86,0-226.3
			c0-3.19,0-6.37,0-10.24c-25.57,0-50.19,0-76.11,0c0-45.13,0-89.59,0-134.05C370.52,181.15,423.3,181.15,476.08,181.15z
			 M470.24,308.89c0-40.8,0-80.75,0-121.16c-48.89,0-97.35,0-146.26,0c0,40.45,0,80.63,0,121.16
			C372.84,308.89,421.11,308.89,470.24,308.89z M531.39,308.86c49.22,0,97.48,0,146.31,0c0-40.56,0-80.74,0-121.11
			c-48.99,0-97.45,0-146.31,0C531.39,228.19,531.39,268.15,531.39,308.86z M577.46,411.41c-1-0.59-1.99-1.19-2.99-1.78
			c0-3.73-0.41-7.51,0.09-11.18c0.93-6.84-1.77-8.98-9.47-8.94c-51.94,0.29-103.89,0.14-155.83,0.18c-2.88,0-5.75,0.36-8.54,0.54
			c0,23.53,0,46.13,0,68.73c0.67,0.45,1.34,0.89,2,1.34c7.41-7.5,14.82-15.01,22.23-22.51c0.75,0.31,1.5,0.61,2.24,0.92
			c0,6.55,0,13.1,0,19.72c58.74,0,116.26,0,173.84,0c0-23.28,0-45.95,0-70.88C592.25,396.43,584.86,403.92,577.46,411.41z"/>
		<path d="M414.77,270.09c-1.58-2.31-3.99-4.45-4.6-6.96c-2.05-8.42-8.97-6.8-15.43-7.25c-6.44-0.45-9.48,2.04-11.16,7.35
			c-0.77,2.42-2.78,4.5-4.23,6.74c-0.88-0.37-1.76-0.73-2.64-1.1c1-2.91,1.85-5.87,3.02-8.73c4.03-9.83,8.07-19.65,12.38-29.38
			c0.7-1.58,2.66-3.59,4.21-3.72c1.46-0.12,3.94,1.66,4.61,3.12c5.82,12.62,11.33,25.35,16.93,38.05
			C416.83,268.85,415.8,269.47,414.77,270.09z M388.47,251.56c6.12,0,10.79,0,16.68,0c-2.79-6.84-5.17-12.68-7.56-18.52
			c-0.67,0.11-1.34,0.21-2.01,0.32C393.33,239.13,391.07,244.91,388.47,251.56z"/>
		<path d="M617.86,248.06c4.29,2.36,6.42,7.49,3.97,13.64c-2.55,6.4-8.72,7.63-15.37,7.79c-17.89,0.43-17.89,0.45-17.89-15.9
			c0-7.24,0.14-14.48-0.03-21.72c-0.09-3.87,1.62-5.44,5.84-5.22c3.55,0.19,7.34-0.68,10.62,0.2c4.92,1.32,11.31,2.69,13.64,6.03
			C620.8,235.95,618.41,241.66,617.86,248.06z M600.89,265.74c4.16-0.27,6.61,0.25,7.89-0.64c3.18-2.21,7.9-4.94,8.07-7.67
			c0.16-2.56-4.42-5.72-7.49-7.96c-1.44-1.05-4.23-0.51-6.4-0.76c-6.75-0.78-9.98,1.1-9.93,8.11
			C593.06,263.77,595.48,266.73,600.89,265.74z M602.71,244.7c5.63-0.18,12.75,0.67,12.44-7.1c-0.3-7.48-7.54-6.39-13.1-6.95
			c-6.07-0.6-8.94,1.2-8.95,7.39C593.07,244.87,597.18,245.22,602.71,244.7z"/>
	</g>
</g>
</svg>
