<?xml version="1.0" encoding="UTF-8" standalone="no"?>
<!-- Created with Inkscape (http://www.inkscape.org/) -->

<svg
   version="1.1"
   id="svg1"
   width="812"
   height="709"
   viewBox="0 0 812 709"
   xmlns="http://www.w3.org/2000/svg"
   xmlns:svg="http://www.w3.org/2000/svg">
  <defs
     id="defs1">
    <clipPath
       clipPathUnits="userSpaceOnUse"
       id="clipPath8">
      <rect
         style="fill:#000000;fill-opacity:0.164659"
         id="rect9"
         width="424.37433"
         height="334.62747"
         x="191.03255"
         y="185.90416" />
    </clipPath>
  </defs>
  <g
     id="g1">
    <g
       id="g21"
       transform="translate(-29.010554,-41.702677)">
      <path
         style="fill:#e3f3fb"
         d="m 441.34281,501.5 c 0.004,-4.4 0.17944,-6.07561 0.39069,-3.72357 0.21124,2.35204 0.20827,5.95204 -0.007,8 -0.21487,2.04796 -0.38771,0.12357 -0.38408,-4.27643 z m -79,-4 c 0.004,-4.4 0.17944,-6.07561 0.39069,-3.72357 0.21124,2.35204 0.20827,5.95204 -0.007,8 -0.21487,2.04796 -0.38771,0.12357 -0.38408,-4.27643 z m 7.09428,4.25 -2.93709,-3.25 3.25,2.93709 c 3.02946,2.73778 3.70965,3.56291 2.93709,3.56291 -0.1721,0 -1.6346,-1.4625 -3.25,-3.25 z m 15.87278,-2.25 c 0.006,-3.3 0.1923,-4.52944 0.41486,-2.73209 0.22256,1.79735 0.21797,4.49735 -0.0102,6 -0.22818,1.50265 -0.41027,0.0321 -0.40466,-3.26791 z m 37,0 c 0.006,-3.3 0.1923,-4.52944 0.41486,-2.73209 0.22256,1.79735 0.21797,4.49735 -0.0102,6 -0.22818,1.50265 -0.41027,0.0321 -0.40466,-3.26791 z m 6.94231,2 c 0.0111,-2.2 0.21589,-2.98225 0.45508,-1.73834 0.23919,1.24391 0.23011,3.04391 -0.0202,4 -0.25029,0.95609 -0.446,-0.0617 -0.4349,-2.26166 z m -80.17323,-2.08333 c 0.048,-1.16495 0.28494,-1.4019 0.60416,-0.60417 0.28887,0.72187 0.25335,1.58438 -0.0789,1.91667 -0.33229,0.33229 -0.56864,-0.25834 -0.52522,-1.3125 z m 71,0 c 0.048,-1.16495 0.28494,-1.4019 0.60416,-0.60417 0.28887,0.72187 0.25335,1.58438 -0.0789,1.91667 -0.33229,0.33229 -0.56864,-0.25834 -0.52522,-1.3125 z m 44,0 c 0.048,-1.16495 0.28494,-1.4019 0.60416,-0.60417 0.28887,0.72187 0.25335,1.58438 -0.0789,1.91667 -0.33229,0.33229 -0.56864,-0.25834 -0.52522,-1.3125 z m -33.47594,-4.25 c -0.28327,-0.45834 0.12038,-0.83334 0.89699,-0.83334 0.77661,0 1.18026,0.375 0.89699,0.83334 C 432.11373,495.625 431.71008,496 431.5,496 c -0.21008,0 -0.61373,-0.375 -0.89699,-0.83333 z M 215.34549,472.66325 c 0.69908,-0.50666 0.28041,-0.64574 -1.0613,-0.35256 -1.2187,0.26631 -2.1187,0.1695 -2,-0.21511 0.34532,-1.11897 -6.92409,-7.12235 -7.69314,-6.3533 -0.38321,0.38322 -0.3715,-0.15085 0.026,-1.18681 0.47407,-1.23542 0.3523,-1.65458 -0.35389,-1.21814 -0.69261,0.42806 -0.90065,-0.13768 -0.58319,-1.58595 0.29743,-1.35697 0.16107,-1.79273 -0.34326,-1.09687 C 202.87654,461.28949 202.5,406.09496 202.5,338 c 0,-68.09496 0.37654,-123.28949 0.83675,-122.65451 0.50433,0.69586 0.64069,0.2601 0.34326,-1.09687 -0.31746,-1.44827 -0.10942,-2.01401 0.58319,-1.58595 0.70619,0.43644 0.82796,0.0173 0.35389,-1.21814 -0.39754,-1.03596 -0.40925,-1.57003 -0.026,-1.18681 0.76905,0.76905 8.03846,-5.23433 7.69314,-6.3533 -0.1187,-0.38461 0.7813,-0.48142 2,-0.21511 1.34171,0.29318 1.76038,0.1541 1.0613,-0.35256 C 214.71051,202.87654 300.50504,202.5 406,202.5 c 105.49496,0 191.28949,0.37654 190.65451,0.83675 -0.69908,0.50666 -0.28041,0.64574 1.0613,0.35256 1.2187,-0.26631 2.1187,-0.1695 2,0.21511 -0.34532,1.11897 6.92409,7.12235 7.69314,6.3533 0.38321,-0.38322 0.3715,0.15085 -0.026,1.18681 -0.47407,1.23542 -0.3523,1.65458 0.35389,1.21814 0.69261,-0.42806 0.90065,0.13768 0.58319,1.58595 -0.29743,1.35697 -0.16107,1.79273 0.34326,1.09687 C 609.12346,214.71051 609.5,269.90504 609.5,338 c 0,68.09496 -0.37654,123.28949 -0.83675,122.65451 -0.50666,-0.69908 -0.64574,-0.28041 -0.35256,1.0613 0.26631,1.2187 0.19284,2.13477 -0.16325,2.03572 -0.84491,-0.23503 -8.63094,7.551 -8.39591,8.39591 0.0991,0.35609 -0.81702,0.42956 -2.03572,0.16325 -1.34171,-0.29318 -1.76038,-0.1541 -1.0613,0.35256 C 597.28949,473.12346 511.49496,473.5 406,473.5 c -105.49496,0 -191.28949,-0.37654 -190.65451,-0.83675 z M 214,459.59362 c 0,-1.91618 0.4085,-2.29956 2.00533,-1.88198 C 218.59923,458.38997 221,456.36557 221,453.5 c 0,-3.00873 -1.87319,-4.39827 -5.77943,-4.28721 L 212,449.30436 v 6.34782 c 0,3.56521 0.43836,6.34782 1,6.34782 0.55,0 1,-1.08287 1,-2.40638 z m 1.10005,-4.40668 c -1.19774,-2.23799 0.43974,-5.30077 2.4264,-4.53842 1.91701,0.73563 1.90871,4.97052 -0.0112,5.70725 -0.8395,0.32215 -1.8891,-0.18581 -2.4152,-1.16883 z M 456,459.59362 c 0,-1.91618 0.4085,-2.29956 2.00533,-1.88198 C 460.59923,458.38997 463,456.36557 463,453.5 c 0,-3.00873 -1.87319,-4.39827 -5.77943,-4.28721 L 454,449.30436 v 6.34782 c 0,3.56521 0.43836,6.34782 1,6.34782 0.55,0 1,-1.08287 1,-2.40638 z m 1.10005,-4.40668 c -1.19774,-2.23799 0.43974,-5.30077 2.4264,-4.53842 1.91701,0.73563 1.90871,4.97052 -0.0112,5.70725 -0.8395,0.32215 -1.8891,-0.18581 -2.4152,-1.16883 z m 55.9247,4.24796 C 513.56114,458.0241 514,455.07322 514,452.8774 v -3.9924 l -4.25,0.3075 c -4.24042,0.30681 -4.25,0.31652 -4.25,4.3075 0,3.64099 0.25214,4.02891 2.80929,4.32214 1.63049,0.18697 2.63325,0.81638 2.38976,1.5 -0.23073,0.64782 -1.38241,1.07067 -2.55928,0.93965 -1.17687,-0.13102 -2.13977,0.20648 -2.13977,0.75 0,0.54352 1.36114,0.98821 3.02475,0.98821 2.32674,0 3.24981,-0.59194 4,-2.5651 z m -5.6088,-3.79333 c -0.90863,-2.36785 -0.0467,-5.14157 1.59775,-5.14157 0.97534,0 1.4863,1.00269 1.4863,2.91667 0,3.16095 -2.13406,4.70052 -3.08405,2.2249 z M 536,459.59362 c 0,-1.91618 0.4085,-2.29956 2.00533,-1.88198 C 540.59923,458.38997 543,456.36557 543,453.5 c 0,-3.00873 -1.87319,-4.39827 -5.77943,-4.28721 L 534,449.30436 v 6.34782 c 0,3.56521 0.43836,6.34782 1,6.34782 0.55,0 1,-1.08287 1,-2.40638 z m 1.10005,-4.40668 c -1.19774,-2.23799 0.43974,-5.30077 2.4264,-4.53842 1.91701,0.73563 1.90871,4.97052 -0.0112,5.70725 -0.8395,0.32215 -1.8891,-0.18581 -2.4152,-1.16883 z M 560.2873,460.75 c 4.51634,-11.26205 4.65365,-11.75 3.30652,-11.75 -0.75735,0 -1.65936,1.125 -2.00446,2.5 -0.34511,1.375 -1.06032,2.5 -1.58936,2.5 -0.52904,0 -1.24425,-1.125 -1.58936,-2.5 -0.3451,-1.375 -1.23768,-2.5 -1.98351,-2.5 -1.0529,0 -0.91689,1.02453 0.60841,4.58291 2.35312,5.4896 2.32032,4.91837 0.39303,6.84566 C 556,461.85714 556.03573,462 557.82158,462 c 1.08044,0 2.19002,-0.5625 2.46572,-1.25 z M 225,455.93426 c 0,-2.79808 1.87918,-6.12697 3.05017,-5.40325 0.52241,0.32286 0.94983,2.13547 0.94983,4.02801 0,2.39198 0.45728,3.44098 1.5,3.44098 0.97732,0 1.5,-0.97876 1.5,-2.80887 0,-3.95012 -2.19265,-6.63552 -4.85046,-5.94049 C 225.38994,449.71079 225,449.37623 225,447.40638 225,446.08287 224.55,445 224,445 c -0.5641,0 -1,2.83333 -1,6.5 0,3.66667 0.4359,6.5 1,6.5 0.55,0 1,-0.92958 1,-2.06574 z m 17.0677,-0.0607 c 0.83888,-1.56747 0.84624,-2.76698 0.028,-4.56283 -0.89899,-1.97306 -1.72669,-2.37684 -4.35289,-2.1235 -2.72682,0.26304 -3.29446,0.76384 -3.56738,3.14729 -0.48813,4.26275 0.44235,5.66553 3.758,5.66553 2.03216,0 3.36238,-0.68421 4.13427,-2.12649 z m -5.40103,0.45982 c -1.09033,-1.09032 -0.75735,-5.15925 0.48503,-5.92709 1.82525,-1.12806 3.96101,2.51464 2.77437,4.7319 -1.03649,1.9367 -2.12043,2.33417 -3.2594,1.19519 z m 12.58333,0.63551 c -1.63981,-0.65912 -2.25,-1.72672 -2.25,-3.93662 0,-2.43751 0.44129,-3.05893 2.25,-3.1684 l 2.25,-0.13618 -2.25,-0.43337 c -1.2375,-0.23836 -2.25,-1.07707 -2.25,-1.86382 0,-2.06643 -1.98062,-1.76524 -2.10132,0.31955 -0.17599,3.03979 0.27685,8.7199 0.75737,9.5 0.25409,0.4125 1.67293,0.72148 3.15297,0.68661 2.607,-0.0614 2.62076,-0.0916 0.44098,-0.96777 z m 10.8177,-1.09533 c 0.83888,-1.56747 0.84624,-2.76698 0.028,-4.56283 -0.89899,-1.97306 -1.72669,-2.37684 -4.35289,-2.1235 -2.72682,0.26304 -3.29446,0.76384 -3.56738,3.14729 -0.48813,4.26275 0.44235,5.66553 3.758,5.66553 2.03216,0 3.36238,-0.68421 4.13427,-2.12649 z m -5.40103,0.45982 c -1.09033,-1.09032 -0.75735,-5.15925 0.48503,-5.92709 1.82525,-1.12806 3.96101,2.51464 2.77437,4.7319 -1.03649,1.9367 -2.12043,2.33417 -3.2594,1.19519 z M 278,451.5 c 0,-5.11111 -0.32051,-6.5 -1.5,-6.5 -0.825,0 -1.5,0.87011 -1.5,1.93358 0,1.36598 -0.80725,2.02646 -2.75,2.25 -2.18289,0.25117 -2.81693,0.90095 -3.07457,3.15089 -0.52615,4.59476 0.37975,5.66553 4.79319,5.66553 H 278 Z m -6.58405,4.14157 c -0.90863,-2.36785 -0.0467,-5.14157 1.59775,-5.14157 0.97534,0 1.4863,1.00269 1.4863,2.91667 0,3.16095 -2.13406,4.70052 -3.08405,2.2249 z m 16.38354,-2.05546 c -0.29474,-4.02134 -0.36289,-4.08851 -4.29949,-4.23757 -2.20895,-0.0837 -2.88059,0.0662 -1.5,0.33467 3.74702,0.72863 4.89086,2.31679 1.66862,2.31679 -2.84544,0 -4.28792,1.94376 -3.31807,4.47114 0.36708,0.9566 1.82085,1.42392 4.15648,1.33611 3.56676,-0.13408 3.58985,-0.16369 3.29246,-4.22114 z m -5.26948,2.46245 C 281.66701,454.6522 282.76666,453 284.55902,453 c 1.83608,0 1.85059,1.41516 0.03,2.92611 -0.96456,0.80051 -1.61601,0.83925 -2.05902,0.12245 z m 12.71999,0.92028 c -1.63981,-0.65912 -2.25,-1.72672 -2.25,-3.93662 0,-2.43751 0.44129,-3.05893 2.25,-3.1684 l 2.25,-0.13618 -2.25,-0.43337 c -1.2375,-0.23836 -2.25,-1.07707 -2.25,-1.86382 0,-2.06643 -1.98062,-1.76524 -2.10132,0.31955 -0.17599,3.03979 0.27685,8.7199 0.75737,9.5 0.25409,0.4125 1.67293,0.72148 3.15297,0.68661 2.607,-0.0614 2.62076,-0.0916 0.44098,-0.96777 z m 10.54949,-3.38273 c -0.29474,-4.02134 -0.36289,-4.08851 -4.29949,-4.23757 -2.20895,-0.0837 -2.88059,0.0662 -1.5,0.33467 3.74702,0.72863 4.89086,2.31679 1.66862,2.31679 -2.84544,0 -4.28792,1.94376 -3.31807,4.47114 0.36708,0.9566 1.82085,1.42392 4.15648,1.33611 3.56676,-0.13408 3.58985,-0.16369 3.29246,-4.22114 z m -5.26948,2.46245 C 299.66701,454.6522 300.76666,453 302.55902,453 c 1.83608,0 1.85059,1.41516 0.03,2.92611 -0.96456,0.80051 -1.61601,0.83925 -2.05902,0.12245 z m 16.19056,0.76838 c 3.19765,-2.65381 0.27685,-8.57254 -3.71524,-7.52858 C 311.4085,449.70594 311,449.32256 311,447.40638 311,446.08287 310.55,445 310,445 c -0.56164,0 -1,2.78261 -1,6.34782 v 6.34782 l 3.22057,0.0916 c 1.77131,0.0504 3.79631,-0.38626 4.5,-0.97027 z m -4.62052,-1.63 c -1.19774,-2.23799 0.43974,-5.30077 2.4264,-4.53842 1.91701,0.73563 1.90871,4.97052 -0.0112,5.70725 -0.8395,0.32215 -1.8891,-0.18581 -2.4152,-1.16883 z m 15.69944,-1.60083 c -0.29474,-4.02134 -0.36289,-4.08851 -4.29949,-4.23757 -2.20895,-0.0837 -2.88059,0.0662 -1.5,0.33467 3.74702,0.72863 4.89086,2.31679 1.66862,2.31679 -2.84544,0 -4.28792,1.94376 -3.31807,4.47114 0.36708,0.9566 1.82085,1.42392 4.15648,1.33611 3.56676,-0.13408 3.58985,-0.16369 3.29246,-4.22114 z m -5.26948,2.46245 C 321.66701,454.6522 322.76666,453 324.55902,453 c 1.83608,0 1.85059,1.41516 0.03,2.92611 -0.96456,0.80051 -1.61601,0.83925 -2.05902,0.12245 z m 15.28456,-0.29565 c 0.21532,-1.13665 -0.58899,-2.09685 -2.30198,-2.74812 -3.09723,-1.17757 -2.35033,-3.3895 0.82157,-2.43307 1.65948,0.50038 1.90056,0.3732 1.03118,-0.54399 -1.60069,-1.6887 -5.77985,-0.86911 -6.17633,1.21127 -0.20694,1.08582 0.62255,2.17365 2.20843,2.89622 2.8703,1.3078 2.46542,3.27342 -0.4816,2.33807 C 331.79909,456.11885 331,456.33686 331,456.99597 c 0,1.9215 6.43755,0.74721 6.81457,-1.24306 z m 10.78278,1.08957 c 0.49447,-0.80007 0.0197,-0.9756 -1.53743,-0.5684 C 344.53139,456.9353 342,456.24438 342,454.89301 342,454.40186 343.575,454 345.5,454 c 2.20513,0 3.5,-0.48095 3.5,-1.3 0,-1.94747 -2.13145,-3.7 -4.5,-3.7 -1.155,0 -2.64,0.54 -3.3,1.2 -0.66,0.66 -1.2,2.145 -1.2,3.3 0,1.155 0.54,2.64 1.2,3.3 1.53137,1.53137 6.45968,1.55967 7.39735,0.0425 z M 342,452.10699 c 0,-1.62864 2.83406,-2.01186 4.04933,-0.54755 0.9891,1.1918 0.7427,1.44056 -1.42689,1.44056 C 343.1801,453 342,452.59814 342,452.10699 Z m 125,3.82727 c 0,-2.79808 1.87918,-6.12697 3.05017,-5.40325 0.52241,0.32286 0.94983,2.13547 0.94983,4.02801 0,2.39198 0.45728,3.44098 1.5,3.44098 0.97732,0 1.5,-0.97876 1.5,-2.80887 0,-3.95012 -2.19265,-6.63552 -4.85046,-5.94049 C 467.38994,449.71079 467,449.37623 467,447.40638 467,446.08287 466.55,445 466,445 c -0.5641,0 -1,2.83333 -1,6.5 0,3.66667 0.4359,6.5 1,6.5 0.55,0 1,-0.92958 1,-2.06574 z m 17.0677,-0.0607 c 0.83888,-1.56747 0.84624,-2.76698 0.028,-4.56283 -0.89899,-1.97306 -1.72669,-2.37684 -4.35289,-2.1235 -2.72682,0.26304 -3.29446,0.76384 -3.56738,3.14729 -0.48813,4.26275 0.44235,5.66553 3.758,5.66553 2.03216,0 3.36238,-0.68421 4.13427,-2.12649 z m -5.40103,0.45982 c -1.09033,-1.09032 -0.75735,-5.15925 0.48503,-5.92709 1.82525,-1.12806 3.96101,2.51464 2.77437,4.7319 -1.03649,1.9367 -2.12043,2.33417 -3.2594,1.19519 z m 12.58333,0.63551 c -1.63981,-0.65912 -2.25,-1.72672 -2.25,-3.93662 0,-2.43751 0.44129,-3.05893 2.25,-3.1684 l 2.25,-0.13618 -2.25,-0.43337 c -1.2375,-0.23836 -2.25,-1.07707 -2.25,-1.86382 0,-2.06643 -1.98062,-1.76524 -2.10132,0.31955 -0.17599,3.03979 0.27685,8.7199 0.75737,9.5 0.25409,0.4125 1.67293,0.72148 3.15297,0.68661 2.607,-0.0614 2.62076,-0.0916 0.44098,-0.96777 z m 10.8177,-1.09533 c 0.83888,-1.56747 0.84624,-2.76698 0.028,-4.56283 -0.89899,-1.97306 -1.72669,-2.37684 -4.35289,-2.1235 -2.72682,0.26304 -3.29446,0.76384 -3.56738,3.14729 -0.48813,4.26275 0.44235,5.66553 3.758,5.66553 2.03216,0 3.36238,-0.68421 4.13427,-2.12649 z m -5.40103,0.45982 c -1.09033,-1.09032 -0.75735,-5.15925 0.48503,-5.92709 1.82525,-1.12806 3.96101,2.51464 2.77437,4.7319 -1.03649,1.9367 -2.12043,2.33417 -3.2594,1.19519 z M 518,455.93426 c 0,-2.79808 1.87918,-6.12697 3.05017,-5.40325 0.52241,0.32286 0.94983,0.14056 0.94983,-0.40511 0,-0.54567 -1.35,-0.95375 -3,-0.90684 -2.86025,0.0813 -3,0.28783 -3,4.43312 0,2.3913 0.45,4.34782 1,4.34782 0.55,0 1,-0.92958 1,-2.06574 z m 12.79949,-2.34815 c -0.29474,-4.02134 -0.36289,-4.08851 -4.29949,-4.23757 -2.20895,-0.0837 -2.88059,0.0662 -1.5,0.33467 3.74702,0.72863 4.89086,2.31679 1.66862,2.31679 -2.84544,0 -4.28792,1.94376 -3.31807,4.47114 0.36708,0.9566 1.82085,1.42392 4.15648,1.33611 3.56676,-0.13408 3.58985,-0.16369 3.29246,-4.22114 z m -5.26948,2.46245 C 524.66701,454.6522 525.76666,453 527.55902,453 c 1.83608,0 1.85059,1.41516 0.03,2.92611 -0.96456,0.80051 -1.61601,0.83925 -2.05902,0.12245 z M 547,455.93426 c 0,-2.79808 1.87918,-6.12697 3.05017,-5.40325 0.52241,0.32286 0.94983,2.13547 0.94983,4.02801 0,2.39198 0.45728,3.44098 1.5,3.44098 0.97732,0 1.5,-0.97876 1.5,-2.80887 0,-3.95012 -2.19265,-6.63552 -4.85046,-5.94049 C 547.38994,449.71079 547,449.37623 547,447.40638 547,446.08287 546.55,445 546,445 c -0.5641,0 -1,2.83333 -1,6.5 0,3.66667 0.4359,6.5 1,6.5 0.55,0 1,-0.92958 1,-2.06574 z m 29.82149,-0.77742 c 0.38422,-2.61306 2.17851,-1.87 2.17851,0.90218 0,3.08526 2.69651,2.25034 3.90217,-1.20824 0.60381,-1.73208 1.09783,-3.75708 1.09783,-4.5 0,-2.40331 -1.76118,-1.43127 -2.53516,1.39922 l -0.75198,2.75 -0.65151,-2.5 c -0.35834,-1.375 -1.28594,-2.5 -2.06135,-2.5 -0.77541,0 -1.70301,1.125 -2.06135,2.5 l -0.65151,2.5 -0.75198,-2.75 c -1.15404,-4.22037 -2.8775,-3.38836 -2.05567,0.99238 0.38615,2.05832 0.92746,4.10707 1.20294,4.55279 0.8834,1.42938 2.80717,0.11891 3.13906,-2.13833 z m 17.77586,1.68564 c 0.49447,-0.80007 0.0197,-0.9756 -1.53743,-0.5684 C 590.53139,456.9353 588,456.24438 588,454.89301 588,454.40186 589.575,454 591.5,454 c 2.20513,0 3.5,-0.48095 3.5,-1.3 0,-1.94747 -2.13145,-3.7 -4.5,-3.7 -1.155,0 -2.64,0.54 -3.3,1.2 -0.66,0.66 -1.2,2.145 -1.2,3.3 0,1.155 0.54,2.64 1.2,3.3 1.53137,1.53137 6.45968,1.55967 7.39735,0.0425 z M 588,452.10699 c 0,-1.62864 2.83406,-2.01186 4.04933,-0.54755 0.9891,1.1918 0.7427,1.44056 -1.42689,1.44056 C 589.1801,453 588,452.59814 588,452.10699 Z m 16.72057,4.70995 c 3.19765,-2.65381 0.27685,-8.57254 -3.71524,-7.52858 C 599.4085,449.70594 599,449.32256 599,447.40638 599,446.08287 598.55,445 598,445 c -0.56164,0 -1,2.78261 -1,6.34782 v 6.34782 l 3.22057,0.0916 c 1.77131,0.0504 3.79631,-0.38626 4.5,-0.97027 z m -4.62052,-1.63 c -1.19774,-2.23799 0.43974,-5.30077 2.4264,-4.53842 1.91701,0.73563 1.90871,4.97052 -0.0112,5.70725 -0.8395,0.32215 -1.8891,-0.18581 -2.4152,-1.16883 z M 268,453 c 0,-0.55 -1.125,-1 -2.5,-1 -1.375,0 -2.5,0.45 -2.5,1 0,0.55 1.125,1 2.5,1 1.375,0 2.5,-0.45 2.5,-1 z m 303,0 c 0,-0.55 -1.125,-1 -2.5,-1 -1.375,0 -2.5,0.45 -2.5,1 0,0.55 1.125,1 2.5,1 1.375,0 2.5,-0.45 2.5,-1 z M 302.27644,414.42147 c 9.12966,-3.11078 13.92379,-11.51611 15.31311,-26.84774 l 0.66224,-7.30803 6.49061,-0.60611 c 13.69958,-1.27928 23.48033,-11.43686 17.12862,-17.78857 -1.85405,-1.85405 -2.87629,-2.05086 -7.91613,-1.52409 l -5.78716,0.60487 2.39187,-4.27952 c 9.99206,-17.87773 15.45798,-43.93624 11.01718,-52.52381 -2.09155,-4.0446 -9.94819,-10.92405 -15.35708,-13.447 -4.46586,-2.08307 -5.87603,-2.188 -26.2197,-1.951 -16.44485,0.19157 -22.72097,0.631 -26.69291,1.86893 -4.82472,1.50371 -5.81448,1.49513 -13.95923,-0.12105 -20.93331,-4.15386 -34.51723,2.53653 -38.83904,19.12911 -2.02412,7.77111 -1.90125,13.63269 0.53653,25.59506 7.08099,34.74701 18.36365,52.39387 30.3077,47.40333 3.23734,-1.35265 3.83512,-1.31073 7.33575,0.51442 2.95945,1.54299 5.29395,1.91113 10.44582,1.64723 l 6.63462,-0.33984 1.06216,9.3505 c 1.23579,10.8791 3.89373,17.18792 8.47868,20.12483 3.90061,2.49855 10.52526,2.69319 16.96636,0.49848 z m -15.66156,-4.50977 c -4.7701,-3.75216 -5.94337,-7.43637 -6.42067,-20.1617 -0.46564,-12.41459 -0.67724,-12.83213 -5.19421,-10.25 -5.154,2.9463 -14.85854,1.38003 -17.40184,-2.80857 -1.38973,-2.28876 0.88751,-4.18809 6.20421,-5.17458 3.46593,-0.64309 7.19763,-2.97827 7.19763,-4.50406 0,-0.37247 -1.5613,-1.15641 -3.46956,-1.74207 -3.46497,-1.06342 -3.47834,-1.05503 -10.0899,6.33222 -5.84688,6.53287 -7.03027,7.39706 -10.12923,7.39706 -6.34406,0 -11.56477,-7.64837 -17.14696,-25.12039 -10.59347,-33.15707 -9.00331,-50.51012 5.33565,-58.22693 5.22815,-2.81363 20.33562,-3.00408 28.06106,-0.35374 4.81839,1.65303 5.22595,1.65153 8.5,-0.0313 2.50135,-1.28569 6.05584,-1.80836 13.03737,-1.91707 5.27913,-0.0822 12.89363,-0.66074 16.9211,-1.28562 11.53877,-1.7903 20.47807,0.19375 28.97468,6.43083 2.62907,1.92992 5.56682,5.16677 6.52834,7.19301 3.93554,8.29353 -0.53676,28.83665 -10.4731,48.10725 -2.71567,5.26679 -4.67848,9.99522 -4.36179,10.50762 0.33601,0.54369 3.8543,0.64565 8.44891,0.24486 6.7191,-0.58612 7.96349,-0.45132 8.48956,0.91961 1.55029,4.03999 -7.72942,9.40541 -17.71493,10.24256 -3.80116,0.31868 -6.9112,0.72368 -6.9112,0.89999 0,0.17632 -0.69969,5.39856 -1.55486,11.60497 -1.95466,14.18588 -4.11352,18.96134 -9.82097,21.72427 -5.73982,2.7786 -13.4573,2.76581 -17.00929,-0.0282 z m 17.0461,-3.42522 c 1.37834,-0.90312 3.11744,-3.10525 3.86466,-4.89361 C 308.90841,398.28344 312,377.31511 312,371.24608 c 0,-2.23349 0.83362,-4.17061 2.52087,-5.85786 2.50453,-2.50453 2.50874,-2.53825 0.64901,-5.20454 -3.86947,-5.54766 -11.06374,-21.29307 -11.71579,-25.64125 -1.29255,-8.61933 1.29191,-12.07884 9.98547,-13.36636 l 4.56495,-0.67607 -2.08182,-4.19961 c -5.67066,-11.43924 -17.16209,-19.15526 -29.88342,-20.06547 -6.10848,-0.43706 -7.65207,-0.1698 -12.38027,2.14349 -7.67068,3.75291 -12.17782,10.89511 -14.1164,22.36941 l -0.7132,4.22141 3.55318,-1.48462 c 1.95425,-0.81653 5.48014,-1.4703 7.8353,-1.45281 7.64162,0.0568 9.88961,3.56196 10.53954,16.43391 0.41826,8.28361 0.20668,9.65749 -2.54633,16.53429 -1.65137,4.125 -2.79787,7.8375 -2.54778,8.25 0.2501,0.4125 1.31779,0.75 2.37265,0.75 3.84101,0 4.7534,3.61123 5.17938,20.5 0.42073,16.68085 1.4243,20.93912 5.53464,23.48418 2.38141,1.47454 11.82199,0.5263 14.911,-1.4977 z m -30.37886,-29.84846 c 6.19829,-2.62346 8.45956,-7.64871 4.18063,-9.29069 -1.02754,-0.3943 -2.70666,0.61987 -4.78745,2.89156 -1.88728,2.06043 -4.63767,3.80668 -6.69007,4.24759 -4.97109,1.06791 -5.83165,1.82608 -2.97515,2.62113 4.00299,1.11417 6.8362,0.98464 10.27204,-0.46959 z m -19.00384,-6.23506 c 6.79332,-7.28161 7.25138,-8.16021 5.34978,-10.26145 -3.85578,-4.26059 -4.52981,-8.25225 -4.00533,-23.71969 0.67046,-19.77261 2.7366,-28.5199 8.20402,-34.73287 2.13847,-2.43008 0.74464,-3.2432 -8.12348,-4.739 -15.85645,-2.67454 -26.07734,2.90101 -28.72849,15.67154 -1.46864,7.07441 -0.73699,14.16113 2.97253,28.79143 C 235.2104,362.17056 242.06924,376 247.10108,376 c 1.08576,0 4.2779,-2.48935 7.1772,-5.59704 z m 77.1281,-0.19068 3.09362,-1.67735 -7.01774,-0.5649 c -3.85975,-0.3107 -7.48124,-0.85137 -8.04774,-1.20148 -1.43148,-0.88471 -3.03956,0.32936 -3.84131,2.90012 -0.49731,1.59457 -0.20209,2.30436 1.11522,2.68125 3.00937,0.86102 11.42469,-0.36289 14.69795,-2.13764 z M 274.56342,355.75 c 2.51288,-6.20394 2.93071,-8.54855 2.8959,-16.25 -0.0235,-5.20498 -0.56279,-9.94378 -1.27887,-11.23819 -1.59842,-2.88938 -5.41071,-3.809 -10.04024,-2.42196 -6.84967,2.05221 -7.03916,2.44474 -7.32785,15.17906 -0.23643,10.42936 -0.0501,11.86029 1.96949,15.12811 2.01536,3.26093 7.04296,6.77157 9.78157,6.83021 0.58488,0.0125 2.38488,-3.23973 4,-7.22723 z m -5.11727,-25.83713 c -0.36954,-0.59793 -0.21941,-1.53961 0.33362,-2.09264 1.24112,-1.24112 5.56395,0.81459 4.68922,2.22994 -0.8001,1.2946 -4.19524,1.20179 -5.02284,-0.1373 z m 56.78989,18.28172 c 6.18094,-13.10359 10.04494,-27.49395 9.51759,-35.44561 -0.4663,-7.03128 -3.25054,-10.39139 -12.30335,-14.84807 -5.24345,-2.58134 -7.19693,-2.99012 -14.36459,-3.00587 -4.56271,-0.01 -8.47367,0.15961 -8.69103,0.37696 -0.21735,0.21736 1.97319,2.02636 4.86787,4.02001 5.92775,4.0826 11.78781,11.2309 14.59026,17.79771 1.64308,3.85013 1.84188,6.53405 1.56522,21.13158 -0.17431,9.19671 -0.78967,17.60463 -1.36747,18.68426 -1.36101,2.54308 -1.33179,3.3863 0.087,2.50946 0.62562,-0.38665 3.36997,-5.43585 6.09854,-11.22043 z m -8.39422,-7.10962 c -0.0689,-7.59954 0.17005,-14.29516 0.53098,-14.87916 0.92191,-1.49168 -2.8383,-2.48212 -6.42916,-1.69343 -4.1996,0.92239 -6.3388,4.51005 -5.50544,9.23321 0.83045,4.70664 9.54252,22.38436 10.68397,21.6789 0.4647,-0.28719 0.78854,-6.73998 0.71965,-14.33952 z m -8.31081,-12.0348 c -0.73067,-1.18224 2.50887,-2.94452 4.26073,-2.3178 0.99218,0.35496 1.02176,0.78742 0.12755,1.86488 -1.33913,1.61355 -3.53115,1.8398 -4.38828,0.45292 z M 557.87287,398.5 l 26.14575,-15 -0.25931,-31 -0.25931,-31 -26.45815,-15.17017 -26.45815,-15.17017 -4.04185,2.3641 C 524.31883,294.82401 512.375,301.71049 500,308.82705 l -22.5,12.93919 V 352.63312 383.5 l 26.5,15.22456 c 14.575,8.37351 26.7761,15.12351 27.11356,15 0.33746,-0.12351 12.37915,-6.97456 26.75931,-15.22456 z M 505.8125,382.31689 c 0.72187,-0.28887 1.58438,-0.25335 1.91667,0.0789 0.33229,0.33229 -0.25834,0.56864 -1.3125,0.52522 -1.16495,-0.048 -1.4019,-0.28494 -0.60417,-0.60416 z m 46.9375,0.0208 c 0.6875,-0.27741 1.8125,-0.27741 2.5,0 0.6875,0.27741 0.125,0.50439 -1.25,0.50439 -1.375,0 -1.9375,-0.22698 -1.25,-0.50439 z M 510,381.62244 c 0,-0.20765 0.7875,-0.99515 1.75,-1.75 1.58606,-1.24387 1.62143,-1.2085 0.37756,0.37756 C 510.82119,381.91575 510,382.44548 510,381.62244 Z M 541.92431,375.25 539.5,372.5 l 2.75,2.42431 c 2.57029,2.26589 3.20859,3.07569 2.42431,3.07569 -0.17912,0 -1.41662,-1.2375 -2.75,-2.75 z M 513.40918,360.5 c -10e-4,-9.35 0.14916,-13.3096 0.33401,-8.7991 0.18486,4.51049 0.1858,12.16049 0.002,17 -0.1837,4.8395 -0.33495,1.1491 -0.3361,-8.2009 z m 19.99581,5.25 -1.90499,-2.25 2.25,1.90499 c 1.2375,1.04774 2.25,2.06024 2.25,2.25 0,0.80025 -0.80479,0.20945 -2.59501,-1.90499 z m -8.53255,-9.5 c -1.24387,-1.58606 -1.2085,-1.62143 0.37756,-0.37756 0.9625,0.75485 1.75,1.54235 1.75,1.75 0,0.82304 -0.82119,0.29331 -2.12756,-1.37244 z m 15.53255,-3.5 -1.90499,-2.25 2.25,1.90499 c 2.11444,1.79022 2.70524,2.59501 1.90499,2.59501 -0.18976,0 -1.20226,-1.0125 -2.25,-2.25 z m -24,-6 -1.90499,-2.25 2.25,1.90499 c 2.11444,1.79022 2.70524,2.59501 1.90499,2.59501 -0.18976,0 -1.20226,-1.0125 -2.25,-2.25 z m 15,-4 -1.90499,-2.25 2.25,1.90499 c 1.2375,1.04774 2.25,2.06024 2.25,2.25 0,0.80025 -0.80479,0.20945 -2.59501,-1.90499 z m -8,-9 -1.90499,-2.25 2.25,1.90499 c 1.2375,1.04774 2.25,2.06024 2.25,2.25 0,0.80025 -0.80479,0.20945 -2.59501,-1.90499 z m -8.53255,-9.5 c -1.24387,-1.58606 -1.2085,-1.62143 0.37756,-0.37756 1.66575,1.30637 2.19548,2.12756 1.37244,2.12756 -0.20765,0 -0.99515,-0.7875 -1.75,-1.75 z m -8.60341,-2.94299 c 0.97297,-0.25354 2.32297,-0.23687 3,0.0371 0.67703,0.27393 -0.11903,0.48137 -1.76903,0.46099 -1.65,-0.0204 -2.20394,-0.2445 -1.23097,-0.49804 z m 47.54347,0.01 c 0.72187,-0.28887 1.58438,-0.25335 1.91667,0.0789 0.33229,0.33229 -0.25834,0.56864 -1.3125,0.52522 -1.16495,-0.048 -1.4019,-0.28494 -0.60417,-0.60416 z M 311,222.13867 c 0,-1.44416 0.55803,-1.75465 2.48982,-1.38537 1.93567,0.37003 2.6857,-0.0503 3.36992,-1.88867 1.46779,-3.94358 -0.0881,-6.34411 -4.22253,-6.51474 L 309,212.19979 v 5.9001 c 0,3.26674 0.44633,5.90011 1,5.90011 0.55,0 1,-0.8376 1,-1.86133 z m 0.96561,-3.68011 c -0.90488,-1.09032 -1.03921,-2.11833 -0.40762,-3.1196 1.45882,-2.31272 2.90792,-2.07993 3.27667,0.52638 0.45242,3.19757 -1.15883,4.65391 -2.86905,2.59322 z M 222,215 c 0,-3.33333 -0.44444,-6 -1,-6 -0.55,0 -1,0.64511 -1,1.43358 0,0.82053 -1.176,1.56889 -2.75,1.75 -2.18289,0.25117 -2.81693,0.90095 -3.07457,3.15089 C 213.66581,219.7849 214.58658,221 218.46862,221 H 222 Z m -5.58405,3.64157 c -0.90863,-2.36785 -0.0467,-5.14157 1.59775,-5.14157 0.97534,0 1.4863,1.00269 1.4863,2.91667 0,3.16095 -2.13406,4.70052 -3.08405,2.2249 z M 230.8,219.8 c 0.66,-0.66 1.2,-2.1799 1.2,-3.37756 0,-5.12667 -7.24672,-6.13429 -7.82457,-1.08797 -0.17852,1.55896 -0.0801,3.47146 0.21861,4.25 0.66256,1.7266 4.75713,1.86436 6.40596,0.21553 z m -4.38405,-1.15843 c -0.90863,-2.36785 -0.0467,-5.14157 1.59775,-5.14157 0.97534,0 1.4863,1.00269 1.4863,2.91667 0,3.16095 -2.13406,4.70052 -3.08405,2.2249 z M 241,220.01179 c 0,-0.54352 -1.0125,-0.88102 -2.25,-0.75 -1.88627,0.1997 -2.25,-0.24676 -2.25,-2.76179 0,-2.51503 0.36373,-2.96149 2.25,-2.76179 1.2375,0.13102 2.25,-0.20648 2.25,-0.75 0,-1.10243 -2.99045,-1.31284 -5.41821,-0.38122 -1.58938,0.6099 -2.2716,6.36987 -0.91512,7.72634 1.04715,1.04715 6.33333,0.77877 6.33333,-0.32154 z m 4,-0.66678 c 0,-1.53998 0.12708,-1.53998 1.82874,0 2.88195,2.60813 4.90117,2.06085 2.36334,-0.64055 l -2.15655,-2.29554 2.20446,-2.20446 c 2.63632,-2.63633 0.44618,-3.13541 -2.41125,-0.54947 C 245.0938,215.22509 245,215.14815 245,212.15499 245,210.41974 244.55,209 244,209 c -0.55556,0 -1,2.66667 -1,6 0,3.33333 0.44444,6 1,6 0.55,0 1,-0.74474 1,-1.65499 z m 14.46377,0.71361 c 0.32,-0.51777 -0.6168,-0.85527 -2.08177,-0.75 -1.46496,0.10526 -2.86272,-0.37112 -3.10612,-1.05862 -0.29223,-0.82542 0.60476,-1.25 2.64079,-1.25 2.43254,0 3.08333,-0.42876 3.08333,-2.03138 0,-2.43666 -2.09803,-3.41182 -5.50224,-2.55741 -2.05057,0.51466 -2.49776,1.23519 -2.49776,4.02451 0,1.86869 0.5625,3.62459 1.25,3.902 2.13786,0.86265 5.60436,0.70694 6.21377,-0.2791 z M 254.25,214.75 c 0.22917,-0.6875 1.01667,-1.25 1.75,-1.25 0.73333,0 1.52083,0.5625 1.75,1.25 0.24786,0.74359 -0.46111,1.25 -1.75,1.25 -1.28889,0 -1.99786,-0.50641 -1.75,-1.25 z m 9.75,3.3067 c 0,-1.87059 0.77717,-3.48764 2.13239,-4.43688 2.08164,-1.45804 2.05785,-1.49146 -1,-1.40452 -3.0159,0.0857 -3.13239,0.25075 -3.13239,4.43688 0,2.3913 0.45,4.34782 1,4.34782 0.55,0 1,-1.32448 1,-2.9433 z m 17,1.95509 c 0,-0.54352 -1.0125,-0.88102 -2.25,-0.75 -1.88627,0.1997 -2.25,-0.24676 -2.25,-2.76179 0,-2.51503 0.36373,-2.96149 2.25,-2.76179 1.2375,0.13102 2.25,-0.20648 2.25,-0.75 0,-1.10243 -2.99045,-1.31284 -5.41821,-0.38122 -1.58938,0.6099 -2.2716,6.36987 -0.91512,7.72634 C 275.71382,221.38048 281,221.1121 281,220.01179 Z M 289.8,219.8 c 0.66,-0.66 1.2,-2.1799 1.2,-3.37756 0,-5.12667 -7.24672,-6.13429 -7.82457,-1.08797 -0.17852,1.55896 -0.0801,3.47146 0.21861,4.25 0.66256,1.7266 4.75713,1.86436 6.40596,0.21553 z m -4.38405,-1.15843 c -0.90863,-2.36785 -0.0467,-5.14157 1.59775,-5.14157 0.97534,0 1.4863,1.00269 1.4863,2.91667 0,3.16095 -2.13406,4.70052 -3.08405,2.2249 z M 295,218.12244 c 0,-2.88206 2.10542,-5.68368 3.34201,-4.4471 0.36189,0.3619 0.65799,2.15799 0.65799,3.99133 0,4.52557 1.80212,4.24626 2.18963,-0.33937 0.44581,-5.27539 2.81037,-5.62088 2.81037,-0.41063 0,2.96296 0.41156,4.08333 1.5,4.08333 1.70908,0 1.94347,-2.70339 0.55176,-6.36385 -0.87259,-2.29509 -1.43101,-2.48696 -7,-2.40508 L 293,212.32005 v 4.33998 c 0,2.38698 0.45,4.33997 1,4.33997 0.55,0 1,-1.2949 1,-2.87756 z M 325.8,219.8 c 0.66,-0.66 1.2,-2.1799 1.2,-3.37756 0,-5.12667 -7.24672,-6.13429 -7.82457,-1.08797 -0.17852,1.55896 -0.0801,3.47146 0.21861,4.25 0.66256,1.7266 4.75713,1.86436 6.40596,0.21553 z m -4.38405,-1.15843 c -0.90863,-2.36785 -0.0467,-5.14157 1.59775,-5.14157 0.97534,0 1.4863,1.00269 1.4863,2.91667 0,3.16095 -2.13406,4.70052 -3.08405,2.2249 z m 14.39862,0.11134 c 0.21384,-1.12883 -0.57949,-2.09323 -2.24181,-2.72525 C 330.5449,214.87647 330.01857,212.55373 333,213.5 c 1.19726,0.38 2,0.1797 2,-0.49903 0,-0.64631 -1.17874,-0.99776 -2.74145,-0.81739 -3.68083,0.42485 -4.20325,3.42887 -0.86111,4.95164 2.8703,1.3078 2.46542,3.27342 -0.4816,2.33807 C 329.79909,219.11885 329,219.33686 329,219.99597 c 0,1.9215 6.43755,0.74721 6.81457,-1.24306 z m 8.6492,1.30571 c 0.32,-0.51777 -0.6168,-0.85527 -2.08177,-0.75 -1.46496,0.10526 -2.86272,-0.37112 -3.10612,-1.05862 -0.29223,-0.82542 0.60476,-1.25 2.64079,-1.25 2.43254,0 3.08333,-0.42876 3.08333,-2.03138 0,-2.43666 -2.09803,-3.41182 -5.50224,-2.55741 -2.05057,0.51466 -2.49776,1.23519 -2.49776,4.02451 0,1.86869 0.5625,3.62459 1.25,3.902 2.13786,0.86265 5.60436,0.70694 6.21377,-0.2791 z M 339.25,214.75 c 0.22917,-0.6875 1.01667,-1.25 1.75,-1.25 0.73333,0 1.52083,0.5625 1.75,1.25 0.24786,0.74359 -0.46111,1.25 -1.75,1.25 -1.28889,0 -1.99786,-0.50641 -1.75,-1.25 z m -67.98097,1.59406 c -0.67703,-0.27392 -2.02703,-0.29059 -3,-0.0371 -0.97297,0.25354 -0.41903,0.47766 1.23097,0.49804 1.65,0.0204 2.44606,-0.18706 1.76903,-0.46099 z"
         id="path27" />
      <path
         style="fill:#a6aeb5"
         d="M 366.92431,502.25 364.5,499.5 l 2.75,2.42431 c 2.57029,2.26589 3.20859,3.07569 2.42431,3.07569 -0.17912,0 -1.41662,-1.2375 -2.75,-2.75 z M 471,501 c -0.90129,-0.58246 -1.02463,-0.97549 -0.30902,-0.98469 0.65504,-0.008 1.4691,0.43469 1.80902,0.98469 0.7673,1.24153 0.42112,1.24153 -1.5,0 z m -21.92105,-1.58333 c 0.048,-1.16495 0.28494,-1.4019 0.60416,-0.60417 0.28887,0.72187 0.25335,1.58438 -0.0789,1.91667 -0.33229,0.33229 -0.56864,-0.25834 -0.52522,-1.3125 z M 367,498.62244 c 0,-0.20765 0.7875,-0.99515 1.75,-1.75 1.58606,-1.24387 1.62143,-1.2085 0.37756,0.37756 C 367.82119,498.91575 367,499.44548 367,498.62244 Z M 212.5,472.11927 c -4.75782,-2.1848 -6.88992,-4.41489 -8.96186,-9.37375 C 202.1827,459.50149 202,444.68456 202,338 c 0,-106.68456 0.1827,-121.50149 1.53814,-124.74552 2.07194,-4.95886 4.20404,-7.18895 8.96186,-9.37375 3.83682,-1.76187 11.73056,-1.83681 193.5,-1.83681 181.76944,0 189.66318,0.0749 193.5,1.83681 4.75782,2.1848 6.88992,4.41489 8.96186,9.37375 1.35592,3.24516 1.53554,18.0495 1.51618,124.9634 -0.0209,115.54568 -0.10884,121.47131 -1.85877,125.28212 -2.1848,4.75782 -4.41489,6.88992 -9.37375,8.96186 -3.26946,1.36607 -24.85604,1.53568 -192.9634,1.51618 -181.53214,-0.0211 -189.4459,-0.0972 -193.28212,-1.85877 z m 386.49055,-0.97454 c 1.90264,-1.02039 4.82062,-3.53709 6.4844,-5.59265 L 608.5,461.81469 608.75487,339.15734 C 609.0408,201.55287 609.65145,212.95996 601.65718,206.5711 L 597.81436,203.5 H 406 214.18564 l -3.84282,3.0711 c -7.9615,6.36267 -7.33952,-4.75394 -7.34127,131.21102 -0.002,130.58305 -0.22176,124.99865 5.11957,129.90145 6.20566,5.69616 -8.42495,5.30356 197.89448,5.31027 182.68414,0.006 189.6403,-0.0607 192.97495,-1.84911 z M 212.32814,455.5 c 0.004,-3.85 0.18518,-5.30246 0.40166,-3.2277 0.21647,2.07477 0.21284,5.22477 -0.008,7 -0.22091,1.77524 -0.39803,0.0777 -0.39359,-3.7723 z m 242,0 c 0.004,-3.85 0.18518,-5.30246 0.40166,-3.2277 0.21647,2.07477 0.21284,5.22477 -0.008,7 -0.22091,1.77524 -0.39803,0.0777 -0.39359,-3.7723 z m 80,0 c 0.004,-3.85 0.18518,-5.30246 0.40166,-3.2277 0.21647,2.07477 0.21284,5.22477 -0.008,7 -0.22091,1.77524 -0.39803,0.0777 -0.39359,-3.7723 z M 510.5,458 c -0.33992,-0.55 -0.14148,-1 0.44098,-1 0.58246,0 1.05902,0.45 1.05902,1 0,0.55 -0.19844,1 -0.44098,1 -0.24254,0 -0.7191,-0.45 -1.05902,-1 z m -287.17186,-6.5 c 0.004,-3.85 0.18518,-5.30246 0.40166,-3.2277 0.21647,2.07477 0.21284,5.22477 -0.008,7 -0.22091,1.77524 -0.39803,0.0777 -0.39359,-3.7723 z m 5.62301,2.77606 c -0.27447,-2.32317 -0.11798,-3.84289 0.34775,-3.37716 0.46573,0.46573 0.6903,2.36651 0.49903,4.22394 -0.33919,3.29402 -0.36004,3.27318 -0.84678,-0.84678 z M 231.232,455 c 0,-1.925 0.2058,-2.7125 0.45733,-1.75 0.25152,0.9625 0.25152,2.5375 0,3.5 -0.25153,0.9625 -0.45733,0.175 -0.45733,-1.75 z m 46.09614,-3.5 c 0.004,-3.85 0.18518,-5.30246 0.40166,-3.2277 0.21647,2.07477 0.21284,5.22477 -0.008,7 -0.22091,1.77524 -0.39803,0.0777 -0.39359,-3.7723 z m 32,0 c 0.004,-3.85 0.18518,-5.30246 0.40166,-3.2277 0.21647,2.07477 0.21284,5.22477 -0.008,7 -0.22091,1.77524 -0.39803,0.0777 -0.39359,-3.7723 z m 37.27487,5.66667 c -0.28327,-0.45834 0.12038,-0.83334 0.89699,-0.83334 0.77661,0 1.18026,0.375 0.89699,0.83334 C 348.11373,457.625 347.71008,458 347.5,458 c -0.21008,0 -0.61373,-0.375 -0.89699,-0.83333 z M 465.32814,451.5 c 0.004,-3.85 0.18518,-5.30246 0.40166,-3.2277 0.21647,2.07477 0.21284,5.22477 -0.008,7 -0.22091,1.77524 -0.39803,0.0777 -0.39359,-3.7723 z m 5.62301,2.77606 c -0.27447,-2.32317 -0.11798,-3.84289 0.34775,-3.37716 0.46573,0.46573 0.6903,2.36651 0.49903,4.22394 -0.33919,3.29402 -0.36004,3.27318 -0.84678,-0.84678 z M 473.232,455 c 0,-1.925 0.2058,-2.7125 0.45733,-1.75 0.25152,0.9625 0.25152,2.5375 0,3.5 -0.25153,0.9625 -0.45733,0.175 -0.45733,-1.75 z m 40.05401,-1.5 c 0.008,-2.75 0.20172,-3.75631 0.43157,-2.23625 0.22986,1.52006 0.22371,3.77006 -0.0136,5 -0.23736,1.22994 -0.42542,-0.0138 -0.41792,-2.76375 z m 3,0 c 0.008,-2.75 0.20172,-3.75631 0.43157,-2.23625 0.22986,1.52006 0.22371,3.77006 -0.0136,5 -0.23736,1.22994 -0.42542,-0.0138 -0.41792,-2.76375 z m 29.04213,-2 c 0.004,-3.85 0.18518,-5.30246 0.40166,-3.2277 0.21647,2.07477 0.21284,5.22477 -0.008,7 -0.22091,1.77524 -0.39803,0.0777 -0.39359,-3.7723 z m 5.62301,2.77606 c -0.27447,-2.32317 -0.11798,-3.84289 0.34775,-3.37716 0.46573,0.46573 0.6903,2.36651 0.49903,4.22394 -0.33919,3.29402 -0.36004,3.27318 -0.84678,-0.84678 z M 553.232,455 c 0,-1.925 0.2058,-2.7125 0.45733,-1.75 0.25152,0.9625 0.25152,2.5375 0,3.5 -0.25153,0.9625 -0.45733,0.175 -0.45733,-1.75 z m 39.37101,2.16667 c -0.28327,-0.45834 0.12038,-0.83334 0.89699,-0.83334 0.77661,0 1.18026,0.375 0.89699,0.83334 C 594.11373,457.625 593.71008,458 593.5,458 c -0.21008,0 -0.61373,-0.375 -0.89699,-0.83333 z M 597.32814,451.5 c 0.004,-3.85 0.18518,-5.30246 0.40166,-3.2277 0.21647,2.07477 0.21284,5.22477 -0.008,7 -0.22091,1.77524 -0.39803,0.0777 -0.39359,-3.7723 z m -352.07596,2 c 0.0111,-2.2 0.21589,-2.98225 0.45508,-1.73834 0.23919,1.24391 0.23011,3.04391 -0.0202,4 -0.25029,0.95609 -0.446,-0.0617 -0.4349,-2.26166 z m 46,0 c 0.0111,-2.2 0.21589,-2.98225 0.45508,-1.73834 0.23919,1.24391 0.23011,3.04391 -0.0202,4 -0.25029,0.95609 -0.446,-0.0617 -0.4349,-2.26166 z m 196,0 c 0.0111,-2.2 0.21589,-2.98225 0.45508,-1.73834 0.23919,1.24391 0.23011,3.04391 -0.0202,4 -0.25029,0.95609 -0.446,-0.0617 -0.4349,-2.26166 z m -245.17323,-0.0833 c 0.048,-1.16495 0.28494,-1.4019 0.60416,-0.60417 0.28887,0.72187 0.25335,1.58438 -0.0789,1.91667 -0.3323,0.33229 -0.56864,-0.25834 -0.52522,-1.3125 z m 18,0 c 0.048,-1.16495 0.28494,-1.4019 0.60416,-0.60417 0.28887,0.72187 0.25335,1.58438 -0.0789,1.91667 -0.33229,0.33229 -0.56864,-0.25834 -0.52522,-1.3125 z m 15,0 c 0.048,-1.16495 0.28494,-1.4019 0.60416,-0.60417 0.28887,0.72187 0.25335,1.58438 -0.0789,1.91667 -0.33229,0.33229 -0.56864,-0.25834 -0.52522,-1.3125 z m 209,0 c 0.048,-1.16495 0.28494,-1.4019 0.60416,-0.60417 0.28887,0.72187 0.25335,1.58438 -0.0789,1.91667 -0.33229,0.33229 -0.56864,-0.25834 -0.52522,-1.3125 z m 18,0 c 0.048,-1.16495 0.28494,-1.4019 0.60416,-0.60417 0.28887,0.72187 0.25335,1.58438 -0.0789,1.91667 -0.33229,0.33229 -0.56864,-0.25834 -0.52522,-1.3125 z m 9,0 c 0.048,-1.16495 0.28494,-1.4019 0.60416,-0.60417 0.28887,0.72187 0.25335,1.58438 -0.0789,1.91667 -0.33229,0.33229 -0.56864,-0.25834 -0.52522,-1.3125 z M 274.75525,447.5 c 0.26285,-1.375 0.65044,-2.5 0.86133,-2.5 0.21088,0 0.38342,1.125 0.38342,2.5 0,1.375 -0.3876,2.5 -0.86133,2.5 -0.47373,0 -0.64627,-1.125 -0.38342,-2.5 z m -29.6763,-0.0833 c 0.048,-1.16495 0.28494,-1.4019 0.60416,-0.60417 0.28887,0.72187 0.25335,1.58438 -0.0789,1.91667 -0.3323,0.33229 -0.56864,-0.25834 -0.52522,-1.3125 z m 46,0 c 0.048,-1.16495 0.28494,-1.4019 0.60416,-0.60417 0.28887,0.72187 0.25335,1.58438 -0.0789,1.91667 -0.33229,0.33229 -0.56864,-0.25834 -0.52522,-1.3125 z m 196,0 c 0.048,-1.16495 0.28494,-1.4019 0.60416,-0.60417 0.28887,0.72187 0.25335,1.58438 -0.0789,1.91667 -0.33229,0.33229 -0.56864,-0.25834 -0.52522,-1.3125 z M 292.25,412.31067 c 0.9625,-0.25152 2.5375,-0.25152 3.5,0 0.9625,0.25153 0.175,0.45733 -1.75,0.45733 -1.925,0 -2.7125,-0.2058 -1.75,-0.45733 z M 284.40499,408.75 282.5,406.5 l 2.25,1.90499 c 2.11444,1.79022 2.70524,2.59501 1.90499,2.59501 -0.18976,0 -1.20226,-1.0125 -2.25,-2.25 z m 2.46745,-2.5 c -1.24387,-1.58606 -1.2085,-1.62143 0.37756,-0.37756 0.9625,0.75485 1.75,1.54235 1.75,1.75 0,0.82304 -0.82119,0.29331 -2.12756,-1.37244 z M 304.5,405 c 0.99549,-1.1 2.03498,-2 2.30998,-2 0.275,0 -0.31449,0.9 -1.30998,2 -0.99549,1.1 -2.03498,2 -2.30998,2 -0.275,0 0.31449,-0.9 1.30998,-2 z m -24.42105,-5.58333 c 0.048,-1.16495 0.28494,-1.4019 0.60416,-0.60417 0.28887,0.72187 0.25335,1.58438 -0.0789,1.91667 -0.33229,0.33229 -0.56864,-0.25834 -0.52522,-1.3125 z M 283.15789,394 c 0,-1.375 0.22698,-1.9375 0.50439,-1.25 0.27741,0.6875 0.27741,1.8125 0,2.5 -0.27741,0.6875 -0.50439,0.125 -0.50439,-1.25 z m 25.92106,-1.58333 c 0.048,-1.16495 0.28494,-1.4019 0.60416,-0.60417 0.28887,0.72187 0.25335,1.58438 -0.0789,1.91667 -0.33229,0.33229 -0.56864,-0.25834 -0.52522,-1.3125 z M 276.25218,387.5 c 0.0111,-2.2 0.21589,-2.98225 0.45508,-1.73834 0.23919,1.24391 0.23011,3.04391 -0.0202,4 -0.25029,0.95609 -0.446,-0.0617 -0.4349,-2.26166 z m 40.90571,-0.5 c 0,-1.375 0.22698,-1.9375 0.50439,-1.25 0.27741,0.6875 0.27741,1.8125 0,2.5 -0.27741,0.6875 -0.50439,0.125 -0.50439,-1.25 z m -37.85823,-4 c 0,-3.025 0.18747,-4.2625 0.41659,-2.75 0.22913,1.5125 0.22913,3.9875 0,5.5 -0.22912,1.5125 -0.41659,0.275 -0.41659,-2.75 z m 30.77929,1.41667 c 0.048,-1.16495 0.28494,-1.4019 0.60416,-0.60417 0.28887,0.72187 0.25335,1.58438 -0.0789,1.91667 -0.33229,0.33229 -0.56864,-0.25834 -0.52522,-1.3125 z m -63.26645,-1.09978 c 0.72187,-0.28887 1.58437,-0.25335 1.91667,0.0789 0.33229,0.33229 -0.25834,0.56864 -1.3125,0.52522 -1.16495,-0.048 -1.4019,-0.28494 -0.60417,-0.60416 z m 0,-4 c 0.72187,-0.28887 1.58437,-0.25335 1.91667,0.0789 0.33229,0.33229 -0.25834,0.56864 -1.3125,0.52522 -1.16495,-0.048 -1.4019,-0.28494 -0.60417,-0.60416 z M 257.87244,378.25 c -1.24387,-1.58606 -1.2085,-1.62143 0.37756,-0.37756 1.66575,1.30637 2.19548,2.12756 1.37244,2.12756 -0.20765,0 -0.99515,-0.7875 -1.75,-1.75 z M 252,377.62244 c 0,-0.20765 0.7875,-0.99515 1.75,-1.75 1.58606,-1.24387 1.62143,-1.2085 0.37756,0.37756 C 252.82119,377.91575 252,378.44548 252,377.62244 Z m 14.25,-0.31177 c 0.9625,-0.25152 2.5375,-0.25152 3.5,0 0.9625,0.25153 0.175,0.45733 -1.75,0.45733 -1.925,0 -2.7125,-0.2058 -1.75,-0.45733 z m 44.82895,-0.894 c 0.048,-1.16495 0.28494,-1.4019 0.60416,-0.60417 0.28887,0.72187 0.25335,1.58438 -0.0789,1.91667 -0.33229,0.33229 -0.56864,-0.25834 -0.52522,-1.3125 z M 561.43466,352 c 0,-14.025 0.14065,-19.7625 0.31255,-12.75 0.1719,7.0125 0.1719,18.4875 0,25.5 -0.1719,7.0125 -0.31255,1.275 -0.31255,-12.75 z m -282.70345,18.91984 c 0.35361,-1.3522 0.8069,-1.8055 1.05655,-1.05655 0.24048,0.72144 -0.0382,1.78716 -0.61931,2.36826 -0.74207,0.74207 -0.87221,0.35164 -0.43724,-1.31171 z m 40.51879,1.39083 c 0.9625,-0.25152 2.5375,-0.25152 3.5,0 0.9625,0.25153 0.175,0.45733 -1.75,0.45733 -1.925,0 -2.7125,-0.2058 -1.75,-0.45733 z M 537.87244,371.25 c -1.24387,-1.58606 -1.2085,-1.62143 0.37756,-0.37756 0.9625,0.75485 1.75,1.54235 1.75,1.75 0,0.82304 -0.82119,0.29331 -2.12756,-1.37244 z M 259.5,369 c 0.99549,-1.1 2.03498,-2 2.30998,-2 0.275,0 -0.31449,0.9 -1.30998,2 -0.99549,1.1 -2.03498,2 -2.30998,2 -0.275,0 0.31449,-0.9 1.30998,-2 z m 13.5,0.62244 c 0,-0.20765 0.7875,-0.99515 1.75,-1.75 1.58606,-1.24387 1.62143,-1.2085 0.37756,0.37756 C 273.82119,369.91575 273,370.44548 273,369.62244 Z M 257,366.5 c 1.29175,-1.375 2.57363,-2.5 2.84863,-2.5 0.275,0 -0.55688,1.125 -1.84863,2.5 -1.29175,1.375 -2.57363,2.5 -2.84863,2.5 -0.275,0 0.55688,-1.125 1.84863,-2.5 z m 68.8125,1.81689 c 0.72187,-0.28887 1.58438,-0.25335 1.91667,0.0789 0.33229,0.33229 -0.25834,0.56864 -1.3125,0.52522 -1.16495,-0.048 -1.4019,-0.28494 -0.60417,-0.60416 z m -50.30542,-5.30544 c -0.35034,-0.56686 0.0511,-0.7345 0.94098,-0.39301 1.73242,0.66479 2.04939,1.38156 0.61096,1.38156 -0.51754,0 -1.21592,-0.44485 -1.55194,-0.98855 z M 529.40499,361.75 527.5,359.5 l 2.25,1.90499 c 2.11444,1.79022 2.70524,2.59501 1.90499,2.59501 -0.18976,0 -1.20226,-1.0125 -2.25,-2.25 z m -259.59249,0.56689 c 0.72187,-0.28887 1.58438,-0.25335 1.91667,0.0789 0.33229,0.33229 -0.25834,0.56864 -1.3125,0.52522 -1.16495,-0.048 -1.4019,-0.28494 -0.60417,-0.60416 z M 319,359 c 0,-0.55 0.47656,-1 1.05902,-1 0.58246,0 0.73793,-0.51953 0.34549,-1.15451 -0.45236,-0.73193 -0.27317,-0.88235 0.48954,-0.41097 0.92122,0.56934 0.92873,1.07409 0.0321,2.15451 C 319.54391,360.25448 319,360.37053 319,359 Z m 225.40499,-2.25 -1.90499,-2.25 2.22394,1.8814 2.22394,1.88141 0.30335,-15.88141 0.30336,-15.8814 0.2227,16.25 c 0.12249,8.9375 -0.15755,16.25 -0.6223,16.25 -0.46476,0 -1.70226,-1.0125 -2.75,-2.25 z m -23,-4 -1.90499,-2.25 2.25,1.90499 c 2.11444,1.79022 2.70524,2.59501 1.90499,2.59501 -0.18976,0 -1.20226,-1.0125 -2.25,-2.25 z m -200.32604,-0.33333 c 0.048,-1.16495 0.28494,-1.4019 0.60416,-0.60417 0.28887,0.72187 0.25335,1.58438 -0.0789,1.91667 -0.33229,0.33229 -0.56864,-0.25834 -0.52522,-1.3125 z M 258.15789,348 c 0,-1.375 0.22698,-1.9375 0.50439,-1.25 0.27741,0.6875 0.27741,1.8125 0,2.5 -0.27741,0.6875 -0.50439,0.125 -0.50439,-1.25 z m 277.2471,-1.25 -1.90499,-2.25 2.25,1.90499 c 2.11444,1.79022 2.70524,2.59501 1.90499,2.59501 -0.18976,0 -1.20226,-1.0125 -2.25,-2.25 z M 321.15789,345 c 0,-1.375 0.22698,-1.9375 0.50439,-1.25 0.27741,0.6875 0.27741,1.8125 0,2.5 -0.27741,0.6875 -0.50439,0.125 -0.50439,-1.25 z m -39.90571,-4.5 c 0.0111,-2.2 0.21589,-2.98225 0.45508,-1.73834 0.23919,1.24391 0.23011,3.04391 -0.0202,4 -0.25029,0.95609 -0.446,-0.0617 -0.4349,-2.26166 z m -26.09429,0.5 c 0,-1.375 0.22698,-1.9375 0.50439,-1.25 0.27741,0.6875 0.27741,1.8125 0,2.5 -0.27741,0.6875 -0.50439,0.125 -0.50439,-1.25 z m 61.92106,-0.58333 c 0.048,-1.16495 0.28494,-1.4019 0.60416,-0.60417 0.28887,0.72187 0.25335,1.58438 -0.0789,1.91667 -0.33229,0.33229 -0.56864,-0.25834 -0.52522,-1.3125 z M 527.40499,337.75 525.5,335.5 l 2.25,1.90499 c 1.2375,1.04774 2.25,2.06024 2.25,2.25 0,0.80025 -0.80479,0.20945 -2.59501,-1.90499 z m -250.32604,-2.33333 c 0.048,-1.16495 0.28494,-1.4019 0.60416,-0.60417 0.28887,0.72187 0.25335,1.58438 -0.0789,1.91667 -0.33229,0.33229 -0.56864,-0.25834 -0.52522,-1.3125 z M 317.15789,333 c 0,-1.375 0.22698,-1.9375 0.50439,-1.25 0.27741,0.6875 0.27741,1.8125 0,2.5 -0.27741,0.6875 -0.50439,0.125 -0.50439,-1.25 z m -61.85823,-4 c 0,-3.025 0.18747,-4.2625 0.41659,-2.75 0.22913,1.5125 0.22913,3.9875 0,5.5 -0.22912,1.5125 -0.41659,0.275 -0.41659,-2.75 z m 50.89529,2.5 c 0.0204,-1.65 0.2445,-2.20394 0.49804,-1.23097 0.25354,0.97297 0.23687,2.32297 -0.0371,3 -0.27393,0.67703 -0.48137,-0.11903 -0.46099,-1.76903 z m -37.7488,-1.58713 c -0.36954,-0.59793 -0.26752,-1.4915 0.2267,-1.98572 0.53144,-0.53144 0.89858,-0.0873 0.89858,1.08714 0,2.27223 -0.18501,2.41996 -1.12528,0.89858 z M 518.40499,327.75 516.5,325.5 l 2.25,1.90499 c 1.2375,1.04774 2.25,2.06024 2.25,2.25 0,0.80025 -0.80479,0.20945 -2.59501,-1.90499 z m -244.07166,-0.20601 c 0,-0.80081 0.38234,-1.21971 0.84965,-0.9309 0.4673,0.28881 0.59075,0.94401 0.27431,1.45601 -0.80862,1.30838 -1.12396,1.16106 -1.12396,-0.52511 z m -55.25438,-2.12732 c 0.048,-1.16495 0.28494,-1.4019 0.60416,-0.60417 0.28887,0.72187 0.25335,1.58438 -0.0789,1.91667 -0.3323,0.33229 -0.56864,-0.25834 -0.52522,-1.3125 z M 226.29966,320 c 0,-3.025 0.18747,-4.2625 0.41659,-2.75 0.22913,1.5125 0.22913,3.9875 0,5.5 -0.22912,1.5125 -0.41659,0.275 -0.41659,-2.75 z m 86.96937,4.30701 c 0.97297,-0.25354 2.32297,-0.23687 3,0.0371 0.67703,0.27393 -0.11903,0.48137 -1.76903,0.46099 -1.65,-0.0204 -2.20394,-0.2445 -1.23097,-0.49804 z m 24.80992,-1.89034 c 0.048,-1.16495 0.28494,-1.4019 0.60416,-0.60417 0.28887,0.72187 0.25335,1.58438 -0.0789,1.91667 -0.33229,0.33229 -0.56864,-0.25834 -0.52522,-1.3125 z m 4,0 c 0.048,-1.16495 0.28494,-1.4019 0.60416,-0.60417 0.28887,0.72187 0.25335,1.58438 -0.0789,1.91667 -0.33229,0.33229 -0.56864,-0.25834 -0.52522,-1.3125 z m -7,-4 c 0.048,-1.16495 0.28494,-1.4019 0.60416,-0.60417 0.28887,0.72187 0.25335,1.58438 -0.0789,1.91667 -0.33229,0.33229 -0.56864,-0.25834 -0.52522,-1.3125 z m -116,-3 c 0.048,-1.16495 0.28494,-1.4019 0.60416,-0.60417 0.28887,0.72187 0.25335,1.58438 -0.0789,1.91667 -0.3323,0.33229 -0.56864,-0.25834 -0.52522,-1.3125 z M 307.94617,306.25 304.5,302.5 l 3.75,3.44617 c 2.0625,1.89539 3.75,3.58289 3.75,3.75 0,0.76362 -0.84622,0.0442 -4.05383,-3.44617 z m 4.92627,0 c -1.24387,-1.58606 -1.2085,-1.62143 0.37756,-0.37756 1.66575,1.30637 2.19548,2.12756 1.37244,2.12756 -0.20765,0 -0.99515,-0.7875 -1.75,-1.75 z M 226,297.62244 c 0,-0.20765 0.7875,-0.99515 1.75,-1.75 1.58606,-1.24387 1.62143,-1.2085 0.37756,0.37756 C 226.82119,297.91575 226,298.44548 226,297.62244 Z m 20.26375,-1.34002 c 1.52006,-0.22986 3.77006,-0.22371 5,0.0136 1.22994,0.23736 -0.0137,0.42542 -2.76375,0.41792 -2.75,-0.008 -3.75631,-0.20172 -2.23625,-0.43157 z m 21.54875,0.0345 c 0.72187,-0.28887 1.58438,-0.25335 1.91667,0.0789 0.33229,0.33229 -0.25834,0.56864 -1.3125,0.52522 -1.16495,-0.048 -1.4019,-0.28494 -0.60417,-0.60416 z M 282.25,292.3107 c 0.9625,-0.25152 2.5375,-0.25152 3.5,0 0.9625,0.25153 0.175,0.45733 -1.75,0.45733 -1.925,0 -2.7125,-0.2058 -1.75,-0.45733 z m 20.5,-0.97295 c 0.6875,-0.27741 1.8125,-0.27741 2.5,0 0.6875,0.27741 0.125,0.50439 -1.25,0.50439 -1.375,0 -1.9375,-0.22698 -1.25,-0.50439 z m -56.98209,-2.06245 c 1.79735,-0.22256 4.49735,-0.21797 6,0.0102 1.50265,0.22818 0.0321,0.41027 -3.26791,0.40466 -3.3,-0.006 -4.52944,-0.1923 -2.73209,-0.41486 z m 45.98209,0.0625 c 0.6875,-0.27741 1.8125,-0.27741 2.5,0 0.6875,0.27741 0.125,0.50439 -1.25,0.50439 -1.375,0 -1.9375,-0.22698 -1.25,-0.50439 z M 246.40499,218.75 244.5,216.5 l 2.25,1.90499 c 2.11444,1.79022 2.70524,2.59501 1.90499,2.59501 -0.18976,0 -1.20226,-1.0125 -2.25,-2.25 z m 57.84719,-1.25 c 0.0111,-2.2 0.21589,-2.98225 0.45508,-1.73834 0.23919,1.24391 0.23011,3.04391 -0.0202,4 -0.25029,0.95609 -0.446,-0.0617 -0.4349,-2.26166 z m 1.94277,1 c 0.0204,-1.65 0.2445,-2.20394 0.49804,-1.23097 0.25354,0.97297 0.23687,2.32297 -0.0371,3 -0.27393,0.67703 -0.48137,-0.11903 -0.46099,-1.76903 z m 8.40806,1.66667 c -0.28327,-0.45834 0.12038,-0.83334 0.89699,-0.83334 0.77661,0 1.18026,0.375 0.89699,0.83334 C 316.11373,220.625 315.71008,221 315.5,221 c -0.21008,0 -0.61373,-0.375 -0.89699,-0.83333 z m 19,0 c -0.28327,-0.45834 0.12038,-0.83334 0.89699,-0.83334 0.77661,0 1.18026,0.375 0.89699,0.83334 C 335.11373,220.625 334.71008,221 334.5,221 c -0.21008,0 -0.61373,-0.375 -0.89699,-0.83333 z m -18.52406,-3.75 c 0.048,-1.16495 0.28494,-1.4019 0.60416,-0.60417 0.28887,0.72187 0.25335,1.58437 -0.0789,1.91667 -0.33229,0.33229 -0.56864,-0.25834 -0.52522,-1.3125 z m -67.65333,-2.11086 c 0.14577,-0.9932 0.59714,-1.73081 1.00304,-1.63914 1.51863,0.34295 1.57662,1.08406 0.1758,2.24664 -1.17422,0.97451 -1.39438,0.86105 -1.17884,-0.6075 z m 52.17739,-1.13914 c -0.28327,-0.45834 0.12038,-0.83334 0.89699,-0.83334 0.77661,0 1.18026,0.375 0.89699,0.83334 C 301.11373,213.625 300.71008,214 300.5,214 c -0.21008,0 -0.61373,-0.375 -0.89699,-0.83333 z m 15.01008,-0.34965 c 0.28881,-0.4673 0.94401,-0.59075 1.45601,-0.27431 1.30838,0.80862 1.16106,1.12396 -0.52511,1.12396 -0.80081,0 -1.21971,-0.38234 -0.9309,-0.84965 z"
         id="path26" />
      <path
         style="fill:#6c93a7"
         d="m 443.19495,506.5 c 0.0204,-1.65 0.2445,-2.20394 0.49804,-1.23097 0.25354,0.97297 0.23687,2.32297 -0.0371,3 -0.27393,0.67703 -0.48137,-0.11903 -0.46099,-1.76903 z m -79,-4 c 0.0204,-1.65 0.2445,-2.20394 0.49804,-1.23097 0.25354,0.97297 0.23687,2.32297 -0.0371,3 -0.27393,0.67703 -0.48137,-0.11903 -0.46099,-1.76903 z M 387.232,502 c 0,-1.925 0.2058,-2.7125 0.45733,-1.75 0.25152,0.9625 0.25152,2.5375 0,3.5 -0.25153,0.9625 -0.45733,0.175 -0.45733,-1.75 z m 37,0 c 0,-1.925 0.2058,-2.7125 0.45733,-1.75 0.25152,0.9625 0.25152,2.5375 0,3.5 -0.25153,0.9625 -0.45733,0.175 -0.45733,-1.75 z m 26.84695,-2.58333 c 0.048,-1.16495 0.28494,-1.4019 0.60416,-0.60417 0.28887,0.72187 0.25335,1.58438 -0.0789,1.91667 -0.33229,0.33229 -0.56864,-0.25834 -0.52522,-1.3125 z M 364.27236,494 c 0,-2.475 0.19502,-3.4875 0.43337,-2.25 0.23836,1.2375 0.23836,3.2625 0,4.5 -0.23835,1.2375 -0.43337,0.225 -0.43337,-2.25 z m -83.72965,-36.9309 c -0.31644,-0.512 -0.19299,-1.1672 0.27431,-1.45601 0.46731,-0.28881 0.84965,0.13009 0.84965,0.9309 0,1.68617 -0.31534,1.83349 -1.12396,0.52511 z m 18,0 c -0.31644,-0.512 -0.19299,-1.1672 0.27431,-1.45601 0.46731,-0.28881 0.84965,0.13009 0.84965,0.9309 0,1.68617 -0.31534,1.83349 -1.12396,0.52511 z m 22,0 c -0.31644,-0.512 -0.19299,-1.1672 0.27431,-1.45601 0.46731,-0.28881 0.84965,0.13009 0.84965,0.9309 0,1.68617 -0.31534,1.83349 -1.12396,0.52511 z m 203,0 c -0.31644,-0.512 -0.19299,-1.1672 0.27431,-1.45601 0.46731,-0.28881 0.84965,0.13009 0.84965,0.9309 0,1.68617 -0.31534,1.83349 -1.12396,0.52511 z m -188,-2 c -0.31644,-0.512 -0.19299,-1.1672 0.27431,-1.45601 0.46731,-0.28881 0.84965,0.13009 0.84965,0.9309 0,1.68617 -0.31534,1.83349 -1.12396,0.52511 z M 225,451.05902 c 0,-0.51754 0.44485,-1.21592 0.98855,-1.55194 0.56686,-0.35034 0.7345,0.0511 0.39301,0.94098 C 225.71677,452.18048 225,452.49745 225,451.05902 Z m 242,0 c 0,-0.51754 0.44485,-1.21592 0.98855,-1.55194 0.56686,-0.35034 0.7345,0.0511 0.39301,0.94098 C 467.71677,452.18048 467,452.49745 467,451.05902 Z m 80,0 c 0,-0.51754 0.44485,-1.21592 0.98855,-1.55194 0.56686,-0.35034 0.7345,0.0511 0.39301,0.94098 C 547.71677,452.18048 547,452.49745 547,451.05902 Z M 289.8125,415.31689 c 0.72187,-0.28887 1.58438,-0.25335 1.91667,0.0789 0.33229,0.33229 -0.25834,0.56864 -1.3125,0.52522 -1.16495,-0.048 -1.4019,-0.28494 -0.60417,-0.60416 z M 309,409.5 c 1.29175,-1.375 2.57363,-2.5 2.84863,-2.5 0.275,0 -0.55688,1.125 -1.84863,2.5 -1.29175,1.375 -2.57363,2.5 -2.84863,2.5 -0.275,0 0.55688,-1.125 1.84863,-2.5 z m -31.92105,-13.08333 c 0.048,-1.16495 0.28494,-1.4019 0.60416,-0.60417 0.28887,0.72187 0.25335,1.58438 -0.0789,1.91667 -0.33229,0.33229 -0.56864,-0.25834 -0.52522,-1.3125 z m 31,0 c 0.048,-1.16495 0.28494,-1.4019 0.60416,-0.60417 0.28887,0.72187 0.25335,1.58438 -0.0789,1.91667 -0.33229,0.33229 -0.56864,-0.25834 -0.52522,-1.3125 z M 279.27236,392 c 0,-2.475 0.19502,-3.4875 0.43337,-2.25 0.23836,1.2375 0.23836,3.2625 0,4.5 -0.23835,1.2375 -0.43337,0.225 -0.43337,-2.25 z m 33.80659,-0.58333 c 0.048,-1.16495 0.28494,-1.4019 0.60416,-0.60417 0.28887,0.72187 0.25335,1.58438 -0.0789,1.91667 -0.33229,0.33229 -0.56864,-0.25834 -0.52522,-1.3125 z M 283.38176,380.5 c 0.002,-6.6 0.16382,-9.16987 0.35965,-5.71081 0.19583,3.45905 0.19422,8.85905 -0.004,12 -0.19781,3.14094 -0.35803,0.31081 -0.35606,-6.28919 z m 25.69719,8.91667 c 0.048,-1.16495 0.28494,-1.4019 0.60416,-0.60417 0.28887,0.72187 0.25335,1.58438 -0.0789,1.91667 -0.33229,0.33229 -0.56864,-0.25834 -0.52522,-1.3125 z m -45.26645,-5.09978 c 0.72187,-0.28887 1.58438,-0.25335 1.91667,0.0789 0.33229,0.33229 -0.25834,0.56864 -1.3125,0.52522 -1.16495,-0.048 -1.4019,-0.28494 -0.60417,-0.60416 z m 7,0 c 0.72187,-0.28887 1.58438,-0.25335 1.91667,0.0789 0.33229,0.33229 -0.25834,0.56864 -1.3125,0.52522 -1.16495,-0.048 -1.4019,-0.28494 -0.60417,-0.60416 z m 43.26645,-0.90022 c 0.048,-1.16495 0.28494,-1.4019 0.60416,-0.60417 0.28887,0.72187 0.25335,1.58438 -0.0789,1.91667 -0.33229,0.33229 -0.56864,-0.25834 -0.52522,-1.3125 z m 3.116,-0.91667 c 0.0204,-1.65 0.2445,-2.20394 0.49804,-1.23097 0.25354,0.97297 0.23687,2.32297 -0.0371,3 -0.27393,0.67703 -0.48137,-0.11903 -0.46099,-1.76903 z M 477.44388,353 c 0,-16.775 0.13684,-23.6375 0.3041,-15.25 0.16726,8.3875 0.16726,22.1125 0,30.5 -0.16726,8.3875 -0.3041,1.525 -0.3041,-15.25 z M 266.25,381.31067 c 0.9625,-0.25152 2.5375,-0.25152 3.5,0 0.9625,0.25153 0.175,0.45733 -1.75,0.45733 -1.925,0 -2.7125,-0.2058 -1.75,-0.45733 z m 56.5625,-1.99378 c 0.72187,-0.28887 1.58438,-0.25335 1.91667,0.0789 0.33229,0.33229 -0.25834,0.56864 -1.3125,0.52522 -1.16495,-0.048 -1.4019,-0.28494 -0.60417,-0.60416 z M 239.87244,376.25 c -1.24387,-1.58606 -1.2085,-1.62143 0.37756,-0.37756 0.9625,0.75485 1.75,1.54235 1.75,1.75 0,0.82304 -0.82119,0.29331 -2.12756,-1.37244 z m 15.79399,-0.67689 c -0.30115,-0.78478 0.1007,-1.96488 0.89301,-2.62244 C 257.58115,372.10272 258,372.08146 258,372.87756 258,373.4949 257.56412,374 257.03138,374 c -0.53273,0 -0.70959,0.675 -0.39301,1.5 0.31659,0.825 0.35061,1.5 0.0756,1.5 -0.275,0 -0.7464,-0.6421 -1.04755,-1.42689 z M 262.5,376 c 0.33992,-0.55 0.81648,-1 1.05902,-1 0.24254,0 0.44098,0.45 0.44098,1 0,0.55 -0.47656,1 -1.05902,1 -0.58246,0 -0.7809,-0.45 -0.44098,-1 z m 56.25,0.33772 c 0.6875,-0.27741 1.8125,-0.27741 2.5,0 0.6875,0.27741 0.125,0.50439 -1.25,0.50439 -1.375,0 -1.9375,-0.22698 -1.25,-0.50439 z M 246,375.61663 c 0,-0.21085 0.90062,-0.61888 2.00138,-0.90674 1.10076,-0.28785 1.7492,-0.11534 1.44098,0.38337 C 248.90411,375.96417 246,376.4057 246,375.61663 Z M 242.87244,373.25 c -1.24387,-1.58606 -1.2085,-1.62143 0.37756,-0.37756 0.9625,0.75485 1.75,1.54235 1.75,1.75 0,0.82304 -0.82119,0.29331 -2.12756,-1.37244 z M 311.15789,373 c 0,-1.375 0.22698,-1.9375 0.50439,-1.25 0.27741,0.6875 0.27741,1.8125 0,2.5 -0.27741,0.6875 -0.50439,0.125 -0.50439,-1.25 z M 339,373.62244 c 0,-0.20765 0.7875,-0.99515 1.75,-1.75 1.58606,-1.24387 1.62143,-1.2085 0.37756,0.37756 C 339.82119,373.91575 339,374.44548 339,373.62244 Z m -87,-2 c 0,-0.20765 0.7875,-0.99515 1.75,-1.75 1.58606,-1.24387 1.62143,-1.2085 0.37756,0.37756 C 252.82119,371.91575 252,372.44548 252,371.62244 Z M 534.87244,368.25 c -1.24387,-1.58606 -1.2085,-1.62143 0.37756,-0.37756 1.66575,1.30637 2.19548,2.12756 1.37244,2.12756 -0.20765,0 -0.99515,-0.7875 -1.75,-1.75 z M 277,368 c -0.90129,-0.58246 -1.02463,-0.97549 -0.30902,-0.98469 0.65504,-0.008 1.4691,0.43469 1.80902,0.98469 0.7673,1.24153 0.42112,1.24153 -1.5,0 z m 45.8125,0.31689 c 0.72187,-0.28887 1.58438,-0.25335 1.91667,0.0789 0.33229,0.33229 -0.25834,0.56864 -1.3125,0.52522 -1.16495,-0.048 -1.4019,-0.28494 -0.60417,-0.60416 z m 6.4375,-0.006 c 0.9625,-0.25152 2.5375,-0.25152 3.5,0 0.9625,0.25153 0.175,0.45733 -1.75,0.45733 -1.925,0 -2.7125,-0.2058 -1.75,-0.45733 z m 13.82895,-1.894 c 0.048,-1.16495 0.28494,-1.4019 0.60416,-0.60417 0.28887,0.72187 0.25335,1.58438 -0.0789,1.91667 -0.33229,0.33229 -0.56864,-0.25834 -0.52522,-1.3125 z m -17.82895,-2.106 c 0.9625,-0.25152 2.5375,-0.25152 3.5,0 0.9625,0.25153 0.175,0.45733 -1.75,0.45733 -1.925,0 -2.7125,-0.2058 -1.75,-0.45733 z M 336.5,364 l -3,-0.76337 2.69098,-0.11832 c 1.48004,-0.0651 2.9691,0.33169 3.30902,0.88169 0.33992,0.55 0.47898,0.94676 0.30902,0.88169 C 339.63906,364.81661 338.15,364.41985 336.5,364 Z m -21.16667,-1.45601 c 0,-0.80081 0.38234,-1.21971 0.84965,-0.9309 0.4673,0.28881 0.59075,0.94401 0.27431,1.45601 -0.80862,1.30838 -1.12396,1.16106 -1.12396,-0.52511 z m 19.9357,-2.23698 c 0.97297,-0.25354 2.32297,-0.23687 3,0.0371 0.67703,0.27393 -0.11903,0.48137 -1.76903,0.46099 -1.65,-0.0204 -2.20394,-0.2445 -1.23097,-0.49804 z m -18.19008,-7.89034 c 0.048,-1.16495 0.28494,-1.4019 0.60416,-0.60417 0.28887,0.72187 0.25335,1.58438 -0.0789,1.91667 -0.33229,0.33229 -0.56864,-0.25834 -0.52522,-1.3125 z M 281.15789,346 c 0,-1.375 0.22698,-1.9375 0.50439,-1.25 0.27741,0.6875 0.27741,1.8125 0,2.5 -0.27741,0.6875 -0.50439,0.125 -0.50439,-1.25 z m 36.03706,-1.5 c 0.0204,-1.65 0.2445,-2.20394 0.49804,-1.23097 0.25354,0.97297 0.23687,2.32297 -0.0371,3 -0.27393,0.67703 -0.48137,-0.11903 -0.46099,-1.76903 z M 277.27236,341 c 0,-2.475 0.19502,-3.4875 0.43337,-2.25 0.23836,1.2375 0.23836,3.2625 0,4.5 -0.23835,1.2375 -0.43337,0.225 -0.43337,-2.25 z m -17.92955,-4.5 c 0.004,-4.4 0.17944,-6.07561 0.39069,-3.72357 0.21124,2.35204 0.20827,5.95204 -0.007,8 -0.21487,2.04796 -0.38771,0.12357 -0.38408,-4.27643 z m 61.85214,4 c 0.0204,-1.65 0.2445,-2.20394 0.49804,-1.23097 0.25354,0.97297 0.23687,2.32297 -0.0371,3 -0.27393,0.67703 -0.48137,-0.11903 -0.46099,-1.76903 z m -66,-4 c 0.0204,-1.65 0.2445,-2.20394 0.49804,-1.23097 0.25354,0.97297 0.23687,2.32297 -0.0371,3 -0.27393,0.67703 -0.48137,-0.11903 -0.46099,-1.76903 z m 25.884,-1.08333 c 0.048,-1.16495 0.28494,-1.4019 0.60416,-0.60417 0.28887,0.72187 0.25335,1.58438 -0.0789,1.91667 -0.33229,0.33229 -0.56864,-0.25834 -0.52522,-1.3125 z M 321.15789,333 c 0,-1.375 0.22698,-1.9375 0.50439,-1.25 0.27741,0.6875 0.27741,1.8125 0,2.5 -0.27741,0.6875 -0.50439,0.125 -0.50439,-1.25 z m -19,-2 c 0,-1.375 0.22698,-1.9375 0.50439,-1.25 0.27741,0.6875 0.27741,1.8125 0,2.5 -0.27741,0.6875 -0.50439,0.125 -0.50439,-1.25 z m 14.92106,-1.58333 c 0.048,-1.16495 0.28494,-1.4019 0.60416,-0.60417 0.28887,0.72187 0.25335,1.58438 -0.0789,1.91667 -0.33229,0.33229 -0.56864,-0.25834 -0.52522,-1.3125 z m -47.26645,-4.09978 c 0.72187,-0.28887 1.58438,-0.25335 1.91667,0.0789 0.33229,0.33229 -0.25834,0.56864 -1.3125,0.52522 -1.16495,-0.048 -1.4019,-0.28494 -0.60417,-0.60416 z m 52.26645,-1.90022 c 0.048,-1.16495 0.28494,-1.4019 0.60416,-0.60417 0.28887,0.72187 0.25335,1.58438 -0.0789,1.91667 -0.33229,0.33229 -0.56864,-0.25834 -0.52522,-1.3125 z M 219.25218,320.5 c 0.0111,-2.2 0.21589,-2.98225 0.45508,-1.73834 0.23919,1.24391 0.23011,3.04391 -0.0202,4 -0.25029,0.95609 -0.446,-0.0617 -0.4349,-2.26166 z m 35.82677,1.91667 c 0.048,-1.16495 0.28494,-1.4019 0.60416,-0.60417 0.28887,0.72187 0.25335,1.58438 -0.0789,1.91667 -0.3323,0.33229 -0.56864,-0.25834 -0.52522,-1.3125 z M 222.19495,320.5 c 0.0204,-1.65 0.2445,-2.20394 0.49804,-1.23097 0.25354,0.97297 0.23687,2.32297 -0.0371,3 -0.27393,0.67703 -0.48137,-0.11903 -0.46099,-1.76903 z m 45.61755,0.81689 c 0.72187,-0.28887 1.58438,-0.25335 1.91667,0.0789 0.33229,0.33229 -0.25834,0.56864 -1.3125,0.52522 -1.16495,-0.048 -1.4019,-0.28494 -0.60417,-0.60416 z m 4,0 c 0.72187,-0.28887 1.58438,-0.25335 1.91667,0.0789 0.33229,0.33229 -0.25834,0.56864 -1.3125,0.52522 -1.16495,-0.048 -1.4019,-0.28494 -0.60417,-0.60416 z m 70.26645,-1.90022 c 0.048,-1.16495 0.28494,-1.4019 0.60416,-0.60417 0.28887,0.72187 0.25335,1.58438 -0.0789,1.91667 -0.33229,0.33229 -0.56864,-0.25834 -0.52522,-1.3125 z m -82,-1 c 0.048,-1.16495 0.28494,-1.4019 0.60416,-0.60417 0.28887,0.72187 0.25335,1.58438 -0.0789,1.91667 -0.33229,0.33229 -0.56864,-0.25834 -0.52522,-1.3125 z M 339.15789,317 c 0,-1.375 0.22698,-1.9375 0.50439,-1.25 0.27741,0.6875 0.27741,1.8125 0,2.5 -0.27741,0.6875 -0.50439,0.125 -0.50439,-1.25 z m -3.92589,-3 c 0,-1.925 0.2058,-2.7125 0.45733,-1.75 0.25152,0.9625 0.25152,2.5375 0,3.5 -0.25153,0.9625 -0.45733,0.175 -0.45733,-1.75 z m 3.96295,-2.5 c 0.0204,-1.65 0.2445,-2.20394 0.49804,-1.23097 0.25354,0.97297 0.23687,2.32297 -0.0371,3 -0.27393,0.67703 -0.48137,-0.11903 -0.46099,-1.76903 z m -8.32251,-8.25 c -1.24387,-1.58606 -1.2085,-1.62143 0.37756,-0.37756 1.66575,1.30637 2.19548,2.12756 1.37244,2.12756 -0.20765,0 -0.99515,-0.7875 -1.75,-1.75 z M 229,299.5 c 1.29175,-1.375 2.57363,-2.5 2.84863,-2.5 0.275,0 -0.55688,1.125 -1.84863,2.5 -1.29175,1.375 -2.57363,2.5 -2.84863,2.5 -0.275,0 0.55688,-1.125 1.84863,-2.5 z m 107.43709,-0.75 -2.93709,-3.25 3.25,2.93709 c 1.7875,1.6154 3.25,3.0779 3.25,3.25 0,0.77256 -0.82513,0.0924 -3.56291,-2.93709 z m -80.62459,-1.43311 c 0.72187,-0.28887 1.58438,-0.25335 1.91667,0.0789 0.33229,0.33229 -0.25834,0.56864 -1.3125,0.52522 -1.16495,-0.048 -1.4019,-0.28494 -0.60417,-0.60416 z m 25.9375,-1.02262 c 1.2375,-0.23836 3.2625,-0.23836 4.5,0 1.2375,0.23835 0.225,0.43337 -2.25,0.43337 -2.475,0 -3.4875,-0.19502 -2.25,-0.43337 z m 19.98333,-0.41836 c 0.67834,-0.68342 1.48524,-0.99067 1.79313,-0.68278 0.30789,0.30789 -0.24711,0.86705 -1.23333,1.24258 -1.4252,0.54268 -1.54006,0.42782 -0.5598,-0.5598 z m -55.46958,-3.59349 c 1.52006,-0.22986 3.77006,-0.22371 5,0.0136 1.22994,0.23736 -0.0137,0.42542 -2.76375,0.41792 -2.75,-0.008 -3.75631,-0.20172 -2.23625,-0.43157 z m 32.54875,0.0345 c 0.72187,-0.28887 1.58438,-0.25335 1.91667,0.0789 0.33229,0.33229 -0.25834,0.56864 -1.3125,0.52522 -1.16495,-0.048 -1.4019,-0.28494 -0.60417,-0.60416 z m 9,0 c 0.72187,-0.28887 1.58438,-0.25335 1.91667,0.0789 0.33229,0.33229 -0.25834,0.56864 -1.3125,0.52522 -1.16495,-0.048 -1.4019,-0.28494 -0.60417,-0.60416 z m -7.0848,-3.03862 c 1.77523,-0.22091 4.92523,-0.22454 7,-0.008 2.07476,0.21648 0.6223,0.39722 -3.2277,0.40166 -3.85,0.004 -5.54754,-0.17268 -3.7723,-0.39359 z m 20.0848,-0.96138 c 0.72187,-0.28887 1.58438,-0.25335 1.91667,0.0789 0.33229,0.33229 -0.25834,0.56864 -1.3125,0.52522 -1.16495,-0.048 -1.4019,-0.28494 -0.60417,-0.60416 z M 309.32007,218 c 0,-3.575 0.1815,-5.0375 0.40333,-3.25 0.22182,1.7875 0.22182,4.7125 0,6.5 -0.22183,1.7875 -0.40333,0.325 -0.40333,-3.25 z m -66,-3 c 0,-3.575 0.1815,-5.0375 0.40333,-3.25 0.22182,1.7875 0.22182,4.7125 0,6.5 -0.22183,1.7875 -0.40333,0.325 -0.40333,-3.25 z m 18.96594,1.5 c 0.008,-2.75 0.20172,-3.75631 0.43157,-2.23625 0.22986,1.52006 0.22371,3.77006 -0.0136,5 -0.23736,1.22994 -0.42542,-0.0137 -0.41792,-2.76375 z m 31,0 c 0.008,-2.75 0.20172,-3.75631 0.43157,-2.23625 0.22986,1.52006 0.22371,3.77006 -0.0136,5 -0.23736,1.22994 -0.42542,-0.0137 -0.41792,-2.76375 z m 6.90894,2 c 0.0204,-1.65 0.2445,-2.20394 0.49804,-1.23097 0.25354,0.97297 0.23687,2.32297 -0.0371,3 -0.27393,0.67703 -0.48137,-0.11903 -0.46099,-1.76903 z"
         id="path25" />
      <path
         style="fill:#346791"
         d="m 289.20904,415.01556 c -1.81002,-0.42884 -4.16309,-1.56899 -5.22904,-2.53366 -3.08479,-2.7917 -6.05728,-12.19744 -6.69053,-21.17057 l -0.58401,-8.27551 -2.60273,0.70468 c -4.49984,1.21832 -11.96459,0.53197 -15.85691,-1.45796 C 255.0241,380.63545 254.15021,380.5496 252,381.66901 241.23062,387.27558 231.82913,374.76338 223.69605,344 c -2.49986,-9.45573 -3.05416,-13.54427 -3.11818,-23 -0.072,-10.62962 0.13213,-11.92763 2.69683,-17.15015 C 227.93772,294.35448 235.9772,290 248.84504,290 c 3.58995,0 9.3858,0.71691 12.87966,1.59314 5.8117,1.45752 6.69142,1.45752 10.33412,0 C 274.63116,290.5639 279.11203,290 284.71834,290 c 4.77282,0 12.37611,-0.53471 16.8962,-1.18825 14.73746,-2.13081 26.79643,1.5748 35.53834,10.92061 3.74506,4.00377 4.74054,5.8575 5.28949,9.8498 1.31501,9.56356 -3.2948,28.17786 -10.56114,42.64564 -2.13468,4.25029 -3.88123,8.10401 -3.88123,8.56381 0,0.45981 2.70112,0.64063 6.0025,0.40183 7.04341,-0.50948 8.9975,0.62897 8.9975,5.24191 0,5.91391 -8.92432,11.6888 -20.10527,13.01003 l -5.60527,0.66237 -0.59823,8.19612 c -1.15345,15.80297 -6.04657,23.26267 -17.15133,26.14769 -3.27805,0.85164 -6.20305,1.50238 -6.5,1.44608 -0.29694,-0.0563 -2.02083,-0.45323 -3.83086,-0.88208 z m 11.06829,-3.07569 c 5.17468,-1.43702 10.48633,-6.34291 11.67293,-10.78122 0.53798,-2.01226 1.55675,-8.33974 2.26394,-14.06107 l 1.2858,-10.40242 6.44164,-0.35114 c 10.5698,-0.57618 20.46521,-6.84679 18.01865,-11.41823 -0.88876,-1.66065 -1.85295,-1.79435 -8.97799,-1.24491 -4.39027,0.33856 -7.9823,0.31958 -7.9823,-0.0422 0,-0.36175 2.0001,-4.36595 4.44467,-8.89822 7.98639,-14.8069 13.78405,-36.37733 12.13707,-45.15648 -0.95995,-5.11697 -8.13133,-12.68865 -14.86798,-15.69787 -4.39831,-1.9647 -6.7778,-2.31491 -15.21376,-2.2391 -24.9107,0.22385 -33.9604,0.86064 -37.20063,2.61768 -2.89726,1.57107 -3.71458,1.60171 -8.62285,0.32326 -19.63239,-5.11358 -32.68972,-1.35371 -38.36738,11.04793 -2.02592,4.42521 -2.52125,7.09308 -2.54,13.68065 -0.0551,19.35069 11.47272,53.81061 19.67425,58.812 4.28747,2.61454 6.9571,2.33671 10.91188,-1.13564 2.4795,-2.17703 3.3862,-2.56087 3.2848,-1.39059 -0.077,0.88907 1.12038,2.57225 2.66094,3.74041 3.57314,2.7094 13.05261,2.96602 16.88185,0.457 l 2.54404,-1.66691 0.52747,11.18358 c 0.56104,11.89514 1.56243,15.76106 5.06224,19.54294 3.83092,4.13967 8.73697,5.08657 15.96072,3.08051 z M 290,407.24845 c -4.93726,-2.46644 -5.8767,-6.10941 -5.94356,-23.04811 -0.0623,-15.79047 -1.11402,-19.67472 -5.63427,-20.80923 -1.84732,-0.46365 -2.36079,-1.08214 -1.87999,-2.26449 5.35011,-13.15656 5.67422,-14.58115 5.14775,-22.62662 -0.28792,-4.4 -1.05973,-9.47617 -1.71513,-11.28038 -2.06916,-5.69607 -8.45612,-7.56499 -16.29698,-4.76875 l -3.82218,1.36308 0.63694,-4.15697 c 1.11085,-7.24989 6.18846,-16.41783 10.77086,-19.44744 3.70507,-2.44958 4.9684,-2.70812 13.16742,-2.69473 10.50984,0.0172 15.66062,1.86272 22.53706,8.07517 3.70124,3.34385 9.99631,12.55154 10.0227,14.66002 0.005,0.4125 -1.58797,0.75 -3.54028,0.75 -8.4494,0 -12.44929,5.58028 -10.43679,14.56044 0.99454,4.43784 8.38204,20.30031 11.59222,24.89089 1.18754,1.69818 1.11072,2.22155 -0.59214,4.03416 -1.46331,1.55762 -2.23481,4.59576 -3.05962,12.04866 -1.76315,15.93151 -3.69489,25.52205 -5.55463,27.57703 -1.23308,1.36254 -9.8731,4.93168 -11.83088,4.88727 -0.0377,-8.6e-4 -1.6435,-0.78836 -3.5685,-1.75 z m -26,-30.99622 c 0,-0.55123 1.36846,-1.27592 3.04103,-1.61044 1.67257,-0.33451 4.33731,-2.02744 5.92164,-3.76206 1.83913,-2.01359 3.45125,-2.93487 4.45896,-2.54818 4.67792,1.79509 -1.24428,7.75282 -8.389,8.43934 C 266.01508,377.06083 264,376.85316 264,376.25223 Z M 243.28462,372.75 c -4.90613,-5.34825 -10.31356,-19.94735 -14.3115,-38.63849 -6.04579,-28.26532 3.52422,-40.55971 28.14669,-36.15943 3.7841,0.67625 6.88019,1.39806 6.88019,1.60401 0,0.20595 -1.325,2.46377 -2.94445,5.01738 -4.34333,6.84871 -5.98216,15.70951 -6.10325,32.99897 -0.10458,14.93179 0.5885,19.15768 3.70723,22.60384 1.84059,2.03383 1.36984,2.97479 -4.86637,9.72724 -5.18873,5.61828 -7.41315,6.22081 -10.50854,2.84648 z M 258,372.0983 c 0,-0.38828 1.4625,-2.11036 3.25,-3.82683 2.53582,-2.43506 3.85431,-3.00193 6,-2.57959 3.04567,0.59947 3.43568,1.49416 1.39105,3.19106 C 266.88659,370.33902 258,373.02424 258,372.0983 Z m 58,-1.99131 c 0,-2.35719 2.53922,-3.42396 5.0067,-2.1034 1.024,0.54802 4.0289,1.03065 6.67756,1.07249 L 332.5,369.15216 329,370.5 c -1.925,0.74131 -5.6375,1.38208 -8.25,1.42392 -4.02064,0.0644 -4.75,-0.21459 -4.75,-1.81693 z m -50.2445,-9.67608 c -1.50947,-0.81896 -3.63842,-3.24126 -4.731,-5.38288 -1.76865,-3.46684 -1.91625,-5.12151 -1.34597,-15.08862 l 0.64051,-11.19477 3.30836,-1.38232 c 4.35087,-1.81791 9.81472,-1.75946 11.37593,0.1217 0.68653,0.8272 1.47423,5.46785 1.75047,10.31254 0.45342,7.95248 0.22254,9.55457 -2.37578,16.48515 -3.05673,8.1533 -3.85106,8.71794 -8.62252,6.1292 z M 274.5,329.5 c 0,-1.52546 -0.77112,-2.07435 -3.25,-2.31336 -3.45297,-0.33293 -4.35638,1.30698 -2.01168,3.65168 1.87109,1.87109 5.26168,1.00869 5.26168,-1.33832 z m 37.53964,16.46844 c -4.90489,-10.32121 -6.14766,-16.80397 -3.62305,-18.89921 1.41387,-1.17342 1.54083,-1.12184 0.96058,0.39025 -0.85929,2.23929 1.4426,3.70734 3.81895,2.43556 2.50444,-1.34034 2.25649,-3.66876 -0.44612,-4.18931 -1.50325,-0.28954 -1.08839,-0.47864 1.25,-0.56979 l 3.5,-0.13642 -0.13201,14.54891 c -0.0726,8.00191 -0.33536,14.75227 -0.5839,15.00081 -0.24854,0.24854 -2.38354,-3.61282 -4.74445,-8.5808 z m 9.80265,-1.12155 c -0.20017,-5.14079 -0.0725,-12.22871 0.2837,-15.75093 0.44597,-4.40992 0.21071,-7.67946 -0.75554,-10.5 -1.96547,-5.73735 -9.31987,-15.19997 -14.89311,-19.16239 l -4.69792,-3.3401 2.68973,-0.67508 c 7.78438,-1.95376 21.81489,2.72427 27.46245,9.15649 2.72583,3.10455 3.06675,4.1886 3.05362,9.70992 -0.008,3.41836 -0.65221,8.9152 -1.43128,12.2152 -1.47399,6.24349 -8.87143,25.21749 -10.44517,26.79123 -0.53672,0.53672 -1.05006,-2.88598 -1.26648,-8.44434 z"
         id="path24" />
      <path
         style="fill:#439f47"
         d="M 503.78256,398.22005 478.06512,383.5 l 0.21744,-30.87068 0.21744,-30.87068 26,-14.91678 c 18.32884,-10.51567 26.47061,-14.68445 27.59503,-14.12932 0.87727,0.4331 12.91477,7.28645 26.75,15.22966 L 584,322.38439 v 30.21658 30.21657 l -25.66316,14.72752 c -14.11473,8.10013 -26.37723,14.87771 -27.25,15.06127 -0.87276,0.18357 -13.15969,-6.29025 -27.30428,-14.38628 z m 8.01798,-17.50774 c 1.99599,-2.12462 2.16879,-3.48063 2.42432,-19.0237 l 0.27514,-16.73602 15.89844,17.93082 c 8.74413,9.86195 16.97781,18.42262 18.29705,19.02371 4.01123,1.82764 8.18439,1.30391 10.84996,-1.36167 L 562,378.09091 V 352 325.90909 l -2.45455,-2.45454 c -2.94355,-2.94356 -6.47357,-3.14227 -9.68467,-0.54517 -2.27043,1.83631 -2.37991,2.5517 -2.86078,18.69353 l -0.5,16.78415 -15.92828,-17.78606 c -8.76056,-9.78234 -17.00235,-18.19443 -18.3151,-18.69353 -3.91109,-1.487 -8.12607,-1.03802 -10.25662,1.09253 -1.90123,1.90123 -2,3.33333 -2,29 0,25.66667 0.0988,27.09877 2,29 2.68647,2.68647 7.12898,2.55606 9.80054,-0.28769 z"
         id="path23" />
      <path
         style="fill:#586063"
         d="m 335.34281,497.5 c 0.004,-4.4 0.17944,-6.07561 0.39069,-3.72357 0.21124,2.35204 0.20827,5.95204 -0.007,8 -0.21487,2.04796 -0.38771,0.12357 -0.38408,-4.27643 z m 33.09428,4.25 -2.93709,-3.25 3.25,2.93709 c 3.02946,2.73778 3.70965,3.56291 2.93709,3.56291 -0.1721,0 -1.6346,-1.4625 -3.25,-3.25 z m 62.81509,-0.25 c 0.0111,-2.2 0.21589,-2.98225 0.45508,-1.73834 0.23919,1.24391 0.23011,3.04391 -0.0202,4 -0.25029,0.95609 -0.446,-0.0617 -0.4349,-2.26166 z m 7.02018,-0.5 c 0,-2.475 0.19502,-3.4875 0.43337,-2.25 0.23836,1.2375 0.23836,3.2625 0,4.5 -0.23835,1.2375 -0.43337,0.225 -0.43337,-2.25 z m -112.19341,-1.58333 c 0.048,-1.16495 0.28494,-1.4019 0.60416,-0.60417 0.28887,0.72187 0.25335,1.58438 -0.0789,1.91667 -0.33229,0.33229 -0.56864,-0.25834 -0.52522,-1.3125 z m 13,0 c 0.048,-1.16495 0.28494,-1.4019 0.60416,-0.60417 0.28887,0.72187 0.25335,1.58438 -0.0789,1.91667 -0.33229,0.33229 -0.56864,-0.25834 -0.52522,-1.3125 z m 12,0 c 0.048,-1.16495 0.28494,-1.4019 0.60416,-0.60417 0.28887,0.72187 0.25335,1.58438 -0.0789,1.91667 -0.33229,0.33229 -0.56864,-0.25834 -0.52522,-1.3125 z m 22,0 c 0.048,-1.16495 0.28494,-1.4019 0.60416,-0.60417 0.28887,0.72187 0.25335,1.58438 -0.0789,1.91667 -0.33229,0.33229 -0.56864,-0.25834 -0.52522,-1.3125 z m 26,0 c 0.048,-1.16495 0.28494,-1.4019 0.60416,-0.60417 0.28887,0.72187 0.25335,1.58438 -0.0789,1.91667 -0.33229,0.33229 -0.56864,-0.25834 -0.52522,-1.3125 z m 11,0 c 0.048,-1.16495 0.28494,-1.4019 0.60416,-0.60417 0.28887,0.72187 0.25335,1.58438 -0.0789,1.91667 -0.33229,0.33229 -0.56864,-0.25834 -0.52522,-1.3125 z m 33,0 c 0.048,-1.16495 0.28494,-1.4019 0.60416,-0.60417 0.28887,0.72187 0.25335,1.58438 -0.0789,1.91667 -0.33229,0.33229 -0.56864,-0.25834 -0.52522,-1.3125 z m 11,0 c 0.048,-1.16495 0.28494,-1.4019 0.60416,-0.60417 0.28887,0.72187 0.25335,1.58438 -0.0789,1.91667 -0.33229,0.33229 -0.56864,-0.25834 -0.52522,-1.3125 z m 22,0 c 0.048,-1.16495 0.28494,-1.4019 0.60416,-0.60417 0.28887,0.72187 0.25335,1.58438 -0.0789,1.91667 -0.33229,0.33229 -0.56864,-0.25834 -0.52522,-1.3125 z M 366,497.62244 c 0,-0.20765 0.7875,-0.99515 1.75,-1.75 1.58606,-1.24387 1.62143,-1.2085 0.37756,0.37756 C 366.82119,497.91575 366,498.44548 366,497.62244 Z m 63.33333,-2.07845 c 0,-0.80081 0.38234,-1.21971 0.84965,-0.9309 0.4673,0.28881 0.59075,0.94401 0.27431,1.45601 -0.80862,1.30838 -1.12396,1.16106 -1.12396,-0.52511 z m -144.1245,-39.01152 c 0.73388,-0.56786 1.27356,-2.04497 1.19928,-3.28247 -0.0743,-1.2375 0.25352,-2.25 0.72843,-2.25 0.4749,0 0.86346,1.54703 0.86346,3.43785 0,2.85627 -0.34896,3.41157 -2.06275,3.28247 -1.62277,-0.12224 -1.77814,-0.37561 -0.72842,-1.18785 z m 18,0 c 0.73388,-0.56786 1.27356,-2.04497 1.19928,-3.28247 -0.0743,-1.2375 0.25352,-2.25 0.72843,-2.25 0.4749,0 0.86346,1.54703 0.86346,3.43785 0,2.85627 -0.34896,3.41157 -2.06275,3.28247 -1.62277,-0.12224 -1.77814,-0.37561 -0.72842,-1.18785 z m 22,0 c 0.73388,-0.56786 1.27356,-2.04497 1.19928,-3.28247 -0.0743,-1.2375 0.25352,-2.25 0.72843,-2.25 0.4749,0 0.86346,1.54703 0.86346,3.43785 0,2.85627 -0.34896,3.41157 -2.06275,3.28247 -1.62277,-0.12224 -1.77814,-0.37561 -0.72842,-1.18785 z m 10.5245,0.34344 c 0.67834,-0.68342 1.48524,-0.99067 1.79313,-0.68278 0.30789,0.30789 -0.24711,0.86705 -1.23333,1.24258 -1.4252,0.54268 -1.54006,0.42782 -0.5598,-0.5598 z m 192.4755,-0.34344 c 0.73388,-0.56786 1.27356,-2.04497 1.19928,-3.28247 -0.0743,-1.2375 0.25352,-2.25 0.72843,-2.25 0.4749,0 0.86346,1.54703 0.86346,3.43785 0,2.85627 -0.34896,3.41157 -2.06275,3.28247 -1.62277,-0.12224 -1.77814,-0.37561 -0.72842,-1.18785 z M 559.5,456 c -1.63041,-0.70061 -1.68751,-0.87242 -0.30902,-0.92971 0.93004,-0.0387 1.9691,0.37971 2.30902,0.92971 0.71066,1.14988 0.67591,1.14988 -2,0 z m 14.5,-1 c -0.825,-0.53316 -1.05,-0.96937 -0.5,-0.96937 0.55,0 1.675,0.43621 2.5,0.96937 0.825,0.53316 1.05,0.96937 0.5,0.96937 -0.55,0 -1.675,-0.43621 -2.5,-0.96937 z m 6,0 c 0.825,-0.53316 1.95,-0.96937 2.5,-0.96937 0.55,0 0.325,0.43621 -0.5,0.96937 -0.825,0.53316 -1.95,0.96937 -2.5,0.96937 -0.55,0 -0.325,-0.43621 0.5,-0.96937 z m -361,-1.5 c 0,-0.825 0.45,-1.5 1,-1.5 0.55,0 1,0.675 1,1.5 0,0.825 -0.45,1.5 -1,1.5 -0.55,0 -1,-0.675 -1,-1.5 z m 97,0 c 0,-0.825 0.45,-1.5 1,-1.5 0.55,0 1,0.675 1,1.5 0,0.825 -0.45,1.5 -1,1.5 -0.55,0 -1,-0.675 -1,-1.5 z m 145,0 c 0,-0.825 0.45,-1.5 1,-1.5 0.55,0 1,0.675 1,1.5 0,0.825 -0.45,1.5 -1,1.5 -0.55,0 -1,-0.675 -1,-1.5 z m 80,0 c 0,-0.825 0.45,-1.5 1,-1.5 0.55,0 1,0.675 1,1.5 0,0.825 -0.45,1.5 -1,1.5 -0.55,0 -1,-0.675 -1,-1.5 z m 63,0 c 0,-0.825 0.45,-1.5 1,-1.5 0.55,0 1,0.675 1,1.5 0,0.825 -0.45,1.5 -1,1.5 -0.55,0 -1,-0.675 -1,-1.5 z M 577.5,452 c -1.63041,-0.70061 -1.68751,-0.87242 -0.30902,-0.92971 0.93004,-0.0387 1.9691,0.37971 2.30902,0.92971 0.71066,1.14988 0.67591,1.14988 -2,0 z M 331,450.60699 c 0,-0.21616 0.69837,-0.661 1.55194,-0.98855 0.88992,-0.34149 1.29132,-0.17385 0.94098,0.39301 C 332.90566,450.96166 331,451.4169 331,450.60699 Z M 219.18725,219.53247 c 1.76136,-1.3853 1.66303,-4.72325 -0.18725,-6.35663 -0.825,-0.72828 -0.9375,-1.03923 -0.25,-0.69098 0.80028,0.40538 1.25,-0.1076 1.25,-1.42584 0,-1.13246 0.45,-2.05902 1,-2.05902 0.55439,0 1,2.64595 1,5.93785 0,5.38162 -0.19323,5.9233 -2.06275,5.78247 -1.60843,-0.12116 -1.77362,-0.38278 -0.75,-1.18785 z m 16.02332,-0.13333 C 234.50139,218.62961 234.36233,218 234.90156,218 c 1.03844,0 2.54172,1.90221 1.94858,2.46567 -0.19258,0.18294 -0.93038,-0.297 -1.63957,-1.06653 z M 247.43709,217.75 244.5,214.5 l 3.25,2.93709 c 3.02946,2.73778 3.70965,3.56291 2.93709,3.56291 -0.1721,0 -1.6346,-1.4625 -3.25,-3.25 z m 5.77348,1.64914 C 252.50139,218.62961 252.36233,218 252.90156,218 c 1.03844,0 2.54172,1.90221 1.94858,2.46567 -0.19258,0.18294 -0.93038,-0.297 -1.63957,-1.06653 z m 22,0 C 274.50139,218.62961 274.36233,218 274.90156,218 c 1.03844,0 2.54172,1.90221 1.94858,2.46567 -0.19258,0.18294 -0.93038,-0.297 -1.63957,-1.06653 z m 23.80474,-0.48247 c 0.008,-1.32917 0.4578,-3.09167 0.99861,-3.91667 0.69179,-1.05532 0.79289,-0.46242 0.34104,2 -0.79139,4.31279 -1.35998,5.12629 -1.33965,1.91667 z m 39.19526,0.48247 C 337.50139,218.62961 337.36233,218 337.90156,218 c 1.03844,0 2.54172,1.90221 1.94858,2.46567 -0.19258,0.18294 -0.93038,-0.297 -1.63957,-1.06653 z M 230,216.5 c 0,-0.825 0.375,-1.5 0.83333,-1.5 0.45834,0 0.83334,0.675 0.83334,1.5 0,0.825 -0.375,1.5 -0.83334,1.5 C 230.375,218 230,217.325 230,216.5 Z m 59,0 c 0,-0.825 0.375,-1.5 0.83333,-1.5 0.45834,0 0.83334,0.675 0.83334,1.5 0,0.825 -0.375,1.5 -0.83334,1.5 C 289.375,218 289,217.325 289,216.5 Z m 36,0 c 0,-0.825 0.375,-1.5 0.83333,-1.5 0.45834,0 0.83334,0.675 0.83334,1.5 0,0.825 -0.375,1.5 -0.83334,1.5 C 325.375,218 325,217.325 325,216.5 Z m 4.5,-0.5 c -0.33992,-0.55 -0.14148,-1 0.44098,-1 0.58246,0 1.05902,0.45 1.05902,1 0,0.55 -0.19844,1 -0.44098,1 -0.24254,0 -0.7191,-0.45 -1.05902,-1 z m -94.28943,-2.39914 c 0.70919,-0.76953 1.44699,-1.24947 1.63957,-1.06653 C 237.44328,213.09779 235.94,215 234.90156,215 c -0.53923,0 -0.40017,-0.62961 0.30901,-1.39914 z m 18,0 c 0.70919,-0.76953 1.44699,-1.24947 1.63957,-1.06653 C 255.44328,213.09779 253.94,215 252.90156,215 c -0.53923,0 -0.40017,-0.62961 0.30901,-1.39914 z m 22,0 c 0.70919,-0.76953 1.44699,-1.24947 1.63957,-1.06653 C 277.44328,213.09779 275.94,215 274.90156,215 c -0.53923,0 -0.40017,-0.62961 0.30901,-1.39914 z m 63,0 c 0.70919,-0.76953 1.44699,-1.24947 1.63957,-1.06653 C 340.44328,213.09779 338.94,215 337.90156,215 c -0.53923,0 -0.40017,-0.62961 0.30901,-1.39914 z M 304,212.94098 c 0,-0.58246 0.45,-0.7809 1,-0.44098 0.55,0.33992 1,0.81648 1,1.05902 0,0.24254 -0.45,0.44098 -1,0.44098 -0.55,0 -1,-0.47656 -1,-1.05902 z M 329.5,213 c 0.33992,-0.55 0.81648,-1 1.05902,-1 0.24254,0 0.44098,0.45 0.44098,1 0,0.55 -0.47656,1 -1.05902,1 -0.58246,0 -0.7809,-0.45 -0.44098,-1 z"
         id="path22" />
      <path
         style="fill:#2d3436"
         d="m 442.23898,501.5 c -0.0446,-4.4 0.14469,-7.4411 0.42064,-6.75799 0.36486,0.90321 1.02528,0.96181 2.42105,0.21482 C 448.20992,493.2821 451,495.42353 451,499.5 c 0,4.0884 -2.78901,6.21847 -5.93655,4.53396 -1.70626,-0.91317 -1.98452,-0.64979 -2.33996,2.21481 -0.22188,1.78818 -0.43991,-0.34877 -0.48451,-4.74877 z m 7.26102,-2 c 0,-2.49332 -0.44288,-3.05136 -2.62225,-3.3041 -2.91432,-0.33796 -4.33106,1.8005 -3.31458,5.00312 0.43736,1.378 1.35784,1.83059 3.27267,1.60912 C 449.06088,502.55079 449.5,502.00552 449.5,499.5 Z m -120.75,4.4199 c -2.41099,-1.40427 -2.37363,-7.51577 0.0539,-8.81494 1.08873,-0.58267 2.3772,-0.60728 3.25,-0.0621 1.11837,0.6986 1.58627,0.17284 2.06448,-2.31978 0.39754,-2.07212 0.6599,-0.36627 0.73469,4.77689 0.0699,4.804 -0.22712,7.45797 -0.74336,6.64324 -0.5993,-0.94581 -1.06688,-1.02153 -1.54371,-0.25 -0.8319,1.34605 -1.5422,1.35101 -3.81598,0.0267 z M 333.5,499.5 c 0,-2.52893 -0.39041,-3 -2.4863,-3 -1.60345,0 -2.60998,0.64215 -2.83458,1.80841 -0.58425,3.03378 0.65315,4.85441 3.06641,4.51173 C 333.01269,502.5692 333.5,501.85154 333.5,499.5 Z m 8.25,4.4199 c -2.53191,-1.4747 -2.36243,-7.52177 0.25,-8.9199 3.11129,-1.66511 7,1.15798 7,5.08179 0,1.11756 -3.70512,4.93017 -4.75,4.8878 -0.4125,-0.0167 -1.5375,-0.48908 -2.5,-1.04969 z m 5.17607,-2.78176 c 1.30098,-2.4309 -0.83786,-5.49436 -3.48068,-4.9854 -2.01769,0.38857 -2.99905,2.96207 -2.06135,5.40567 0.78851,2.05482 4.36245,1.7838 5.54203,-0.42027 z m 6.82393,2.78176 c -2.48787,-1.44905 -2.3665,-7.51959 0.17756,-8.88113 1.06015,-0.56738 2.74765,-0.70806 3.75,-0.31263 1.48702,0.58664 1.2703,0.81785 -1.17756,1.25623 -2.54209,0.45527 -3,0.99218 -3,3.51763 0,2.52545 0.45791,3.06236 3,3.51763 2.45928,0.44042 2.66984,0.66749 1.16821,1.25982 -2.17412,0.85758 -1.76839,0.89461 -3.91821,-0.35755 z m 9.55694,-6.4199 c 0.006,-6.54259 0.11528,-7.10645 0.60016,-3.09514 l 0.5929,4.90486 3.5,-2.82674 3.5,-2.82674 -2.73435,2.8835 -2.73434,2.8835 2.73434,3.03838 2.73435,3.03838 -3.05472,-2.75 c -1.68009,-1.5125 -3.3377,-2.75 -3.68358,-2.75 -0.34587,0 -0.81632,1.2375 -1.04545,2.75 -0.22912,1.5125 -0.41331,-0.85 -0.40931,-5.25 z m 12.94306,6.46884 c -2.99896,-1.20544 -3.21722,-7.38083 -0.31574,-8.93366 2.62788,-1.40639 3.65158,-1.30648 5.49431,0.53625 2.83466,2.83465 1.93058,4.42857 -2.5119,4.42857 -5.04168,0 -4.92011,2.25026 0.16282,3.01384 2.68941,0.40402 3.02898,0.67119 1.58872,1.25 -1.00748,0.40489 -1.90748,0.70764 -2,0.67277 -0.0925,-0.0349 -1.18071,-0.47036 -2.41821,-0.96777 z M 381.5,497 c -0.33992,-0.55 -1.68992,-1 -3,-1 -1.31008,0 -2.66008,0.45 -3,1 -0.36852,0.59628 0.84262,1 3,1 2.15738,0 3.36852,-0.40372 3,-1 z m 4.65149,2.5 c -0.0665,-3.3 0.22162,-5.46125 0.64022,-4.80279 0.50194,0.78959 1.26281,0.87992 2.23468,0.26532 C 390.9504,493.74579 392,493.75902 392,495 c 0,0.55 -0.89143,1 -1.98095,1 -1.93649,0 -2.40413,0.97629 -3.35291,7 -0.21658,1.375 -0.44817,-0.2 -0.51465,-3.5 z m 15.59851,4.4199 c -2.48787,-1.44905 -2.3665,-7.51959 0.17756,-8.88113 1.06015,-0.56738 2.74765,-0.70806 3.75,-0.31263 1.48702,0.58664 1.2703,0.81785 -1.17756,1.25623 -2.54209,0.45527 -3,0.99218 -3,3.51763 0,2.52545 0.45791,3.06236 3,3.51763 2.45928,0.44042 2.66984,0.66749 1.16821,1.25982 -2.17412,0.85758 -1.76839,0.89461 -3.91821,-0.35755 z m 11,0 c -2.53191,-1.4747 -2.36243,-7.52177 0.25,-8.9199 3.11129,-1.66511 7,1.15798 7,5.08179 0,1.11756 -3.70512,4.93017 -4.75,4.8878 -0.4125,-0.0167 -1.5375,-0.48908 -2.5,-1.04969 z m 5.17607,-2.78176 c 1.30098,-2.4309 -0.83786,-5.49436 -3.48068,-4.9854 -2.01769,0.38857 -2.99905,2.96207 -2.06135,5.40567 0.78851,2.05482 4.36245,1.7838 5.54203,-0.42027 z M 423.21513,499.5 c -0.0315,-3.3 0.16854,-5.4411 0.44449,-4.75799 0.36242,0.89716 1.02823,0.96023 2.39802,0.22714 3.4213,-1.83102 5.79656,0.66364 5.1872,5.44797 C 430.52193,506.09304 430,506.19767 430,500.66667 430,496.36511 429.80589,496 427.51905,496 c -2.49923,0 -2.85102,0.63914 -3.85291,7 -0.21658,1.375 -0.41953,-0.2 -0.45101,-3.5 z M 437,500.5 c 0,-3.9697 -0.25926,-4.5 -2.2,-4.5 -1.51322,0 -1.87759,-0.32241 -1.16722,-1.03278 0.56803,-0.56803 1.78303,-0.74489 2.7,-0.39301 1.24197,0.47658 1.66722,1.88781 1.66722,5.53278 0,2.69115 -0.225,4.89301 -0.5,4.89301 -0.275,0 -0.5,-2.025 -0.5,-4.5 z m 19.75,3.4199 c -2.53191,-1.4747 -2.36243,-7.52177 0.25,-8.9199 3.11129,-1.66511 7,1.15798 7,5.08179 0,1.11756 -3.70512,4.93017 -4.75,4.8878 -0.4125,-0.0167 -1.5375,-0.48908 -2.5,-1.04969 z m 5.17607,-2.78176 c 1.30098,-2.4309 -0.83786,-5.49436 -3.48068,-4.9854 -2.01769,0.38857 -2.99905,2.96207 -2.06135,5.40567 0.78851,2.05482 4.36245,1.7838 5.54203,-0.42027 z M 467.5,504 c -1.59136,-0.68383 -1.21193,-0.87379 1.85699,-0.92971 3.24684,-0.0592 3.75159,-0.34713 3.19075,-1.82029 -0.55031,-1.44551 -0.43843,-1.52079 0.64301,-0.43268 1.07977,1.08642 0.96901,1.56844 -0.63188,2.75 -2.18505,1.61271 -2.29159,1.62182 -5.05887,0.43268 z m 11.75,-0.0312 c -2.99896,-1.20544 -3.21722,-7.38083 -0.31574,-8.93366 2.62788,-1.40639 3.65158,-1.30648 5.49431,0.53625 2.83466,2.83465 1.93058,4.42857 -2.5119,4.42857 -5.04168,0 -4.92011,2.25026 0.16282,3.01384 2.68941,0.40402 3.02898,0.67119 1.58872,1.25 -1.00748,0.40489 -1.90748,0.70764 -2,0.67277 -0.0925,-0.0349 -1.18071,-0.47036 -2.41821,-0.96777 z M 484.5,497 c -0.33992,-0.55 -1.68992,-1 -3,-1 -1.31008,0 -2.66008,0.45 -3,1 -0.36852,0.59628 0.84262,1 3,1 2.15738,0 3.36852,-0.40372 3,-1 z m -92.5,2 c 0,-0.55 1.125,-1 2.5,-1 1.375,0 2.5,0.45 2.5,1 0,0.55 -1.125,1 -2.5,1 -1.375,0 -2.5,-0.45 -2.5,-1 z m 75.116,-1.64301 c -0.13615,-2.51528 2.34863,-3.77295 4.71994,-2.38899 1.37558,0.80282 1.20004,0.97645 -1.01262,1.00159 -1.69117,0.0192 -2.84505,0.67473 -3.13399,1.78041 -0.36074,1.38038 -0.48183,1.29737 -0.57333,-0.39301 z M 213.32814,455.5 c 0.004,-3.85 0.18518,-5.30246 0.40166,-3.2277 0.21647,2.07477 0.21284,5.22477 -0.008,7 -0.22091,1.77524 -0.39803,0.0777 -0.39359,-3.7723 z m 242,0 c 0.004,-3.85 0.18518,-5.30246 0.40166,-3.2277 0.21647,2.07477 0.21284,5.22477 -0.008,7 -0.22091,1.77524 -0.39803,0.0777 -0.39359,-3.7723 z m 80,0 c 0.004,-3.85 0.18518,-5.30246 0.40166,-3.2277 0.21647,2.07477 0.21284,5.22477 -0.008,7 -0.22091,1.77524 -0.39803,0.0777 -0.39359,-3.7723 z m 23.71413,3.25 c -0.0233,-1.5125 0.31733,-2.75 0.75684,-2.75 0.43951,0 1.38082,-1.60869 2.0918,-3.57487 0.71098,-1.96617 1.47596,-3.39159 1.69996,-3.16759 0.224,0.224 -0.69829,3.07019 -2.04953,6.32487 -1.95104,4.69939 -2.4655,5.35147 -2.49907,3.16759 z M 512.29966,454 c 0,-3.025 0.18747,-4.2625 0.41659,-2.75 0.22913,1.5125 0.22913,3.9875 0,5.5 -0.22912,1.5125 -0.41659,0.275 -0.41659,-2.75 z m -287.97152,-2.5 c 0.004,-3.85 0.18518,-5.30246 0.40166,-3.2277 0.21647,2.07477 0.21284,5.22477 -0.008,7 -0.22091,1.77524 -0.39803,0.0777 -0.39359,-3.7723 z m 5.8319,3.29969 c -0.10133,-2.34291 -0.802,-4.07422 -1.91004,-4.71959 -0.9625,-0.56061 -1.2426,-1.03297 -0.62244,-1.04969 2.07202,-0.0559 3.51315,2.80446 3.10071,6.15427 l -0.4082,3.31532 z m 16.41143,2.31595 c -0.81184,-1.31358 -1.00052,-10.01992 -0.23377,-10.78667 0.36427,-0.36427 0.6623,0.0547 0.6623,0.93104 0,0.87634 0.7875,1.79914 1.75,2.05066 1.66667,0.43555 1.66667,0.46285 0,0.57333 -1.30363,0.0864 -1.75,0.99003 -1.75,3.54268 0,2.42261 0.51277,3.56067 1.75,3.88399 1.57771,0.4123 1.58352,0.46875 0.059,0.57333 -0.93004,0.0638 -1.93694,-0.28196 -2.23755,-0.76836 z M 276.32814,451.5 c 0.004,-3.85 0.18518,-5.30246 0.40166,-3.2277 0.21647,2.07477 0.21284,5.22477 -0.008,7 -0.22091,1.77524 -0.39803,0.0777 -0.39359,-3.7723 z m 4.63669,4.95762 c -1.04128,-1.25466 -1.03675,-1.76766 0.0243,-2.75 1.0347,-0.95799 1.13906,-0.91788 0.50484,0.19408 -0.5138,0.90082 -0.14058,1.88351 1.04442,2.75 1.01415,0.74157 1.363,1.3483 0.77522,1.3483 -0.58777,0 -1.64471,-0.69407 -2.34874,-1.54238 z m 11.60664,0.65802 c -0.81184,-1.31358 -1.00052,-10.01992 -0.23377,-10.78667 0.36427,-0.36427 0.6623,0.0547 0.6623,0.93104 0,0.87634 0.7875,1.79914 1.75,2.05066 1.66667,0.43555 1.66667,0.46285 0,0.57333 -1.30363,0.0864 -1.75,0.99003 -1.75,3.54268 0,2.42261 0.51277,3.56067 1.75,3.88399 1.57771,0.4123 1.58352,0.46875 0.059,0.57333 -0.93004,0.0638 -1.93694,-0.28196 -2.23755,-0.76836 z m 6.39336,-0.65802 c -1.04128,-1.25466 -1.03675,-1.76766 0.0243,-2.75 1.0347,-0.95799 1.13906,-0.91788 0.50484,0.19408 -0.5138,0.90082 -0.14058,1.88351 1.04442,2.75 1.01415,0.74157 1.363,1.3483 0.77522,1.3483 -0.58777,0 -1.64471,-0.69407 -2.34874,-1.54238 z M 310.32814,451.5 c 0.004,-3.85 0.18518,-5.30246 0.40166,-3.2277 0.21647,2.07477 0.21284,5.22477 -0.008,7 -0.22091,1.77524 -0.39803,0.0777 -0.39359,-3.7723 z m 10.63669,4.95762 c -1.04128,-1.25466 -1.03675,-1.76766 0.0243,-2.75 1.0347,-0.95799 1.13906,-0.91788 0.50484,0.19408 -0.5138,0.90082 -0.14058,1.88351 1.04442,2.75 1.01415,0.74157 1.363,1.3483 0.77522,1.3483 -0.58777,0 -1.64471,-0.69407 -2.34874,-1.54238 z M 466.32814,451.5 c 0.004,-3.85 0.18518,-5.30246 0.40166,-3.2277 0.21647,2.07477 0.21284,5.22477 -0.008,7 -0.22091,1.77524 -0.39803,0.0777 -0.39359,-3.7723 z m 5.8319,3.29969 c -0.10133,-2.34291 -0.802,-4.07422 -1.91004,-4.71959 -0.9625,-0.56061 -1.2426,-1.03297 -0.62244,-1.04969 2.07202,-0.0559 3.51315,2.80446 3.10071,6.15427 l -0.4082,3.31532 z m 16.41143,2.31595 c -0.81184,-1.31358 -1.00052,-10.01992 -0.23377,-10.78667 0.36427,-0.36427 0.6623,0.0547 0.6623,0.93104 0,0.87634 0.7875,1.79914 1.75,2.05066 1.66667,0.43555 1.66667,0.46285 0,0.57333 -1.30363,0.0864 -1.75,0.99003 -1.75,3.54268 0,2.42261 0.51277,3.56067 1.75,3.88399 1.57771,0.4123 1.58352,0.46875 0.059,0.57333 -0.93004,0.0638 -1.93694,-0.28196 -2.23755,-0.76836 z M 517.28601,453.5 c 0.008,-2.75 0.20172,-3.75631 0.43157,-2.23625 0.22986,1.52006 0.22371,3.77006 -0.0136,5 -0.23736,1.22994 -0.42542,-0.0138 -0.41792,-2.76375 z m 6.67882,2.95762 c -1.04128,-1.25466 -1.03675,-1.76766 0.0243,-2.75 1.0347,-0.95799 1.13906,-0.91788 0.50484,0.19408 -0.5138,0.90082 -0.14058,1.88351 1.04442,2.75 1.01415,0.74157 1.363,1.3483 0.77522,1.3483 -0.58777,0 -1.64471,-0.69407 -2.34874,-1.54238 z M 546.32814,451.5 c 0.004,-3.85 0.18518,-5.30246 0.40166,-3.2277 0.21647,2.07477 0.21284,5.22477 -0.008,7 -0.22091,1.77524 -0.39803,0.0777 -0.39359,-3.7723 z m 5.8319,3.29969 c -0.10133,-2.34291 -0.802,-4.07422 -1.91004,-4.71959 -0.9625,-0.56061 -1.2426,-1.03297 -0.62244,-1.04969 2.07202,-0.0559 3.51315,2.80446 3.10071,6.15427 L 552.32007,458.5 Z M 574,456.44098 c 0,-0.85746 0.45,-1.2809 1,-0.94098 0.55,0.33992 1,1.04148 1,1.55902 0,0.51754 -0.45,0.94098 -1,0.94098 -0.55,0 -1,-0.70156 -1,-1.55902 z m 6,0.61804 c 0,-0.51754 0.45,-1.2191 1,-1.55902 0.55,-0.33992 1,0.0835 1,0.94098 0,0.85746 -0.45,1.55902 -1,1.55902 -0.55,0 -1,-0.42344 -1,-0.94098 z M 598.32814,451.5 c 0.004,-3.85 0.18518,-5.30246 0.40166,-3.2277 0.21647,2.07477 0.21284,5.22477 -0.008,7 -0.22091,1.77524 -0.39803,0.0777 -0.39359,-3.7723 z m -363.82174,3.52018 c -0.3456,-1.0889 -0.24092,-2.67214 0.23262,-3.51831 0.60969,-1.08946 0.86098,-0.51161 0.86098,1.97982 0,4.0277 -0.20985,4.32292 -1.0936,1.53849 z M 240.5,453.5 c 0,-1.81996 0.3375,-3.10043 0.75,-2.84549 0.4125,0.25494 0.75,1.53541 0.75,2.84549 0,1.31008 -0.3375,2.59055 -0.75,2.84549 -0.4125,0.25494 -0.75,-1.02553 -0.75,-2.84549 z m 12.0064,1.52018 c -0.3456,-1.0889 -0.24092,-2.67214 0.23262,-3.51831 0.60969,-1.08946 0.86098,-0.51161 0.86098,1.97982 0,4.0277 -0.20985,4.32292 -1.0936,1.53849 z M 258.5,453.5 c 0,-1.81996 0.3375,-3.10043 0.75,-2.84549 0.4125,0.25494 0.75,1.53541 0.75,2.84549 0,1.31008 -0.3375,2.59055 -0.75,2.84549 -0.4125,0.25494 -0.75,-1.02553 -0.75,-2.84549 z m 11.0064,1.52018 c -0.3456,-1.0889 -0.24092,-2.67214 0.23262,-3.51831 0.60969,-1.08946 0.86098,-0.51161 0.86098,1.97982 0,4.0277 -0.20985,4.32292 -1.0936,1.53849 z m 71,0 c -0.3456,-1.0889 -0.11695,-2.7764 0.50812,-3.75 1.06283,-1.65545 1.10122,-1.65676 0.59237,-0.0202 -0.43694,1.40528 0.0617,1.75 2.53148,1.75 2.36878,0 2.93874,-0.35666 2.48007,-1.55194 -0.34149,-0.88992 -0.17385,-1.29132 0.39301,-0.94098 2.35686,1.45662 0.91103,3.49292 -2.48007,3.49292 -2.67237,0 -3.33648,0.34434 -2.89301,1.5 0.31659,0.825 0.33279,1.5 0.036,1.5 -0.29678,0 -0.82237,-0.89092 -1.16798,-1.97982 z m 136,0 c -0.3456,-1.0889 -0.24092,-2.67214 0.23262,-3.51831 0.60969,-1.08946 0.86098,-0.51161 0.86098,1.97982 0,4.0277 -0.20985,4.32292 -1.0936,1.53849 z M 482.5,453.5 c 0,-1.81996 0.3375,-3.10043 0.75,-2.84549 0.4125,0.25494 0.75,1.53541 0.75,2.84549 0,1.31008 -0.3375,2.59055 -0.75,2.84549 -0.4125,0.25494 -0.75,-1.02553 -0.75,-2.84549 z m 12.0064,1.52018 c -0.3456,-1.0889 -0.24092,-2.67214 0.23262,-3.51831 0.60969,-1.08946 0.86098,-0.51161 0.86098,1.97982 0,4.0277 -0.20985,4.32292 -1.0936,1.53849 z M 500.5,453.5 c 0,-1.81996 0.3375,-3.10043 0.75,-2.84549 0.4125,0.25494 0.75,1.53541 0.75,2.84549 0,1.31008 -0.3375,2.59055 -0.75,2.84549 -0.4125,0.25494 -0.75,-1.02553 -0.75,-2.84549 z m 5.0064,1.52018 c -0.3456,-1.0889 -0.24092,-2.67214 0.23262,-3.51831 0.60969,-1.08946 0.86098,-0.51161 0.86098,1.97982 0,4.0277 -0.20985,4.32292 -1.0936,1.53849 z m 81,0 c -0.3456,-1.0889 -0.11695,-2.7764 0.50812,-3.75 1.06283,-1.65545 1.10122,-1.65676 0.59237,-0.0202 -0.43694,1.40528 0.0617,1.75 2.53148,1.75 2.36878,0 2.93874,-0.35666 2.48007,-1.55194 -0.34149,-0.88992 -0.17385,-1.29132 0.39301,-0.94098 2.35686,1.45662 0.91103,3.49292 -2.48007,3.49292 -2.67237,0 -3.33648,0.34434 -2.89301,1.5 0.31659,0.825 0.33279,1.5 0.036,1.5 -0.29678,0 -0.82237,-0.89092 -1.16798,-1.97982 z m -28.88286,-1.55884 c -0.96498,-2.51469 -0.68031,-3.16355 0.49853,-1.13634 0.58369,1.00375 0.8506,2.03566 0.59313,2.29313 -0.25747,0.25747 -0.74872,-0.26309 -1.09166,-1.15679 z m 18.45541,-0.0447 c 0.048,-1.16495 0.28494,-1.4019 0.60416,-0.60417 0.28887,0.72187 0.25335,1.58438 -0.0789,1.91667 -0.33229,0.33229 -0.56864,-0.25834 -0.52522,-1.3125 z M 263,453 c 0,-0.55 0.9,-1 2,-1 1.1,0 2,0.45 2,1 0,0.55 -0.9,1 -2,1 -1.1,0 -2,-0.45 -2,-1 z m 68.87244,-0.75 c -1.26951,-1.61876 -1.22245,-1.63998 0.62756,-0.28297 1.1,0.80687 2.1875,1.59437 2.41667,1.75 0.22916,0.15563 -0.0532,0.28297 -0.62756,0.28297 -0.57432,0 -1.66182,-0.7875 -2.41667,-1.75 z M 566,453 c 0,-0.55 0.9,-1 2,-1 1.1,0 2,0.45 2,1 0,0.55 -0.9,1 -2,1 -1.1,0 -2,-0.45 -2,-1 z m 7.07895,-0.58333 c 0.048,-1.16495 0.28494,-1.4019 0.60416,-0.60417 0.28887,0.72187 0.25335,1.58438 -0.0789,1.91667 -0.33229,0.33229 -0.56864,-0.25834 -0.52522,-1.3125 z m 9,0 c 0.048,-1.16495 0.28494,-1.4019 0.60416,-0.60417 0.28887,0.72187 0.25335,1.58438 -0.0789,1.91667 -0.33229,0.33229 -0.56864,-0.25834 -0.52522,-1.3125 z M 283.75,452.33772 c 0.6875,-0.27741 1.8125,-0.27741 2.5,0 0.6875,0.27741 0.125,0.50439 -1.25,0.50439 -1.375,0 -1.9375,-0.22698 -1.25,-0.50439 z m 18,0 c 0.6875,-0.27741 1.8125,-0.27741 2.5,0 0.6875,0.27741 0.125,0.50439 -1.25,0.50439 -1.375,0 -1.9375,-0.22698 -1.25,-0.50439 z m 22,0 c 0.6875,-0.27741 1.8125,-0.27741 2.5,0 0.6875,0.27741 0.125,0.50439 -1.25,0.50439 -1.375,0 -1.9375,-0.22698 -1.25,-0.50439 z m 203,0 c 0.6875,-0.27741 1.8125,-0.27741 2.5,0 0.6875,0.27741 0.125,0.50439 -1.25,0.50439 -1.375,0 -1.9375,-0.22698 -1.25,-0.50439 z M 577,450 c 0,-0.55 0.45,-1 1,-1 0.55,0 1,0.45 1,1 0,0.55 -0.45,1 -1,1 -0.55,0 -1,-0.45 -1,-1 z m -295.25,-0.66228 c 0.6875,-0.27741 1.8125,-0.27741 2.5,0 0.6875,0.27741 0.125,0.50439 -1.25,0.50439 -1.375,0 -1.9375,-0.22698 -1.25,-0.50439 z m 18,0 c 0.6875,-0.27741 1.8125,-0.27741 2.5,0 0.6875,0.27741 0.125,0.50439 -1.25,0.50439 -1.375,0 -1.9375,-0.22698 -1.25,-0.50439 z m 22,0 c 0.6875,-0.27741 1.8125,-0.27741 2.5,0 0.6875,0.27741 0.125,0.50439 -1.25,0.50439 -1.375,0 -1.9375,-0.22698 -1.25,-0.50439 z m 203,0 c 0.6875,-0.27741 1.8125,-0.27741 2.5,0 0.6875,0.27741 0.125,0.50439 -1.25,0.50439 -1.375,0 -1.9375,-0.22698 -1.25,-0.50439 z M 310.32007,218 c 0,-3.575 0.1815,-5.0375 0.40333,-3.25 0.22182,1.7875 0.22182,4.7125 0,6.5 -0.22183,1.7875 -0.40333,0.325 -0.40333,-3.25 z m -66.01578,-3 c 0.0185,-3.76961 0.19948,-4.878 0.43082,-2.63863 l 0.3989,3.86136 2.68299,-2.33561 2.683,-2.33561 -2.23224,2.4287 -2.23223,2.42871 2.23223,2.54554 2.23224,2.54554 -2.66773,-2.34703 -2.66774,-2.34703 -0.44608,2.34703 C 244.4731,220.44384 244.28673,218.575 244.30429,215 Z m 18.98172,1.5 c 0.008,-2.75 0.20172,-3.75631 0.43157,-2.23625 0.22986,1.52006 0.22371,3.77006 -0.0136,5 -0.23736,1.22994 -0.42542,-0.0137 -0.41792,-2.76375 z m 31,0 c 0.008,-2.75 0.20172,-3.75631 0.43157,-2.23625 0.22986,1.52006 0.22371,3.77006 -0.0136,5 -0.23736,1.22994 -0.42542,-0.0137 -0.41792,-2.76375 z m 10.96617,1 c 0.0111,-2.2 0.21589,-2.98225 0.45508,-1.73834 0.23919,1.24391 0.23011,3.04391 -0.0202,4 -0.25029,0.95609 -0.446,-0.0617 -0.4349,-2.26166 z m 9.20315,2.15632 c 1.26845,-0.92751 1.68211,-2.15702 1.33559,-3.96974 -0.2761,-1.44433 -0.11701,-2.38812 0.35354,-2.0973 2.2151,1.36901 0.14792,7.41072 -2.53559,7.41072 -0.54512,0 -0.16421,-0.60466 0.84646,-1.34368 z m 19.62362,-1.23965 c 0.048,-1.16495 0.28494,-1.4019 0.60416,-0.60417 0.28887,0.72187 0.25335,1.58437 -0.0789,1.91667 -0.33229,0.33229 -0.56864,-0.25834 -0.52522,-1.3125 z m -120,-2 c 0.048,-1.16495 0.28494,-1.4019 0.60416,-0.60417 0.28887,0.72187 0.25335,1.58437 -0.0789,1.91667 -0.3323,0.33229 -0.56864,-0.25834 -0.52522,-1.3125 z m 10,0 c 0.048,-1.16495 0.28494,-1.4019 0.60416,-0.60417 0.28887,0.72187 0.25335,1.58437 -0.0789,1.91667 -0.3323,0.33229 -0.56864,-0.25834 -0.52522,-1.3125 z m 10,0 c 0.048,-1.16495 0.28494,-1.4019 0.60416,-0.60417 0.28887,0.72187 0.25335,1.58437 -0.0789,1.91667 -0.3323,0.33229 -0.56864,-0.25834 -0.52522,-1.3125 z M 252,216.52643 c 0,-0.56454 1.8,-1.02643 4,-1.02643 2.2,0 4,0.29023 4,0.64496 0,0.35474 -1.8,0.81663 -4,1.02643 -2.31642,0.22091 -4,-0.0506 -4,-0.64496 z m 22.07895,-0.10976 c 0.048,-1.16495 0.28494,-1.4019 0.60416,-0.60417 0.28887,0.72187 0.25335,1.58437 -0.0789,1.91667 -0.33229,0.33229 -0.56864,-0.25834 -0.52522,-1.3125 z m 9,0 c 0.048,-1.16495 0.28494,-1.4019 0.60416,-0.60417 0.28887,0.72187 0.25335,1.58437 -0.0789,1.91667 -0.33229,0.33229 -0.56864,-0.25834 -0.52522,-1.3125 z m 36,0 c 0.048,-1.16495 0.28494,-1.4019 0.60416,-0.60417 0.28887,0.72187 0.25335,1.58437 -0.0789,1.91667 -0.33229,0.33229 -0.56864,-0.25834 -0.52522,-1.3125 z M 337,216.52643 c 0,-0.56454 1.8,-1.02643 4,-1.02643 2.2,0 4,0.29023 4,0.64496 0,0.35474 -1.8,0.81663 -4,1.02643 -2.31642,0.22091 -4,-0.0506 -4,-0.64496 z m -68.25,-0.18871 c 0.6875,-0.27741 1.8125,-0.27741 2.5,0 0.6875,0.27741 0.125,0.50439 -1.25,0.50439 -1.375,0 -1.9375,-0.22698 -1.25,-0.50439 z m 30.32895,-1.92105 c 0.048,-1.16495 0.28494,-1.4019 0.60416,-0.60417 0.28887,0.72187 0.25335,1.58437 -0.0789,1.91667 -0.33229,0.33229 -0.56864,-0.25834 -0.52522,-1.3125 z"
         id="path21" />
    </g>
  </g>
</svg>
