<?xml version="1.0" encoding="UTF-8" standalone="no"?>
<svg
   width="39"
   height="44"
   viewBox="0 0 39 44"
   fill="none"
   version="1.1"
   id="svg1"
   sodipodi:docname="scg-icon-2.svg"
   xmlns:inkscape="http://www.inkscape.org/namespaces/inkscape"
   xmlns:sodipodi="http://sodipodi.sourceforge.net/DTD/sodipodi-0.dtd"
   xmlns="http://www.w3.org/2000/svg"
   xmlns:svg="http://www.w3.org/2000/svg">
  <defs
     id="defs1" />
  <sodipodi:namedview
     id="namedview1"
     pagecolor="#ffffff"
     bordercolor="#000000"
     borderopacity="0.25"
     inkscape:showpageshadow="2"
     inkscape:pageopacity="0.0"
     inkscape:pagecheckerboard="0"
     inkscape:deskcolor="#d1d1d1"
     showgrid="false">
    <inkscape:page
       x="0"
       y="0"
       width="39"
       height="44"
       id="page2"
       margin="0"
       bleed="0" />
  </sodipodi:namedview>
  <path
     d="M 5.0461621,32.18997 H 18.137602 v 2.6745 h -2.7601 c -1.2764,0 -1.7673,1.243 -0.96,2.2273 l 4.0475,4.9714 c 0.1043,0.1499 0.2486,0.2732 0.4193,0.3587 0.1706,0.0856 0.3622,0.1304 0.557,0.1304 0.1948,0 0.3865,-0.0448 0.5571,-0.1304 0.1707,-0.0855 0.315,-0.2088 0.4193,-0.3587 l 4.0148,-4.9714 c 0.7527,-0.9943 0.2836,-2.2273 -0.9492,-2.2273 h -2.7928 v -2.6745 h 13.0151 c 2.5855,0 3.8838,-1.3025 3.8838,-3.9771 v -6.1645 c 0.0689,-0.9881 -0.294,-1.961 -1.0094,-2.7062 -0.7154,-0.7451 -1.7252,-1.202 -2.809,-1.2709 h -13.0805 v -2.9828 h 13.0369 c 1.0863,-0.0715 2.0987,-0.5278 2.8205,-1.2711 0.7218,-0.7433 1.0956,-1.7146 1.0415,-2.706 V 4.9667199 c 0.0689,-0.98813 -0.294,-1.96095 -1.0094,-2.7061 -0.7154,-0.74514 -1.7252,-1.20208 -2.809,-1.27099997 H 5.0461621 c -1.09822,0.06895 -2.12188,0.53109997 -2.84751,1.28556997 -0.72562,0.75446 -1.09425,1.73998 -1.02536,2.74129 V 11.14107 c -0.06293,0.9901 0.30495,1.963 1.02383,2.7075 0.71888,0.7445 1.73081,1.2007 2.81635,1.2696 H 18.104902 v 2.9829 H 5.0134721 c -1.09917,0.0714 -2.12289,0.5358 -2.84824,1.2918 -0.72536,0.7561 -1.0936,1.7426 -1.02464,2.745 v 6.075 c 0.03273,2.7044 1.33092,3.9771 3.90557,3.9771 z m 0.21821,-19.7662 c -0.99277,0 -1.5273,-0.5469 -1.5273,-1.6207 V 5.2252399 c 0,-1.0937 0.53453,-1.62067 1.5273,-1.62067 H 33.203702 c 0.9928,0 1.5274,0.52697 1.5274,1.62067 V 10.80307 c 0,1.0738 -0.5346,1.6207 -1.5274,1.6207 z m 0,17.0916 c -0.99277,0 -1.5273,-0.5369 -1.5273,-1.6206 v -5.5681 c 0,-1.1036 0.53453,-1.6206 1.5273,-1.6206 H 33.203702 c 0.9928,0 1.5274,0.517 1.5274,1.6206 v 5.5681 c 0,1.0837 -0.5346,1.6206 -1.5274,1.6206 z"
     fill="#dff3fa"
     stroke="#004e89"
     stroke-width="1.07"
     stroke-miterlimit="10"
     id="path1" />
</svg>
