<svg width="1453" height="1985" viewBox="0 0 1453 1985" fill="none" xmlns="http://www.w3.org/2000/svg">
<g clip-path="url(#clip0_358_2)">
<path d="M1256.27 1015.55L1191.02 970.167L1124.36 1015.55L1057.69 970.167L992.449 1015.55L925.785 970.167L859.122 1015.55L793.876 970.167L727.213 1015.55L660.549 970.167L595.304 1015.55L528.641 970.167L461.977 1015.55L395.314 970.167L330.069 1015.55L263.405 970.167L196.742 1015.55L131.497 970.167L70.5068 1012.72L131.497 971.585L196.742 1016.97L263.405 971.585L330.069 1016.97L395.314 971.585L461.977 1016.97L528.641 971.585L595.304 1016.97L660.549 971.585L727.213 1016.97L793.876 971.585L859.122 1016.97L925.785 971.585L992.449 1016.97L1057.69 971.585L1124.36 1016.97L1191.02 971.585L1256.27 1016.97L1322.93 971.585L1383.92 1014.14V1012.72L1322.93 970.167L1256.27 1015.55Z" fill="white" stroke="#1F4D85" stroke-width="0.0591741" stroke-miterlimit="333.333"/>
<path d="M1256.27 828.33L1191.02 875.136L1124.36 828.33L1057.69 875.136L992.449 828.33L925.785 875.136L859.122 828.33L793.876 875.136L727.213 828.33L660.549 875.136L595.304 828.33L528.641 875.136L461.977 828.33L395.314 875.136L330.069 828.33L263.405 875.136L196.742 828.33L131.497 875.136L70.5068 832.585V834.003L131.497 875.136L196.742 829.748L263.405 875.136L330.069 829.748L395.314 875.136L461.977 829.748L528.641 875.136L595.304 829.748L660.549 875.136L727.213 829.748L793.876 875.136L859.122 829.748L925.785 875.136L992.449 829.748L1057.69 875.136L1124.36 829.748L1191.02 875.136L1256.27 829.748L1322.93 875.136L1256.27 828.33Z" fill="white"/>
<path d="M1191.02 875.136L1256.27 828.33L1322.93 875.136M1191.02 875.136L1124.36 828.33L1057.69 875.136M1191.02 875.136L1124.36 829.748L1057.69 875.136M1191.02 875.136L1256.27 829.748L1322.93 875.136M1057.69 875.136L992.449 828.33L925.785 875.136M1057.69 875.136L992.449 829.748L925.785 875.136M925.785 875.136L859.122 828.33L793.876 875.136M925.785 875.136L859.122 829.748L793.876 875.136M793.876 875.136L727.213 828.33L660.549 875.136M793.876 875.136L727.213 829.748L660.549 875.136M660.549 875.136L595.304 828.33L528.641 875.136M660.549 875.136L595.304 829.748L528.641 875.136M528.641 875.136L461.977 828.33L395.314 875.136M528.641 875.136L461.977 829.748L395.314 875.136M395.314 875.136L330.069 828.33L263.405 875.136M395.314 875.136L330.069 829.748L263.405 875.136M263.405 875.136L196.742 828.33L131.497 875.136M263.405 875.136L196.742 829.748L131.497 875.136M131.497 875.136L70.5068 832.585V834.003L131.497 875.136ZM1322.93 875.136L1383.92 832.585" stroke="#1F4D85" stroke-width="0.0591741" stroke-miterlimit="333.333"/>
<path d="M863.37 178.715L798.125 134.745L795.288 136.164L859.115 181.552L863.37 178.715Z" fill="white" stroke="#1F4D85" stroke-width="0.0591741" stroke-miterlimit="333.333"/>
<path d="M730.047 178.715L666.221 134.745L663.384 136.164L727.211 181.552L730.047 178.715Z" fill="white" stroke="#1F4D85" stroke-width="0.0591741" stroke-miterlimit="333.333"/>
<path d="M263.402 411.328L330.065 458.134L395.31 411.328L461.974 458.134L528.637 411.328L595.301 458.134L660.546 411.328L727.209 458.134L793.873 411.328L859.118 458.134L925.781 411.328L992.445 458.134L1057.69 411.328L1124.35 458.134L1191.02 411.328L1256.26 458.134L1315.83 417.001V415.583L1256.26 456.716L1191.02 411.328L1124.35 456.716L1057.69 411.328L992.445 456.716L925.781 411.328L859.118 456.716L793.873 411.328L727.209 456.716L660.546 411.328L595.301 456.716L528.637 411.328L461.974 456.716L395.31 411.328L330.065 456.716L263.402 411.328L196.738 456.716L140.003 417.001H138.585L196.738 458.134L263.402 411.328Z" fill="white"/>
<path d="M263.402 411.328L330.065 458.134L395.31 411.328M263.402 411.328L330.065 456.716L395.31 411.328M263.402 411.328L196.738 456.716L140.003 417.001H138.585L196.738 458.134L263.402 411.328ZM395.31 411.328L461.974 458.134L528.637 411.328M395.31 411.328L461.974 456.716L528.637 411.328M528.637 411.328L595.301 458.134L660.546 411.328M528.637 411.328L595.301 456.716L660.546 411.328M660.546 411.328L727.209 458.134L793.873 411.328M660.546 411.328L727.209 456.716L793.873 411.328M793.873 411.328L859.118 458.134L925.781 411.328M793.873 411.328L859.118 456.716L925.781 411.328M925.781 411.328L992.445 458.134L1057.69 411.328M925.781 411.328L992.445 456.716L1057.69 411.328M1057.69 411.328L1124.35 458.134L1191.02 411.328M1057.69 411.328L1124.35 456.716L1191.02 411.328M1191.02 411.328L1256.26 458.134L1315.83 417.001V415.583L1256.26 456.716L1191.02 411.328Z" stroke="#1F4D85" stroke-width="0.0591741" stroke-miterlimit="333.333"/>
<path d="M196.742 734.717L263.405 687.91L330.069 734.717L395.314 687.91L461.977 734.717L528.641 687.91L595.304 734.717L660.549 687.91L727.213 734.717L793.876 687.91L859.122 734.717L925.785 687.91L992.449 734.717L1057.69 687.91L1124.36 734.717L1191.02 687.91L1256.27 734.717L1322.93 687.91L1256.27 733.298L1191.02 687.91L1124.36 733.298L1057.69 687.91L992.449 733.298L925.785 687.91L859.122 733.298L793.876 687.91L727.213 733.298L660.549 687.91L595.304 733.298L528.641 687.91L461.977 733.298L395.314 687.91L330.069 733.298L263.405 687.91L196.742 733.298L131.497 687.91L70.5068 729.043V730.462L131.497 687.91L196.742 734.717Z" fill="white"/>
<path d="M263.405 687.91L196.742 734.717L131.497 687.91M263.405 687.91L330.069 734.717L395.314 687.91M263.405 687.91L330.069 733.298L395.314 687.91M263.405 687.91L196.742 733.298L131.497 687.91M395.314 687.91L461.977 734.717L528.641 687.91M395.314 687.91L461.977 733.298L528.641 687.91M528.641 687.91L595.304 734.717L660.549 687.91M528.641 687.91L595.304 733.298L660.549 687.91M660.549 687.91L727.213 734.717L793.876 687.91M660.549 687.91L727.213 733.298L793.876 687.91M793.876 687.91L859.122 734.717L925.785 687.91M793.876 687.91L859.122 733.298L925.785 687.91M925.785 687.91L992.449 734.717L1057.69 687.91M925.785 687.91L992.449 733.298L1057.69 687.91M1057.69 687.91L1124.36 734.717L1191.02 687.91M1057.69 687.91L1124.36 733.298L1191.02 687.91M1191.02 687.91L1256.27 734.717L1322.93 687.91M1191.02 687.91L1256.27 733.298L1322.93 687.91M1322.93 687.91L1383.92 730.462M131.497 687.91L70.5068 729.043V730.462L131.497 687.91Z" stroke="#1F4D85" stroke-width="0.0591741" stroke-miterlimit="333.333"/>
<path d="M1191.02 1439.65L1124.35 1394.26L1057.69 1439.65L992.444 1394.26L925.78 1439.65L859.117 1394.26L793.872 1439.65L727.208 1394.26L660.545 1439.65L595.3 1394.26L528.636 1439.65L461.973 1394.26L395.309 1439.65L330.064 1394.26L263.401 1439.65L196.737 1394.26L131.492 1439.65V1441.07L196.737 1395.68L263.401 1441.07L330.064 1395.68L395.309 1441.07L461.973 1395.68L528.636 1441.07L595.3 1395.68L660.545 1441.07L727.208 1395.68L793.872 1441.07L859.117 1395.68L925.78 1441.07L992.444 1395.68L1057.69 1441.07L1124.35 1395.68L1191.02 1441.07L1256.26 1395.68L1322.92 1441.07V1439.65L1256.26 1394.26L1191.02 1439.65Z" fill="white" stroke="#1F4D85" stroke-width="0.0591741" stroke-miterlimit="333.333"/>
<path d="M1256.27 1112L1191.02 1157.39L1124.36 1112L1057.69 1157.39L992.449 1112L925.785 1157.39L859.122 1112L793.876 1157.39L727.213 1112L660.549 1157.39L595.304 1112L528.641 1157.39L461.977 1112L395.314 1157.39L330.069 1112L263.405 1157.39L196.742 1112L131.497 1157.39L70.5068 1114.84V1116.26L131.497 1158.81L196.742 1112L263.405 1158.81L330.069 1112L395.314 1158.81L461.977 1112L528.641 1158.81L595.304 1112L660.549 1158.81L727.213 1112L793.876 1158.81L859.122 1112L925.785 1158.81L992.449 1112L1057.69 1158.81L1124.36 1112L1191.02 1158.81L1256.27 1112L1322.93 1158.81L1383.92 1116.26V1114.84L1322.93 1157.39L1256.27 1112Z" fill="white"/>
<path d="M1256.27 1112L1191.02 1157.39L1124.36 1112M1256.27 1112L1191.02 1158.81L1124.36 1112M1256.27 1112L1322.93 1158.81L1383.92 1116.26V1114.84L1322.93 1157.39L1256.27 1112ZM1124.36 1112L1057.69 1157.39L992.449 1112M1124.36 1112L1057.69 1158.81L992.449 1112M992.449 1112L925.785 1157.39L859.122 1112M992.449 1112L925.785 1158.81L859.122 1112M859.122 1112L793.876 1157.39L727.213 1112M859.122 1112L793.876 1158.81L727.213 1112M727.213 1112L660.55 1157.39L595.304 1112M727.213 1112L660.55 1158.81L595.304 1112M595.304 1112L528.641 1157.39L461.977 1112M595.304 1112L528.641 1158.81L461.977 1112M461.977 1112L395.314 1157.39L330.069 1112M461.977 1112L395.314 1158.81L330.069 1112M330.069 1112L263.405 1157.39L196.742 1112M330.069 1112L263.405 1158.81L196.742 1112M196.742 1112L131.497 1157.39L70.5068 1114.84V1116.26L131.497 1158.81L196.742 1112Z" stroke="#1F4D85" stroke-width="0.0591741" stroke-miterlimit="333.333"/>
<path d="M130.067 1252.42H131.486L196.731 1299.23L263.394 1252.42V1158.81L196.731 1112L131.486 1158.81H130.067V1252.42Z" fill="white"/>
<path d="M263.399 1252.42L330.063 1299.23L395.308 1252.42V1158.81L330.063 1112L263.399 1158.81V1252.42Z" fill="white" stroke="#1F4D85" stroke-width="0.0591741" stroke-miterlimit="333.333"/>
<path d="M395.304 1252.42L461.967 1299.23L528.631 1252.42H527.212V1158.81H528.631L461.967 1112L395.304 1158.81V1252.42Z" fill="white"/>
<path d="M527.211 1252.42H528.629L595.293 1299.23L660.538 1252.42V1158.81L595.293 1112L528.629 1158.81H527.211V1252.42Z" fill="white" stroke="#1F4D85" stroke-width="0.0591741" stroke-miterlimit="333.333"/>
<path d="M660.544 1252.42L727.207 1299.23L793.871 1252.42H792.453V1158.81H793.871L727.207 1112L660.544 1158.81V1252.42Z" fill="white" stroke="#1F4D85" stroke-width="0.0591741" stroke-miterlimit="333.333"/>
<path d="M792.448 1252.42H793.867L859.112 1299.23L925.775 1252.42H924.357V1158.81H925.775L859.112 1112L793.867 1158.81H792.448V1252.42Z" fill="white" stroke="#1F4D85" stroke-width="0.0591741" stroke-miterlimit="333.333"/>
<path d="M924.355 1252.42H925.774L992.438 1299.23L1057.68 1252.42V1158.81L992.438 1112L925.774 1158.81H924.355V1252.42Z" fill="white" stroke="#1F4D85" stroke-width="0.0591741" stroke-miterlimit="333.333"/>
<path d="M1057.69 1252.42L1124.35 1299.23L1191.01 1252.42H1189.6V1158.81H1191.01L1124.35 1112L1057.69 1158.81V1252.42Z" fill="white" stroke="#1F4D85" stroke-width="0.0591741" stroke-miterlimit="333.333"/>
<path d="M1189.59 1252.42H1191.01L1256.26 1299.23L1322.92 1252.42V1158.81L1256.26 1112L1191.01 1158.81H1189.59V1252.42Z" fill="white" stroke="#1F4D85" stroke-width="0.0591741" stroke-miterlimit="333.333"/>
<path d="M100.288 686.491V597.134L39.2979 556.001V729.042L100.288 687.91V686.491Z" fill="white" stroke="#1F4D85" stroke-width="0.0591741" stroke-miterlimit="333.333"/>
<path d="M263.394 597.135L196.731 551.747L131.486 598.553L130.067 597.135V686.492L131.486 687.911L196.731 733.299L263.394 687.911V686.492V597.135Z" fill="white" stroke="#1F4D85" stroke-width="0.0591741" stroke-miterlimit="333.333"/>
<path d="M395.308 597.135L330.063 551.747L263.399 598.553V597.135V686.492V687.911L330.063 733.299L395.308 687.911V686.492V597.135Z" fill="white" stroke="#1F4D85" stroke-width="0.0591741" stroke-miterlimit="333.333"/>
<path d="M527.212 597.135L461.967 551.747L395.304 598.553V597.135V686.492V687.911L461.967 733.299L528.631 687.911L527.212 686.492V597.135Z" fill="white" stroke="#1F4D85" stroke-width="0.0591741" stroke-miterlimit="333.333"/>
<path d="M660.538 597.135L595.293 551.747L528.629 598.553L527.211 597.135V686.492L528.629 687.911L595.293 733.299L660.538 687.911V686.492V597.135Z" fill="white" stroke="#1F4D85" stroke-width="0.0591741" stroke-miterlimit="333.333"/>
<path d="M792.453 597.135L727.207 551.747L660.544 598.553V597.135V686.492V687.911L727.207 733.299L793.871 687.911L792.453 686.492V597.135Z" fill="white"/>
<path d="M924.357 597.135L859.112 551.747L793.867 598.553L792.448 597.135V686.492L793.867 687.911L859.112 733.299L925.775 687.911L924.357 686.492V597.135Z" fill="white"/>
<path d="M1057.68 597.135L992.438 551.747L925.774 598.553L924.355 597.135V686.492L925.774 687.911L992.438 733.299L1057.68 687.911V686.492V597.135Z" fill="white" stroke="#1F4D85" stroke-width="0.0591741" stroke-miterlimit="333.333"/>
<path d="M1189.6 597.135L1124.35 551.747L1057.69 598.553V597.135V686.492V687.911L1124.35 733.299L1191.01 687.911L1189.6 686.492V597.135Z" fill="white" stroke="#1F4D85" stroke-width="0.0591741" stroke-miterlimit="333.333"/>
<path d="M1322.92 597.135L1256.26 551.747L1191.01 598.553L1189.59 597.135V686.492L1191.01 687.911L1256.26 733.299L1322.92 687.911V686.492V597.135Z" fill="white" stroke="#1F4D85" stroke-width="0.0591741" stroke-miterlimit="333.333"/>
<path d="M1354.12 598.552L1352.71 597.134V686.491L1354.12 687.91L1415.11 730.461V556.001L1354.12 598.552Z" fill="white" stroke="#1F4D85" stroke-width="0.0591741" stroke-miterlimit="333.333"/>
<path d="M263.395 411.329V409.91V330.481L139.997 417.002L196.732 456.717L263.395 411.329Z" fill="white"/>
<path d="M263.399 411.327L330.063 456.715L395.308 411.327V409.909V320.551L335.736 279.418L263.399 330.48V409.909V411.327Z" fill="white"/>
<path d="M527.212 320.552L461.967 275.165L395.304 321.971V320.552V409.91V411.328L461.967 456.716L528.631 411.328L527.212 409.91V320.552Z" fill="white"/>
<path d="M660.538 320.552L595.293 275.165L528.629 321.971L527.211 320.552V409.91L528.629 411.328L595.293 456.716L660.538 411.328V409.91V320.552Z" fill="white"/>
<path d="M792.453 320.552L727.207 275.165L660.544 321.971V320.552V409.91V411.328L727.207 456.716L793.871 411.328L792.453 409.91V320.552Z" fill="white"/>
<path d="M924.357 320.552L859.112 275.165L793.867 321.971L792.448 320.552V409.91L793.867 411.328L859.112 456.716L925.775 411.328L924.357 409.91V320.552Z" fill="white"/>
<path d="M1057.68 320.552L992.438 275.165L925.774 321.971L924.355 320.552V409.91L925.774 411.328L992.438 456.716L1057.68 411.328V409.91V320.552Z" fill="white"/>
<path d="M1057.69 321.97V320.552V409.909V411.327L1124.35 456.715L1191.01 411.327L1189.6 409.909V326.225L1121.51 278.001L1057.69 321.97Z" fill="white"/>
<path d="M1191.01 411.328L1256.26 456.716L1315.83 415.583L1189.59 326.226V409.909L1191.01 411.328Z" fill="white"/>
<path d="M661.968 134.746L663.386 136.164L667.641 134.746L666.223 133.328V46.8071L538.569 137.583L599.559 178.716L661.968 134.746Z" fill="white"/>
<path d="M666.214 134.745L730.041 178.715L793.868 134.745L795.286 136.164L798.123 134.745V133.327V46.8063L732.878 0L664.796 46.8063V133.327L666.214 134.745Z" fill="white"/>
<path d="M798.128 134.746L863.373 178.716L924.363 136.164L798.128 46.8071V133.328V134.746Z" fill="white"/>
<path d="M196.742 1112V1110.59V1016.97L131.497 971.585L70.5068 1012.72V1114.84L131.497 1157.39L196.742 1112Z" fill="white" stroke="#1F4D85" stroke-width="0.0591741" stroke-miterlimit="333.333"/>
<path d="M196.733 1110.59V1112L263.397 1157.39L330.06 1112L328.642 1110.59V1016.97H330.06L263.397 971.585L196.733 1016.97V1110.59Z" fill="white"/>
<path d="M328.638 1110.59L330.056 1112L395.301 1157.39L461.965 1112V1110.59V1016.97L395.301 971.585L330.056 1016.97H328.638V1110.59Z" fill="white"/>
<path d="M461.97 1110.59V1112L528.633 1157.39L595.297 1112L593.878 1110.59V1016.97H595.297L528.633 971.585L461.97 1016.97V1110.59Z" fill="white"/>
<path d="M593.877 1110.59L595.295 1112L660.54 1157.39L727.204 1112L725.786 1110.59V1016.97H727.204L660.54 971.585L595.295 1016.97H593.877V1110.59Z" fill="white"/>
<path d="M725.781 1110.59L727.2 1112L793.863 1157.39L859.108 1112V1110.59V1016.97L793.863 971.585L727.2 1016.97H725.781V1110.59Z" fill="white" stroke="#1F4D85" stroke-width="0.0591741" stroke-miterlimit="333.333"/>
<path d="M859.114 1110.59V1112L925.778 1157.39L992.441 1112L991.023 1110.59V1016.97H992.441L925.778 971.585L859.114 1016.97V1110.59Z" fill="white"/>
<path d="M991.021 1110.59L992.44 1112L1057.68 1157.39L1124.35 1112V1110.59V1016.97L1057.68 971.585L992.44 1016.97H991.021V1110.59Z" fill="white" stroke="#1F4D85" stroke-width="0.0591741" stroke-miterlimit="333.333"/>
<path d="M1124.35 1110.59V1112L1191.02 1157.39L1256.26 1112V1110.59V1016.97L1191.02 971.585L1124.35 1016.97V1110.59Z" fill="white"/>
<path d="M1256.26 1016.97V1110.59V1112L1322.92 1157.39L1383.91 1114.84V1014.14L1322.92 971.585L1256.26 1016.97Z" fill="white" stroke="#1F4D85" stroke-width="0.0591741" stroke-miterlimit="333.333"/>
<path opacity="0.93" d="M196.742 1418.37V1324.76L131.497 1277.95L70.5068 1320.5V1421.21L131.497 1465.18L196.742 1418.37Z" fill="white" stroke="url(#paint0_radial_358_2)" stroke-width="0.0591741" stroke-miterlimit="333.333"/>
<path d="M196.733 1418.37L263.397 1465.18L330.06 1418.37H328.642V1324.76H330.06L263.397 1277.95L196.733 1324.76V1418.37Z" fill="white"/>
<path d="M328.638 1418.37H330.056L395.301 1465.18L461.965 1418.37V1324.76L395.301 1277.95L330.056 1324.76H328.638V1418.37Z" fill="white" stroke="#1F4D85" stroke-width="0.0591741" stroke-miterlimit="333.333"/>
<path opacity="0.93" d="M461.97 1418.37L528.633 1465.18L595.297 1418.37H593.878V1324.76H595.297L528.633 1277.95L461.97 1324.76V1418.37Z" fill="white" stroke="url(#paint1_radial_358_2)" stroke-width="0.0591741" stroke-miterlimit="333.333"/>
<path d="M593.877 1418.37H595.295L660.54 1465.18L727.204 1418.37H725.786V1324.76H727.204L660.54 1277.95L595.295 1324.76H593.877V1418.37Z" fill="white"/>
<path opacity="0.93" d="M725.781 1418.37H727.2L793.863 1465.18L859.108 1418.37V1324.76L793.863 1277.95L727.2 1324.76H725.781V1418.37Z" fill="white" stroke="url(#paint2_radial_358_2)" stroke-width="0.0591741" stroke-miterlimit="333.333"/>
<path d="M859.114 1418.37L925.778 1465.18L992.441 1418.37H991.023V1324.76H992.441L925.778 1277.95L859.114 1324.76V1418.37Z" fill="white" stroke="#1F4D85" stroke-width="0.0591741" stroke-miterlimit="333.333"/>
<path opacity="0.93" d="M991.021 1418.37H992.44L1057.68 1465.18L1124.35 1418.37V1324.76L1057.68 1277.95L992.44 1324.76H991.021V1418.37Z" fill="white" stroke="url(#paint3_radial_358_2)" stroke-width="0.0591741" stroke-miterlimit="333.333"/>
<path d="M1124.35 1418.37L1191.02 1465.18L1256.26 1418.37V1324.76L1191.02 1277.95L1124.35 1324.76V1418.37Z" fill="white"/>
<path opacity="0.93" d="M1256.26 1324.76V1418.37L1322.92 1465.18L1383.91 1421.21V1320.5L1322.92 1277.95L1256.26 1324.76Z" fill="white" stroke="url(#paint4_radial_358_2)" stroke-width="0.0591741" stroke-miterlimit="333.333"/>
<path d="M992.439 1631.13L927.193 1584.32L860.53 1631.13L793.867 1584.32L728.622 1631.13L661.958 1584.32L595.295 1631.13L530.05 1584.32L463.386 1631.13L396.723 1584.32L331.478 1629.71V1631.13L396.723 1585.74L463.386 1631.13L530.05 1585.74L595.295 1631.13L661.958 1585.74L728.622 1631.13L793.867 1585.74L860.53 1631.13L927.193 1585.74L992.439 1631.13L1059.1 1585.74L1124.35 1631.13V1629.71L1059.1 1584.32L992.439 1631.13Z" fill="white"/>
<path d="M396.726 1582.9V1489.29H398.145L331.481 1442.48L264.818 1489.29H263.399V1581.48L331.481 1629.71L398.145 1584.32L396.726 1582.9Z" fill="white" stroke="#1F4D85" stroke-width="0.0591741" stroke-miterlimit="10"/>
<path d="M396.731 1582.9L398.15 1584.32L463.395 1629.71L530.058 1584.32V1582.9V1489.29L463.395 1442.48L398.15 1489.29H396.731V1582.9Z" fill="white"/>
<path opacity="0.93" d="M530.052 1582.9V1584.32L596.715 1629.71L663.379 1584.32V1582.9V1489.29L596.715 1442.48L530.052 1489.29V1582.9Z" fill="white" stroke="url(#paint5_radial_358_2)" stroke-width="0.0591741" stroke-miterlimit="333.333"/>
<path d="M663.384 1582.9V1584.32L730.047 1629.71L796.711 1584.32V1582.9V1489.29L730.047 1442.48L663.384 1489.29V1582.9Z" fill="white" stroke="#1F4D85" stroke-width="0.0591741" stroke-miterlimit="10"/>
<path opacity="0.93" d="M796.7 1582.9V1584.32L863.364 1629.71L930.027 1584.32L928.609 1582.9V1489.29H930.027L863.364 1442.48L796.7 1489.29V1582.9Z" fill="white" stroke="url(#paint6_radial_358_2)" stroke-width="0.0591741" stroke-miterlimit="333.333"/>
<path d="M928.62 1582.9L930.038 1584.32L996.702 1629.71L1063.37 1584.32L1061.95 1582.9V1489.29H1063.37L996.702 1442.48L930.038 1489.29H928.62V1582.9Z" fill="white" stroke="#1F4D85" stroke-width="0.0591741" stroke-miterlimit="10"/>
<path d="M1196.69 1489.29L1130.02 1442.48L1063.36 1489.29H1061.94V1582.9L1063.36 1584.32L1128.6 1629.71L1195.27 1582.9V1489.29H1196.69Z" fill="white"/>
<path d="M108.799 958.82V885.065L56.3196 848.187L3.83984 885.065V955.983L57.738 994.279L108.799 958.82Z" fill="white" stroke="#1F4D85" stroke-width="0.0591741" stroke-miterlimit="333.333"/>
<path d="M1447.74 958.82V885.065H1449.16L1396.68 848.187L1344.2 885.065V955.983L1398.1 994.279L1449.16 958.82H1447.74Z" fill="white" stroke="#1F4D85" stroke-width="0.0591741" stroke-miterlimit="333.333"/>
<path d="M1389.59 1245.33L1415.12 1263.77L1440.65 1245.33V1209.87L1415.12 1191.43L1389.59 1209.87V1245.33Z" fill="white" stroke="#1F4D85" stroke-width="0.0591741" stroke-miterlimit="333.333"/>
<path d="M1217.96 1494.96V1496.38L1236.4 1509.15L1254.84 1496.38V1494.96V1469.43L1236.4 1456.67L1217.96 1469.43V1494.96Z" fill="white"/>
<path d="M203.823 1494.96L205.242 1496.38L223.68 1509.15L242.119 1496.38V1494.96V1469.43L223.68 1456.67L205.242 1469.43H203.823V1494.96Z" fill="white"/>
<path d="M33.6211 1239.66H35.0395L60.5702 1256.68L86.1009 1239.66H84.6825V1202.78H86.1009L60.5702 1185.76L35.0395 1202.78H33.6211V1239.66Z" fill="white" stroke="#1F4D85" stroke-width="0.0591741" stroke-miterlimit="333.333"/>
<path d="M447.783 1665.17L395.303 1628.29L342.823 1665.17V1738.92L393.885 1774.38L446.364 1737.51V1665.17H447.783Z" fill="white"/>
<path d="M496.014 1815.52L464.81 1794.24L435.024 1815.52H433.605V1859.49H435.024L464.81 1880.76L496.014 1859.49V1815.52Z" fill="white"/>
<path opacity="0.93" d="M627.927 1815.52L598.142 1794.24L566.938 1815.52V1859.49L596.723 1880.76L627.927 1859.49V1815.52Z" fill="white" stroke="url(#paint7_radial_358_2)" stroke-width="0.0591741" stroke-miterlimit="333.333"/>
<path d="M761.25 1815.52L730.046 1794.24L698.842 1815.52V1859.49L730.046 1880.76L759.832 1859.49V1815.52H761.25Z" fill="white"/>
<path d="M893.157 1815.52L861.953 1794.24L832.167 1815.52H830.749V1859.49H832.167L861.953 1880.76L893.157 1859.49V1815.52Z" fill="white"/>
<path d="M1025.07 1815.52L995.285 1794.24L964.081 1815.52V1859.49L993.867 1880.76L1025.07 1859.49V1815.52Z" fill="white"/>
<path d="M579.703 1665.17L527.223 1628.29L474.743 1665.17V1738.92L527.223 1774.38L579.703 1737.51V1665.17Z" fill="white"/>
<path d="M711.607 1665.17L660.546 1628.29L608.065 1665.17H606.646V1738.92H608.065L659.127 1774.38L711.607 1737.51V1665.17Z" fill="white"/>
<path opacity="0.93" d="M844.926 1665.17L792.447 1628.29L739.967 1665.17V1738.92L791.028 1774.38L843.508 1737.51V1665.17H844.926Z" fill="white" stroke="url(#paint8_radial_358_2)" stroke-width="0.0591741" stroke-miterlimit="333.333"/>
<path d="M976.847 1665.17L924.367 1628.29L873.306 1665.17H871.888V1738.92H873.306L924.367 1774.38L976.847 1737.51V1665.17Z" fill="white"/>
<path opacity="0.93" d="M1108.75 1665.17L1057.68 1628.29L1005.2 1665.17V1738.92L1056.27 1774.38L1108.75 1737.51V1665.17Z" fill="white" stroke="url(#paint9_radial_358_2)" stroke-width="0.0591741" stroke-miterlimit="333.333"/>
<path d="M196.742 828.329V734.717L131.497 687.91L70.5068 730.462V832.584L131.497 875.136L196.742 828.329Z" fill="white" stroke="#1F4D85" stroke-width="0.0591741" stroke-miterlimit="333.333"/>
<path d="M328.642 734.717H330.06L263.397 687.91L196.733 734.717V828.329L263.397 875.136L330.06 828.329H328.642V734.717Z" fill="white"/>
<path d="M461.965 734.717L395.301 687.91L330.056 734.717H328.638V828.329H330.056L395.301 875.136L461.965 828.329V734.717Z" fill="white" stroke="#1F4D85" stroke-width="0.0591741" stroke-miterlimit="333.333"/>
<path d="M593.878 734.717H595.297L528.633 687.91L461.97 734.717V828.329L528.633 875.136L595.297 828.329H593.878V734.717Z" fill="white" stroke="#1F4D85" stroke-width="0.0591741" stroke-miterlimit="333.333"/>
<path d="M725.786 734.717H727.204L660.54 687.91L595.295 734.717H593.877V828.329H595.295L660.54 875.136L727.204 828.329H725.786V734.717Z" fill="white"/>
<path d="M859.108 734.717L793.863 687.91L727.2 734.717H725.781V828.329H727.2L793.863 875.136L859.108 828.329V734.717Z" fill="white" stroke="#1F4D85" stroke-width="0.0591741" stroke-miterlimit="333.333"/>
<path d="M991.023 734.717H992.441L925.778 687.91L859.114 734.717V828.329L925.778 875.136L992.441 828.329H991.023V734.717Z" fill="white" stroke="#1F4D85" stroke-width="0.0591741" stroke-miterlimit="333.333"/>
<path d="M1124.35 734.717L1057.68 687.91L992.44 734.717H991.021V828.329H992.44L1057.68 875.136L1124.35 828.329V734.717Z" fill="white"/>
<path d="M1124.35 734.717V828.329L1191.02 875.136L1256.26 828.329V734.717L1191.02 687.91L1124.35 734.717Z" fill="white" stroke="#1F4D85" stroke-width="0.0591741" stroke-miterlimit="333.333"/>
<path d="M1322.92 687.91L1256.26 734.717V828.329L1322.92 875.136L1383.91 832.584V730.462L1322.92 687.91Z" fill="white" stroke="#1F4D85" stroke-width="0.0591741" stroke-miterlimit="333.333"/>
<path d="M131.497 598.553L196.742 551.747V458.135L138.589 417.002L70.5068 465.226V556.002L130.078 597.135L131.497 598.553Z" fill="white"/>
<path d="M263.397 598.553L330.06 551.747H328.642V458.134H330.06L263.397 411.328L196.733 458.134V551.747L263.397 597.135V598.553Z" fill="white"/>
<path d="M328.638 551.747H330.056L395.301 597.135V598.553L461.965 551.747V458.134L395.301 411.328L330.056 458.134H328.638V551.747Z" fill="white"/>
<path d="M461.97 551.747L527.215 597.135L528.633 598.553L595.297 551.747H593.878V458.134H595.297L528.633 411.328L461.97 458.134V551.747Z" fill="white"/>
<path d="M593.877 551.747H595.295L660.54 597.135V598.553L727.204 551.747H725.786V458.134H727.204L660.54 411.328L595.295 458.134H593.877V551.747Z" fill="white"/>
<path d="M725.781 551.747H727.2L792.445 597.135L793.863 598.553L859.108 551.747V458.134L793.863 411.328L727.2 458.134H725.781V551.747Z" fill="white"/>
<path d="M859.114 551.747L924.359 597.135L925.778 598.553L992.441 551.747H991.023V458.134H992.441L925.778 411.328L859.114 458.134V551.747Z" fill="white"/>
<path d="M991.021 551.747H992.44L1057.68 597.135V598.553L1124.35 551.747V458.134L1057.68 411.328L992.44 458.134H991.021V551.747Z" fill="white"/>
<path d="M1124.35 551.747L1189.6 597.135L1191.02 598.553L1256.26 551.747V458.134L1191.02 411.328L1124.35 458.134V551.747Z" fill="white"/>
<path d="M1256.26 458.135V551.747L1322.92 597.135V598.553L1383.91 556.002V465.226L1315.83 417.002L1256.26 458.135Z" fill="white"/>
<path d="M396.72 321.971L461.966 275.165V190.062L335.73 279.42L395.302 320.552L396.72 321.971Z" fill="white"/>
<path d="M461.97 275.165H463.388L528.633 320.553L530.052 321.971L595.297 275.165V181.552L535.725 139.001L461.97 190.062V275.165Z" fill="white"/>
<path d="M660.54 321.97L727.204 275.164H725.786V181.552H727.204L663.377 136.164L660.54 134.745L598.132 178.715L595.295 181.552H593.877V275.164H595.295L660.54 320.552V321.97Z" fill="white"/>
<path d="M725.781 181.552V275.164H727.2L792.445 320.552L793.863 321.97L859.108 275.164V181.552L795.281 136.164L793.863 134.745L730.036 178.715L727.2 181.552H725.781Z" fill="white"/>
<path d="M859.114 181.551V275.164L924.359 320.552L925.778 321.97L992.441 275.164H991.023V184.388L924.359 136.163L863.369 178.714L859.114 181.551Z" fill="white"/>
<path d="M991.021 275.164H992.44L1057.68 320.552V321.97L1121.51 278.001L991.021 184.388V275.164Z" fill="white"/>
<path d="M130.067 970.166H131.486L196.731 1015.55L263.394 970.166V876.554V875.135L196.731 829.748L131.486 875.135L130.067 876.554V970.166Z" fill="white" stroke="#1F4D85" stroke-width="0.0591741" stroke-miterlimit="333.333"/>
<path d="M263.399 970.166L330.063 1015.55L395.308 970.166V876.554V875.135L330.063 829.748L263.399 875.135V876.554V970.166Z" fill="white"/>
<path d="M395.304 970.166L461.967 1015.55L528.631 970.166H527.212V876.554L528.631 875.135L461.967 829.748L395.304 875.135V876.554V970.166Z" fill="white" stroke="#1F4D85" stroke-width="0.0591741" stroke-miterlimit="333.333"/>
<path d="M527.211 970.166H528.629L595.293 1015.55L660.538 970.166V876.554V875.135L595.293 829.748L528.629 875.135L527.211 876.554V970.166Z" fill="white" stroke="#1F4D85" stroke-width="0.0591741" stroke-miterlimit="333.333"/>
<path d="M660.544 970.166L727.207 1015.55L793.871 970.166H792.453V876.554L793.871 875.135L727.207 829.748L660.544 875.135V876.554V970.166Z" fill="white"/>
<path d="M792.448 970.166H793.867L859.112 1015.55L925.775 970.166H924.357V876.554L925.775 875.135L859.112 829.748L793.867 875.135L792.448 876.554V970.166Z" fill="white"/>
<path d="M924.355 970.166H925.774L992.438 1015.55L1057.68 970.166V876.554V875.135L992.438 829.748L925.774 875.135L924.355 876.554V970.166Z" fill="white" stroke="#1F4D85" stroke-width="0.0591741" stroke-miterlimit="333.333"/>
<path d="M1057.69 970.166L1124.35 1015.55L1191.01 970.166H1189.6V876.554L1191.01 875.135L1124.35 829.748L1057.69 875.135V876.554V970.166Z" fill="white" stroke="#1F4D85" stroke-width="0.0591741" stroke-miterlimit="333.333"/>
<path d="M1189.59 970.166H1191.01L1256.26 1015.55L1322.92 970.166V876.554V875.135L1256.26 829.748L1191.01 875.135L1189.59 876.554V970.166Z" fill="white"/>
<path d="M941.386 1948.84L924.365 1937.5L907.345 1948.84V1972.95L924.365 1984.3L941.386 1972.95V1948.84Z" fill="white"/>
<path d="M813.731 1948.84L796.711 1937.5L779.69 1948.84V1972.95L796.711 1984.3L813.731 1972.95V1948.84Z" fill="white"/>
<path d="M681.814 1948.84L664.794 1937.5L647.773 1948.84V1972.95L664.794 1984.3L681.814 1972.95V1948.84Z" fill="white"/>
<path opacity="0.93" d="M548.489 1948.84L532.887 1937.5L515.866 1948.84V1972.95L531.468 1984.3L548.489 1972.95V1948.84Z" fill="white" stroke="url(#paint10_radial_358_2)" stroke-width="0.0591741" stroke-miterlimit="333.333"/>
<path d="M35.0409 1063.78L18.0205 1052.43L1 1063.78V1087.89L18.0205 1099.24L35.0409 1087.89V1063.78Z" fill="white" stroke="#1F4D85" stroke-width="0.0591741" stroke-miterlimit="333.333"/>
<path d="M1452 1365.89L1434.98 1353.13L1417.96 1365.89V1388.59L1434.98 1401.35L1452 1388.59V1365.89Z" fill="white" stroke="#1F4D85" stroke-width="0.0591741" stroke-miterlimit="333.333"/>
<path d="M671.892 42.5511L365.523 258.144L430.769 395.726L725.79 190.062L671.892 42.5511Z" fill="white"/>
</g>
<defs>
<radialGradient id="paint0_radial_358_2" cx="0" cy="0" r="1" gradientUnits="userSpaceOnUse" gradientTransform="translate(134.37 1371.81) scale(71.654 86.442)">
<stop stop-color="white"/>
<stop offset="1"/>
</radialGradient>
<radialGradient id="paint1_radial_358_2" cx="0" cy="0" r="1" gradientUnits="userSpaceOnUse" gradientTransform="translate(528.69 1371.92) scale(73.0932 88.1782)">
<stop stop-color="white"/>
<stop offset="1"/>
</radialGradient>
<radialGradient id="paint2_radial_358_2" cx="0" cy="0" r="1" gradientUnits="userSpaceOnUse" gradientTransform="translate(793.595 1371.92) scale(73.0932 88.1782)">
<stop stop-color="white"/>
<stop offset="1"/>
</radialGradient>
<radialGradient id="paint3_radial_358_2" cx="0" cy="0" r="1" gradientUnits="userSpaceOnUse" gradientTransform="translate(1058.51 1371.92) scale(73.0931 88.1782)">
<stop stop-color="white"/>
<stop offset="1"/>
</radialGradient>
<radialGradient id="paint4_radial_358_2" cx="0" cy="0" r="1" gradientUnits="userSpaceOnUse" gradientTransform="translate(1320.64 1371.89) scale(71.8098 86.6298)">
<stop stop-color="white"/>
<stop offset="1"/>
</radialGradient>
<radialGradient id="paint5_radial_358_2" cx="0" cy="0" r="1" gradientUnits="userSpaceOnUse" gradientTransform="translate(597.459 1536.8) scale(73.4344 88.5897)">
<stop stop-color="white"/>
<stop offset="1"/>
</radialGradient>
<radialGradient id="paint6_radial_358_2" cx="0" cy="0" r="1" gradientUnits="userSpaceOnUse" gradientTransform="translate(863.615 1536.8) scale(73.4344 88.5897)">
<stop stop-color="white"/>
<stop offset="1"/>
</radialGradient>
<radialGradient id="paint7_radial_358_2" cx="0" cy="0" r="1" gradientUnits="userSpaceOnUse" gradientTransform="translate(597.937 1837.95) scale(34.2926 41.3699)">
<stop stop-color="white"/>
<stop offset="1"/>
</radialGradient>
<radialGradient id="paint8_radial_358_2" cx="0" cy="0" r="1" gradientUnits="userSpaceOnUse" gradientTransform="translate(792.733 1702.15) scale(57.6457 69.5425)">
<stop stop-color="white"/>
<stop offset="1"/>
</radialGradient>
<radialGradient id="paint9_radial_358_2" cx="0" cy="0" r="1" gradientUnits="userSpaceOnUse" gradientTransform="translate(1057.64 1702.15) scale(57.6456 69.5425)">
<stop stop-color="white"/>
<stop offset="1"/>
</radialGradient>
<radialGradient id="paint10_radial_358_2" cx="0" cy="0" r="1" gradientUnits="userSpaceOnUse" gradientTransform="translate(532.747 1961.45) scale(19.2779 23.2563)">
<stop stop-color="white"/>
<stop offset="1"/>
</radialGradient>
<clipPath id="clip0_358_2">
<rect width="1453" height="1985" fill="white"/>
</clipPath>
</defs>
</svg>
