<svg width="1453" height="1985" viewBox="0 0 1453 1985" fill="none" xmlns="http://www.w3.org/2000/svg">
<path d="M1256.26 1015.55L1191.02 970.167L1124.36 1015.55L1057.69 970.167L992.448 1015.55L925.784 970.167L859.121 1015.55L793.876 970.167L727.212 1015.55L660.549 970.167L595.303 1015.55L528.64 970.167L461.977 1015.55L395.313 970.167L330.068 1015.55L263.404 970.167L196.741 1015.55L131.496 970.167L70.5059 1012.72L131.496 971.585L196.741 1016.97L263.404 971.585L330.068 1016.97L395.313 971.585L461.977 1016.97L528.64 971.585L595.303 1016.97L660.549 971.585L727.212 1016.97L793.876 971.585L859.121 1016.97L925.784 971.585L992.448 1016.97L1057.69 971.585L1124.36 1016.97L1191.02 971.585L1256.26 1016.97L1322.93 971.585L1383.92 1014.14V1012.72L1322.93 970.167L1256.26 1015.55Z" fill="#77b4d4" stroke="#1F4D85" stroke-width="0.0591741" stroke-miterlimit="333.333"/>
<path d="M1256.26 828.33L1191.02 875.136L1124.36 828.33L1057.69 875.136L992.448 828.33L925.784 875.136L859.121 828.33L793.876 875.136L727.212 828.33L660.549 875.136L595.303 828.33L528.64 875.136L461.977 828.33L395.313 875.136L330.068 828.33L263.404 875.136L196.741 828.33L131.496 875.136L70.5059 832.585V834.003L131.496 875.136L196.741 829.748L263.404 875.136L330.068 829.748L395.313 875.136L461.977 829.748L528.64 875.136L595.303 829.748L660.549 875.136L727.212 829.748L793.876 875.136L859.121 829.748L925.784 875.136L992.448 829.748L1057.69 875.136L1124.36 829.748L1191.02 875.136L1256.26 829.748L1322.93 875.136L1383.92 832.585L1322.93 875.136L1256.26 828.33Z" fill="#77b4d4" stroke="#1F4D85" stroke-width="0.0591741" stroke-miterlimit="333.333"/>
<path d="M863.371 178.715L798.126 134.745L795.289 136.164L859.116 181.552L863.371 178.715Z" fill="#77b4d4" stroke="#1F4D85" stroke-width="0.0591741" stroke-miterlimit="333.333"/>
<path d="M730.046 178.715L666.22 134.745L663.383 136.164L727.21 181.552L730.046 178.715Z" fill="#77b4d4" stroke="#1F4D85" stroke-width="0.0591741" stroke-miterlimit="333.333"/>
<path d="M263.401 411.328L330.064 458.134L395.309 411.328L461.973 458.134L528.636 411.328L595.3 458.134L660.545 411.328L727.208 458.134L793.872 411.328L859.117 458.134L925.78 411.328L992.444 458.134L1057.69 411.328L1124.35 458.134L1191.02 411.328L1256.26 458.134L1315.83 417.001V415.583L1256.26 456.716L1191.02 411.328L1124.35 456.716L1057.69 411.328L992.444 456.716L925.78 411.328L859.117 456.716L793.872 411.328L727.208 456.716L660.545 411.328L595.3 456.716L528.636 411.328L461.973 456.716L395.309 411.328L330.064 456.716L263.401 411.328L196.737 456.716L140.002 417.001H138.584L196.737 458.134L263.401 411.328Z" fill="#77b4d4"/>
<path d="M263.401 411.328L330.064 458.134L395.309 411.328L461.973 458.134L528.636 411.328L595.3 458.134L660.545 411.328L727.208 458.134L793.872 411.328L859.117 458.134L925.78 411.328L992.444 458.134L1057.69 411.328L1124.35 458.134L1191.02 411.328L1256.26 458.134L1315.83 417.001V415.583L1256.26 456.716L1191.02 411.328L1124.35 456.716L1057.69 411.328L992.444 456.716L925.78 411.328L859.117 456.716L793.872 411.328L727.208 456.716L660.545 411.328L595.3 456.716L528.636 411.328L461.973 456.716L395.309 411.328L330.064 456.716L263.401 411.328ZM263.401 411.328L196.737 456.716L140.002 417.001H138.584L196.737 458.134L263.401 411.328Z" stroke="#1F4D85" stroke-width="0.0591741" stroke-miterlimit="333.333"/>
<path d="M196.741 734.717L263.404 687.91L330.068 734.717L395.313 687.91L461.977 734.717L528.64 687.91L595.303 734.717L660.549 687.91L727.212 734.717L793.876 687.91L859.121 734.717L925.784 687.91L992.448 734.717L1057.69 687.91L1124.36 734.717L1191.02 687.91L1256.26 734.717L1322.93 687.91L1383.92 730.462L1322.93 687.91L1256.26 733.298L1191.02 687.91L1124.36 733.298L1057.69 687.91L992.448 733.298L925.784 687.91L859.121 733.298L793.876 687.91L727.212 733.298L660.549 687.91L595.303 733.298L528.64 687.91L461.977 733.298L395.313 687.91L330.068 733.298L263.404 687.91L196.741 733.298L131.496 687.91L70.5059 729.043V730.462L131.496 687.91L196.741 734.717Z" fill="#77b4d4" stroke="#1F4D85" stroke-width="0.0591741" stroke-miterlimit="333.333"/>
<path d="M1191.02 1439.65L1124.35 1394.26L1057.69 1439.65L992.444 1394.26L925.78 1439.65L859.117 1394.26L793.872 1439.65L727.208 1394.26L660.545 1439.65L595.3 1394.26L528.636 1439.65L461.973 1394.26L395.309 1439.65L330.064 1394.26L263.401 1439.65L196.737 1394.26L131.492 1439.65V1441.07L196.737 1395.68L263.401 1441.07L330.064 1395.68L395.309 1441.07L461.973 1395.68L528.636 1441.07L595.3 1395.68L660.545 1441.07L727.208 1395.68L793.872 1441.07L859.117 1395.68L925.78 1441.07L992.444 1395.68L1057.69 1441.07L1124.35 1395.68L1191.02 1441.07L1256.26 1395.68L1322.92 1441.07V1439.65L1256.26 1394.26L1191.02 1439.65Z" fill="#77b4d4" stroke="#1F4D85" stroke-width="0.0591741" stroke-miterlimit="333.333"/>
<path d="M1256.26 1112L1191.02 1157.39L1124.36 1112L1057.69 1157.39L992.448 1112L925.784 1157.39L859.121 1112L793.876 1157.39L727.212 1112L660.549 1157.39L595.303 1112L528.64 1157.39L461.977 1112L395.313 1157.39L330.068 1112L263.404 1157.39L196.741 1112L131.496 1157.39L70.5059 1114.84V1116.26L131.496 1158.81L196.741 1112L263.404 1158.81L330.068 1112L395.313 1158.81L461.977 1112L528.64 1158.81L595.303 1112L660.549 1158.81L727.212 1112L793.876 1158.81L859.121 1112L925.784 1158.81L992.448 1112L1057.69 1158.81L1124.36 1112L1191.02 1158.81L1256.26 1112L1322.93 1158.81L1383.92 1116.26V1114.84L1322.93 1157.39L1256.26 1112Z" fill="#77b4d4"/>
<path d="M1256.26 1112L1191.02 1157.39L1124.36 1112L1057.69 1157.39L992.448 1112L925.784 1157.39L859.121 1112L793.876 1157.39L727.212 1112L660.549 1157.39L595.303 1112L528.64 1157.39L461.977 1112L395.313 1157.39L330.068 1112L263.404 1157.39L196.741 1112L131.496 1157.39L70.5059 1114.84V1116.26L131.496 1158.81L196.741 1112L263.404 1158.81L330.068 1112L395.313 1158.81L461.977 1112L528.64 1158.81L595.303 1112L660.549 1158.81L727.212 1112L793.876 1158.81L859.121 1112L925.784 1158.81L992.448 1112L1057.69 1158.81L1124.36 1112L1191.02 1158.81L1256.26 1112ZM1256.26 1112L1322.93 1158.81L1383.92 1116.26V1114.84L1322.93 1157.39L1256.26 1112Z" stroke="#1F4D85" stroke-width="0.0591741" stroke-miterlimit="333.333"/>
<path d="M130.066 1252.42H131.485L196.73 1299.23L263.393 1252.42V1158.81L196.73 1112L131.485 1158.81H130.066V1252.42Z" fill="#77b4d4"/>
<path d="M263.4 1252.42L330.064 1299.23L395.309 1252.42V1158.81L330.064 1112L263.4 1158.81V1252.42Z" fill="#77b4d4" stroke="#1F4D85" stroke-width="0.0591741" stroke-miterlimit="333.333"/>
<path d="M395.305 1252.42L461.968 1299.23L528.632 1252.42H527.213V1158.81H528.632L461.968 1112L395.305 1158.81V1252.42Z" fill="#77b4d4"/>
<path d="M527.211 1252.42H528.629L595.293 1299.23L660.538 1252.42V1158.81L595.293 1112L528.629 1158.81H527.211V1252.42Z" fill="#77b4d4" stroke="#1F4D85" stroke-width="0.0591741" stroke-miterlimit="333.333"/>
<path d="M660.543 1252.42L727.206 1299.23L793.87 1252.42H792.452V1158.81H793.87L727.206 1112L660.543 1158.81V1252.42Z" fill="#77b4d4" stroke="#1F4D85" stroke-width="0.0591741" stroke-miterlimit="333.333"/>
<path d="M792.447 1252.42H793.866L859.111 1299.23L925.774 1252.42H924.356V1158.81H925.774L859.111 1112L793.866 1158.81H792.447V1252.42Z" fill="#77b4d4" stroke="#1F4D85" stroke-width="0.0591741" stroke-miterlimit="333.333"/>
<path d="M924.355 1252.42H925.774L992.437 1299.23L1057.68 1252.42V1158.81L992.437 1112L925.774 1158.81H924.355V1252.42Z" fill="#77b4d4" stroke="#1F4D85" stroke-width="0.0591741" stroke-miterlimit="333.333"/>
<path d="M1057.69 1252.42L1124.35 1299.23L1191.01 1252.42H1189.6V1158.81H1191.01L1124.35 1112L1057.69 1158.81V1252.42Z" fill="#77b4d4" stroke="#1F4D85" stroke-width="0.0591741" stroke-miterlimit="333.333"/>
<path d="M1189.59 1252.42H1191.01L1256.26 1299.23L1322.92 1252.42V1158.81L1256.26 1112L1191.01 1158.81H1189.59V1252.42Z" fill="#77b4d4" stroke="#1F4D85" stroke-width="0.0591741" stroke-miterlimit="333.333"/>
<path d="M100.289 686.491V597.134L39.2988 556.001V729.042L100.289 687.91V686.491Z" fill="#77b4d4" stroke="#1F4D85" stroke-width="0.0591741" stroke-miterlimit="333.333"/>
<path d="M263.393 597.135L196.73 551.747L131.485 598.553L130.066 597.135V686.492L131.485 687.911L196.73 733.299L263.393 687.911V686.492V597.135Z" fill="#77b4d4" stroke="#1F4D85" stroke-width="0.0591741" stroke-miterlimit="333.333"/>
<path d="M395.309 597.135L330.064 551.747L263.4 598.553V597.135V686.492V687.911L330.064 733.299L395.309 687.911V686.492V597.135Z" fill="#77b4d4" stroke="#1F4D85" stroke-width="0.0591741" stroke-miterlimit="333.333"/>
<path d="M527.213 597.135L461.968 551.747L395.305 598.553V597.135V686.492V687.911L461.968 733.299L528.632 687.911L527.213 686.492V597.135Z" fill="#77b4d4" stroke="#1F4D85" stroke-width="0.0591741" stroke-miterlimit="333.333"/>
<path d="M660.538 597.135L595.293 551.747L528.629 598.553L527.211 597.135V686.492L528.629 687.911L595.293 733.299L660.538 687.911V686.492V597.135Z" fill="#77b4d4" stroke="#1F4D85" stroke-width="0.0591741" stroke-miterlimit="333.333"/>
<path d="M792.452 597.135L727.206 551.747L660.543 598.553V597.135V686.492V687.911L727.206 733.299L793.87 687.911L792.452 686.492V597.135Z" fill="#77b4d4"/>
<path d="M924.356 597.135L859.111 551.747L793.866 598.553L792.447 597.135V686.492L793.866 687.911L859.111 733.299L925.774 687.911L924.356 686.492V597.135Z" fill="#77b4d4"/>
<path d="M1057.68 597.135L992.437 551.747L925.774 598.553L924.355 597.135V686.492L925.774 687.911L992.437 733.299L1057.68 687.911V686.492V597.135Z" fill="#77b4d4" stroke="#1F4D85" stroke-width="0.0591741" stroke-miterlimit="333.333"/>
<path d="M1189.6 597.135L1124.35 551.747L1057.69 598.553V597.135V686.492V687.911L1124.35 733.299L1191.01 687.911L1189.6 686.492V597.135Z" fill="#77b4d4" stroke="#1F4D85" stroke-width="0.0591741" stroke-miterlimit="333.333"/>
<path d="M1322.92 597.135L1256.26 551.747L1191.01 598.553L1189.59 597.135V686.492L1191.01 687.911L1256.26 733.299L1322.92 687.911V686.492V597.135Z" fill="#77b4d4" stroke="#1F4D85" stroke-width="0.0591741" stroke-miterlimit="333.333"/>
<path d="M1354.12 598.552L1352.71 597.134V686.491L1354.12 687.91L1415.11 730.461V556.001L1354.12 598.552Z" fill="#77b4d4" stroke="#1F4D85" stroke-width="0.0591741" stroke-miterlimit="333.333"/>
<path d="M263.396 411.329V409.91V330.481L139.998 417.002L196.733 456.717L263.396 411.329Z" fill="#77b4d4"/>
<path d="M263.4 411.327L330.064 456.715L395.309 411.327V409.909V320.551L335.737 279.418L263.4 330.48V409.909V411.327Z" fill="#77b4d4"/>
<path d="M527.213 320.552L461.968 275.165L395.305 321.971V320.552V409.91V411.328L461.968 456.716L528.632 411.328L527.213 409.91V320.552Z" fill="#77b4d4"/>
<path d="M660.538 320.552L595.293 275.165L528.629 321.971L527.211 320.552V409.91L528.629 411.328L595.293 456.716L660.538 411.328V409.91V320.552Z" fill="#77b4d4"/>
<path d="M792.452 320.552L727.206 275.165L660.543 321.971V320.552V409.91V411.328L727.206 456.716L793.87 411.328L792.452 409.91V320.552Z" fill="#77b4d4"/>
<path d="M924.356 320.552L859.111 275.165L793.866 321.971L792.447 320.552V409.91L793.866 411.328L859.111 456.716L925.774 411.328L924.356 409.91V320.552Z" fill="#77b4d4"/>
<path d="M1057.68 320.552L992.437 275.165L925.774 321.971L924.355 320.552V409.91L925.774 411.328L992.437 456.716L1057.68 411.328V409.91V320.552Z" fill="#77b4d4"/>
<path d="M1057.69 321.97V320.552V409.909V411.327L1124.35 456.715L1191.01 411.327L1189.6 409.909V326.225L1121.51 278.001L1057.69 321.97Z" fill="#77b4d4"/>
<path d="M1191.01 411.328L1256.26 456.716L1315.83 415.583L1189.59 326.226V409.909L1191.01 411.328Z" fill="#77b4d4"/>
<path d="M661.967 134.746L663.385 136.164L667.64 134.746L666.222 133.328V46.8071L538.568 137.583L599.558 178.716L661.967 134.746Z" fill="#77b4d4"/>
<path d="M666.215 134.745L730.042 178.715L793.869 134.745L795.287 136.164L798.124 134.745V133.327V46.8063L732.879 0L664.797 46.8063V133.327L666.215 134.745Z" fill="#77b4d4"/>
<path d="M798.129 134.746L863.374 178.716L924.364 136.164L798.129 46.8071V133.328V134.746Z" fill="#77b4d4"/>
<path d="M196.741 1112V1110.59V1016.97L131.496 971.585L70.5059 1012.72V1114.84L131.496 1157.39L196.741 1112Z" fill="#77b4d4" stroke="#1F4D85" stroke-width="0.0591741" stroke-miterlimit="333.333"/>
<path d="M196.732 1110.59V1112L263.396 1157.39L330.059 1112L328.641 1110.59V1016.97H330.059L263.396 971.585L196.732 1016.97V1110.59Z" fill="#77b4d4"/>
<path d="M328.637 1110.59L330.055 1112L395.3 1157.39L461.964 1112V1110.59V1016.97L395.3 971.585L330.055 1016.97H328.637V1110.59Z" fill="#77b4d4"/>
<path d="M461.971 1110.59V1112L528.634 1157.39L595.298 1112L593.879 1110.59V1016.97H595.298L528.634 971.585L461.971 1016.97V1110.59Z" fill="#77b4d4"/>
<path d="M593.877 1110.59L595.295 1112L660.54 1157.39L727.204 1112L725.786 1110.59V1016.97H727.204L660.54 971.585L595.295 1016.97H593.877V1110.59Z" fill="#77b4d4"/>
<path d="M725.781 1110.59L727.2 1112L793.863 1157.39L859.108 1112V1110.59V1016.97L793.863 971.585L727.2 1016.97H725.781V1110.59Z" fill="#77b4d4" stroke="#1F4D85" stroke-width="0.0591741" stroke-miterlimit="333.333"/>
<path d="M859.113 1110.59V1112L925.777 1157.39L992.44 1112L991.022 1110.59V1016.97H992.44L925.777 971.585L859.113 1016.97V1110.59Z" fill="#77b4d4"/>
<path d="M991.021 1110.59L992.44 1112L1057.68 1157.39L1124.35 1112V1110.59V1016.97L1057.68 971.585L992.44 1016.97H991.021V1110.59Z" fill="#77b4d4" stroke="#1F4D85" stroke-width="0.0591741" stroke-miterlimit="333.333"/>
<path d="M1124.35 1110.59V1112L1191.02 1157.39L1256.26 1112V1110.59V1016.97L1191.02 971.585L1124.35 1016.97V1110.59Z" fill="#77b4d4"/>
<path d="M1256.26 1016.97V1110.59V1112L1322.92 1157.39L1383.91 1114.84V1014.14L1322.92 971.585L1256.26 1016.97Z" fill="#77b4d4" stroke="#1F4D85" stroke-width="0.0591741" stroke-miterlimit="333.333"/>
<path opacity="0.93" d="M196.741 1418.37V1324.76L131.496 1277.95L70.5059 1320.5V1421.21L131.496 1465.18L196.741 1418.37Z" fill="#77b4d4" stroke="url(#paint0_radial_359_2)" stroke-width="0.0591741" stroke-miterlimit="333.333"/>
<path d="M196.732 1418.37L263.396 1465.18L330.059 1418.37H328.641V1324.76H330.059L263.396 1277.95L196.732 1324.76V1418.37Z" fill="#77b4d4"/>
<path d="M328.637 1418.37H330.055L395.3 1465.18L461.964 1418.37V1324.76L395.3 1277.95L330.055 1324.76H328.637V1418.37Z" fill="#77b4d4" stroke="#1F4D85" stroke-width="0.0591741" stroke-miterlimit="333.333"/>
<path opacity="0.93" d="M461.971 1418.37L528.634 1465.18L595.298 1418.37H593.879V1324.76H595.298L528.634 1277.95L461.971 1324.76V1418.37Z" fill="#77b4d4" stroke="url(#paint1_radial_359_2)" stroke-width="0.0591741" stroke-miterlimit="333.333"/>
<path d="M593.877 1418.37H595.295L660.54 1465.18L727.204 1418.37H725.786V1324.76H727.204L660.54 1277.95L595.295 1324.76H593.877V1418.37Z" fill="#77b4d4"/>
<path opacity="0.93" d="M725.781 1418.37H727.2L793.863 1465.18L859.108 1418.37V1324.76L793.863 1277.95L727.2 1324.76H725.781V1418.37Z" fill="#77b4d4" stroke="url(#paint2_radial_359_2)" stroke-width="0.0591741" stroke-miterlimit="333.333"/>
<path d="M859.113 1418.37L925.777 1465.18L992.44 1418.37H991.022V1324.76H992.44L925.777 1277.95L859.113 1324.76V1418.37Z" fill="#77b4d4" stroke="#1F4D85" stroke-width="0.0591741" stroke-miterlimit="333.333"/>
<path opacity="0.93" d="M991.021 1418.37H992.44L1057.68 1465.18L1124.35 1418.37V1324.76L1057.68 1277.95L992.44 1324.76H991.021V1418.37Z" fill="#77b4d4" stroke="url(#paint3_radial_359_2)" stroke-width="0.0591741" stroke-miterlimit="333.333"/>
<path d="M1124.35 1418.37L1191.02 1465.18L1256.26 1418.37V1324.76L1191.02 1277.95L1124.35 1324.76V1418.37Z" fill="#77b4d4"/>
<path opacity="0.93" d="M1256.26 1324.76V1418.37L1322.92 1465.18L1383.91 1421.21V1320.5L1322.92 1277.95L1256.26 1324.76Z" fill="#77b4d4" stroke="url(#paint4_radial_359_2)" stroke-width="0.0591741" stroke-miterlimit="333.333"/>
<path d="M992.44 1631.13L927.195 1584.32L860.531 1631.13L793.868 1584.32L728.623 1631.13L661.959 1584.32L595.296 1631.13L530.051 1584.32L463.387 1631.13L396.724 1584.32L331.479 1629.71V1631.13L396.724 1585.74L463.387 1631.13L530.051 1585.74L595.296 1631.13L661.959 1585.74L728.623 1631.13L793.868 1585.74L860.531 1631.13L927.195 1585.74L992.44 1631.13L1059.1 1585.74L1124.35 1631.13V1629.71L1059.1 1584.32L992.44 1631.13Z" fill="#77b4d4"/>
<path d="M396.727 1582.9V1489.29H398.146L331.482 1442.48L264.819 1489.29H263.4V1581.48L331.482 1629.71L398.146 1584.32L396.727 1582.9Z" fill="#77b4d4" stroke="#1F4D85" stroke-width="0.0591741" stroke-miterlimit="10"/>
<path d="M396.732 1582.9L398.151 1584.32L463.396 1629.71L530.059 1584.32V1582.9V1489.29L463.396 1442.48L398.151 1489.29H396.732V1582.9Z" fill="#77b4d4"/>
<path opacity="0.93" d="M530.051 1582.9V1584.32L596.714 1629.71L663.378 1584.32V1582.9V1489.29L596.714 1442.48L530.051 1489.29V1582.9Z" fill="#77b4d4" stroke="url(#paint5_radial_359_2)" stroke-width="0.0591741" stroke-miterlimit="333.333"/>
<path d="M663.383 1582.9V1584.32L730.046 1629.71L796.71 1584.32V1582.9V1489.29L730.046 1442.48L663.383 1489.29V1582.9Z" fill="#77b4d4" stroke="#1F4D85" stroke-width="0.0591741" stroke-miterlimit="10"/>
<path opacity="0.93" d="M796.701 1582.9V1584.32L863.365 1629.71L930.028 1584.32L928.61 1582.9V1489.29H930.028L863.365 1442.48L796.701 1489.29V1582.9Z" fill="#77b4d4" stroke="url(#paint6_radial_359_2)" stroke-width="0.0591741" stroke-miterlimit="333.333"/>
<path d="M928.621 1582.9L930.039 1584.32L996.703 1629.71L1063.37 1584.32L1061.95 1582.9V1489.29H1063.37L996.703 1442.48L930.039 1489.29H928.621V1582.9Z" fill="#77b4d4" stroke="#1F4D85" stroke-width="0.0591741" stroke-miterlimit="10"/>
<path d="M1196.68 1489.29L1130.02 1442.48L1063.36 1489.29H1061.94V1582.9L1063.36 1584.32L1128.6 1629.71L1195.27 1582.9V1489.29H1196.68Z" fill="#77b4d4"/>
<path d="M108.799 958.82V885.065L56.3196 848.187L3.83984 885.065V955.983L57.738 994.279L108.799 958.82Z" fill="#77b4d4" stroke="#1F4D85" stroke-width="0.0591741" stroke-miterlimit="333.333"/>
<path d="M1447.74 958.82V885.065H1449.16L1396.68 848.187L1344.2 885.065V955.983L1398.1 994.279L1449.16 958.82H1447.74Z" fill="#77b4d4" stroke="#1F4D85" stroke-width="0.0591741" stroke-miterlimit="333.333"/>
<path d="M1389.59 1245.33L1415.12 1263.77L1440.65 1245.33V1209.87L1415.12 1191.43L1389.59 1209.87V1245.33Z" fill="#77b4d4" stroke="#1F4D85" stroke-width="0.0591741" stroke-miterlimit="333.333"/>
<path d="M1217.96 1494.96V1496.38L1236.4 1509.15L1254.84 1496.38V1494.96V1469.43L1236.4 1456.67L1217.96 1469.43V1494.96Z" fill="#77b4d4"/>
<path d="M203.822 1494.96L205.241 1496.38L223.679 1509.15L242.118 1496.38V1494.96V1469.43L223.679 1456.67L205.241 1469.43H203.822V1494.96Z" fill="#77b4d4"/>
<path d="M33.6211 1239.66H35.0395L60.5702 1256.68L86.1009 1239.66H84.6825V1202.78H86.1009L60.5702 1185.76L35.0395 1202.78H33.6211V1239.66Z" fill="#77b4d4" stroke="#1F4D85" stroke-width="0.0591741" stroke-miterlimit="333.333"/>
<path d="M447.784 1665.17L395.304 1628.29L342.824 1665.17V1738.92L393.886 1774.38L446.365 1737.51V1665.17H447.784Z" fill="#77b4d4"/>
<path d="M496.014 1815.52L464.81 1794.24L435.024 1815.52H433.605V1859.49H435.024L464.81 1880.76L496.014 1859.49V1815.52Z" fill="#77b4d4"/>
<path opacity="0.93" d="M627.927 1815.52L598.142 1794.24L566.938 1815.52V1859.49L596.723 1880.76L627.927 1859.49V1815.52Z" fill="#77b4d4" stroke="url(#paint7_radial_359_2)" stroke-width="0.0591741" stroke-miterlimit="333.333"/>
<path d="M761.25 1815.52L730.046 1794.24L698.842 1815.52V1859.49L730.046 1880.76L759.832 1859.49V1815.52H761.25Z" fill="#77b4d4"/>
<path d="M893.158 1815.52L861.954 1794.24L832.168 1815.52H830.75V1859.49H832.168L861.954 1880.76L893.158 1859.49V1815.52Z" fill="#77b4d4"/>
<path d="M1025.07 1815.52L995.286 1794.24L964.082 1815.52V1859.49L993.868 1880.76L1025.07 1859.49V1815.52Z" fill="#77b4d4"/>
<path d="M579.704 1665.17L527.224 1628.29L474.744 1665.17V1738.92L527.224 1774.38L579.704 1737.51V1665.17Z" fill="#77b4d4"/>
<path d="M711.608 1665.17L660.547 1628.29L608.067 1665.17H606.648V1738.92H608.067L659.128 1774.38L711.608 1737.51V1665.17Z" fill="#77b4d4"/>
<path opacity="0.93" d="M844.926 1665.17L792.447 1628.29L739.967 1665.17V1738.92L791.028 1774.38L843.508 1737.51V1665.17H844.926Z" fill="#77b4d4" stroke="url(#paint8_radial_359_2)" stroke-width="0.0591741" stroke-miterlimit="333.333"/>
<path d="M976.846 1665.17L924.366 1628.29L873.305 1665.17H871.887V1738.92H873.305L924.366 1774.38L976.846 1737.51V1665.17Z" fill="#77b4d4"/>
<path opacity="0.93" d="M1108.74 1665.17L1057.68 1628.29L1005.2 1665.17V1738.92L1056.26 1774.38L1108.74 1737.51V1665.17Z" fill="#77b4d4" stroke="url(#paint9_radial_359_2)" stroke-width="0.0591741" stroke-miterlimit="333.333"/>
<path d="M196.741 828.329V734.717L131.496 687.91L70.5059 730.462V832.584L131.496 875.136L196.741 828.329Z" fill="#77b4d4" stroke="#1F4D85" stroke-width="0.0591741" stroke-miterlimit="333.333"/>
<path d="M328.641 734.717H330.059L263.396 687.91L196.732 734.717V828.329L263.396 875.136L330.059 828.329H328.641V734.717Z" fill="#77b4d4"/>
<path d="M461.964 734.717L395.3 687.91L330.055 734.717H328.637V828.329H330.055L395.3 875.136L461.964 828.329V734.717Z" fill="#77b4d4" stroke="#1F4D85" stroke-width="0.0591741" stroke-miterlimit="333.333"/>
<path d="M593.879 734.717H595.298L528.634 687.91L461.971 734.717V828.329L528.634 875.136L595.298 828.329H593.879V734.717Z" fill="#77b4d4" stroke="#1F4D85" stroke-width="0.0591741" stroke-miterlimit="333.333"/>
<path d="M725.786 734.717H727.204L660.54 687.91L595.295 734.717H593.877V828.329H595.295L660.54 875.136L727.204 828.329H725.786V734.717Z" fill="#77b4d4"/>
<path d="M859.108 734.717L793.863 687.91L727.2 734.717H725.781V828.329H727.2L793.863 875.136L859.108 828.329V734.717Z" fill="#77b4d4" stroke="#1F4D85" stroke-width="0.0591741" stroke-miterlimit="333.333"/>
<path d="M991.022 734.717H992.44L925.777 687.91L859.113 734.717V828.329L925.777 875.136L992.44 828.329H991.022V734.717Z" fill="#77b4d4" stroke="#1F4D85" stroke-width="0.0591741" stroke-miterlimit="333.333"/>
<path d="M1124.35 734.717L1057.68 687.91L992.44 734.717H991.021V828.329H992.44L1057.68 875.136L1124.35 828.329V734.717Z" fill="#77b4d4"/>
<path d="M1124.35 734.717V828.329L1191.02 875.136L1256.26 828.329V734.717L1191.02 687.91L1124.35 734.717Z" fill="#77b4d4" stroke="#1F4D85" stroke-width="0.0591741" stroke-miterlimit="333.333"/>
<path d="M1322.92 687.91L1256.26 734.717V828.329L1322.92 875.136L1383.91 832.584V730.462L1322.92 687.91Z" fill="#77b4d4" stroke="#1F4D85" stroke-width="0.0591741" stroke-miterlimit="333.333"/>
<path d="M131.496 598.553L196.741 551.747V458.135L138.588 417.002L70.5059 465.226V556.002L130.077 597.135L131.496 598.553Z" fill="#77b4d4"/>
<path d="M263.396 598.553L330.059 551.747H328.641V458.134H330.059L263.396 411.328L196.732 458.134V551.747L263.396 597.135V598.553Z" fill="#77b4d4"/>
<path d="M328.637 551.747H330.055L395.3 597.135V598.553L461.964 551.747V458.134L395.3 411.328L330.055 458.134H328.637V551.747Z" fill="#77b4d4"/>
<path d="M461.971 551.747L527.216 597.135L528.634 598.553L595.298 551.747H593.879V458.134H595.298L528.634 411.328L461.971 458.134V551.747Z" fill="#77b4d4"/>
<path d="M593.877 551.747H595.295L660.54 597.135V598.553L727.204 551.747H725.786V458.134H727.204L660.54 411.328L595.295 458.134H593.877V551.747Z" fill="#77b4d4"/>
<path d="M725.781 551.747H727.2L792.445 597.135L793.863 598.553L859.108 551.747V458.134L793.863 411.328L727.2 458.134H725.781V551.747Z" fill="#77b4d4"/>
<path d="M859.113 551.747L924.358 597.135L925.777 598.553L992.44 551.747H991.022V458.134H992.44L925.777 411.328L859.113 458.134V551.747Z" fill="#77b4d4"/>
<path d="M991.021 551.747H992.44L1057.68 597.135V598.553L1124.35 551.747V458.134L1057.68 411.328L992.44 458.134H991.021V551.747Z" fill="#77b4d4"/>
<path d="M1124.35 551.747L1189.6 597.135L1191.02 598.553L1256.26 551.747V458.134L1191.02 411.328L1124.35 458.134V551.747Z" fill="#77b4d4"/>
<path d="M1256.26 458.135V551.747L1322.92 597.135V598.553L1383.91 556.002V465.226L1315.83 417.002L1256.26 458.135Z" fill="#77b4d4"/>
<path d="M396.72 321.971L461.966 275.165V190.062L335.73 279.42L395.302 320.552L396.72 321.971Z" fill="#77b4d4"/>
<path d="M461.971 275.165H463.389L528.634 320.553L530.053 321.971L595.298 275.165V181.552L535.726 139.001L461.971 190.062V275.165Z" fill="#77b4d4"/>
<path d="M660.54 321.97L727.204 275.164H725.786V181.552H727.204L663.377 136.164L660.54 134.745L598.132 178.715L595.295 181.552H593.877V275.164H595.295L660.54 320.552V321.97Z" fill="#77b4d4"/>
<path d="M725.781 181.552V275.164H727.2L792.445 320.552L793.863 321.97L859.108 275.164V181.552L795.281 136.164L793.863 134.745L730.036 178.715L727.2 181.552H725.781Z" fill="#77b4d4"/>
<path d="M859.113 181.551V275.164L924.358 320.552L925.777 321.97L992.44 275.164H991.022V184.388L924.358 136.163L863.368 178.714L859.113 181.551Z" fill="#77b4d4"/>
<path d="M991.021 275.164H992.44L1057.68 320.552V321.97L1121.51 278.001L991.021 184.388V275.164Z" fill="#77b4d4"/>
<path d="M130.066 970.166H131.485L196.73 1015.55L263.393 970.166V876.554V875.135L196.73 829.748L131.485 875.135L130.066 876.554V970.166Z" fill="#77b4d4" stroke="#1F4D85" stroke-width="0.0591741" stroke-miterlimit="333.333"/>
<path d="M263.4 970.166L330.064 1015.55L395.309 970.166V876.554V875.135L330.064 829.748L263.4 875.135V876.554V970.166Z" fill="#77b4d4"/>
<path d="M395.305 970.166L461.968 1015.55L528.632 970.166H527.213V876.554L528.632 875.135L461.968 829.748L395.305 875.135V876.554V970.166Z" fill="#77b4d4" stroke="#1F4D85" stroke-width="0.0591741" stroke-miterlimit="333.333"/>
<path d="M527.211 970.166H528.629L595.293 1015.55L660.538 970.166V876.554V875.135L595.293 829.748L528.629 875.135L527.211 876.554V970.166Z" fill="#77b4d4" stroke="#1F4D85" stroke-width="0.0591741" stroke-miterlimit="333.333"/>
<path d="M660.543 970.166L727.206 1015.55L793.87 970.166H792.452V876.554L793.87 875.135L727.206 829.748L660.543 875.135V876.554V970.166Z" fill="#77b4d4"/>
<path d="M792.447 970.166H793.866L859.111 1015.55L925.774 970.166H924.356V876.554L925.774 875.135L859.111 829.748L793.866 875.135L792.447 876.554V970.166Z" fill="#77b4d4"/>
<path d="M924.355 970.166H925.774L992.437 1015.55L1057.68 970.166V876.554V875.135L992.437 829.748L925.774 875.135L924.355 876.554V970.166Z" fill="#77b4d4" stroke="#1F4D85" stroke-width="0.0591741" stroke-miterlimit="333.333"/>
<path d="M1057.69 970.166L1124.35 1015.55L1191.01 970.166H1189.6V876.554L1191.01 875.135L1124.35 829.748L1057.69 875.135V876.554V970.166Z" fill="#77b4d4" stroke="#1F4D85" stroke-width="0.0591741" stroke-miterlimit="333.333"/>
<path d="M1189.59 970.166H1191.01L1256.26 1015.55L1322.92 970.166V876.554V875.135L1256.26 829.748L1191.01 875.135L1189.59 876.554V970.166Z" fill="#77b4d4"/>
<path d="M941.387 1948.84L924.366 1937.5L907.346 1948.84V1972.95L924.366 1984.3L941.387 1972.95V1948.84Z" fill="#77b4d4"/>
<path d="M813.73 1948.84L796.71 1937.5L779.689 1948.84V1972.95L796.71 1984.3L813.73 1972.95V1948.84Z" fill="#77b4d4"/>
<path d="M681.814 1948.84L664.794 1937.5L647.773 1948.84V1972.95L664.794 1984.3L681.814 1972.95V1948.84Z" fill="#77b4d4"/>
<path opacity="0.93" d="M548.488 1948.84L532.886 1937.5L515.865 1948.84V1972.95L531.467 1984.3L548.488 1972.95V1948.84Z" fill="#77b4d4" stroke="url(#paint10_radial_359_2)" stroke-width="0.0591741" stroke-miterlimit="333.333"/>
<path d="M35.0409 1063.78L18.0205 1052.43L1 1063.78V1087.89L18.0205 1099.24L35.0409 1087.89V1063.78Z" fill="#77b4d4" stroke="#1F4D85" stroke-width="0.0591741" stroke-miterlimit="333.333"/>
<path d="M1452 1365.89L1434.98 1353.13L1417.96 1365.89V1388.59L1434.98 1401.35L1452 1388.59V1365.89Z" fill="#77b4d4" stroke="#1F4D85" stroke-width="0.0591741" stroke-miterlimit="333.333"/>
<path d="M671.892 42.5512L365.523 258.144L430.769 395.726L725.79 190.062L671.892 42.5512Z" fill="#77b4d4"/>
<defs>
<radialGradient id="paint0_radial_359_2" cx="0" cy="0" r="1" gradientUnits="userSpaceOnUse" gradientTransform="translate(134.369 1371.81) scale(71.654 86.4419)">
<stop stop-color="white"/>
<stop offset="1"/>
</radialGradient>
<radialGradient id="paint1_radial_359_2" cx="0" cy="0" r="1" gradientUnits="userSpaceOnUse" gradientTransform="translate(528.691 1371.92) scale(73.0932 88.1781)">
<stop stop-color="white"/>
<stop offset="1"/>
</radialGradient>
<radialGradient id="paint2_radial_359_2" cx="0" cy="0" r="1" gradientUnits="userSpaceOnUse" gradientTransform="translate(793.595 1371.92) scale(73.0932 88.1781)">
<stop stop-color="white"/>
<stop offset="1"/>
</radialGradient>
<radialGradient id="paint3_radial_359_2" cx="0" cy="0" r="1" gradientUnits="userSpaceOnUse" gradientTransform="translate(1058.51 1371.92) scale(73.0931 88.1781)">
<stop stop-color="white"/>
<stop offset="1"/>
</radialGradient>
<radialGradient id="paint4_radial_359_2" cx="0" cy="0" r="1" gradientUnits="userSpaceOnUse" gradientTransform="translate(1320.64 1371.89) scale(71.8098 86.6298)">
<stop stop-color="white"/>
<stop offset="1"/>
</radialGradient>
<radialGradient id="paint5_radial_359_2" cx="0" cy="0" r="1" gradientUnits="userSpaceOnUse" gradientTransform="translate(597.458 1536.8) scale(73.4344 88.5897)">
<stop stop-color="white"/>
<stop offset="1"/>
</radialGradient>
<radialGradient id="paint6_radial_359_2" cx="0" cy="0" r="1" gradientUnits="userSpaceOnUse" gradientTransform="translate(863.615 1536.8) scale(73.4344 88.5897)">
<stop stop-color="white"/>
<stop offset="1"/>
</radialGradient>
<radialGradient id="paint7_radial_359_2" cx="0" cy="0" r="1" gradientUnits="userSpaceOnUse" gradientTransform="translate(597.937 1837.95) scale(34.2926 41.3699)">
<stop stop-color="white"/>
<stop offset="1"/>
</radialGradient>
<radialGradient id="paint8_radial_359_2" cx="0" cy="0" r="1" gradientUnits="userSpaceOnUse" gradientTransform="translate(792.733 1702.15) scale(57.6457 69.5425)">
<stop stop-color="white"/>
<stop offset="1"/>
</radialGradient>
<radialGradient id="paint9_radial_359_2" cx="0" cy="0" r="1" gradientUnits="userSpaceOnUse" gradientTransform="translate(1057.64 1702.15) scale(57.6456 69.5425)">
<stop stop-color="white"/>
<stop offset="1"/>
</radialGradient>
<radialGradient id="paint10_radial_359_2" cx="0" cy="0" r="1" gradientUnits="userSpaceOnUse" gradientTransform="translate(532.746 1961.45) scale(19.2779 23.2563)">
<stop stop-color="white"/>
<stop offset="1"/>
</radialGradient>
</defs>
</svg>
