<?xml version="1.0" encoding="UTF-8" standalone="no"?>
<!-- Created with Inkscape (http://www.inkscape.org/) -->

<svg
   version="1.1"
   id="svg1"
   width="729.89203"
   height="406.92072"
   viewBox="0 0 729.89203 406.92072"
   xmlns="http://www.w3.org/2000/svg"
   xmlns:svg="http://www.w3.org/2000/svg">
  <defs
     id="defs1">
    <rect
       x="208"
       y="27"
       width="58"
       height="21"
       id="rect6472" />
    <linearGradient
       id="swatch6472">
      <stop
         style="stop-color:#000000;stop-opacity:1;"
         offset="0"
         id="stop6472" />
    </linearGradient>
  </defs>
  <g
     id="g1"
     transform="translate(-2.5857863,-2.1000012)">
    <g
       id="g6472">
      <path
         style="fill:#000000"
         d="m 13.585786,407.7077 c -3.194447,-1.27006 -7.7753556,-5.6075 -9.5892756,-9.07962 -1.153258,-2.20751 -1.410724,-10.89481 -1.410724,-47.59996 V 306.1285 l 2.980284,-4.11416 c 5.8564766,-8.08463 2.092048,-7.65105 69.1609206,-7.96588 l 59.641209,-0.27997 0.59514,-2.22003 c 0.32732,-1.22102 0.60128,-4.3464 0.60879,-6.94529 0.0131,-4.53908 0.10586,-4.69019 2.35388,-3.83549 2.07728,0.78978 16.77652,-29.34773 16.67543,-34.18926 -0.009,-0.4125 -13.51565,-0.75 -30.01565,-0.75 H 94.585784 v -24.5 -24.5 h 43.888956 43.88895 l 1.75947,-6.5 c 1.70773,-6.30885 2.93968,-7.62294 5.11095,-5.45168 0.73109,0.73109 5.1971,-4.48885 14.75852,-17.25 l 13.71021,-18.29832 -14.55853,-0.27673 -14.55852,-0.27673 V 124.30169 99.828427 h 23.44042 23.44043 l -2.38085,-7 -2.38086,-7 h 2.44043 2.44043 V 69.950871 c 0,-18.485332 1.53225,-36.028664 1,0.07756 v 15.8 h 2.5 c 2.992,0 2.94528,-0.607341 0.5,6.5 -1.1,3.197205 -2,6.192653 -2,6.65655 0,0.463897 10.575,0.84345 23.5,0.84345 h 23.5 v 24.499999 24.5 l -8.25,0.0485 c -4.5375,0.0267 -19.15945,0.006 -32.49322,-0.0462 l -24.24322,-0.0947 -13.94551,18.78513 c -13.16876,17.73883 -13.85366,18.8866 -12.29654,20.6072 1.05254,1.16305 1.27778,2.07127 0.62274,2.51103 -0.56442,0.37893 -2.79653,1.81395 -4.96024,3.18895 l -3.93401,2.5 25.75,0.26689 25.75,0.26688 v 24.47176 24.47177 l -40.09133,0.26135 -40.09133,0.26134 -6.91458,16.5 c -8.52157,20.33468 -8.41231,20 -6.52917,20 2.87323,0 2.48226,1.62739 -1.51422,6.30287 l -4.01499,4.69713 34.82781,0.022 c 53.62814,0.0338 50.6052,-3.58681 50.13941,60.05267 l -0.3116,42.57464 -2.68402,4.05422 c -5.87743,8.87786 1.59258,8.30512 -107.38171,8.23312 -61.070179,-0.0403 -96.842815,-0.42461 -98.434274,-1.05734 z m 198.030044,-2.12928 c 2.4496,-1.2375 5.46995,-3.77904 6.71188,-5.64788 l 2.25808,-3.39788 v -45.04024 c 0,-50.43977 0.31738,-48.167 -7.47171,-53.50417 l -3.15205,-2.15983 H 112.42179 14.881553 l -3.374087,2.2738 c -1.8557476,1.25059 -4.3972946,3.79214 -5.6478826,5.64788 l -2.273797,3.37409 0.0037,44.10212 c 0.0041,47.9758 -0.0403,47.58005 5.872843,52.38626 5.1957146,4.22309 3.0474496,4.13569 102.6615306,4.17671 l 95.03811,0.0391 z m -91.78004,-11.46625 c 1.5125,-0.22913 3.9875,-0.22913 5.5,0 1.5125,0.22912 0.275,0.41659 -2.75,0.41659 -3.025,0 -4.2625,-0.18747 -2.75,-0.41659 z m -54.870001,-2.73586 c -0.784615,-2.04467 0.385772,-3.54789 2.762348,-3.54789 1.187966,0 1.842132,-0.51644 1.583354,-1.25 -0.242529,-0.6875 -1.180029,-1.1875 -2.083333,-1.11111 -0.903305,0.0764 -1.642372,-0.291 -1.642372,-0.81642 0,-0.52542 1.2375,-0.81292 2.75,-0.63889 3.064161,0.35257 5.528725,8.81642 2.567229,8.81642 -0.724476,0 -1.317229,-0.9 -1.317229,-2 0,-1.98694 -1.06494,-2.60172 -2.324657,-1.34201 -0.361895,0.3619 -0.156795,1.2619 0.455778,2 0.855384,1.03068 0.730094,1.34201 -0.540061,1.34201 -0.909606,0 -1.904582,-0.65345 -2.211057,-1.45211 z m 8.619997,-3.04789 c 0,-3.18941 0.407536,-4.5 1.399307,-4.5 0.938748,0 1.517103,1.4811 1.757205,4.5 0.299193,3.76186 0.06966,4.5 -1.399306,4.5 -1.415947,0 -1.757206,-0.87392 -1.757206,-4.5 z m 5.788037,1.49084 c 0.245404,-1.67204 -0.15067,-3.72286 -0.891361,-4.61533 -1.15422,-1.39075 -1.069029,-1.55542 0.635156,-1.22773 2.673867,0.51415 4.047739,8.85222 1.45859,8.85222 -1.258998,0 -1.5406,-0.70475 -1.202385,-3.00916 z m 4.211963,2.10278 c 0,-0.49851 0.9,-0.67102 2,-0.38337 2.646528,0.69209 2.592128,-1.38754 -0.0583,-2.22875 -2.838219,-0.90081 -2.233142,-4.86909 0.808298,-5.30105 1.2375,-0.17575 2.25,0.14763 2.25,0.71862 0,0.57099 -0.675,0.77914 -1.5,0.46256 -2.202048,-0.845 -1.828645,0.95204 0.5,2.4063 2.39807,1.49762 2.60498,3.78594 0.41821,4.62508 -2.307108,0.88533 -4.418213,0.74227 -4.418213,-0.29939 z m 6.999998,-3.59362 c 0,-3.18941 0.40754,-4.5 1.39931,-4.5 0.93875,0 1.5171,1.4811 1.7572,4.5 0.2992,3.76186 0.0697,4.5 -1.3993,4.5 -1.41595,0 -1.75721,-0.87392 -1.75721,-4.5 z m 5.66667,3.83334 c -1.46173,-1.46173 -0.72716,-12.33334 0.83333,-12.33334 0.825,0 1.5,0.86871 1.5,1.93045 0,1.2089 0.80282,2.04989 2.147876,2.25 5.45416,0.81145 4.58269,8.81955 -0.959766,8.81955 -1.57013,0 -3.15477,-0.3 -3.52144,-0.66666 z m 4.833336,-3.83334 c 0,-1.55833 -0.5625,-3.02083 -1.250006,-3.25 -0.84848,-0.28282 -1.25,0.76111 -1.25,3.25 0,2.48889 0.40152,3.53283 1.25,3.25 0.687506,-0.22916 1.250006,-1.69166 1.250006,-3.25 z m 4.5,-2 c 0,-9.30205 2.68493,-9.30027 3.16467,0.002 0.2916,5.65417 0.10711,6.50183 -1.41467,6.5 -1.48697,-0.002 -1.75,-0.97909 -1.75,-6.5021 z m 6.25,5.83772 c -0.6875,-0.27741 -1.25,-2.01156 -1.25,-3.85366 0,-3.75227 2.96152,-5.5908 5.54798,-3.44423 2.28377,1.89536 1.73736,3.96017 -1.04798,3.96017 -3.11125,0 -3.25939,1.75922 -0.25,2.96884 2.03694,0.81875 2.06061,0.90292 0.25,0.88883 -1.1,-0.009 -2.5625,-0.24253 -3.25,-0.51995 z m 2.75,-5.89673 c 0,-0.85746 -0.45,-1.28091 -1,-0.94099 -0.55,0.33992 -1,1.04148 -1,1.55902 0,0.51754 0.45,0.94098 1,0.94098 0.55,0 1,-0.70155 1,-1.55901 z m 13.66666,5.89235 c -0.36666,-0.36667 -0.66666,-2.39167 -0.66666,-4.5 0,-5.72719 2.69322,-5.15837 3.15651,0.66666 0.3331,4.18822 -0.63874,5.68445 -2.48985,3.83334 z m 5.26544,0.41666 c -0.0373,-0.1375 -0.14984,-2.16284 -0.25,-4.50075 -0.24914,-5.8155 2.01015,-5.58654 2.47441,0.25075 0.27973,3.51717 -1.49996,6.91747 -2.22441,4.25 z m 4.0679,-0.65638 c 0,-0.49851 0.9,-0.67102 2,-0.38337 2.64652,0.69209 2.59213,-1.38754 -0.0583,-2.22875 -2.83822,-0.90081 -2.23314,-4.86909 0.8083,-5.30105 1.2375,-0.17575 2.25,0.14763 2.25,0.71862 0,0.57099 -0.675,0.77914 -1.5,0.46256 -2.20205,-0.845 -1.82865,0.95204 0.5,2.4063 2.39807,1.49762 2.60498,3.78594 0.41821,4.62508 -2.30711,0.88533 -4.41821,0.74227 -4.41821,-0.29939 z m 8.25,0.2441 c -0.6875,-0.27741 -1.25,-2.01156 -1.25,-3.85366 0,-3.75227 2.96152,-5.5908 5.54798,-3.44423 2.28377,1.89536 1.73736,3.96017 -1.04798,3.96017 -3.11125,0 -3.25939,1.75922 -0.25,2.96884 2.03694,0.81875 2.06061,0.90292 0.25,0.88883 -1.1,-0.009 -2.5625,-0.24253 -3.25,-0.51995 z m 2.75,-5.89673 c 0,-0.85746 -0.45,-1.28091 -1,-0.94099 -0.55,0.33992 -1,1.04148 -1,1.55902 0,0.51754 0.45,0.94098 1,0.94098 0.55,0 1,-0.70155 1,-1.55901 z m 4.5,2.05901 c 0,-2.93333 0.43518,-4.5 1.25,-4.5 0.6875,0 1.25,0.54 1.25,1.2 0,0.93334 0.26666,0.93334 1.2,0 1.59918,-1.59918 2.8,-1.51817 2.8,0.18889 0,0.76389 -0.7875,1.32639 -1.75,1.25 -1.33793,-0.10618 -1.74773,0.62639 -1.74034,3.11111 0.007,2.23574 -0.46147,3.25 -1.5,3.25 -1.12256,0 -1.50966,-1.15386 -1.50966,-4.5 z m -61.957296,-7.4309 c -0.68307,-1.10523 0.8944,-2.29865 1.81781,-1.37524 0.95079,0.95078 0.77359,2.30614 -0.3015,2.30614 -0.51754,0 -1.19988,-0.4189 -1.51631,-0.9309 z m 29.707296,-6.78535 c 1.5125,-0.22913 3.9875,-0.22913 5.5,0 1.5125,0.22912 0.275,0.41659 -2.75,0.41659 -3.025,0 -4.2625,-0.18747 -2.75,-0.41659 z m -54.870001,-2.73586 c -0.784615,-2.04467 0.385772,-3.54789 2.762348,-3.54789 1.187966,0 1.842132,-0.51644 1.583354,-1.25 -0.242529,-0.6875 -1.180029,-1.1875 -2.083333,-1.11111 -0.903305,0.0764 -1.642372,-0.291 -1.642372,-0.81642 0,-0.52542 1.2375,-0.81292 2.75,-0.63889 3.064161,0.35257 5.528725,8.81642 2.567229,8.81642 -0.724476,0 -1.317229,-0.9 -1.317229,-2 0,-1.98694 -1.06494,-2.60172 -2.324657,-1.34201 -0.361895,0.3619 -0.156795,1.2619 0.455778,2 0.855384,1.03068 0.730094,1.34201 -0.540061,1.34201 -0.909606,0 -1.904582,-0.65345 -2.211057,-1.45211 z m 8.619997,-3.04789 c 0,-3.18941 0.407536,-4.5 1.399307,-4.5 0.938748,0 1.517103,1.4811 1.757205,4.5 0.299193,3.76186 0.06966,4.5 -1.399306,4.5 -1.415947,0 -1.757206,-0.87392 -1.757206,-4.5 z m 5.788037,1.49084 c 0.245404,-1.67204 -0.15067,-3.72286 -0.891361,-4.61533 -1.15422,-1.39075 -1.069029,-1.55542 0.635156,-1.22773 2.673867,0.51415 4.047739,8.85222 1.45859,8.85222 -1.258998,0 -1.5406,-0.70475 -1.202385,-3.00916 z m 4.211963,2.10278 c 0,-0.49851 0.9,-0.67102 1.999998,-0.38337 2.64653,0.69209 2.59213,-1.38754 -0.0583,-2.22875 -2.838217,-0.90081 -2.23314,-4.86909 0.8083,-5.30105 1.2375,-0.17575 2.25,0.14763 2.25,0.71862 0,0.57099 -0.675,0.77914 -1.5,0.46256 -2.20205,-0.845 -1.82865,0.95204 0.5,2.4063 2.39807,1.49762 2.60498,3.78594 0.41821,4.62508 -2.30711,0.88533 -4.418213,0.74227 -4.418213,-0.29939 z m 6.999998,-3.59362 c 0,-3.18941 0.40754,-4.5 1.39931,-4.5 0.93875,0 1.5171,1.4811 1.7572,4.5 0.2992,3.76186 0.0697,4.5 -1.3993,4.5 -1.41595,0 -1.75721,-0.87392 -1.75721,-4.5 z m 5.66667,3.83334 c -1.46173,-1.46173 -0.72716,-12.33334 0.83333,-12.33334 0.825,0 1.5,0.86871 1.5,1.93045 0,1.2089 0.802816,2.04989 2.147876,2.25 5.45416,0.81145 4.58269,8.81955 -0.95977,8.81955 -1.570126,0 -3.154766,-0.3 -3.521436,-0.66666 z m 4.833336,-3.83334 c 0,-1.55833 -0.5625,-3.02083 -1.25,-3.25 -0.848486,-0.28282 -1.250006,0.76111 -1.250006,3.25 0,2.48889 0.40152,3.53283 1.250006,3.25 0.6875,-0.22916 1.25,-1.69166 1.25,-3.25 z m 4.5,-2 c 0,-9.30205 2.68493,-9.30027 3.16467,0.002 0.2916,5.65417 0.10711,6.50183 -1.41467,6.5 -1.48697,-0.002 -1.75,-0.97909 -1.75,-6.5021 z m 6.25,5.83772 c -0.6875,-0.27741 -1.25,-2.01156 -1.25,-3.85366 0,-3.75227 2.96152,-5.5908 5.54798,-3.44423 2.28377,1.89536 1.73736,3.96017 -1.04798,3.96017 -3.11125,0 -3.25939,1.75922 -0.25,2.96884 2.03694,0.81875 2.06061,0.90292 0.25,0.88883 -1.1,-0.009 -2.5625,-0.24253 -3.25,-0.51995 z m 2.75,-5.89673 c 0,-0.85746 -0.45,-1.28091 -1,-0.94099 -0.55,0.33992 -1,1.04148 -1,1.55902 0,0.51754 0.45,0.94098 1,0.94098 0.55,0 1,-0.70155 1,-1.55901 z m 13,0.059 c 0,-9.30205 2.68493,-9.30027 3.16467,0.002 0.2916,5.65417 0.10711,6.50183 -1.41467,6.5 -1.48697,-0.002 -1.75,-0.97909 -1.75,-6.5021 z m 5.78803,3.49084 c 0.24541,-1.67204 -0.15067,-3.72286 -0.89136,-4.61533 -1.15422,-1.39075 -1.06903,-1.55542 0.63516,-1.22773 2.67387,0.51415 4.04774,8.85222 1.45859,8.85222 -1.259,0 -1.5406,-0.70475 -1.20239,-3.00916 z m 5.46197,2.34688 c -1.59329,-0.6429 -1.62774,-5.55998 -0.05,-7.13772 3.3725,-3.3725 8.20717,1.30216 5.86769,5.67351 -1.08907,2.03495 -3.13016,2.54866 -5.81769,1.46421 z m 3.75,-3.92105 c 0,-2.42197 -0.40513,-3.44844 -1.25,-3.16713 -2.34963,0.78233 -2.15635,6.75046 0.21861,6.75046 0.56726,0 1.03139,-1.6125 1.03139,-3.58333 z m 4,3.67695 c 0,-0.49851 0.9,-0.67102 2,-0.38337 2.64652,0.69209 2.59213,-1.38754 -0.0583,-2.22875 -2.83822,-0.90081 -2.23314,-4.86909 0.8083,-5.30105 1.2375,-0.17575 2.25,0.14763 2.25,0.71862 0,0.57099 -0.675,0.77914 -1.5,0.46256 -2.20205,-0.845 -1.82865,0.95204 0.5,2.4063 2.39807,1.49762 2.60498,3.78594 0.41821,4.62508 -2.30711,0.88533 -4.41821,0.74227 -4.41821,-0.29939 z m 7.63028,-1.34362 c -1.50928,-5.63185 0.45732,-10.08262 3.15914,-7.14971 0.74452,0.80819 0.85017,1.39971 0.25,1.39971 -1.48423,0 -1.29105,6.73181 0.21058,7.33772 0.6875,0.27742 0.28998,0.53992 -0.88337,0.58334 -1.40473,0.052 -2.33931,-0.68953 -2.73635,-2.17106 z m -63.087576,-9.6809 c -0.68307,-1.10523 0.8944,-2.29865 1.81781,-1.37524 0.95079,0.95078 0.77359,2.30614 -0.3015,2.30614 -0.51754,0 -1.19988,-0.4189 -1.51631,-0.9309 z m 51.224586,-4.72298 c -0.25825,-0.46536 -0.42404,-3.31348 -0.36842,-6.32915 l 0.10113,-5.48304 3.58605,-0.5829 c 4.54525,-0.73881 4.4361,4.89232 -0.11944,6.16209 -2.44916,0.68266 -2.44693,0.68823 0.31477,0.7872 1.52976,0.0548 3.04041,0.77468 3.35699,1.59968 0.39703,1.03464 2.17119,1.54562 5.71862,1.64702 l 5.14301,0.14703 -5.5,0.79058 c -3.025,0.43482 -6.90921,1.08691 -8.63158,1.4491 -1.72237,0.36218 -3.34288,0.27776 -3.60113,-0.18761 z m 5.23271,-1.84612 c 0,-1.58922 -3.51233,-2.09809 -4.4138,-0.63948 -0.73847,1.19487 0.40084,2.13948 2.58046,2.13948 1.00834,0 1.83334,-0.675 1.83334,-1.5 z m -1,-7.5 c 0,-2.10908 -1.45489,-2.69103 -2.5,-1 -0.72921,1.17988 0.21666,3 1.55901,3 0.51754,0 0.94099,-0.9 0.94099,-2 z m -50.750006,7.28375 c 1.5125,-0.22913 3.987506,-0.22913 5.500006,0 1.5125,0.22912 0.275,0.41659 -2.750006,0.41659 -3.025,0 -4.2625,-0.18747 -2.75,-0.41659 z m -54.869995,-2.73585 c -0.784615,-2.04467 0.385772,-3.54789 2.762348,-3.54789 1.187966,0 1.842132,-0.51644 1.583354,-1.25 -0.242529,-0.6875 -1.180029,-1.1875 -2.083333,-1.11111 -0.903305,0.0764 -1.642372,-0.291 -1.642372,-0.81642 0,-0.52542 1.2375,-0.81292 2.75,-0.63889 3.064161,0.35257 5.528725,8.81642 2.567229,8.81642 -0.724476,0 -1.317229,-0.9 -1.317229,-2 0,-1.98694 -1.06494,-2.60172 -2.324657,-1.34201 -0.361895,0.3619 -0.156795,1.2619 0.455778,2 0.855384,1.03068 0.730094,1.34201 -0.540061,1.34201 -0.909606,0 -1.904582,-0.65345 -2.211057,-1.45211 z m 8.619997,-3.04789 c 0,-3.18941 0.407536,-4.5 1.399307,-4.5 0.938748,0 1.517103,1.4811 1.757205,4.5 0.299193,3.76186 0.06966,4.5 -1.399306,4.5 -1.415947,0 -1.757206,-0.87392 -1.757206,-4.5 z m 5.788037,1.49084 c 0.245404,-1.67204 -0.15067,-3.72286 -0.891361,-4.61533 -1.15422,-1.39075 -1.069029,-1.55542 0.635156,-1.22773 2.673867,0.51415 4.047739,8.85222 1.45859,8.85222 -1.258998,0 -1.5406,-0.70475 -1.202385,-3.00916 z m 4.211963,2.10278 c 0,-0.49851 0.9,-0.67102 2,-0.38337 2.646524,0.69209 2.592129,-1.38754 -0.0583,-2.22875 -2.838219,-0.90081 -2.233142,-4.86909 0.808295,-5.30105 1.2375,-0.17575 2.25,0.14763 2.25,0.71862 0,0.57099 -0.675,0.77914 -1.5,0.46256 -2.202045,-0.845 -1.828642,0.95204 0.5,2.4063 2.398071,1.49762 2.604987,3.78594 0.418213,4.62508 -2.307108,0.88533 -4.418213,0.74227 -4.418213,-0.29939 z m 7,-3.59362 c 0,-3.18941 0.407536,-4.5 1.399307,-4.5 0.938748,0 1.517103,1.4811 1.757205,4.5 0.299193,3.76186 0.06966,4.5 -1.399306,4.5 -1.415947,0 -1.757206,-0.87392 -1.757206,-4.5 z m 5.666667,3.83334 c -1.461725,-1.46173 -0.727156,-12.33334 0.833333,-12.33334 0.825,0 1.5,0.86871 1.5,1.93045 0,1.2089 0.802816,2.04989 2.147873,2.25 5.454156,0.81145 4.582693,8.81955 -0.959767,8.81955 -1.570125,0 -3.154772,-0.3 -3.521439,-0.66666 z m 4.833333,-3.83334 c 0,-1.55833 -0.5625,-3.02083 -1.25,-3.25 -0.848485,-0.28282 -1.25,0.76111 -1.25,3.25 0,2.48889 0.401515,3.53283 1.25,3.25 0.6875,-0.22916 1.25,-1.69166 1.25,-3.25 z m 4.5,-2 c 0,-9.30205 2.68493,-9.30027 3.164673,0.002 0.291595,5.65417 0.107111,6.50183 -1.414673,6.5 -1.486964,-0.002 -1.75,-0.97909 -1.75,-6.5021 z m 6.249998,5.83772 c -0.6875,-0.27741 -1.25,-2.01156 -1.25,-3.85366 0,-3.75227 2.96153,-5.5908 5.54799,-3.44423 2.28377,1.89536 1.73735,3.96017 -1.04799,3.96017 -3.11124,0 -3.25938,1.75922 -0.25,2.96884 2.03694,0.81875 2.06062,0.90292 0.25,0.88883 -1.1,-0.009 -2.5625,-0.24253 -3.25,-0.51995 z m 2.75,-5.89673 c 0,-0.85746 -0.45,-1.28091 -1,-0.94099 -0.55,0.33992 -1,1.04148 -1,1.55902 0,0.51754 0.45,0.94098 1,0.94098 0.55,0 1,-0.70155 1,-1.55901 z m 14.200006,5.35901 c -1.5425,-1.5425 -1.5425,-5.0575 0,-6.6 1.88487,-1.88487 5.81385,-1.50715 5.72105,0.55 -0.0472,1.04544 -0.28202,1.24674 -0.58333,0.5 -0.75906,-1.88115 -3.12312,-1.5015 -3.79301,0.60913 -0.78606,2.47666 0.2394,4.92474 2.29043,5.46795 1.26668,0.33547 1.17456,0.46866 -0.38514,0.55692 -1.1275,0.0638 -2.59,-0.424 -3.25,-1.084 z m 8.05,0.53772 c -1.59329,-0.6429 -1.62774,-5.55998 -0.05,-7.13772 3.3725,-3.3725 8.20717,1.30216 5.86769,5.67351 -1.08907,2.03495 -3.13016,2.54866 -5.81769,1.46421 z m 3.75,-3.92105 c 0,-2.42197 -0.40513,-3.44844 -1.25,-3.16713 -2.34963,0.78233 -2.15635,6.75046 0.21861,6.75046 0.56726,0 1.03139,-1.6125 1.03139,-3.58333 z m 4,0.0833 c 0,-3.18941 0.40753,-4.5 1.3993,-4.5 0.93875,0 1.51711,1.4811 1.75721,4.5 0.29919,3.76186 0.0697,4.5 -1.39931,4.5 -1.41595,0 -1.7572,-0.87392 -1.7572,-4.5 z m 5.78803,1.49084 c 0.24541,-1.67204 -0.15067,-3.72286 -0.89136,-4.61533 -1.15422,-1.39075 -1.06903,-1.55542 0.63516,-1.22773 2.67387,0.51415 4.04774,8.85222 1.45859,8.85222 -1.259,0 -1.5406,-0.70475 -1.20239,-3.00916 z m 4.01946,-1.24084 c -0.34292,-4.73965 1.55331,-8.79197 4.05752,-8.67105 1.0369,0.0501 1.17773,0.26345 0.38499,0.58333 -0.6875,0.27742 -1.25,1.14189 -1.25,1.92106 0,0.77916 0.5625,1.42355 1.25,1.43198 0.90874,0.0111 0.87521,0.25272 -0.12284,0.88493 -0.8971,0.56827 -1.22659,2.12238 -0.9508,4.48469 0.3422,2.93123 0.0926,3.61506 -1.31967,3.61506 -1.33416,0 -1.81365,-0.99446 -2.0492,-4.25 z m 6.19251,-0.25 c 0,-3.18941 0.40753,-4.5 1.3993,-4.5 0.93875,0 1.51711,1.4811 1.75721,4.5 0.29919,3.76186 0.0697,4.5 -1.39931,4.5 -1.41595,0 -1.7572,-0.87392 -1.7572,-4.5 z m 22.80749,0.25 c -0.34292,-4.73965 1.55331,-8.79197 4.05752,-8.67105 1.0369,0.0501 1.17773,0.26345 0.38499,0.58333 -0.6875,0.27742 -1.25,1.14189 -1.25,1.92106 0,0.77916 0.5625,1.42355 1.25,1.43198 0.90874,0.0111 0.87521,0.25272 -0.12284,0.88493 -0.8971,0.56827 -1.22659,2.12238 -0.9508,4.48469 0.3422,2.93123 0.0926,3.61506 -1.31967,3.61506 -1.33416,0 -1.81365,-0.99446 -2.0492,-4.25 z m 6.19251,-0.25 c 0,-3.18941 0.40753,-4.5 1.3993,-4.5 0.93875,0 1.51711,1.4811 1.75721,4.5 0.29919,3.76186 0.0697,4.5 -1.39931,4.5 -1.41595,0 -1.7572,-0.87392 -1.7572,-4.5 z m 5,-2 c 0,-9.30205 2.68493,-9.30027 3.16467,0.002 0.2916,5.65417 0.10711,6.50183 -1.41467,6.5 -1.48697,-0.002 -1.75,-0.97909 -1.75,-6.5021 z m 6.25,5.83772 c -0.6875,-0.27741 -1.25,-2.01156 -1.25,-3.85366 0,-3.75227 2.96152,-5.5908 5.54798,-3.44423 2.28377,1.89536 1.73736,3.96017 -1.04798,3.96017 -3.11125,0 -3.25939,1.75922 -0.25,2.96884 2.03694,0.81875 2.06061,0.90292 0.25,0.88883 -1.1,-0.009 -2.5625,-0.24253 -3.25,-0.51995 z m 2.75,-5.89673 c 0,-0.85746 -0.45,-1.28091 -1,-0.94099 -0.55,0.33992 -1,1.04148 -1,1.55902 0,0.51754 0.45,0.94098 1,0.94098 0.55,0 1,-0.70155 1,-1.55901 z M 68.128491,340.89752 c -0.68307,-1.10523 0.894408,-2.29865 1.817815,-1.37524 0.950786,0.95078 0.773587,2.30614 -0.301503,2.30614 -0.51754,0 -1.199881,-0.4189 -1.516312,-0.9309 z m 69.999999,0 c -0.68307,-1.10523 0.89441,-2.29865 1.81782,-1.37524 0.95078,0.95078 0.77358,2.30614 -0.30151,2.30614 -0.51754,0 -1.19988,-0.4189 -1.51631,-0.9309 z m 29,0 c -0.68307,-1.10523 0.89441,-2.29865 1.81782,-1.37524 0.95078,0.95078 0.77358,2.30614 -0.30151,2.30614 -0.51754,0 -1.19988,-0.4189 -1.51631,-0.9309 z M 62.911894,334.07859 c 27.40436,-0.14791 71.954356,-0.14786 98.999996,10e-5 27.04564,0.14796 4.6239,0.26898 -49.8261,0.26892 -54.450004,-5e-5 -76.578255,-0.1211 -49.173896,-0.26902 z m 59.505956,-15.16921 -0.33206,-6.91905 4.3094,0.002 c 3.58546,0.002 4.49439,0.40837 5.41052,2.41905 1.61864,3.55253 -0.36906,7.41666 -3.81512,7.41666 -2.14574,0 -2.54046,0.37325 -2.11505,2 0.38186,1.46026 0.0307,2 -1.30131,2 -1.55799,0 -1.8728,-1.01011 -2.15638,-6.91904 z m 6.66794,-2.09465 c 0,-5.08515 -2.8936,-4.78001 -3.31549,0.34963 -0.26764,3.25409 -0.0401,3.7829 1.5,3.4863 1.33996,-0.25805 1.81549,-1.26279 1.81549,-3.83593 z m -94.300004,3.81369 c -2.817438,-2.81743 -0.777928,-8.8 3,-8.8 1.253334,0 1.8,-0.75926 1.8,-2.5 0,-6.74859 2.85305,-2.24783 3.170996,5.00233 l 0.329004,7.50233 -3.55,-0.002 c -1.9525,-10e-4 -4.09,-0.54233 -4.75,-1.20233 z m 4.8,-3.88333 c 0,-2.81955 -0.386871,-3.95592 -1.25,-3.67167 -2.362981,0.7782 -2.166304,7.755 0.218616,7.755 0.567261,0 1.031384,-1.8375 1.031384,-4.08333 z m 6.517586,3.83333 c -1.450141,-4.31955 -0.94769,-13.75357 0.732414,-13.75182 1.501556,0.002 1.75,1.00601 1.75,7.07515 0,6.19626 0.216993,7.03217 1.75,6.74145 2.491245,-0.47245 2.950736,-5.82922 0.644658,-7.51546 -1.659474,-1.21344 -1.634423,-1.29932 0.379029,-1.29932 3.77305,0 5.524154,5.55931 2.654885,8.42858 -1.873159,1.87315 -7.315806,2.09429 -7.910986,0.32142 z m 13.232414,0.58772 c 0.786403,-0.31732 1.25,-2.53519 1.25,-5.98007 0,-4.05157 -0.325098,-5.311 -1.25,-4.84251 -0.6875,0.34825 -0.376491,-0.0752 0.69113,-0.94098 3.120882,-2.53088 3.55887,-1.93491 3.55887,4.84251 0,4.19766 0.432274,6.59109 1.25,6.92105 0.6875,0.27742 -0.55,0.50439 -2.75,0.50439 -2.2,0 -3.4375,-0.22697 -2.75,-0.50439 z m 9.916667,-0.004 c -1.150634,-1.15064 -0.728241,-2.33334 0.833333,-2.33334 0.825,0 1.5,0.675 1.5,1.5 0,1.56158 -1.182699,1.98397 -2.333333,0.83334 z m 5.38352,-0.77286 c -3.00337,-3.61885 0.952144,-10.30829 4.699813,-7.94818 2.895758,1.82362 2.792512,4.3877 -0.176675,4.3877 -3.244006,0 -3.464472,2.70625 -0.323325,3.96884 2.198875,0.88384 2.190296,0.90583 -0.377555,0.96778 -1.445155,0.0349 -3.165171,-0.5844 -3.822258,-1.37614 z m 3.949813,-6.06048 c 0,-0.825 -0.45,-1.5 -1,-1.5 -0.55,0 -1,0.675 -1,1.5 0,0.825 0.45,1.5 1,1.5 0.55,0 1,-0.675 1,-1.5 z m 3.5,6.73469 c 3.135353,-2.3035 3.652947,-4.07163 1.951893,-6.66776 -1.622951,-2.47694 -1.607768,-2.56693 0.433097,-2.56693 1.335513,0 2.126728,0.64497 2.146818,1.75 0.0303,1.66667 0.0951,1.66667 1.36024,0 0.73064,-0.9625 1.91107,-1.75 2.62318,-1.75 0.872,0 0.68114,0.67804 -0.58455,2.0766 -1.77988,1.96675 -1.79054,2.23127 -0.2015,5 1.66477,2.9007 1.65829,2.9234 -0.83471,2.9234 -1.38187,0 -2.2536,-0.4189 -1.93717,-0.9309 0.31643,-0.51199 0.11481,-1.21552 -0.44805,-1.56338 -0.56286,-0.34786 -1.29334,0.071 -1.623299,0.9309 -0.32996,0.85986 -1.339281,1.55649 -2.242937,1.54807 -0.942476,-0.009 -1.216639,-0.32856 -0.643012,-0.75 z m 11.861628,-0.73469 c -0.89308,-2.32733 0.36561,-4.5 2.60699,-4.5 1.13901,0 2.03138,-0.65894 2.03138,-1.5 0,-1.81154 -2.62819,-2.0084 -3.33772,-0.25 -0.292,0.72365 -0.53763,0.48643 -0.58333,-0.56335 -0.21325,-4.89816 6.382176,-1.52486 6.967016,3.56335 l 0.54597,4.75 h -3.827356 c -2.4796,0 -4.03004,-0.5282 -4.40295,-1.5 z m 4.63837,-1.5 c 0,-1.1 -0.45,-2 -1,-2 -0.55,0 -1,0.9 -1,2 0,1.1 0.45,2 1,2 0.55,0 1,-0.9 1,-2 z m 6.500006,-2.02517 c 0,-3.73791 0.35335,-4.95469 1.3794,-4.75 2.04352,0.40766 2.15909,9.777 0.1206,9.77595 -1.13424,-5.9e-4 -1.5,-1.22614 -1.5,-5.02595 z m 5.27688,0.27517 c -0.49706,-5.56183 -0.47914,-5.60766 1.89776,-4.85326 2.53307,0.80396 2.69439,9.60326 0.17605,9.60326 -1.24135,0 -1.75431,-1.17492 -2.07381,-4.75 z m 6.22312,1.33179 c 0,-1.88002 -0.29066,-4.17566 -0.64591,-5.10142 -0.48689,-1.26881 -0.17915,-1.59389 1.25,-1.32038 2.75605,0.52744 3.88404,9.84001 1.19187,9.84001 -1.37768,0 -1.79596,-0.79611 -1.79596,-3.41821 z m 18,-4.08179 c 0,-10.81453 2.69672,-10.81255 3.17099,0.002 0.28963,6.60443 0.11956,7.50205 -1.42099,7.5 -1.51091,-0.002 -1.75,-1.02702 -1.75,-7.50233 z m 7.05018,6.06048 c -3.00337,-3.61885 0.95215,-10.30829 4.69982,-7.94818 2.89575,1.82362 2.79251,4.3877 -0.17668,4.3877 -3.244,0 -3.46447,2.70625 -0.32332,3.96884 2.19887,0.88384 2.19029,0.90583 -0.37756,0.96778 -1.44515,0.0349 -3.16517,-0.5844 -3.82226,-1.37614 z m 3.94982,-6.06048 c 0,-0.825 -0.45,-1.5 -1,-1.5 -0.55,0 -1,0.675 -1,1.5 0,0.825 0.45,1.5 1,1.5 0.55,0 1,-0.675 1,-1.5 z m 4.66666,6.83334 c -1.15063,-1.15064 -0.72824,-2.33334 0.83334,-2.33334 0.825,0 1.5,0.675 1.5,1.5 0,1.56158 -1.1827,1.98397 -2.33334,0.83334 z m 5.53334,-0.53334 c -1.65407,-1.65406 -1.5073,-6.30007 0.24495,-7.75432 1.87166,-1.55333 5.7586,-0.97277 6.38934,0.95432 0.41604,1.27112 0.24394,1.29613 -1.12787,0.16391 -2.2102,-1.82418 -3.70642,-0.64246 -3.70642,2.92733 0,2.1487 0.62396,3.22401 2.25,3.8776 2.22343,0.89371 2.21989,0.90514 -0.3,0.96778 -1.4025,0.0349 -3.09,-0.47662 -3.75,-1.13662 z m 9,0 c -2.78622,-2.78621 -0.78488,-8.8 2.92857,-8.8 2.27415,0 4.87143,2.66583 4.87143,5 0,3.93677 -5.15287,6.44714 -7.8,3.8 z m 4.3,-3.8 c 0,-1.83333 -0.5625,-3.52083 -1.25,-3.75 -0.86667,-0.28889 -1.25,0.86111 -1.25,3.75 0,2.88889 0.38333,4.03889 1.25,3.75 0.6875,-0.22916 1.25,-1.91666 1.25,-3.75 z m 6,-0.0252 c 0,-3.73791 0.35335,-4.95469 1.3794,-4.75 2.04352,0.40766 2.15909,9.777 0.1206,9.77595 -1.13424,-5.9e-4 -1.5,-1.22614 -1.5,-5.02595 z m 5.27688,0.27517 c -0.49706,-5.56183 -0.47914,-5.60766 1.89776,-4.85326 2.53307,0.80396 2.69439,9.60326 0.17605,9.60326 -1.24135,0 -1.75431,-1.17492 -2.07381,-4.75 z m 6.22312,1.33179 c 0,-1.88002 -0.29066,-4.17566 -0.64591,-5.10142 -0.48689,-1.26881 -0.17915,-1.59389 1.25,-1.32038 2.75605,0.52744 3.88404,9.84001 1.19187,9.84001 -1.37768,0 -1.79596,-0.79611 -1.79596,-3.41821 z m 48,-97.06971 v -23.48792 l -69,-0.01 -69.000006,-0.01 v 23.49793 23.49792 h 69.000006 69 z m -106.8,2.28792 c -2.81744,-2.81743 -0.77793,-8.8 3,-8.8 1.25333,0 1.8,-0.75926 1.8,-2.5 0,-6.74859 2.85305,-2.24783 3.17099,5.00233 l 0.32901,7.50233 -3.55,-0.002 c -1.9525,-0.001 -4.09,-0.54233 -4.75,-1.20233 z m 4.8,-3.88333 c 0,-2.81955 -0.38688,-3.95592 -1.25,-3.67167 -2.36299,0.7782 -2.16631,7.755 0.21861,7.755 0.56726,0 1.03139,-1.8375 1.03139,-4.08333 z m 6.36162,3.58333 c -0.89308,-2.32733 0.36562,-4.5 2.60699,-4.5 1.13901,0 2.03139,-0.65894 2.03139,-1.5 0,-1.81154 -2.62819,-2.0084 -3.33772,-0.25 -0.292,0.72365 -0.53763,0.48643 -0.58334,-0.56335 -0.21325,-4.89816 6.38218,-1.52486 6.96702,3.56335 l 0.54597,4.75 h -3.82735 c -2.4796,0 -4.03004,-0.5282 -4.40296,-1.5 z m 4.63838,-1.5 c 0,-1.1 -0.45,-2 -1,-2 -0.55,0 -1,0.9 -1,2 0,1.1 0.45,2 1,2 0.55,0 1,-0.9 1,-2 z m 7.6534,2.24822 c -2.6083,-4.22032 -0.11572,-12.85339 2.85374,-9.88393 0.89964,0.89964 1.15357,1.63571 0.56428,1.63571 -1.5127,0 -1.34731,7.72201 0.17858,8.33772 0.6875,0.27742 0.26405,0.53992 -0.94099,0.58334 -1.20504,0.0434 -2.40006,-0.25936 -2.65561,-0.67284 z m 5.70822,-0.74822 c -0.89308,-2.32733 0.36562,-4.5 2.60699,-4.5 1.13901,0 2.03139,-0.65894 2.03139,-1.5 0,-1.81154 -2.62819,-2.0084 -3.33772,-0.25 -0.292,0.72365 -0.53763,0.48643 -0.58334,-0.56335 -0.21325,-4.89816 6.38218,-1.52486 6.96702,3.56335 l 0.54597,4.75 h -3.82735 c -2.4796,0 -4.03004,-0.5282 -4.40296,-1.5 z m 4.63838,-1.5 c 0,-1.1 -0.45,-2 -1,-2 -0.55,0 -1,0.9 -1,2 0,1.1 0.45,2 1,2 0.55,0 1,-0.9 1,-2 z m 6.51758,1.75 c -1.45014,-4.31955 -0.94769,-13.75357 0.73242,-13.75182 1.50155,0.002 1.75,1.00601 1.75,7.07515 0,6.19626 0.21699,7.03217 1.75,6.74145 2.49124,-0.47245 2.95073,-5.82922 0.64465,-7.51546 -1.65947,-1.21344 -1.63442,-1.29932 0.37903,-1.29932 3.77305,0 5.52416,5.55931 2.65489,8.42858 -1.87316,1.87315 -7.31581,2.09429 -7.91099,0.32142 z m 11.84404,-0.25 c -0.89308,-2.32733 0.36562,-4.5 2.60699,-4.5 1.13901,0 2.03139,-0.65894 2.03139,-1.5 0,-1.81154 -2.62819,-2.0084 -3.33772,-0.25 -0.292,0.72365 -0.53763,0.48643 -0.58334,-0.56335 -0.21325,-4.89816 6.38218,-1.52486 6.96702,3.56335 l 0.54597,4.75 h -3.82735 c -2.4796,0 -4.03004,-0.5282 -4.40296,-1.5 z m 4.63838,-1.5 c 0,-1.1 -0.45,-2 -1,-2 -0.55,0 -1,0.9 -1,2 0,1.1 0.45,2 1,2 0.55,0 1,-0.9 1,-2 z m 6,2.09362 c 0,-0.49851 0.84921,-0.6843 1.88714,-0.41288 3.00906,0.78689 3.53875,-1.56831 0.60369,-2.68422 -3.66169,-1.39217 -3.14297,-5.36395 0.75917,-5.81294 2.1281,-0.24486 2.73214,0.0943 2.67105,1.5 -0.0456,1.04999 -0.29177,1.28899 -0.58333,0.56642 -0.57178,-1.417 -3.33772,-1.71948 -3.33772,-0.36501 0,0.48675 1.13261,1.62711 2.51691,2.53414 2.08046,1.36317 2.33447,1.99005 1.46482,3.61501 -1.0496,1.96119 -5.98173,2.83477 -5.98173,1.05948 z m 9.05018,-0.53314 c -3.00337,-3.61885 0.95215,-10.30829 4.69982,-7.94818 2.89575,1.82362 2.79251,4.3877 -0.17668,4.3877 -3.244,0 -3.46447,2.70625 -0.32332,3.96884 2.19887,0.88384 2.19029,0.90583 -0.37756,0.96778 -1.44515,0.0349 -3.16517,-0.5844 -3.82226,-1.37614 z m 3.94982,-6.06048 c 0,-0.825 -0.45,-1.5 -1,-1.5 -0.55,0 -1,0.675 -1,1.5 0,0.825 0.45,1.5 1,1.5 0.55,0 1,-0.675 1,-1.5 z m 79,-92.98958 v -23.48993 h -46.5 -46.5 v 23.48958 23.48958 h 46.5 46.5 z m -52.16794,0.57054 -0.33206,-6.91905 4.3094,0.002 c 3.58546,0.002 4.49439,0.40837 5.41052,2.41905 1.61864,3.55253 -0.36906,7.41666 -3.81512,7.41666 -2.14574,0 -2.54046,0.37325 -2.11505,2 0.38186,1.46026 0.0307,2 -1.30131,2 -1.55799,0 -1.8728,-1.01011 -2.15638,-6.91904 z m 6.66794,-2.09465 c 0,-5.08515 -2.8936,-4.78001 -3.31549,0.34963 -0.26764,3.25409 -0.0401,3.7829 1.5,3.4863 1.33996,-0.25805 1.81549,-1.26279 1.81549,-3.83593 z m 5.33206,2.09465 -0.33206,-6.91905 4.3094,0.002 c 3.58546,0.002 4.49439,0.40837 5.41052,2.41905 1.61864,3.55253 -0.36906,7.41666 -3.81512,7.41666 -2.14574,0 -2.54046,0.37325 -2.11505,2 0.38186,1.46026 0.0307,2 -1.30131,2 -1.55799,0 -1.8728,-1.01011 -2.15638,-6.91904 z m 6.66794,-2.09465 c 0,-5.08515 -2.8936,-4.78001 -3.31549,0.34963 -0.26764,3.25409 -0.0401,3.7829 1.5,3.4863 1.33996,-0.25805 1.81549,-1.26279 1.81549,-3.83593 z m -29.13838,3.51369 c -0.89308,-2.32733 0.36562,-4.5 2.60699,-4.5 1.13901,0 2.03139,-0.65894 2.03139,-1.5 0,-1.81154 -2.62819,-2.0084 -3.33772,-0.25 -0.292,0.72365 -0.53763,0.48643 -0.58334,-0.56335 -0.21325,-4.89816 6.38218,-1.52486 6.96702,3.56335 l 0.54597,4.75 h -3.82735 c -2.4796,0 -4.03004,-0.5282 -4.40296,-1.5 z m 4.63838,-1.5 c 0,-1.1 -0.45,-2 -1,-2 -0.55,0 -1,0.9 -1,2 0,1.1 0.45,2 1,2 0.55,0 1,-0.9 1,-2 z m 31.5,282.33446 c -10.61564,-5.60903 -10.5,-4.99802 -10.5,-55.47924 0,-49.20603 -0.005,-49.17629 8.29691,-54.67155 l 4.05461,-2.68402 51.25854,-0.28441 51.25853,-0.28441 -1.93429,-5.62214 c -2.40115,-6.97905 -2.39818,-7.30904 0.0657,-7.30904 1.92381,0 2,-0.66666 2,-17.5 v -17.5 h -24 -24 v -24.5 -24.5 l 6.75,-0.0705 6.75,-0.0705 -3.92486,-1.43773 c -4.94704,-1.81217 -5.14402,-2.03097 -3.55355,-3.94737 1.67102,-2.01345 3.46691,-0.45393 -25.83692,-22.43637 -13.37343,-10.03216 -24.09704,-18.45857 -23.83025,-18.72536 0.26679,-0.2668 11.43369,7.7995 24.81533,17.9251 28.83203,21.81658 26.53481,20.33999 28.65669,18.41972 1.56327,-1.41474 2.01068,-1.05969 5.54708,4.40204 l 3.84665,5.94089 h 39.38991 39.38992 v 24.99762 24.99762 l 41.17709,20.59333 41.1771,20.59333 1.64551,-2.1815 c 1.64162,-2.17634 1.65827,-2.16677 7.03989,4.04531 3.64083,4.20267 4.75497,6.04337 3.42739,5.66251 -1.08184,-0.31036 -4.77213,-0.86501 -8.20063,-1.23255 -5.65086,-0.60577 -6.14169,-0.84008 -5.25,-2.50621 0.541,-1.01089 0.98365,-2.09651 0.98365,-2.4125 0,-0.31599 -19.36832,-10.24557 -43.0407,-22.06574 L 406.5044,245.82834 h -21.95931 -21.9593 v 17.5 c 0,16.83334 0.0762,17.5 2,17.5 2.46388,0 2.46684,0.32999 0.0657,7.30904 l -1.9343,5.62214 51.25854,0.28441 51.25854,0.28441 4.05461,2.68402 c 8.30142,5.49526 8.29691,5.46552 8.29691,54.67155 0,50.60275 0.10621,50.05162 -10.70034,55.52384 -4.83004,2.44584 -206.16689,2.40324 -210.79966,-0.0446 z m 212.21022,-2.12458 c 1.76563,-1.25937 4.24063,-3.73437 5.5,-5.5 l 2.28978,-3.21023 0.27997,-43.5 0.27997,-43.5 -2.27997,-4.49192 c -1.25399,-2.47057 -3.80902,-5.50807 -5.67786,-6.75 l -3.39788,-2.25808 H 361.58579 257.88155 l -3.39788,2.25808 c -7.76927,5.16308 -7.89788,6.01522 -7.89788,52.32881 0,47.25646 -0.0945,46.37126 5.5525,52.01825 5.59528,5.59528 -4.10327,5.15664 110.9475,5.01788 l 102,-0.12302 z m -98.46022,-10.92648 c 1.5125,-0.22913 3.9875,-0.22913 5.5,0 1.5125,0.22912 0.275,0.41659 -2.75,0.41659 -3.025,0 -4.2625,-0.18747 -2.75,-0.41659 z m -54.87,-2.73586 c -0.78462,-2.04467 0.38577,-3.54789 2.76235,-3.54789 1.18796,0 1.84213,-0.51644 1.58335,-1.25 -0.24253,-0.6875 -1.18003,-1.1875 -2.08333,-1.11111 -0.90331,0.0764 -1.64237,-0.291 -1.64237,-0.81642 0,-0.52542 1.2375,-0.81292 2.75,-0.63889 3.06416,0.35257 5.52872,8.81642 2.56722,8.81642 -0.72447,0 -1.31722,-0.9 -1.31722,-2 0,-1.98694 -1.06494,-2.60172 -2.32466,-1.34201 -0.3619,0.3619 -0.1568,1.2619 0.45578,2 0.85538,1.03068 0.73009,1.34201 -0.54006,1.34201 -0.90961,0 -1.90459,-0.65345 -2.21106,-1.45211 z m 8.62,-3.04789 c 0,-3.18941 0.40753,-4.5 1.3993,-4.5 0.93875,0 1.51711,1.4811 1.75721,4.5 0.29919,3.76186 0.0697,4.5 -1.39931,4.5 -1.41595,0 -1.7572,-0.87392 -1.7572,-4.5 z m 5.78803,1.49084 c 0.24541,-1.67204 -0.15067,-3.72286 -0.89136,-4.61533 -1.15422,-1.39075 -1.06903,-1.55542 0.63516,-1.22773 2.67387,0.51415 4.04774,8.85222 1.45859,8.85222 -1.259,0 -1.5406,-0.70475 -1.20239,-3.00916 z m 4.21197,2.10278 c 0,-0.49851 0.9,-0.67102 2,-0.38337 2.64652,0.69209 2.59213,-1.38754 -0.0583,-2.22875 -2.83822,-0.90081 -2.23314,-4.86909 0.8083,-5.30105 1.2375,-0.17575 2.25,0.14763 2.25,0.71862 0,0.57099 -0.675,0.77914 -1.5,0.46256 -2.20205,-0.845 -1.82865,0.95204 0.5,2.4063 2.39807,1.49762 2.60498,3.78594 0.41821,4.62508 -2.30711,0.88533 -4.41821,0.74227 -4.41821,-0.29939 z m 7,-3.59362 c 0,-3.18941 0.40753,-4.5 1.3993,-4.5 0.93875,0 1.51711,1.4811 1.75721,4.5 0.29919,3.76186 0.0697,4.5 -1.39931,4.5 -1.41595,0 -1.7572,-0.87392 -1.7572,-4.5 z m 5.66666,3.83334 c -1.46172,-1.46173 -0.72715,-12.33334 0.83334,-12.33334 0.825,0 1.5,0.86871 1.5,1.93045 0,1.2089 0.80281,2.04989 2.14787,2.25 5.45416,0.81145 4.58269,8.81955 -0.95977,8.81955 -1.57012,0 -3.15477,-0.3 -3.52144,-0.66666 z m 4.83334,-3.83334 c 0,-1.55833 -0.5625,-3.02083 -1.25,-3.25 -0.84849,-0.28282 -1.25,0.76111 -1.25,3.25 0,2.48889 0.40151,3.53283 1.25,3.25 0.6875,-0.22916 1.25,-1.69166 1.25,-3.25 z m 4.5,-2 c 0,-9.30205 2.68493,-9.30027 3.16467,0.002 0.2916,5.65417 0.10711,6.50183 -1.41467,6.5 -1.48697,-0.002 -1.75,-0.97909 -1.75,-6.5021 z m 6.25,5.83772 c -0.6875,-0.27741 -1.25,-2.01156 -1.25,-3.85366 0,-3.75227 2.96152,-5.5908 5.54798,-3.44423 2.28377,1.89536 1.73736,3.96017 -1.04798,3.96017 -3.11125,0 -3.25939,1.75922 -0.25,2.96884 2.03694,0.81875 2.06061,0.90292 0.25,0.88883 -1.1,-0.009 -2.5625,-0.24253 -3.25,-0.51995 z m 2.75,-5.89673 c 0,-0.85746 -0.45,-1.28091 -1,-0.94099 -0.55,0.33992 -1,1.04148 -1,1.55902 0,0.51754 0.45,0.94098 1,0.94098 0.55,0 1,-0.70155 1,-1.55901 z m 13.66666,5.89235 c -0.36666,-0.36667 -0.66666,-2.39167 -0.66666,-4.5 0,-5.72719 2.69322,-5.15837 3.15651,0.66666 0.3331,4.18822 -0.63874,5.68445 -2.48985,3.83334 z m 5.26544,0.41666 c -0.0373,-0.1375 -0.14984,-2.16284 -0.25,-4.50075 -0.24914,-5.8155 2.01015,-5.58654 2.47441,0.25075 0.27973,3.51717 -1.49996,6.91747 -2.22441,4.25 z m 4.0679,-0.65638 c 0,-0.49851 0.9,-0.67102 2,-0.38337 2.64652,0.69209 2.59213,-1.38754 -0.0583,-2.22875 -2.83822,-0.90081 -2.23314,-4.86909 0.8083,-5.30105 1.2375,-0.17575 2.25,0.14763 2.25,0.71862 0,0.57099 -0.675,0.77914 -1.5,0.46256 -2.20205,-0.845 -1.82865,0.95204 0.5,2.4063 2.39807,1.49762 2.60498,3.78594 0.41821,4.62508 -2.30711,0.88533 -4.41821,0.74227 -4.41821,-0.29939 z m 8.25,0.2441 c -0.6875,-0.27741 -1.25,-2.01156 -1.25,-3.85366 0,-3.75227 2.96152,-5.5908 5.54798,-3.44423 2.28377,1.89536 1.73736,3.96017 -1.04798,3.96017 -3.11125,0 -3.25939,1.75922 -0.25,2.96884 2.03694,0.81875 2.06061,0.90292 0.25,0.88883 -1.1,-0.009 -2.5625,-0.24253 -3.25,-0.51995 z m 2.75,-5.89673 c 0,-0.85746 -0.45,-1.28091 -1,-0.94099 -0.55,0.33992 -1,1.04148 -1,1.55902 0,0.51754 0.45,0.94098 1,0.94098 0.55,0 1,-0.70155 1,-1.55901 z m 4.5,2.05901 c 0,-2.93333 0.43518,-4.5 1.25,-4.5 0.6875,0 1.25,0.54 1.25,1.2 0,0.93334 0.26666,0.93334 1.2,0 1.59918,-1.59918 2.8,-1.51817 2.8,0.18889 0,0.76389 -0.7875,1.32639 -1.75,1.25 -1.33793,-0.10618 -1.74773,0.62639 -1.74034,3.11111 0.007,2.23574 -0.46147,3.25 -1.5,3.25 -1.12256,0 -1.50966,-1.15386 -1.50966,-4.5 z m -61.9573,-7.4309 c -0.68307,-1.10523 0.89441,-2.29865 1.81782,-1.37524 0.95078,0.95078 0.77358,2.30614 -0.30151,2.30614 -0.51754,0 -1.19988,-0.4189 -1.51631,-0.9309 z m 29.7073,-6.78535 c 1.5125,-0.22913 3.9875,-0.22913 5.5,0 1.5125,0.22912 0.275,0.41659 -2.75,0.41659 -3.025,0 -4.2625,-0.18747 -2.75,-0.41659 z m -54.87,-2.73586 c -0.78462,-2.04467 0.38577,-3.54789 2.76235,-3.54789 1.18796,0 1.84213,-0.51644 1.58335,-1.25 -0.24253,-0.6875 -1.18003,-1.1875 -2.08333,-1.11111 -0.90331,0.0764 -1.64237,-0.291 -1.64237,-0.81642 0,-0.52542 1.2375,-0.81292 2.75,-0.63889 3.06416,0.35257 5.52872,8.81642 2.56722,8.81642 -0.72447,0 -1.31722,-0.9 -1.31722,-2 0,-1.98694 -1.06494,-2.60172 -2.32466,-1.34201 -0.3619,0.3619 -0.1568,1.2619 0.45578,2 0.85538,1.03068 0.73009,1.34201 -0.54006,1.34201 -0.90961,0 -1.90459,-0.65345 -2.21106,-1.45211 z m 8.62,-3.04789 c 0,-3.18941 0.40753,-4.5 1.3993,-4.5 0.93875,0 1.51711,1.4811 1.75721,4.5 0.29919,3.76186 0.0697,4.5 -1.39931,4.5 -1.41595,0 -1.7572,-0.87392 -1.7572,-4.5 z m 5.78803,1.49084 c 0.24541,-1.67204 -0.15067,-3.72286 -0.89136,-4.61533 -1.15422,-1.39075 -1.06903,-1.55542 0.63516,-1.22773 2.67387,0.51415 4.04774,8.85222 1.45859,8.85222 -1.259,0 -1.5406,-0.70475 -1.20239,-3.00916 z m 4.21197,2.10278 c 0,-0.49851 0.9,-0.67102 2,-0.38337 2.64652,0.69209 2.59213,-1.38754 -0.0583,-2.22875 -2.83822,-0.90081 -2.23314,-4.86909 0.8083,-5.30105 1.2375,-0.17575 2.25,0.14763 2.25,0.71862 0,0.57099 -0.675,0.77914 -1.5,0.46256 -2.20205,-0.845 -1.82865,0.95204 0.5,2.4063 2.39807,1.49762 2.60498,3.78594 0.41821,4.62508 -2.30711,0.88533 -4.41821,0.74227 -4.41821,-0.29939 z m 7,-3.59362 c 0,-3.18941 0.40753,-4.5 1.3993,-4.5 0.93875,0 1.51711,1.4811 1.75721,4.5 0.29919,3.76186 0.0697,4.5 -1.39931,4.5 -1.41595,0 -1.7572,-0.87392 -1.7572,-4.5 z m 5.66666,3.83334 c -1.46172,-1.46173 -0.72715,-12.33334 0.83334,-12.33334 0.825,0 1.5,0.86871 1.5,1.93045 0,1.2089 0.80281,2.04989 2.14787,2.25 5.45416,0.81145 4.58269,8.81955 -0.95977,8.81955 -1.57012,0 -3.15477,-0.3 -3.52144,-0.66666 z m 4.83334,-3.83334 c 0,-1.55833 -0.5625,-3.02083 -1.25,-3.25 -0.84849,-0.28282 -1.25,0.76111 -1.25,3.25 0,2.48889 0.40151,3.53283 1.25,3.25 0.6875,-0.22916 1.25,-1.69166 1.25,-3.25 z m 4.5,-2 c 0,-9.30205 2.68493,-9.30027 3.16467,0.002 0.2916,5.65417 0.10711,6.50183 -1.41467,6.5 -1.48697,-0.002 -1.75,-0.97909 -1.75,-6.5021 z m 6.25,5.83772 c -0.6875,-0.27741 -1.25,-2.01156 -1.25,-3.85366 0,-3.75227 2.96152,-5.5908 5.54798,-3.44423 2.28377,1.89536 1.73736,3.96017 -1.04798,3.96017 -3.11125,0 -3.25939,1.75922 -0.25,2.96884 2.03694,0.81875 2.06061,0.90292 0.25,0.88883 -1.1,-0.009 -2.5625,-0.24253 -3.25,-0.51995 z m 2.75,-5.89673 c 0,-0.85746 -0.45,-1.28091 -1,-0.94099 -0.55,0.33992 -1,1.04148 -1,1.55902 0,0.51754 0.45,0.94098 1,0.94098 0.55,0 1,-0.70155 1,-1.55901 z m 13,0.059 c 0,-9.30205 2.68493,-9.30027 3.16467,0.002 0.2916,5.65417 0.10711,6.50183 -1.41467,6.5 -1.48697,-0.002 -1.75,-0.97909 -1.75,-6.5021 z m 5.78803,3.49084 c 0.24541,-1.67204 -0.15067,-3.72286 -0.89136,-4.61533 -1.15422,-1.39075 -1.06903,-1.55542 0.63516,-1.22773 2.67387,0.51415 4.04774,8.85222 1.45859,8.85222 -1.259,0 -1.5406,-0.70475 -1.20239,-3.00916 z m 5.46197,2.34688 c -1.59329,-0.6429 -1.62774,-5.55998 -0.05,-7.13772 3.3725,-3.3725 8.20717,1.30216 5.86769,5.67351 -1.08907,2.03495 -3.13016,2.54866 -5.81769,1.46421 z m 3.75,-3.92105 c 0,-2.42197 -0.40513,-3.44844 -1.25,-3.16713 -2.34963,0.78233 -2.15635,6.75046 0.21861,6.75046 0.56726,0 1.03139,-1.6125 1.03139,-3.58333 z m 4,3.67695 c 0,-0.49851 0.9,-0.67102 2,-0.38337 2.64652,0.69209 2.59213,-1.38754 -0.0583,-2.22875 -2.83822,-0.90081 -2.23314,-4.86909 0.8083,-5.30105 1.2375,-0.17575 2.25,0.14763 2.25,0.71862 0,0.57099 -0.675,0.77914 -1.5,0.46256 -2.20205,-0.845 -1.82865,0.95204 0.5,2.4063 2.39807,1.49762 2.60498,3.78594 0.41821,4.62508 -2.30711,0.88533 -4.41821,0.74227 -4.41821,-0.29939 z m 7.63028,-1.34362 c -1.50928,-5.63185 0.45732,-10.08262 3.15914,-7.14971 0.74452,0.80819 0.85017,1.39971 0.25,1.39971 -1.48423,0 -1.29105,6.73181 0.21058,7.33772 0.6875,0.27742 0.28998,0.53992 -0.88337,0.58334 -1.40473,0.052 -2.33931,-0.68953 -2.73635,-2.17106 z m -63.08758,-9.6809 c -0.68307,-1.10523 0.89441,-2.29865 1.81782,-1.37524 0.95078,0.95078 0.77358,2.30614 -0.30151,2.30614 -0.51754,0 -1.19988,-0.4189 -1.51631,-0.9309 z m 51.22459,-4.72298 c -0.25825,-0.46536 -0.42404,-3.31348 -0.36842,-6.32915 l 0.10113,-5.48304 3.58605,-0.5829 c 4.54525,-0.73881 4.4361,4.89232 -0.11944,6.16209 -2.44916,0.68266 -2.44693,0.68823 0.31477,0.7872 1.52976,0.0548 3.04041,0.77468 3.35699,1.59968 0.39703,1.03464 2.17119,1.54562 5.71862,1.64702 l 5.14301,0.14703 -5.5,0.79058 c -3.025,0.43482 -6.90921,1.08691 -8.63158,1.4491 -1.72237,0.36218 -3.34288,0.27776 -3.60113,-0.18761 z m 5.23271,-1.84612 c 0,-1.58922 -3.51233,-2.09809 -4.4138,-0.63948 -0.73847,1.19487 0.40084,2.13948 2.58046,2.13948 1.00834,0 1.83334,-0.675 1.83334,-1.5 z m -1,-7.5 c 0,-1.1 -0.42345,-2 -0.94099,-2 -1.34235,0 -2.28822,1.82013 -1.55901,3 1.04511,1.69104 2.5,1.10909 2.5,-1 z m -50.75,7.28375 c 1.5125,-0.22913 3.9875,-0.22913 5.5,0 1.5125,0.22912 0.275,0.41659 -2.75,0.41659 -3.025,0 -4.2625,-0.18747 -2.75,-0.41659 z m -54.87,-2.73586 c -0.78462,-2.04467 0.38577,-3.54789 2.76235,-3.54789 1.18796,0 1.84213,-0.51644 1.58335,-1.25 -0.24253,-0.6875 -1.18003,-1.1875 -2.08333,-1.11111 -0.90331,0.0764 -1.64237,-0.291 -1.64237,-0.81642 0,-0.52542 1.2375,-0.81292 2.75,-0.63889 3.06416,0.35257 5.52872,8.81642 2.56722,8.81642 -0.72447,0 -1.31722,-0.9 -1.31722,-2 0,-1.98694 -1.06494,-2.60172 -2.32466,-1.34201 -0.3619,0.3619 -0.1568,1.2619 0.45578,2 0.85538,1.03068 0.73009,1.34201 -0.54006,1.34201 -0.90961,0 -1.90459,-0.65345 -2.21106,-1.45211 z m 8.62,-3.04789 c 0,-3.18941 0.40753,-4.5 1.3993,-4.5 0.93875,0 1.51711,1.4811 1.75721,4.5 0.29919,3.76186 0.0697,4.5 -1.39931,4.5 -1.41595,0 -1.7572,-0.87392 -1.7572,-4.5 z m 5.78803,1.49084 c 0.24541,-1.67204 -0.15067,-3.72286 -0.89136,-4.61533 -1.15422,-1.39075 -1.06903,-1.55542 0.63516,-1.22773 2.67387,0.51415 4.04774,8.85222 1.45859,8.85222 -1.259,0 -1.5406,-0.70475 -1.20239,-3.00916 z m 4.21197,2.10278 c 0,-0.49851 0.9,-0.67102 2,-0.38337 2.64652,0.69209 2.59213,-1.38754 -0.0583,-2.22875 -2.83822,-0.90081 -2.23314,-4.86909 0.8083,-5.30105 1.2375,-0.17575 2.25,0.14763 2.25,0.71862 0,0.57099 -0.675,0.77914 -1.5,0.46256 -2.20205,-0.845 -1.82865,0.95204 0.5,2.4063 2.39807,1.49762 2.60498,3.78594 0.41821,4.62508 -2.30711,0.88533 -4.41821,0.74227 -4.41821,-0.29939 z m 7,-3.59362 c 0,-3.18941 0.40753,-4.5 1.3993,-4.5 0.93875,0 1.51711,1.4811 1.75721,4.5 0.29919,3.76186 0.0697,4.5 -1.39931,4.5 -1.41595,0 -1.7572,-0.87392 -1.7572,-4.5 z m 5.66666,3.83334 c -1.46172,-1.46173 -0.72715,-12.33334 0.83334,-12.33334 0.825,0 1.5,0.86871 1.5,1.93045 0,1.2089 0.80281,2.04989 2.14787,2.25 5.45416,0.81145 4.58269,8.81955 -0.95977,8.81955 -1.57012,0 -3.15477,-0.3 -3.52144,-0.66666 z m 4.83334,-3.83334 c 0,-1.55833 -0.5625,-3.02083 -1.25,-3.25 -0.84849,-0.28282 -1.25,0.76111 -1.25,3.25 0,2.48889 0.40151,3.53283 1.25,3.25 0.6875,-0.22916 1.25,-1.69166 1.25,-3.25 z m 4.5,-2 c 0,-9.30205 2.68493,-9.30027 3.16467,0.002 0.2916,5.65417 0.10711,6.50183 -1.41467,6.5 -1.48697,-0.002 -1.75,-0.97909 -1.75,-6.5021 z m 6.25,5.83772 c -0.6875,-0.27741 -1.25,-2.01156 -1.25,-3.85366 0,-3.75227 2.96152,-5.5908 5.54798,-3.44423 2.28377,1.89536 1.73736,3.96017 -1.04798,3.96017 -3.11125,0 -3.25939,1.75922 -0.25,2.96884 2.03694,0.81875 2.06061,0.90292 0.25,0.88883 -1.1,-0.009 -2.5625,-0.24253 -3.25,-0.51995 z m 2.75,-5.89673 c 0,-0.85746 -0.45,-1.28091 -1,-0.94099 -0.55,0.33992 -1,1.04148 -1,1.55902 0,0.51754 0.45,0.94098 1,0.94098 0.55,0 1,-0.70155 1,-1.55901 z m 14.2,5.35901 c -2.88111,-2.8811 -0.67391,-7.8 3.5,-7.8 1.55388,0 2.27439,0.5677 2.22105,1.75 -0.0472,1.04544 -0.28202,1.24674 -0.58333,0.5 -0.75906,-1.88115 -3.12312,-1.5015 -3.79301,0.60913 -0.78606,2.47666 0.2394,4.92474 2.29043,5.46795 1.26668,0.33547 1.17456,0.46866 -0.38514,0.55692 -1.1275,0.0638 -2.59,-0.424 -3.25,-1.084 z m 8.05,0.53772 c -1.59329,-0.6429 -1.62774,-5.55998 -0.05,-7.13772 3.3725,-3.3725 8.20717,1.30216 5.86769,5.67351 -1.08907,2.03495 -3.13016,2.54866 -5.81769,1.46421 z m 3.75,-3.92105 c 0,-2.42197 -0.40513,-3.44844 -1.25,-3.16713 -2.34963,0.78233 -2.15635,6.75046 0.21861,6.75046 0.56726,0 1.03139,-1.6125 1.03139,-3.58333 z m 4,0.0833 c 0,-3.18941 0.40753,-4.5 1.3993,-4.5 0.93875,0 1.51711,1.4811 1.75721,4.5 0.29919,3.76186 0.0697,4.5 -1.39931,4.5 -1.41595,0 -1.7572,-0.87392 -1.7572,-4.5 z m 5.78803,1.49084 c 0.24541,-1.67204 -0.15067,-3.72286 -0.89136,-4.61533 -1.15422,-1.39075 -1.06903,-1.55542 0.63516,-1.22773 2.67387,0.51415 4.04774,8.85222 1.45859,8.85222 -1.259,0 -1.5406,-0.70475 -1.20239,-3.00916 z m 4.01946,-1.24084 c -0.34292,-4.73965 1.55331,-8.79197 4.05752,-8.67105 1.0369,0.0501 1.17773,0.26345 0.38499,0.58333 -0.6875,0.27742 -1.25,1.14189 -1.25,1.92106 0,0.77916 0.5625,1.42355 1.25,1.43198 0.90874,0.0111 0.87521,0.25272 -0.12284,0.88493 -0.8971,0.56827 -1.22659,2.12238 -0.9508,4.48469 0.3422,2.93123 0.0926,3.61506 -1.31967,3.61506 -1.33416,0 -1.81365,-0.99446 -2.0492,-4.25 z m 6.19251,-0.25 c 0,-3.18941 0.40753,-4.5 1.3993,-4.5 0.93875,0 1.51711,1.4811 1.75721,4.5 0.29919,3.76186 0.0697,4.5 -1.39931,4.5 -1.41595,0 -1.7572,-0.87392 -1.7572,-4.5 z m 22.80749,0.25 c -0.34292,-4.73965 1.55331,-8.79197 4.05752,-8.67105 1.0369,0.0501 1.17773,0.26345 0.38499,0.58333 -0.6875,0.27742 -1.25,1.14189 -1.25,1.92106 0,0.77916 0.5625,1.42355 1.25,1.43198 0.90874,0.0111 0.87521,0.25272 -0.12284,0.88493 -0.8971,0.56827 -1.22659,2.12238 -0.9508,4.48469 0.3422,2.93123 0.0926,3.61506 -1.31967,3.61506 -1.33416,0 -1.81365,-0.99446 -2.0492,-4.25 z m 6.19251,-0.25 c 0,-3.18941 0.40753,-4.5 1.3993,-4.5 0.93875,0 1.51711,1.4811 1.75721,4.5 0.29919,3.76186 0.0697,4.5 -1.39931,4.5 -1.41595,0 -1.7572,-0.87392 -1.7572,-4.5 z m 5,-2 c 0,-9.30205 2.68493,-9.30027 3.16467,0.002 0.2916,5.65417 0.10711,6.50183 -1.41467,6.5 -1.48697,-0.002 -1.75,-0.97909 -1.75,-6.5021 z m 6.25,5.83772 c -0.6875,-0.27741 -1.25,-2.01156 -1.25,-3.85366 0,-3.75227 2.96152,-5.5908 5.54798,-3.44423 2.28377,1.89536 1.73736,3.96017 -1.04798,3.96017 -3.11125,0 -3.25939,1.75922 -0.25,2.96884 2.03694,0.81875 2.06061,0.90292 0.25,0.88883 -1.1,-0.009 -2.5625,-0.24253 -3.25,-0.51995 z m 2.75,-5.89673 c 0,-0.85746 -0.45,-1.28091 -1,-0.94099 -0.55,0.33992 -1,1.04148 -1,1.55902 0,0.51754 0.45,0.94098 1,0.94098 0.55,0 1,-0.70155 1,-1.55901 z m -112.4573,-5.37189 c -0.68307,-1.10523 0.89441,-2.29865 1.81782,-1.37524 0.95078,0.95078 0.77358,2.30614 -0.30151,2.30614 -0.51754,0 -1.19988,-0.4189 -1.51631,-0.9309 z m 70,0 c -0.68307,-1.10523 0.89441,-2.29865 1.81782,-1.37524 0.95078,0.95078 0.77358,2.30614 -0.30151,2.30614 -0.51754,0 -1.19988,-0.4189 -1.51631,-0.9309 z m 29,0 c -0.68307,-1.10523 0.89441,-2.29865 1.81782,-1.37524 0.95078,0.95078 0.77358,2.30614 -0.30151,2.30614 -0.51754,0 -1.19988,-0.4189 -1.51631,-0.9309 z m -107.2162,-6.81894 c 29.05458,-0.14736 76.30458,-0.14732 105,8e-5 28.69542,0.14739 4.9235,0.26796 -52.8265,0.26791 -57.75,-5e-5 -81.22808,-0.12064 -52.1735,-0.26799 z m 68.50556,-15.1692 -0.33206,-6.91905 4.3094,0.002 c 3.58546,0.002 4.49439,0.40837 5.41052,2.41905 1.61864,3.55253 -0.36906,7.41666 -3.81512,7.41666 -2.14574,0 -2.54046,0.37325 -2.11505,2 0.38186,1.46026 0.0307,2 -1.30131,2 -1.55799,0 -1.8728,-1.01011 -2.15638,-6.91904 z m 6.66794,-2.09465 c 0,-5.08515 -2.8936,-4.78001 -3.31549,0.34963 -0.26764,3.25409 -0.0401,3.7829 1.5,3.4863 1.33996,-0.25805 1.81549,-1.26279 1.81549,-3.83593 z m -106.21551,0.0137 -2.11244,-5 h 2.30286 c 1.26658,0 2.28197,0.5625 2.25644,1.25 -0.12807,3.44834 0.34771,4.81918 1.43859,4.14498 0.79764,-0.49298 0.95675,-0.16752 0.5,1.02277 -0.36847,0.9602 -0.66994,2.15902 -0.66994,2.66404 0,2.41367 -1.81251,0.42248 -3.71551,-4.08179 z m 6.06838,1.6138 c -1.30838,-2.7437 -1.45046,-3.91621 -0.58002,-4.78665 0.87043,-0.87043 1.43211,-0.43931 2.29297,1.76001 l 1.14014,2.91284 0.89896,-2.34235 c 0.49442,-1.28829 0.64652,-2.75079 0.338,-3.25 -0.30853,-0.49921 0.0971,-0.90765 0.90141,-0.90765 1.24899,0 1.21567,0.64993 -0.22834,4.45403 -2.32282,6.11924 -2.77681,6.3251 -4.76312,2.15977 z m 8.69731,1.94668 c -3.00337,-3.61885 0.95215,-10.30829 4.69982,-7.94818 2.89575,1.82362 2.79251,4.3877 -0.17668,4.3877 -3.244,0 -3.46447,2.70625 -0.32332,3.96884 2.19887,0.88384 2.19029,0.90583 -0.37756,0.96778 -1.44515,0.0349 -3.16517,-0.5844 -3.82226,-1.37614 z m 3.94982,-6.06048 c 0,-0.825 -0.45,-1.5 -1,-1.5 -0.55,0 -1,0.675 -1,1.5 0,0.825 0.45,1.5 1,1.5 0.55,0 1,-0.675 1,-1.5 z m 4.51758,6.25 c -1.45014,-4.31955 -0.94769,-13.75357 0.73242,-13.75182 1.50155,0.002 1.75,1.00601 1.75,7.07515 0,6.19626 0.21699,7.03217 1.75,6.74145 2.49124,-0.47245 2.95073,-5.82922 0.64465,-7.51546 -1.65947,-1.21344 -1.63442,-1.29932 0.37903,-1.29932 3.77305,0 5.52416,5.55931 2.65489,8.42858 -1.87316,1.87315 -7.31581,2.09429 -7.91099,0.32142 z m 13.23242,0.58772 c 0.7864,-0.31732 1.25,-2.53519 1.25,-5.98007 0,-4.05157 -0.3251,-5.311 -1.25,-4.84251 -0.6875,0.34825 -0.3765,-0.0752 0.69113,-0.94098 3.12088,-2.53088 3.55887,-1.93491 3.55887,4.84251 0,4.19766 0.43227,6.59109 1.25,6.92105 0.6875,0.27742 -0.55,0.50439 -2.75,0.50439 -2.2,0 -3.4375,-0.22697 -2.75,-0.50439 z m 9.91666,-0.004 c -1.15063,-1.15064 -0.72824,-2.33334 0.83334,-2.33334 0.825,0 1.5,0.675 1.5,1.5 0,1.56158 -1.1827,1.98397 -2.33334,0.83334 z m 5.38352,-0.77286 c -3.00337,-3.61885 0.95215,-10.30829 4.69982,-7.94818 2.89575,1.82362 2.79251,4.3877 -0.17668,4.3877 -3.244,0 -3.46447,2.70625 -0.32332,3.96884 2.19887,0.88384 2.19029,0.90583 -0.37756,0.96778 -1.44515,0.0349 -3.16517,-0.5844 -3.82226,-1.37614 z m 3.94982,-6.06048 c 0,-0.825 -0.45,-1.5 -1,-1.5 -0.55,0 -1,0.675 -1,1.5 0,0.825 0.45,1.5 1,1.5 0.55,0 1,-0.675 1,-1.5 z m 3.5,6.73469 c 3.13535,-2.3035 3.65294,-4.07163 1.95189,-6.66776 -1.62295,-2.47694 -1.60777,-2.56693 0.4331,-2.56693 1.33551,0 2.12673,0.64497 2.14681,1.75 0.0303,1.66667 0.0951,1.66667 1.36024,0 0.73064,-0.9625 1.91108,-1.75 2.62319,-1.75 0.87199,0 0.68113,0.67804 -0.58456,2.0766 -1.77987,1.96675 -1.79053,2.23127 -0.20149,5 1.66476,2.9007 1.65828,2.9234 -0.83471,2.9234 -1.38188,0 -2.25361,-0.4189 -1.93718,-0.9309 0.31643,-0.51199 0.11481,-1.21552 -0.44804,-1.56338 -0.56286,-0.34786 -1.29335,0.071 -1.62331,0.9309 -0.32995,0.85986 -1.33928,1.55649 -2.24293,1.54807 -0.94248,-0.009 -1.21664,-0.32856 -0.64301,-0.75 z m 11.86162,-0.73469 c -0.89308,-2.32733 0.36562,-4.5 2.60699,-4.5 1.13901,0 2.03139,-0.65894 2.03139,-1.5 0,-1.81154 -2.62819,-2.0084 -3.33772,-0.25 -0.292,0.72365 -0.53763,0.48643 -0.58334,-0.56335 -0.21325,-4.89816 6.38218,-1.52486 6.96702,3.56335 l 0.54597,4.75 h -3.82735 c -2.4796,0 -4.03004,-0.5282 -4.40296,-1.5 z m 4.63838,-1.5 c 0,-1.1 -0.45,-2 -1,-2 -0.55,0 -1,0.9 -1,2 0,1.1 0.45,2 1,2 0.55,0 1,-0.9 1,-2 z m 6.5,-2.02517 c 0,-3.73791 0.35335,-4.95469 1.3794,-4.75 2.04352,0.40766 2.15909,9.777 0.1206,9.77595 -1.13424,-5.9e-4 -1.5,-1.22614 -1.5,-5.02595 z m 5.27688,0.27517 c -0.49706,-5.56183 -0.47914,-5.60766 1.89776,-4.85326 2.53307,0.80396 2.69439,9.60326 0.17605,9.60326 -1.24135,0 -1.75431,-1.17492 -2.07381,-4.75 z m 6.22312,1.33179 c 0,-1.88002 -0.29066,-4.17566 -0.64591,-5.10142 -0.48689,-1.26881 -0.17915,-1.59389 1.25,-1.32038 2.75605,0.52744 3.88404,9.84001 1.19187,9.84001 -1.37768,0 -1.79596,-0.79611 -1.79596,-3.41821 z m 18,-4.08179 c 0,-10.81453 2.69672,-10.81255 3.17099,0.002 0.28963,6.60443 0.11956,7.50205 -1.42099,7.5 -1.51091,-0.002 -1.75,-1.02702 -1.75,-7.50233 z m 7.05018,6.06048 c -3.00337,-3.61885 0.95215,-10.30829 4.69982,-7.94818 2.89575,1.82362 2.79251,4.3877 -0.17668,4.3877 -3.244,0 -3.46447,2.70625 -0.32332,3.96884 2.19887,0.88384 2.19029,0.90583 -0.37756,0.96778 -1.44515,0.0349 -3.16517,-0.5844 -3.82226,-1.37614 z m 3.94982,-6.06048 c 0,-0.825 -0.45,-1.5 -1,-1.5 -0.55,0 -1,0.675 -1,1.5 0,0.825 0.45,1.5 1,1.5 0.55,0 1,-0.675 1,-1.5 z m 4.66666,6.83334 c -1.15063,-1.15064 -0.72824,-2.33334 0.83334,-2.33334 0.825,0 1.5,0.675 1.5,1.5 0,1.56158 -1.1827,1.98397 -2.33334,0.83334 z m 5.53334,-0.53334 c -1.65407,-1.65406 -1.5073,-6.30007 0.24495,-7.75432 1.87166,-1.55333 5.7586,-0.97277 6.38934,0.95432 0.41604,1.27112 0.24394,1.29613 -1.12787,0.16391 -2.2102,-1.82418 -3.70642,-0.64246 -3.70642,2.92733 0,2.1487 0.62396,3.22401 2.25,3.8776 2.22343,0.89371 2.21989,0.90514 -0.3,0.96778 -1.4025,0.0349 -3.09,-0.47662 -3.75,-1.13662 z m 9,0 c -2.78622,-2.78621 -0.78488,-8.8 2.92857,-8.8 2.27415,0 4.87143,2.66583 4.87143,5 0,3.93677 -5.15287,6.44714 -7.8,3.8 z m 4.3,-3.8 c 0,-1.83333 -0.5625,-3.52083 -1.25,-3.75 -0.86667,-0.28889 -1.25,0.86111 -1.25,3.75 0,2.88889 0.38333,4.03889 1.25,3.75 0.6875,-0.22916 1.25,-1.91666 1.25,-3.75 z m 6,-0.0252 c 0,-3.73791 0.35335,-4.95469 1.3794,-4.75 2.04352,0.40766 2.15909,9.777 0.1206,9.77595 -1.13424,-5.9e-4 -1.5,-1.22614 -1.5,-5.02595 z m 5.27688,0.27517 c -0.49706,-5.56183 -0.47914,-5.60766 1.89776,-4.85326 2.53307,0.80396 2.69439,9.60326 0.17605,9.60326 -1.24135,0 -1.75431,-1.17492 -2.07381,-4.75 z m 6.22312,1.33179 c 0,-1.88002 -0.29066,-4.17566 -0.64591,-5.10142 -0.48689,-1.26881 -0.17915,-1.59389 1.25,-1.32038 2.75605,0.52744 3.88404,9.84001 1.19187,9.84001 -1.37768,0 -1.79596,-0.79611 -1.79596,-3.41821 z m -34,-97.09028 v -23.5085 l -47,0.0371 -47,0.0371 v 23.47137 23.47136 h 47 47 z m -63.71551,-1.49151 -2.11244,-5 h 2.30286 c 1.26658,0 2.28197,0.5625 2.25644,1.25 -0.12807,3.44834 0.34771,4.81918 1.43859,4.14498 0.79764,-0.49298 0.95675,-0.16752 0.5,1.02277 -0.36847,0.9602 -0.66994,2.15902 -0.66994,2.66404 0,2.41367 -1.81251,0.42248 -3.71551,-4.08179 z m 6.06838,1.6138 c -1.30838,-2.7437 -1.45046,-3.91621 -0.58002,-4.78665 0.87043,-0.87043 1.43211,-0.43931 2.29297,1.76001 l 1.14014,2.91284 0.89896,-2.34235 c 0.49442,-1.28829 0.64652,-2.75079 0.338,-3.25 -0.30853,-0.49921 0.0971,-0.90765 0.90141,-0.90765 1.24899,0 1.21567,0.64993 -0.22834,4.45403 -2.32282,6.11924 -2.77681,6.3251 -4.76312,2.15977 z m 8.69731,1.94668 c -3.00337,-3.61885 0.95215,-10.30829 4.69982,-7.94818 2.89575,1.82362 2.79251,4.3877 -0.17668,4.3877 -3.244,0 -3.46447,2.70625 -0.32332,3.96884 2.19887,0.88384 2.19029,0.90583 -0.37756,0.96778 -1.44515,0.0349 -3.16517,-0.5844 -3.82226,-1.37614 z m 3.94982,-6.06048 c 0,-0.825 -0.45,-1.5 -1,-1.5 -0.55,0 -1,0.675 -1,1.5 0,0.825 0.45,1.5 1,1.5 0.55,0 1,-0.675 1,-1.5 z m 4.51758,6.25 c -1.45014,-4.31955 -0.94769,-13.75357 0.73242,-13.75182 1.50155,0.002 1.75,1.00601 1.75,7.07515 0,6.19626 0.21699,7.03217 1.75,6.74145 2.49124,-0.47245 2.95073,-5.82922 0.64465,-7.51546 -1.65947,-1.21344 -1.63442,-1.29932 0.37903,-1.29932 3.77305,0 5.52416,5.55931 2.65489,8.42858 -1.87316,1.87315 -7.31581,2.09429 -7.91099,0.32142 z m 143.48242,184.12928 c -3.19445,-1.27006 -7.77536,-5.6075 -9.58928,-9.07962 -1.15326,-2.20751 -1.41072,-10.89481 -1.41072,-47.59996 v -44.89962 l 2.98028,-4.11416 c 6.01588,-8.30469 -3.06464,-7.64858 110.51972,-7.98561 108.28344,-0.3213 105.89591,-0.42562 111.95167,4.8914 6.58699,5.78346 6.66427,6.44769 6.33952,54.48502 l -0.29119,43.0725 -2.68402,4.05424 c -5.89757,8.90835 2.40932,8.30515 -113.38171,8.23315 -65.0461,-0.0404 -102.83898,-0.42308 -104.43427,-1.05734 z m 210.03004,-2.12928 c 2.4496,-1.2375 5.46995,-3.77904 6.71188,-5.64788 l 2.25808,-3.39788 v -45.04024 c 0,-50.43977 0.31738,-48.167 -7.47171,-53.50417 l -3.15205,-2.15983 H 616.42179 512.88155 l -3.37408,2.2738 c -1.85575,1.25059 -4.3973,3.79214 -5.64789,5.64788 l -2.27379,3.37409 0.004,44.10212 c 0.004,47.9758 -0.0403,47.58005 5.87285,52.38626 5.20736,4.23255 2.6866,4.13566 108.66153,4.17671 l 101.03811,0.0391 z m -96.78004,-11.46625 c 1.5125,-0.22913 3.9875,-0.22913 5.5,0 1.5125,0.22912 0.275,0.41659 -2.75,0.41659 -3.025,0 -4.2625,-0.18747 -2.75,-0.41659 z m -54.87,-2.73586 c -0.78462,-2.04467 0.38577,-3.54789 2.76235,-3.54789 1.18796,0 1.84213,-0.51644 1.58335,-1.25 -0.24253,-0.6875 -1.18003,-1.1875 -2.08333,-1.11111 -0.90331,0.0764 -1.64237,-0.291 -1.64237,-0.81642 0,-0.52542 1.2375,-0.81292 2.75,-0.63889 3.06416,0.35257 5.52872,8.81642 2.56722,8.81642 -0.72447,0 -1.31722,-0.9 -1.31722,-2 0,-1.98694 -1.06494,-2.60172 -2.32466,-1.34201 -0.3619,0.3619 -0.1568,1.2619 0.45578,2 0.85538,1.03068 0.73009,1.34201 -0.54006,1.34201 -0.90961,0 -1.90459,-0.65345 -2.21106,-1.45211 z m 8.62,-3.04789 c 0,-3.18941 0.40753,-4.5 1.3993,-4.5 0.93875,0 1.51711,1.4811 1.75721,4.5 0.29919,3.76186 0.0697,4.5 -1.39931,4.5 -1.41595,0 -1.7572,-0.87392 -1.7572,-4.5 z m 5.78803,1.49084 c 0.24541,-1.67204 -0.15067,-3.72286 -0.89136,-4.61533 -1.15422,-1.39075 -1.06903,-1.55542 0.63516,-1.22773 2.67387,0.51415 4.04774,8.85222 1.45859,8.85222 -1.259,0 -1.5406,-0.70475 -1.20239,-3.00916 z m 4.21197,2.10278 c 0,-0.49851 0.9,-0.67102 2,-0.38337 2.64652,0.69209 2.59213,-1.38754 -0.0583,-2.22875 -2.83822,-0.90081 -2.23314,-4.86909 0.8083,-5.30105 1.2375,-0.17575 2.25,0.14763 2.25,0.71862 0,0.57099 -0.675,0.77914 -1.5,0.46256 -2.20205,-0.845 -1.82865,0.95204 0.5,2.4063 2.39807,1.49762 2.60498,3.78594 0.41821,4.62508 -2.30711,0.88533 -4.41821,0.74227 -4.41821,-0.29939 z m 7,-3.59362 c 0,-3.18941 0.40753,-4.5 1.3993,-4.5 0.93875,0 1.51711,1.4811 1.75721,4.5 0.29919,3.76186 0.0697,4.5 -1.39931,4.5 -1.41595,0 -1.7572,-0.87392 -1.7572,-4.5 z m 5.66666,3.83334 c -1.46172,-1.46173 -0.72715,-12.33334 0.83334,-12.33334 0.825,0 1.5,0.86871 1.5,1.93045 0,1.2089 0.80281,2.04989 2.14787,2.25 5.45416,0.81145 4.58269,8.81955 -0.95977,8.81955 -1.57012,0 -3.15477,-0.3 -3.52144,-0.66666 z m 4.83334,-3.83334 c 0,-1.55833 -0.5625,-3.02083 -1.25,-3.25 -0.84849,-0.28282 -1.25,0.76111 -1.25,3.25 0,2.48889 0.40151,3.53283 1.25,3.25 0.6875,-0.22916 1.25,-1.69166 1.25,-3.25 z m 4.5,-2 c 0,-9.30205 2.68493,-9.30027 3.16467,0.002 0.2916,5.65417 0.10711,6.50183 -1.41467,6.5 -1.48697,-0.002 -1.75,-0.97909 -1.75,-6.5021 z m 6.25,5.83772 c -0.6875,-0.27741 -1.25,-2.01156 -1.25,-3.85366 0,-3.75227 2.96152,-5.5908 5.54798,-3.44423 2.28377,1.89536 1.73736,3.96017 -1.04798,3.96017 -3.11125,0 -3.25939,1.75922 -0.25,2.96884 2.03694,0.81875 2.06061,0.90292 0.25,0.88883 -1.1,-0.009 -2.5625,-0.24253 -3.25,-0.51995 z m 2.75,-5.89673 c 0,-0.85746 -0.45,-1.28091 -1,-0.94099 -0.55,0.33992 -1,1.04148 -1,1.55902 0,0.51754 0.45,0.94098 1,0.94098 0.55,0 1,-0.70155 1,-1.55901 z m 13.66666,5.89235 c -0.36666,-0.36667 -0.66666,-2.39167 -0.66666,-4.5 0,-5.72719 2.69322,-5.15837 3.15651,0.66666 0.3331,4.18822 -0.63874,5.68445 -2.48985,3.83334 z m 5.26544,0.41666 c -0.0373,-0.1375 -0.14984,-2.16284 -0.25,-4.50075 -0.24914,-5.8155 2.01015,-5.58654 2.47441,0.25075 0.27973,3.51717 -1.49996,6.91747 -2.22441,4.25 z m 4.0679,-0.65638 c 0,-0.49851 0.9,-0.67102 2,-0.38337 2.64652,0.69209 2.59213,-1.38754 -0.0583,-2.22875 -2.83822,-0.90081 -2.23314,-4.86909 0.8083,-5.30105 1.2375,-0.17575 2.25,0.14763 2.25,0.71862 0,0.57099 -0.675,0.77914 -1.5,0.46256 -2.20205,-0.845 -1.82865,0.95204 0.5,2.4063 2.39807,1.49762 2.60498,3.78594 0.41821,4.62508 -2.30711,0.88533 -4.41821,0.74227 -4.41821,-0.29939 z m 8.25,0.2441 c -0.6875,-0.27741 -1.25,-2.01156 -1.25,-3.85366 0,-3.75227 2.96152,-5.5908 5.54798,-3.44423 2.28377,1.89536 1.73736,3.96017 -1.04798,3.96017 -3.11125,0 -3.25939,1.75922 -0.25,2.96884 2.03694,0.81875 2.06061,0.90292 0.25,0.88883 -1.1,-0.009 -2.5625,-0.24253 -3.25,-0.51995 z m 2.75,-5.89673 c 0,-0.85746 -0.45,-1.28091 -1,-0.94099 -0.55,0.33992 -1,1.04148 -1,1.55902 0,0.51754 0.45,0.94098 1,0.94098 0.55,0 1,-0.70155 1,-1.55901 z m 4.5,2.05901 c 0,-2.93333 0.43518,-4.5 1.25,-4.5 0.6875,0 1.25,0.54 1.25,1.2 0,0.93334 0.26666,0.93334 1.2,0 1.59918,-1.59918 2.8,-1.51817 2.8,0.18889 0,0.76389 -0.7875,1.32639 -1.75,1.25 -1.33793,-0.10618 -1.74773,0.62639 -1.74034,3.11111 0.007,2.23574 -0.46147,3.25 -1.5,3.25 -1.12256,0 -1.50966,-1.15386 -1.50966,-4.5 z m -61.9573,-7.4309 c -0.68307,-1.10523 0.89441,-2.29865 1.81782,-1.37524 0.95078,0.95078 0.77358,2.30614 -0.30151,2.30614 -0.51754,0 -1.19988,-0.4189 -1.51631,-0.9309 z m 28.7073,-6.78535 c 1.5125,-0.22913 3.9875,-0.22913 5.5,0 1.5125,0.22912 0.275,0.41659 -2.75,0.41659 -3.025,0 -4.2625,-0.18747 -2.75,-0.41659 z m -54.87,-2.73586 c -0.78462,-2.04467 0.38577,-3.54789 2.76235,-3.54789 1.18796,0 1.84213,-0.51644 1.58335,-1.25 -0.24253,-0.6875 -1.18003,-1.1875 -2.08333,-1.11111 -0.90331,0.0764 -1.64237,-0.291 -1.64237,-0.81642 0,-0.52542 1.2375,-0.81292 2.75,-0.63889 3.06416,0.35257 5.52872,8.81642 2.56722,8.81642 -0.72447,0 -1.31722,-0.9 -1.31722,-2 0,-1.98694 -1.06494,-2.60172 -2.32466,-1.34201 -0.3619,0.3619 -0.1568,1.2619 0.45578,2 0.85538,1.03068 0.73009,1.34201 -0.54006,1.34201 -0.90961,0 -1.90459,-0.65345 -2.21106,-1.45211 z m 8.62,-3.04789 c 0,-3.18941 0.40753,-4.5 1.3993,-4.5 0.93875,0 1.51711,1.4811 1.75721,4.5 0.29919,3.76186 0.0697,4.5 -1.39931,4.5 -1.41595,0 -1.7572,-0.87392 -1.7572,-4.5 z m 5.78803,1.49084 c 0.24541,-1.67204 -0.15067,-3.72286 -0.89136,-4.61533 -1.15422,-1.39075 -1.06903,-1.55542 0.63516,-1.22773 2.67387,0.51415 4.04774,8.85222 1.45859,8.85222 -1.259,0 -1.5406,-0.70475 -1.20239,-3.00916 z m 4.21197,2.10278 c 0,-0.49851 0.9,-0.67102 2,-0.38337 2.64652,0.69209 2.59213,-1.38754 -0.0583,-2.22875 -2.83822,-0.90081 -2.23314,-4.86909 0.8083,-5.30105 1.2375,-0.17575 2.25,0.14763 2.25,0.71862 0,0.57099 -0.675,0.77914 -1.5,0.46256 -2.20205,-0.845 -1.82865,0.95204 0.5,2.4063 2.39807,1.49762 2.60498,3.78594 0.41821,4.62508 -2.30711,0.88533 -4.41821,0.74227 -4.41821,-0.29939 z m 7,-3.59362 c 0,-3.18941 0.40753,-4.5 1.3993,-4.5 0.93875,0 1.51711,1.4811 1.75721,4.5 0.29919,3.76186 0.0697,4.5 -1.39931,4.5 -1.41595,0 -1.7572,-0.87392 -1.7572,-4.5 z m 5.66666,3.83334 c -1.46172,-1.46173 -0.72715,-12.33334 0.83334,-12.33334 0.825,0 1.5,0.86871 1.5,1.93045 0,1.2089 0.80281,2.04989 2.14787,2.25 5.45416,0.81145 4.58269,8.81955 -0.95977,8.81955 -1.57012,0 -3.15477,-0.3 -3.52144,-0.66666 z m 4.83334,-3.83334 c 0,-1.55833 -0.5625,-3.02083 -1.25,-3.25 -0.84849,-0.28282 -1.25,0.76111 -1.25,3.25 0,2.48889 0.40151,3.53283 1.25,3.25 0.6875,-0.22916 1.25,-1.69166 1.25,-3.25 z m 4.5,-2 c 0,-9.30205 2.68493,-9.30027 3.16467,0.002 0.2916,5.65417 0.10711,6.50183 -1.41467,6.5 -1.48697,-0.002 -1.75,-0.97909 -1.75,-6.5021 z m 6.25,5.83772 c -0.6875,-0.27741 -1.25,-2.01156 -1.25,-3.85366 0,-3.75227 2.96152,-5.5908 5.54798,-3.44423 2.28377,1.89536 1.73736,3.96017 -1.04798,3.96017 -3.11125,0 -3.25939,1.75922 -0.25,2.96884 2.03694,0.81875 2.06061,0.90292 0.25,0.88883 -1.1,-0.009 -2.5625,-0.24253 -3.25,-0.51995 z m 2.75,-5.89673 c 0,-0.85746 -0.45,-1.28091 -1,-0.94099 -0.55,0.33992 -1,1.04148 -1,1.55902 0,0.51754 0.45,0.94098 1,0.94098 0.55,0 1,-0.70155 1,-1.55901 z m 13,0.059 c 0,-9.30205 2.68493,-9.30027 3.16467,0.002 0.2916,5.65417 0.10711,6.50183 -1.41467,6.5 -1.48697,-0.002 -1.75,-0.97909 -1.75,-6.5021 z m 5.78803,3.49084 c 0.24541,-1.67204 -0.15067,-3.72286 -0.89136,-4.61533 -1.15422,-1.39075 -1.06903,-1.55542 0.63516,-1.22773 2.67387,0.51415 4.04774,8.85222 1.45859,8.85222 -1.259,0 -1.5406,-0.70475 -1.20239,-3.00916 z m 5.46197,2.34688 c -1.59329,-0.6429 -1.62774,-5.55998 -0.05,-7.13772 3.3725,-3.3725 8.20717,1.30216 5.86769,5.67351 -1.08907,2.03495 -3.13016,2.54866 -5.81769,1.46421 z m 3.75,-3.92105 c 0,-2.42197 -0.40513,-3.44844 -1.25,-3.16713 -2.34963,0.78233 -2.15635,6.75046 0.21861,6.75046 0.56726,0 1.03139,-1.6125 1.03139,-3.58333 z m 4,3.67695 c 0,-0.49851 0.9,-0.67102 2,-0.38337 2.64652,0.69209 2.59213,-1.38754 -0.0583,-2.22875 -2.83822,-0.90081 -2.23314,-4.86909 0.8083,-5.30105 1.2375,-0.17575 2.25,0.14763 2.25,0.71862 0,0.57099 -0.675,0.77914 -1.5,0.46256 -2.20205,-0.845 -1.82865,0.95204 0.5,2.4063 2.39807,1.49762 2.60498,3.78594 0.41821,4.62508 -2.30711,0.88533 -4.41821,0.74227 -4.41821,-0.29939 z m 7.63028,-1.34362 c -1.50928,-5.63185 0.45732,-10.08262 3.15914,-7.14971 0.74452,0.80819 0.85017,1.39971 0.25,1.39971 -1.48423,0 -1.29105,6.73181 0.21058,7.33772 0.6875,0.27742 0.28998,0.53992 -0.88337,0.58334 -1.40473,0.052 -2.33931,-0.68953 -2.73635,-2.17106 z m -63.08758,-9.6809 c -0.68307,-1.10523 0.89441,-2.29865 1.81782,-1.37524 0.95078,0.95078 0.77358,2.30614 -0.30151,2.30614 -0.51754,0 -1.19988,-0.4189 -1.51631,-0.9309 z m 51.22459,-4.72298 c -0.25825,-0.46536 -0.42404,-3.31348 -0.36842,-6.32915 l 0.10113,-5.48304 3.58605,-0.5829 c 4.54525,-0.73881 4.4361,4.89232 -0.11944,6.16209 -2.44916,0.68266 -2.44693,0.68823 0.31477,0.7872 1.52976,0.0548 3.04041,0.77468 3.35699,1.59968 0.39703,1.03464 2.17119,1.54562 5.71862,1.64702 l 5.14301,0.14703 -5.5,0.79058 c -3.025,0.43482 -6.90921,1.08691 -8.63158,1.4491 -1.72237,0.36218 -3.34288,0.27776 -3.60113,-0.18761 z m 5.23271,-1.84612 c 0,-1.58922 -3.51233,-2.09809 -4.4138,-0.63948 -0.73847,1.19487 0.40084,2.13948 2.58046,2.13948 1.00834,0 1.83334,-0.675 1.83334,-1.5 z m -1,-7.5 c 0,-2.10908 -1.45489,-2.69103 -2.5,-1 -0.72921,1.17988 0.21666,3 1.55901,3 0.51754,0 0.94099,-0.9 0.94099,-2 z m -50.75,7.28375 c 1.5125,-0.22913 3.9875,-0.22913 5.5,0 1.5125,0.22912 0.275,0.41659 -2.75,0.41659 -3.025,0 -4.2625,-0.18747 -2.75,-0.41659 z m -54.87,-2.73586 c -0.78462,-2.04467 0.38577,-3.54789 2.76235,-3.54789 1.18796,0 1.84213,-0.51644 1.58335,-1.25 -0.24253,-0.6875 -1.18003,-1.1875 -2.08333,-1.11111 -0.90331,0.0764 -1.64237,-0.291 -1.64237,-0.81642 0,-0.52542 1.2375,-0.81292 2.75,-0.63889 3.06416,0.35257 5.52872,8.81642 2.56722,8.81642 -0.72447,0 -1.31722,-0.9 -1.31722,-2 0,-1.98694 -1.06494,-2.60172 -2.32466,-1.34201 -0.3619,0.3619 -0.1568,1.2619 0.45578,2 0.85538,1.03068 0.73009,1.34201 -0.54006,1.34201 -0.90961,0 -1.90459,-0.65345 -2.21106,-1.45211 z m 8.62,-3.04789 c 0,-3.18941 0.40753,-4.5 1.3993,-4.5 0.93875,0 1.51711,1.4811 1.75721,4.5 0.29919,3.76186 0.0697,4.5 -1.39931,4.5 -1.41595,0 -1.7572,-0.87392 -1.7572,-4.5 z m 5.78803,1.49084 c 0.24541,-1.67204 -0.15067,-3.72286 -0.89136,-4.61533 -1.15422,-1.39075 -1.06903,-1.55542 0.63516,-1.22773 2.67387,0.51415 4.04774,8.85222 1.45859,8.85222 -1.259,0 -1.5406,-0.70475 -1.20239,-3.00916 z m 4.21197,2.10278 c 0,-0.49851 0.9,-0.67102 2,-0.38337 2.64652,0.69209 2.59213,-1.38754 -0.0583,-2.22875 -2.83822,-0.90081 -2.23314,-4.86909 0.8083,-5.30105 1.2375,-0.17575 2.25,0.14763 2.25,0.71862 0,0.57099 -0.675,0.77914 -1.5,0.46256 -2.20205,-0.845 -1.82865,0.95204 0.5,2.4063 2.39807,1.49762 2.60498,3.78594 0.41821,4.62508 -2.30711,0.88533 -4.41821,0.74227 -4.41821,-0.29939 z m 7,-3.59362 c 0,-3.18941 0.40753,-4.5 1.3993,-4.5 0.93875,0 1.51711,1.4811 1.75721,4.5 0.29919,3.76186 0.0697,4.5 -1.39931,4.5 -1.41595,0 -1.7572,-0.87392 -1.7572,-4.5 z m 5.66666,3.83334 c -1.46172,-1.46173 -0.72715,-12.33334 0.83334,-12.33334 0.825,0 1.5,0.86871 1.5,1.93045 0,1.2089 0.80281,2.04989 2.14787,2.25 5.45416,0.81145 4.58269,8.81955 -0.95977,8.81955 -1.57012,0 -3.15477,-0.3 -3.52144,-0.66666 z m 4.83334,-3.83334 c 0,-1.55833 -0.5625,-3.02083 -1.25,-3.25 -0.84849,-0.28282 -1.25,0.76111 -1.25,3.25 0,2.48889 0.40151,3.53283 1.25,3.25 0.6875,-0.22916 1.25,-1.69166 1.25,-3.25 z m 4.5,-2 c 0,-9.30205 2.68493,-9.30027 3.16467,0.002 0.2916,5.65417 0.10711,6.50183 -1.41467,6.5 -1.48697,-0.002 -1.75,-0.97909 -1.75,-6.5021 z m 6.25,5.83772 c -0.6875,-0.27741 -1.25,-2.01156 -1.25,-3.85366 0,-3.75227 2.96152,-5.5908 5.54798,-3.44423 2.28377,1.89536 1.73736,3.96017 -1.04798,3.96017 -3.11125,0 -3.25939,1.75922 -0.25,2.96884 2.03694,0.81875 2.06061,0.90292 0.25,0.88883 -1.1,-0.009 -2.5625,-0.24253 -3.25,-0.51995 z m 2.75,-5.89673 c 0,-0.85746 -0.45,-1.28091 -1,-0.94099 -0.55,0.33992 -1,1.04148 -1,1.55902 0,0.51754 0.45,0.94098 1,0.94098 0.55,0 1,-0.70155 1,-1.55901 z m 14.2,5.35901 c -2.88111,-2.8811 -0.67391,-7.8 3.5,-7.8 1.55388,0 2.27439,0.5677 2.22105,1.75 -0.0472,1.04544 -0.28202,1.24674 -0.58333,0.5 -0.75906,-1.88115 -3.12312,-1.5015 -3.79301,0.60913 -0.78606,2.47666 0.2394,4.92474 2.29043,5.46795 1.26668,0.33547 1.17456,0.46866 -0.38514,0.55692 -1.1275,0.0638 -2.59,-0.424 -3.25,-1.084 z m 8.05,0.53772 c -1.59329,-0.6429 -1.62774,-5.55998 -0.05,-7.13772 3.3725,-3.3725 8.20717,1.30216 5.86769,5.67351 -1.08907,2.03495 -3.13016,2.54866 -5.81769,1.46421 z m 3.75,-3.92105 c 0,-2.42197 -0.40513,-3.44844 -1.25,-3.16713 -2.34963,0.78233 -2.15635,6.75046 0.21861,6.75046 0.56726,0 1.03139,-1.6125 1.03139,-3.58333 z m 4,0.0833 c 0,-3.18941 0.40753,-4.5 1.3993,-4.5 0.93875,0 1.51711,1.4811 1.75721,4.5 0.29919,3.76186 0.0697,4.5 -1.39931,4.5 -1.41595,0 -1.7572,-0.87392 -1.7572,-4.5 z m 5.78803,1.49084 c 0.24541,-1.67204 -0.15067,-3.72286 -0.89136,-4.61533 -1.15422,-1.39075 -1.06903,-1.55542 0.63516,-1.22773 2.67387,0.51415 4.04774,8.85222 1.45859,8.85222 -1.259,0 -1.5406,-0.70475 -1.20239,-3.00916 z m 4.01946,-1.24084 c -0.34292,-4.73965 1.55331,-8.79197 4.05752,-8.67105 1.0369,0.0501 1.17773,0.26345 0.38499,0.58333 -0.6875,0.27742 -1.25,1.14189 -1.25,1.92106 0,0.77916 0.5625,1.42355 1.25,1.43198 0.90874,0.0111 0.87521,0.25272 -0.12284,0.88493 -0.8971,0.56827 -1.22659,2.12238 -0.9508,4.48469 0.3422,2.93123 0.0926,3.61506 -1.31967,3.61506 -1.33416,0 -1.81365,-0.99446 -2.0492,-4.25 z m 6.19251,-0.25 c 0,-3.18941 0.40753,-4.5 1.3993,-4.5 0.93875,0 1.51711,1.4811 1.75721,4.5 0.29919,3.76186 0.0697,4.5 -1.39931,4.5 -1.41595,0 -1.7572,-0.87392 -1.7572,-4.5 z m 22.80749,0.25 c -0.34292,-4.73965 1.55331,-8.79197 4.05752,-8.67105 1.0369,0.0501 1.17773,0.26345 0.38499,0.58333 -0.6875,0.27742 -1.25,1.14189 -1.25,1.92106 0,0.77916 0.5625,1.42355 1.25,1.43198 0.90874,0.0111 0.87521,0.25272 -0.12284,0.88493 -0.8971,0.56827 -1.22659,2.12238 -0.9508,4.48469 0.3422,2.93123 0.0926,3.61506 -1.31967,3.61506 -1.33416,0 -1.81365,-0.99446 -2.0492,-4.25 z m 6.19251,-0.25 c 0,-3.18941 0.40753,-4.5 1.3993,-4.5 0.93875,0 1.51711,1.4811 1.75721,4.5 0.29919,3.76186 0.0697,4.5 -1.39931,4.5 -1.41595,0 -1.7572,-0.87392 -1.7572,-4.5 z m 5,-2 c 0,-9.30205 2.68493,-9.30027 3.16467,0.002 0.2916,5.65417 0.10711,6.50183 -1.41467,6.5 -1.48697,-0.002 -1.75,-0.97909 -1.75,-6.5021 z m 6.25,5.83772 c -0.6875,-0.27741 -1.25,-2.01156 -1.25,-3.85366 0,-3.75227 2.96152,-5.5908 5.54798,-3.44423 2.28377,1.89536 1.73736,3.96017 -1.04798,3.96017 -3.11125,0 -3.25939,1.75922 -0.25,2.96884 2.03694,0.81875 2.06061,0.90292 0.25,0.88883 -1.1,-0.009 -2.5625,-0.24253 -3.25,-0.51995 z m 2.75,-5.89673 c 0,-0.85746 -0.45,-1.28091 -1,-0.94099 -0.55,0.33992 -1,1.04148 -1,1.55902 0,0.51754 0.45,0.94098 1,0.94098 0.55,0 1,-0.70155 1,-1.55901 z m -112.4573,-5.37189 c -0.68307,-1.10523 0.89441,-2.29865 1.81782,-1.37524 0.95078,0.95078 0.77358,2.30614 -0.30151,2.30614 -0.51754,0 -1.19988,-0.4189 -1.51631,-0.9309 z m 70,0 c -0.68307,-1.10523 0.89441,-2.29865 1.81782,-1.37524 0.95078,0.95078 0.77358,2.30614 -0.30151,2.30614 -0.51754,0 -1.19988,-0.4189 -1.51631,-0.9309 z m 29,0 c -0.68307,-1.10523 0.89441,-2.29865 1.81782,-1.37524 0.95078,0.95078 0.77358,2.30614 -0.30151,2.30614 -0.51754,0 -1.19988,-0.4189 -1.51631,-0.9309 z m -106.2162,-6.81894 c 29.05458,-0.14736 76.30458,-0.14732 105,8e-5 28.69542,0.14739 4.9235,0.26796 -52.8265,0.26791 -57.75,-5e-5 -81.22808,-0.12064 -52.1735,-0.26799 z m 67.50556,-15.1692 -0.33206,-6.91905 4.3094,0.002 c 3.58546,0.002 4.49439,0.40837 5.41052,2.41905 1.61864,3.55253 -0.36906,7.41666 -3.81512,7.41666 -2.14574,0 -2.54046,0.37325 -2.11505,2 0.38186,1.46026 0.0307,2 -1.30131,2 -1.55799,0 -1.8728,-1.01011 -2.15638,-6.91904 z m 6.66794,-2.09465 c 0,-5.08515 -2.8936,-4.78001 -3.31549,0.34963 -0.26764,3.25409 -0.0401,3.7829 1.5,3.4863 1.33996,-0.25805 1.81549,-1.26279 1.81549,-3.83593 z m -106.21551,0.0137 -2.11244,-5 h 2.30286 c 1.26658,0 2.28197,0.5625 2.25644,1.25 -0.12807,3.44834 0.34771,4.81918 1.43859,4.14498 0.79764,-0.49298 0.95675,-0.16752 0.5,1.02277 -0.36847,0.9602 -0.66994,2.15902 -0.66994,2.66404 0,2.41367 -1.81251,0.42248 -3.71551,-4.08179 z m 6.06838,1.6138 c -1.30838,-2.7437 -1.45046,-3.91621 -0.58002,-4.78665 0.87043,-0.87043 1.43211,-0.43931 2.29297,1.76001 l 1.14014,2.91284 0.89896,-2.34235 c 0.49442,-1.28829 0.64652,-2.75079 0.338,-3.25 -0.30853,-0.49921 0.0971,-0.90765 0.90141,-0.90765 1.24899,0 1.21567,0.64993 -0.22834,4.45403 -2.32282,6.11924 -2.77681,6.3251 -4.76312,2.15977 z m 8.69731,1.94668 c -3.00337,-3.61885 0.95215,-10.30829 4.69982,-7.94818 2.89575,1.82362 2.79251,4.3877 -0.17668,4.3877 -3.244,0 -3.46447,2.70625 -0.32332,3.96884 2.19887,0.88384 2.19029,0.90583 -0.37756,0.96778 -1.44515,0.0349 -3.16517,-0.5844 -3.82226,-1.37614 z m 3.94982,-6.06048 c 0,-0.825 -0.45,-1.5 -1,-1.5 -0.55,0 -1,0.675 -1,1.5 0,0.825 0.45,1.5 1,1.5 0.55,0 1,-0.675 1,-1.5 z m 4.51758,6.25 c -1.45014,-4.31955 -0.94769,-13.75357 0.73242,-13.75182 1.50155,0.002 1.75,1.00601 1.75,7.07515 0,6.19626 0.21699,7.03217 1.75,6.74145 2.49124,-0.47245 2.95073,-5.82922 0.64465,-7.51546 -1.65947,-1.21344 -1.63442,-1.29932 0.37903,-1.29932 3.77305,0 5.52416,5.55931 2.65489,8.42858 -1.87316,1.87315 -7.31581,2.09429 -7.91099,0.32142 z m 11.48242,-0.0757 c 0,-0.72913 1.125,-2.38257 2.5,-3.67432 1.52272,-1.43052 2.5,-3.45321 2.5,-5.17431 0,-2.97686 -1.7151,-3.71059 -3.8,-1.62569 -0.93334,0.93334 -1.2,0.92636 -1.2,-0.0314 0,-1.70236 2.51764,-2.5065 5.50223,-1.75741 3.66454,0.91974 3.327,4.94414 -0.72509,8.64516 l -3.22287,2.94363 h 3.72287 c 2.04757,0 3.72286,0.45 3.72286,1 0,0.55 -2.025,1 -4.5,1 -3.07036,0 -4.5,-0.42117 -4.5,-1.32568 z m 11.66666,0.65902 c -1.15063,-1.15064 -0.72824,-2.33334 0.83334,-2.33334 0.825,0 1.5,0.675 1.5,1.5 0,1.56158 -1.1827,1.98397 -2.33334,0.83334 z m 5.38352,-0.77286 c -3.00337,-3.61885 0.95215,-10.30829 4.69982,-7.94818 2.89575,1.82362 2.79251,4.3877 -0.17668,4.3877 -3.244,0 -3.46447,2.70625 -0.32332,3.96884 2.19887,0.88384 2.19029,0.90583 -0.37756,0.96778 -1.44515,0.0349 -3.16517,-0.5844 -3.82226,-1.37614 z m 3.94982,-6.06048 c 0,-0.825 -0.45,-1.5 -1,-1.5 -0.55,0 -1,0.675 -1,1.5 0,0.825 0.45,1.5 1,1.5 0.55,0 1,-0.675 1,-1.5 z m 3.5,6.73469 c 3.13535,-2.3035 3.65294,-4.07163 1.95189,-6.66776 -1.62295,-2.47694 -1.60777,-2.56693 0.4331,-2.56693 1.33551,0 2.12673,0.64497 2.14681,1.75 0.0303,1.66667 0.0951,1.66667 1.36024,0 0.73064,-0.9625 1.91108,-1.75 2.62319,-1.75 0.87199,0 0.68113,0.67804 -0.58456,2.0766 -1.77987,1.96675 -1.79053,2.23127 -0.20149,5 1.66476,2.9007 1.65828,2.9234 -0.83471,2.9234 -1.38188,0 -2.25361,-0.4189 -1.93718,-0.9309 0.31643,-0.51199 0.11481,-1.21552 -0.44804,-1.56338 -0.56286,-0.34786 -1.29335,0.071 -1.62331,0.9309 -0.32995,0.85986 -1.33928,1.55649 -2.24293,1.54807 -0.94248,-0.009 -1.21664,-0.32856 -0.64301,-0.75 z m 11.86162,-0.73469 c -0.89308,-2.32733 0.36562,-4.5 2.60699,-4.5 1.13901,0 2.03139,-0.65894 2.03139,-1.5 0,-1.81154 -2.62819,-2.0084 -3.33772,-0.25 -0.292,0.72365 -0.53763,0.48643 -0.58334,-0.56335 -0.21325,-4.89816 6.38218,-1.52486 6.96702,3.56335 l 0.54597,4.75 h -3.82735 c -2.4796,0 -4.03004,-0.5282 -4.40296,-1.5 z m 4.63838,-1.5 c 0,-1.1 -0.45,-2 -1,-2 -0.55,0 -1,0.9 -1,2 0,1.1 0.45,2 1,2 0.55,0 1,-0.9 1,-2 z m 6.5,-2.02517 c 0,-3.73791 0.35335,-4.95469 1.3794,-4.75 2.04352,0.40766 2.15909,9.777 0.1206,9.77595 -1.13424,-5.9e-4 -1.5,-1.22614 -1.5,-5.02595 z m 5.27688,0.27517 c -0.49706,-5.56183 -0.47914,-5.60766 1.89776,-4.85326 2.53307,0.80396 2.69439,9.60326 0.17605,9.60326 -1.24135,0 -1.75431,-1.17492 -2.07381,-4.75 z m 6.22312,1.33179 c 0,-1.88002 -0.29066,-4.17566 -0.64591,-5.10142 -0.48689,-1.26881 -0.17915,-1.59389 1.25,-1.32038 2.75605,0.52744 3.88404,9.84001 1.19187,9.84001 -1.37768,0 -1.79596,-0.79611 -1.79596,-3.41821 z m 18,-4.08179 c 0,-10.81453 2.69672,-10.81255 3.17099,0.002 0.28963,6.60443 0.11956,7.50205 -1.42099,7.5 -1.51091,-0.002 -1.75,-1.02702 -1.75,-7.50233 z m 7.05018,6.06048 c -3.00337,-3.61885 0.95215,-10.30829 4.69982,-7.94818 2.89575,1.82362 2.79251,4.3877 -0.17668,4.3877 -3.244,0 -3.46447,2.70625 -0.32332,3.96884 2.19887,0.88384 2.19029,0.90583 -0.37756,0.96778 -1.44515,0.0349 -3.16517,-0.5844 -3.82226,-1.37614 z m 3.94982,-6.06048 c 0,-0.825 -0.45,-1.5 -1,-1.5 -0.55,0 -1,0.675 -1,1.5 0,0.825 0.45,1.5 1,1.5 0.55,0 1,-0.675 1,-1.5 z m 4.66666,6.83334 c -1.15063,-1.15064 -0.72824,-2.33334 0.83334,-2.33334 0.825,0 1.5,0.675 1.5,1.5 0,1.56158 -1.1827,1.98397 -2.33334,0.83334 z m 5.53334,-0.53334 c -1.65407,-1.65406 -1.5073,-6.30007 0.24495,-7.75432 1.87166,-1.55333 5.7586,-0.97277 6.38934,0.95432 0.41604,1.27112 0.24394,1.29613 -1.12787,0.16391 -2.2102,-1.82418 -3.70642,-0.64246 -3.70642,2.92733 0,2.1487 0.62396,3.22401 2.25,3.8776 2.22343,0.89371 2.21989,0.90514 -0.3,0.96778 -1.4025,0.0349 -3.09,-0.47662 -3.75,-1.13662 z m 9,0 c -2.78622,-2.78621 -0.78488,-8.8 2.92857,-8.8 2.27415,0 4.87143,2.66583 4.87143,5 0,3.93677 -5.15287,6.44714 -7.8,3.8 z m 4.3,-3.8 c 0,-1.83333 -0.5625,-3.52083 -1.25,-3.75 -0.86667,-0.28889 -1.25,0.86111 -1.25,3.75 0,2.88889 0.38333,4.03889 1.25,3.75 0.6875,-0.22916 1.25,-1.91666 1.25,-3.75 z m 6,-0.0252 c 0,-3.73791 0.35335,-4.95469 1.3794,-4.75 2.04352,0.40766 2.15909,9.777 0.1206,9.77595 -1.13424,-5.9e-4 -1.5,-1.22614 -1.5,-5.02595 z m 5.27688,0.27517 c -0.49706,-5.56183 -0.47914,-5.60766 1.89776,-4.85326 2.53307,0.80396 2.69439,9.60326 0.17605,9.60326 -1.24135,0 -1.75431,-1.17492 -2.07381,-4.75 z m 6.22312,1.33179 c 0,-1.88002 -0.29066,-4.17566 -0.64591,-5.10142 -0.48689,-1.26881 -0.17915,-1.59389 1.25,-1.32038 2.75605,0.52744 3.88404,9.84001 1.19187,9.84001 -1.37768,0 -1.79596,-0.79611 -1.79596,-3.41821 z"
         id="path6470" />
      <rect
         style="fill:#000000;fill-opacity:0;stroke:#000000;stroke-width:1.54698;stroke-dasharray:none;stroke-opacity:1"
         id="rect6470"
         width="96.253014"
         height="48.253017"
         x="184.87349"
         y="2.8734918" />
      <text
         xml:space="preserve"
         transform="matrix(2.0649366,0,0,1.8466484,-212.0922,-35.34595)"
         id="text6472"
         style="text-align:start;writing-mode:lr-tb;direction:ltr;white-space:pre;shape-inside:url(#rect6472);fill:#000000;fill-opacity:1;stroke:#000000;stroke-width:0.45372;stroke-dasharray:none;stroke-opacity:1"><tspan
           x="208"
           y="37.947964"
           id="tspan1">all</tspan></text>
    </g>
  </g>
</svg>
