<?xml version="1.0" encoding="utf-8"?>
<!-- Generator: Adobe Illustrator 26.3.1, SVG Export Plug-In . SVG Version: 6.00 Build 0)  -->
<svg version="1.1" id="Layer_1" xmlns="http://www.w3.org/2000/svg" xmlns:xlink="http://www.w3.org/1999/xlink" x="0px" y="0px"
	 viewBox="0 0 60 45" style="enable-background:new 0 0 60 45;" xml:space="preserve">
<style type="text/css">
	.st0{fill:#002366;}
	.st1{fill:#3A8ABE;}
	.st2{fill-rule:evenodd;clip-rule:evenodd;fill:#3A8ABE;}
	.st3{fill-rule:evenodd;clip-rule:evenodd;fill:#62B5D7;}
	.st4{fill-rule:evenodd;clip-rule:evenodd;fill:#002366;}
</style>
<g>
	<path class="st0" d="M58.53,13.02c-0.12-0.29-0.63-1.49-1.57-2.91c-0.63-0.95-1.97-2.95-4.4-4.65C50.2,3.8,48,3.28,46.64,2.96
		c-1.74-0.4-3.14-0.43-5.87-0.46c-3.33-0.05-5.84-0.08-7.51-0.1c-0.79-0.01-1.43,0.64-1.43,1.45l0.11,32.87
		c0,0.31,0.25,0.57,0.55,0.57c2.26,0.04,4.21,0.05,5.76,0.05c3.58,0,4.75-0.06,6.09-0.23c1.4-0.18,2.83-0.36,4.36-0.87
		c5.61-1.88,8.53-6.86,8.87-7.46c0.35-0.62,1.82-3.3,2.19-7.16C60.18,17.13,58.85,13.78,58.53,13.02z M52.06,20.71
		c-0.17,1.94-0.84,3.29-1,3.6c-0.16,0.3-1.5,2.81-4.08,3.75c-0.7,0.26-1.36,0.35-2,0.44c-0.62,0.09-1.15,0.12-2.8,0.12
		c-0.65,0-1.44,0-2.36-0.02c-0.3-0.01-0.55-0.26-0.55-0.57c-0.02-5.47-0.03-10.94-0.05-16.41c0-0.32,0.25-0.58,0.56-0.57
		c0.77,0.01,1.95,0.03,3.55,0.05c1.26,0.02,1.9,0.03,2.7,0.23c0.63,0.16,1.64,0.42,2.72,1.26c1.11,0.85,1.73,1.86,2.02,2.34
		c0.43,0.72,0.67,1.32,0.72,1.46C51.64,16.77,52.26,18.45,52.06,20.71z"/>
	<g>
		<path class="st0" d="M27.54,12.36c-0.4,0.72-1.48,0.84-2.08,0.23c-1.73-1.75-3.82-2.68-6.26-2.8c-1.33-0.07-2.58,0.12-3.73,0.55
			c-1.16,0.43-2.17,1.05-3.02,1.85c-0.86,0.8-1.55,1.77-2.07,2.91c-0.52,1.14-0.82,2.38-0.88,3.73c-0.07,1.38,0.11,2.66,0.52,3.85
			c0.41,1.19,1.02,2.23,1.81,3.13c0.79,0.9,1.73,1.62,2.83,2.17c1.1,0.55,2.29,0.85,3.6,0.92c2.01,0.1,4.76-0.03,6.54-1.17
			c0.87-0.56,1.22-0.36,1.17,0.61l-0.34,7.14c-0.02,0.47-0.36,0.88-0.86,1.03l-0.1,0.03c-1.38,0.42-2.67,0.72-3.86,0.89
			c-1.19,0.17-2.36,0.23-3.51,0.17c-2.36-0.12-4.6-0.68-6.72-1.7c-2.12-1.01-3.97-2.38-5.54-4.1c-1.57-1.72-2.8-3.73-3.69-6.03
			c-0.89-2.3-1.27-4.78-1.15-7.45s0.74-5.08,1.82-7.25c1.09-2.17,2.5-4.02,4.22-5.54c1.73-1.52,3.7-2.68,5.92-3.48
			c2.22-0.79,4.53-1.13,6.92-1.01c1.36,0.07,2.69,0.28,4,0.64c0.27,0.08,0.72,0.29,1.26,0.6C28.13,4.39,29.53,8.78,27.54,12.36
			L27.54,12.36z"/>
	</g>
	<g>
		<path class="st1" d="M24.05,28.92c0.29-0.95,0.73-1.79,1.32-2.5c0.59-0.71,1.32-1.27,2.21-1.67c0.89-0.4,1.91-0.6,3.06-0.6
			c0.88,0,1.72,0.14,2.52,0.42c0.8,0.28,1.5,0.68,2.1,1.19c0.6,0.52,1.09,1.16,1.44,1.92c0.36,0.76,0.54,1.61,0.54,2.56
			c0,0.98-0.16,1.82-0.47,2.53c-0.31,0.7-0.72,1.33-1.24,1.88c-0.51,0.55-1.1,1.04-1.75,1.49c-0.65,0.44-1.31,0.88-1.97,1.32
			c-0.66,0.44-1.3,0.9-1.92,1.4c-0.34,0.27-0.66,0.57-0.96,0.9c-0.3,0.33-0.04,0.85,0.43,0.85h7.43c0.3,0,0.55,0.23,0.55,0.52v2.35
			c0,0.29-0.25,0.52-0.55,0.52H23.79c-0.31,0-0.57-0.24-0.55-0.54c0.04-0.91,0.2-1.71,0.47-2.41c0.32-0.83,0.76-1.58,1.31-2.24
			c0.55-0.66,1.2-1.26,1.94-1.82c0.74-0.56,1.53-1.12,2.35-1.69c0.42-0.3,0.87-0.6,1.35-0.9c0.48-0.31,0.91-0.64,1.31-1.01
			c0.39-0.37,0.72-0.79,0.99-1.25c0.27-0.46,0.4-0.99,0.4-1.58c0-0.94-0.27-1.68-0.81-2.21c-0.54-0.53-1.23-0.79-2.08-0.79
			c-0.57,0-1.05,0.13-1.44,0.4c-0.39,0.27-0.71,0.62-0.95,1.06c-0.24,0.44-0.41,0.92-0.51,1.44c-0.07,0.37-0.07,0.66-0.06,0.97
			c0,0.08,0,0.64-0.02,1.34c-0.05,1.98-1.04,3.14-2.68,3.74l-0.47,0.12c-0.33,0.07-0.38-4.3-0.4-4.62
			C23.88,30.96,23.81,29.71,24.05,28.92z"/>
	</g>
	<g>
		<ellipse class="st2" cx="45.98" cy="42.24" rx="1.6" ry="1.71"/>
		<ellipse class="st3" cx="50.32" cy="42.24" rx="1.6" ry="1.71"/>
		<ellipse class="st4" cx="41.65" cy="42.24" rx="1.6" ry="1.71"/>
	</g>
</g>
</svg>
