<?xml version="1.0" encoding="utf-8"?>
<!-- Generator: Adobe Illustrator 26.3.1, SVG Export Plug-In . SVG Version: 6.00 Build 0)  -->
<svg version="1.1" id="Layer_1" xmlns="http://www.w3.org/2000/svg" xmlns:xlink="http://www.w3.org/1999/xlink" x="0px" y="0px"
	 viewBox="0 0 100 100" style="enable-background:new 0 0 100 100;" xml:space="preserve">
<style type="text/css">
	.st0{fill:#E1F2FC;stroke:#3A8BBF;stroke-miterlimit:10;}
	.st1{fill:#3A8BBF;stroke:#DFF3FA;stroke-miterlimit:10;}
</style>
<g>
	<path id="secondary_2_" class="st0" d="M59.84,69.64c-4.35,0-17.48,0-19.53-63.25c0-2.69,2.19-4.87,4.88-4.87
		c2.7,0,4.88,2.18,4.88,4.87c1.32,41.21,7.76,52.84,9.76,53.52c1.86-0.83,8.3-12.46,9.76-53.52c0-2.69,2.19-4.87,4.88-4.87
		c2.7,0,4.88,2.18,4.88,4.87C77.32,69.64,64.19,69.64,59.84,69.64z"/>
	<path id="primary_2_" class="st1" d="M11,94.13l0-4.68H6.3c-2.5,0-4.73-1.79-5.03-4.26c-0.36-2.96,1.95-5.48,4.85-5.48H11l0-72.8
		c0-2.49,1.79-4.71,4.27-5.01c2.97-0.36,5.49,1.94,5.49,4.83v72.98l73.05,0c2.5,0,4.73,1.79,5.03,4.26
		c0.36,2.96-1.95,5.48-4.85,5.48H20.77v4.87c0,2.89-2.52,5.19-5.49,4.83C12.79,98.84,11,96.62,11,94.13z"/>
</g>
</svg>
