<?xml version="1.0" encoding="UTF-8" standalone="no"?>
<svg
   version="1.1"
   id="svg39"
   sodipodi:docname="MathEquation.svg"
   inkscape:version="1.4 (86a8ad7, 2024-10-11)"
   xmlns:inkscape="http://www.inkscape.org/namespaces/inkscape"
   xmlns:sodipodi="http://sodipodi.sourceforge.net/DTD/sodipodi-0.dtd"
   xmlns="http://www.w3.org/2000/svg"
   xmlns:svg="http://www.w3.org/2000/svg">
  <defs
     id="defs39" />
  <sodipodi:namedview
     id="namedview39"
     pagecolor="#ffffff"
     bordercolor="#000000"
     borderopacity="0.25"
     inkscape:showpageshadow="2"
     inkscape:pageopacity="0.0"
     inkscape:pagecheckerboard="0"
     inkscape:deskcolor="#d1d1d1"
     showgrid="false"
     inkscape:zoom="2.8233333"
     inkscape:cx="116.88312"
     inkscape:cy="52.597403"
     inkscape:window-width="1366"
     inkscape:window-height="697"
     inkscape:window-x="-8"
     inkscape:window-y="-8"
     inkscape:window-maximized="1"
     inkscape:current-layer="svg38" />
  <svg
     class="function-plot"
     font-size="12.2"
     width="650"
     height="650"
     version="1.1"
     id="svg38">
    <text
       class="top-right-legend"
       text-anchor="end"
       y="10"
       x="630"
       id="text2" />
    <g
       class="canvas"
       transform="matrix(0.25861968,0,0,0.23137382,48.334935,3.7071974)"
       id="g38">
      <defs
         id="defs2">
        <clipPath
           id="function-plot-clip-k6745bc295dd16">
          <rect
             class="clip static-clip"
             width="590"
             height="610"
             id="rect2"
             x="0"
             y="0" />
        </clipPath>
        <clipPath
           id="clipPath2">
          <marker
             id="k6745bc295dd16-marker"
             viewBox="0 -5 10 10"
             refX="10"
             markerWidth="5"
             markerHeight="5"
             orient="auto">
            <path
               d="M 0,-5 10,0 0,5 V 0"
               stroke-width="0px"
               fill-opacity="1"
               fill="#777777"
               id="path2" />
          </marker>
        </clipPath>
      </defs>
      <g
         class="x axis"
         transform="translate(0,610)"
         fill="none"
         font-size="10px"
         font-family="sans-serif"
         text-anchor="middle"
         id="g16">
        <path
           class="domain"
           stroke="#000000"
           d="m 0.5,0.5 h 590"
           fill="none"
           shape-rendering="crispedges"
           opacity="0.1"
           id="path3" />
        <g
           class="tick"
           opacity="1"
           transform="translate(0.5)"
           id="g3">
          <line
             stroke="#000000"
             y2="0"
             fill="none"
             shape-rendering="crispedges"
             opacity="0.1"
             id="line3"
             x1="0"
             y1="0"
             x2="0" />
          <text
             fill="currentColor"
             y="3"
             dy="0.70999998em"
             id="text3">−6</text>
        </g>
        <g
           class="tick"
           opacity="1"
           transform="translate(49.666667)"
           id="g4">
          <line
             stroke="#000000"
             y2="0"
             fill="none"
             shape-rendering="crispedges"
             opacity="0.1"
             id="line4"
             x1="0"
             y1="0"
             x2="0" />
          <text
             fill="currentColor"
             y="3"
             dy="0.70999998em"
             id="text4">−5</text>
        </g>
        <g
           class="tick"
           opacity="1"
           transform="translate(98.833333)"
           id="g5">
          <line
             stroke="#000000"
             y2="0"
             fill="none"
             shape-rendering="crispedges"
             opacity="0.1"
             id="line5"
             x1="0"
             y1="0"
             x2="0" />
          <text
             fill="currentColor"
             y="3"
             dy="0.70999998em"
             id="text5">−4</text>
        </g>
        <g
           class="tick"
           opacity="1"
           transform="translate(148)"
           id="g6">
          <line
             stroke="#000000"
             y2="0"
             fill="none"
             shape-rendering="crispedges"
             opacity="0.1"
             id="line6"
             x1="0"
             y1="0"
             x2="0" />
          <text
             fill="currentColor"
             y="3"
             dy="0.70999998em"
             id="text6">−3</text>
        </g>
        <g
           class="tick"
           opacity="1"
           transform="translate(197.16667)"
           id="g7">
          <line
             stroke="#000000"
             y2="0"
             fill="none"
             shape-rendering="crispedges"
             opacity="0.1"
             id="line7"
             x1="0"
             y1="0"
             x2="0" />
          <text
             fill="currentColor"
             y="3"
             dy="0.70999998em"
             id="text7">−2</text>
        </g>
        <g
           class="tick"
           opacity="1"
           transform="translate(246.33333)"
           id="g8">
          <line
             stroke="#000000"
             y2="0"
             fill="none"
             shape-rendering="crispedges"
             opacity="0.1"
             id="line8"
             x1="0"
             y1="0"
             x2="0" />
          <text
             fill="currentColor"
             y="3"
             dy="0.70999998em"
             id="text8">−1</text>
        </g>
        <g
           class="tick"
           opacity="1"
           transform="translate(295.5)"
           id="g9">
          <line
             stroke="#000000"
             y2="0"
             fill="none"
             shape-rendering="crispedges"
             opacity="0.1"
             id="line9"
             x1="0"
             y1="0"
             x2="0" />
          <text
             fill="currentColor"
             y="3"
             dy="0.70999998em"
             id="text9">0</text>
        </g>
        <g
           class="tick"
           opacity="1"
           transform="translate(344.66667)"
           id="g10">
          <line
             stroke="#000000"
             y2="0"
             fill="none"
             shape-rendering="crispedges"
             opacity="0.1"
             id="line10"
             x1="0"
             y1="0"
             x2="0" />
          <text
             fill="currentColor"
             y="3"
             dy="0.70999998em"
             id="text10">1</text>
        </g>
        <g
           class="tick"
           opacity="1"
           transform="translate(393.83333)"
           id="g11">
          <line
             stroke="#000000"
             y2="0"
             fill="none"
             shape-rendering="crispedges"
             opacity="0.1"
             id="line11"
             x1="0"
             y1="0"
             x2="0" />
          <text
             fill="currentColor"
             y="3"
             dy="0.70999998em"
             id="text11">2</text>
        </g>
        <g
           class="tick"
           opacity="1"
           transform="translate(443)"
           id="g12">
          <line
             stroke="#000000"
             y2="0"
             fill="none"
             shape-rendering="crispedges"
             opacity="0.1"
             id="line12"
             x1="0"
             y1="0"
             x2="0" />
          <text
             fill="currentColor"
             y="3"
             dy="0.70999998em"
             id="text12">3</text>
        </g>
        <g
           class="tick"
           opacity="1"
           transform="translate(492.16667)"
           id="g13">
          <line
             stroke="#000000"
             y2="0"
             fill="none"
             shape-rendering="crispedges"
             opacity="0.1"
             id="line13"
             x1="0"
             y1="0"
             x2="0" />
          <text
             fill="currentColor"
             y="3"
             dy="0.70999998em"
             id="text13">4</text>
        </g>
        <g
           class="tick"
           opacity="1"
           transform="translate(541.33333)"
           id="g14">
          <line
             stroke="#000000"
             y2="0"
             fill="none"
             shape-rendering="crispedges"
             opacity="0.1"
             id="line14"
             x1="0"
             y1="0"
             x2="0" />
          <text
             fill="currentColor"
             y="3"
             dy="0.70999998em"
             id="text14">5</text>
        </g>
        <g
           class="tick"
           opacity="1"
           transform="translate(590.5)"
           id="g15">
          <line
             stroke="#000000"
             y2="0"
             fill="none"
             shape-rendering="crispedges"
             opacity="0.1"
             id="line15"
             x1="0"
             y1="0"
             x2="0" />
          <text
             fill="currentColor"
             y="3"
             dy="0.70999998em"
             id="text15">6</text>
        </g>
      </g>
      <g
         class="y axis"
         fill="none"
         font-size="10px"
         font-family="sans-serif"
         text-anchor="end"
         id="g30">
        <path
           class="domain"
           stroke="#000000"
           d="M 0.5,610.5 V 0.5"
           fill="none"
           shape-rendering="crispedges"
           opacity="0.1"
           id="path16" />
        <g
           class="tick"
           opacity="1"
           transform="translate(0,600.5)"
           id="g17">
          <line
             stroke="#000000"
             x2="0"
             fill="none"
             shape-rendering="crispedges"
             opacity="0.1"
             id="line16"
             x1="0"
             y1="0"
             y2="0" />
          <text
             fill="currentColor"
             x="-3"
             dy="0.31999999em"
             id="text16">−6</text>
        </g>
        <g
           class="tick"
           opacity="1"
           transform="translate(0,551.33333)"
           id="g18">
          <line
             stroke="#000000"
             x2="0"
             fill="none"
             shape-rendering="crispedges"
             opacity="0.1"
             id="line17"
             x1="0"
             y1="0"
             y2="0" />
          <text
             fill="currentColor"
             x="-3"
             dy="0.31999999em"
             id="text17">−5</text>
        </g>
        <g
           class="tick"
           opacity="1"
           transform="translate(0,502.16667)"
           id="g19">
          <line
             stroke="#000000"
             x2="0"
             fill="none"
             shape-rendering="crispedges"
             opacity="0.1"
             id="line18"
             x1="0"
             y1="0"
             y2="0" />
          <text
             fill="currentColor"
             x="-3"
             dy="0.31999999em"
             id="text18">−4</text>
        </g>
        <g
           class="tick"
           opacity="1"
           transform="translate(0,453)"
           id="g20">
          <line
             stroke="#000000"
             x2="0"
             fill="none"
             shape-rendering="crispedges"
             opacity="0.1"
             id="line19"
             x1="0"
             y1="0"
             y2="0" />
          <text
             fill="currentColor"
             x="-3"
             dy="0.31999999em"
             id="text19">−3</text>
        </g>
        <g
           class="tick"
           opacity="1"
           transform="translate(0,403.83333)"
           id="g21">
          <line
             stroke="#000000"
             x2="0"
             fill="none"
             shape-rendering="crispedges"
             opacity="0.1"
             id="line20"
             x1="0"
             y1="0"
             y2="0" />
          <text
             fill="currentColor"
             x="-3"
             dy="0.31999999em"
             id="text20">−2</text>
        </g>
        <g
           class="tick"
           opacity="1"
           transform="translate(0,354.66667)"
           id="g22">
          <line
             stroke="#000000"
             x2="0"
             fill="none"
             shape-rendering="crispedges"
             opacity="0.1"
             id="line21"
             x1="0"
             y1="0"
             y2="0" />
          <text
             fill="currentColor"
             x="-3"
             dy="0.31999999em"
             id="text21">−1</text>
        </g>
        <g
           class="tick"
           opacity="1"
           transform="translate(0,305.5)"
           id="g23">
          <line
             stroke="#000000"
             x2="0"
             fill="none"
             shape-rendering="crispedges"
             opacity="0.1"
             id="line22"
             x1="0"
             y1="0"
             y2="0" />
          <text
             fill="currentColor"
             x="-3"
             dy="0.31999999em"
             id="text22">0</text>
        </g>
        <g
           class="tick"
           opacity="1"
           transform="translate(0,256.33333)"
           id="g24">
          <line
             stroke="#000000"
             x2="0"
             fill="none"
             shape-rendering="crispedges"
             opacity="0.1"
             id="line23"
             x1="0"
             y1="0"
             y2="0" />
          <text
             fill="currentColor"
             x="-3"
             dy="0.31999999em"
             id="text23">1</text>
        </g>
        <g
           class="tick"
           opacity="1"
           transform="translate(0,207.16667)"
           id="g25">
          <line
             stroke="#000000"
             x2="0"
             fill="none"
             shape-rendering="crispedges"
             opacity="0.1"
             id="line24"
             x1="0"
             y1="0"
             y2="0" />
          <text
             fill="currentColor"
             x="-3"
             dy="0.31999999em"
             id="text24">2</text>
        </g>
        <g
           class="tick"
           opacity="1"
           transform="translate(0,158)"
           id="g26">
          <line
             stroke="#000000"
             x2="0"
             fill="none"
             shape-rendering="crispedges"
             opacity="0.1"
             id="line25"
             x1="0"
             y1="0"
             y2="0" />
          <text
             fill="currentColor"
             x="-3"
             dy="0.31999999em"
             id="text25">3</text>
        </g>
        <g
           class="tick"
           opacity="1"
           transform="translate(0,108.83333)"
           id="g27">
          <line
             stroke="#000000"
             x2="0"
             fill="none"
             shape-rendering="crispedges"
             opacity="0.1"
             id="line26"
             x1="0"
             y1="0"
             y2="0" />
          <text
             fill="currentColor"
             x="-3"
             dy="0.31999999em"
             id="text26">4</text>
        </g>
        <g
           class="tick"
           opacity="1"
           transform="translate(0,59.666667)"
           id="g28">
          <line
             stroke="#000000"
             x2="0"
             fill="none"
             shape-rendering="crispedges"
             opacity="0.1"
             id="line27"
             x1="0"
             y1="0"
             y2="0" />
          <text
             fill="currentColor"
             x="-3"
             dy="0.31999999em"
             id="text27">5</text>
        </g>
        <g
           class="tick"
           opacity="1"
           transform="translate(0,10.5)"
           id="g29">
          <line
             stroke="#000000"
             x2="0"
             fill="none"
             shape-rendering="crispedges"
             opacity="0.1"
             id="line28"
             x1="0"
             y1="0"
             y2="0" />
          <text
             fill="currentColor"
             x="-3"
             dy="0.31999999em"
             id="text28">6</text>
        </g>
      </g>
      <text
         class="x axis-label"
         text-anchor="end"
         x="590"
         y="604"
         id="text30">time</text>
      <text
         class="y axis-label"
         y="6"
         dy="0.75em"
         text-anchor="end"
         transform="rotate(-90)"
         id="text31">growth</text>
      <g
         class="tip"
         clip-path="url(#function-plot-clip-k6745bc295dd16)"
         id="g33">
        <g
           class="inner-tip"
           style="display:none"
           id="g32">
          <path
             stroke="#808080"
             stroke-dasharray="5, 5"
             opacity="0.5"
             d="M 0,-630 V 630"
             class="tip-x-line"
             style="display:none"
             id="path31" />
          <path
             stroke="#808080"
             stroke-dasharray="5, 5"
             opacity="0.5"
             d="M -610,0 H 610"
             class="tip-y-line"
             style="display:none"
             id="path32" />
          <circle
             r="3"
             id="circle32"
             cx="0"
             cy="0" />
          <text
             transform="translate(5,-5)"
             id="text32" />
        </g>
      </g>
      <g
         clip-path="url(#function-plot-clip-k6745bc295dd16)"
         class="content"
         id="g37">
        <path
           class="y origin"
           stroke="#000000"
           opacity="0.2"
           d="M 295,610 V 0"
           id="path33" />
        <path
           class="x origin"
           stroke="#000000"
           opacity="0.2"
           d="M 0,305 H 590"
           id="path34" />
        <g
           class="graph"
           id="g35">
          <path
             class="line line-0"
             fill="none"
             stroke-width="1"
             stroke="#4682b4"
             opacity="1"
             d="M 245.95844,298.93655 V 305 m 0.50042,-9.23838 v 3.17493 m 0.50043,-5.4877 v 2.31277 m 0.50042,-4.21561 v 1.90284 m 0.50043,-3.55148 v 1.64864 m 0.50042,-3.11913 v 1.47049 m 0.50042,-2.80677 v 1.33628 m 0.50043,-2.56647 v 1.23019 m 0.50042,-2.3736 v 1.14341 m 0.50043,-2.214 v 1.07059 m 0.50042,-2.0788 v 1.00821 m 0.50042,-1.96216 v 1 m 0.50043,-1.90608 v 1 m 0.50042,-1.86341 v 1 m 0.50043,-1.825 v 1 m 0.50042,-1.79015 v 1 m 0.50042,-1.75832 v 1 m 0.50043,-1.72904 v 1 m 0.50042,-1.70199 v 1 m 0.50043,-1.67687 v 1 m 0.50042,-1.65342 v 1 m 0.50043,-1.63148 v 1 m 0.50042,-1.61085 v 1 m 0.50042,-1.5914 v 1 m 0.50043,-1.57302 v 1 m 0.50042,-1.55557 v 1 m 0.50043,-1.539 v 1 m 0.50042,-1.52321 v 1 m 0.50042,-1.50813 v 1 m 0.50043,-1.4937 v 1 m 0.50042,-1.47987 v 1 m 0.50043,-1.46659 v 1 m 0.50042,-1.45382 v 1 m 0.50042,-1.44152 v 1 m 0.50043,-1.42964 v 1 m 0.50042,-1.41819 v 1 m 0.50043,-1.40709 v 1 m 0.50042,-1.39635 v 1 m 0.50042,-1.38594 v 1 m 0.50043,-1.37582 v 1 m 0.50042,-1.36601 v 1 m 0.50043,-1.35645 v 1 m 0.50042,-1.34714 v 1 m 0.50043,-1.33808 v 1 m 0.50042,-1.32924 v 1 m 0.50042,-1.3206 v 1 m 0.50043,-1.31217 v 1 m 0.50042,-1.30392 v 1 m 0.50043,-1.29585 v 1 m 0.50042,-1.28795 v 1 m 0.50042,-1.28021 v 1 m 0.50043,-1.2726 v 1 m 0.50042,-1.26516 v 1 m 0.50043,-1.25784 v 1 m 0.50042,-1.25066 v 1 m 0.50042,-1.24358 v 1 m 0.50043,-1.23664 v 1 m 0.50042,-1.2298 v 1 m 0.50043,-1.22306 v 1 m 0.50042,-1.21643 v 1 m 0.50042,-1.20988 v 1 m 0.50043,-1.20344 v 1 m 0.50042,-1.19707 v 1 m 0.50043,-1.19079 v 1 m 0.50042,-1.18458 v 1 m 0.50043,-1.17845 v 1 m 0.50042,-1.17239 v 1 m 0.50042,-1.1664 v 1 m 0.50043,-1.16046 v 1 m 0.50042,-1.1546 v 1 m 0.50043,-1.14879 v 1 m 0.50042,-1.14303 v 1 m 0.50042,-1.13732 v 1 m 0.50043,-1.13167 v 1 m 0.50042,-1.12607 v 1 m 0.50043,-1.12049 v 1 m 0.50042,-1.11498 v 1 m 0.50042,-1.10949 v 1 m 0.50043,-1.10405 v 1 m 0.50042,-1.09864 v 1 m 0.50043,-1.09326 v 1 m 0.50042,-1.08791 v 1 m 0.50042,-1.0826 v 1 m 0.50043,-1.07731 v 1 m 0.50042,-1.07204 v 1 m 0.50043,-1.0668 v 1 m 0.50042,-1.06159 v 1 m 0.50043,-1.05638 v 1 m 0.50042,-1.0512 v 1 m 0.50042,-1.04603 v 1 m 0.50043,-1.04089 v 1 m 0.50042,-1.03574 v 1 m 0.50043,-1.03062 v 1 m 0.50042,-1.0255 v 1 m 0.50042,-1.02039 v 1 m 0.50043,-1.01529 v 1 m 0.50042,-1.01019 v 1 m 0.50043,-1.00509 v 1 M 295,255.8327 v 1 m 0.50042,-0.99873 v 1 m 0.50043,-0.99491 v 1 m 0.50042,-0.98981 v 1 m 0.50043,-0.98471 v 1 m 0.50042,-0.97961 v 1 m 0.50042,-0.9745 v 1 m 0.50043,-0.96938 v 1 m 0.50042,-0.96426 v 1 m 0.50043,-0.95911 v 1 m 0.50042,-0.95397 v 1 m 0.50042,-0.9488 v 1 m 0.50043,-0.94362 v 1 m 0.50042,-0.93841 v 1 m 0.50043,-0.9332 v 1 m 0.50042,-0.92796 v 1 m 0.50043,-0.92269 v 1 m 0.50042,-0.9174 v 1 m 0.50042,-0.91209 v 1 m 0.50043,-0.90674 v 1 m 0.50042,-0.90136 v 1 m 0.50043,-0.89595 v 1 m 0.50042,-0.89051 v 1 m 0.50042,-0.88502 v 1 m 0.50043,-0.87951 v 1 m 0.50042,-0.87393 v 1 m 0.50043,-0.86833 v 1 m 0.50042,-0.86268 v 1 m 0.50042,-0.85697 v 1 m 0.50043,-0.85121 v 1 m 0.50042,-0.8454 v 1 m 0.50043,-0.83954 v 1 m 0.50042,-0.8336 v 1 m 0.50042,-0.82761 v 1 m 0.50043,-0.82155 v 1 m 0.50042,-0.81542 v 1 m 0.50043,-0.80921 v 1 m 0.50042,-0.80293 v 1 m 0.50043,-0.79656 v 1 m 0.50042,-0.79012 v 1 m 0.50042,-0.78357 v 1 m 0.50043,-0.77694 v 1 m 0.50042,-0.7702 v 1 m 0.50043,-0.76336 v 1 m 0.50042,-0.75642 v 1 m 0.50042,-0.74934 v 1 m 0.50043,-0.74216 v 1 m 0.50042,-0.73484 v 1 m 0.50043,-0.7274 v 1 m 0.50042,-0.71979 v 1 m 0.50042,-0.71205 v 1 m 0.50043,-0.70415 v 1 m 0.50042,-0.69608 v 1 m 0.50043,-0.68783 v 1 m 0.50042,-0.6794 v 1 m 0.50042,-0.67076 v 1 m 0.50043,-0.66192 v 1 m 0.50042,-0.65286 v 1 m 0.50043,-0.64355 v 1 m 0.50042,-0.63399 v 1 m 0.50043,-0.62418 v 1 m 0.50042,-0.61406 v 1 m 0.50042,-0.60365 v 1 m 0.50043,-0.59291 v 1 m 0.50042,-0.58181 v 1 m 0.50043,-0.57036 v 1 m 0.50042,-0.55848 v 1 m 0.50042,-0.54618 v 1 m 0.50043,-0.53341 v 1 m 0.50042,-0.52013 v 1 m 0.50043,-0.5063 v 1 m 0.50042,-0.49187 v 1 m 0.50042,-0.47679 v 1 m 0.50043,-0.461 v 1 m 0.50042,-0.44443 v 1 m 0.50043,-0.42698 v 1 m 0.50042,-0.4086 v 1 m 0.50042,-0.38915 v 1 m 0.50043,-0.36852 v 1 m 0.50042,-0.34658 v 1 m 0.50043,-0.32313 v 1 m 0.50042,-0.29801 v 1 m 0.50043,-0.27096 v 1 m 0.50042,-0.24168 v 1 m 0.50042,-0.20985 v 1 m 0.50043,-0.175 v 1 m 0.50042,-0.13659 v 1 m 0.50043,-0.0939 v 1 m 0.50042,-0.0461 v 1.00821 m 0.50042,0 v 1.07059 m 0.50043,0 v 1.14341 m 0.50042,0 v 1.23019 m 0.50043,0 v 1.33628 m 0.50042,0 v 1.47049 m 0.50042,0 v 1.64864 m 0.50043,0 v 1.90284 m 0.50042,0 v 2.31277 m 0.50043,0 v 3.17493 m 0.50042,0 V 305"
             id="path35" />
        </g>
        <g
           class="graph"
           id="g36">
          <path
             class="line line-1"
             fill="none"
             stroke-width="1"
             stroke="#ff0000"
             opacity="1"
             d="m 245.95844,305 v 6.06345 m 0.50042,0 v 3.17493 m 0.50043,0 v 2.31277 m 0.50042,0 v 1.90284 m 0.50043,0 v 1.64864 m 0.50042,0 v 1.47049 m 0.50042,0 v 1.33628 m 0.50043,0 v 1.23019 m 0.50042,0 v 1.14341 m 0.50043,0 v 1.07059 m 0.50042,0 v 1.00821 m 0.50042,0 v 1 m 0.50043,-0.0461 v 1 m 0.50042,-0.0939 v 1 m 0.50043,-0.13659 v 1 m 0.50042,-0.175 v 1 m 0.50042,-0.20985 v 1 m 0.50043,-0.24168 v 1 m 0.50042,-0.27096 v 1 m 0.50043,-0.29801 v 1 m 0.50042,-0.32313 v 1 m 0.50043,-0.34658 v 1 m 0.50042,-0.36852 v 1 m 0.50042,-0.38915 v 1 m 0.50043,-0.4086 v 1 m 0.50042,-0.42698 v 1 m 0.50043,-0.44443 v 1 m 0.50042,-0.461 v 1 m 0.50042,-0.47679 v 1 m 0.50043,-0.49187 v 1 m 0.50042,-0.5063 v 1 m 0.50043,-0.52013 v 1 m 0.50042,-0.53341 v 1 m 0.50042,-0.54618 v 1 m 0.50043,-0.55848 v 1 m 0.50042,-0.57036 v 1 m 0.50043,-0.58181 v 1 m 0.50042,-0.59291 v 1 m 0.50042,-0.60365 v 1 m 0.50043,-0.61406 v 1 m 0.50042,-0.62418 v 1 m 0.50043,-0.63399 v 1 m 0.50042,-0.64355 v 1 m 0.50043,-0.65286 v 1 m 0.50042,-0.66192 v 1 m 0.50042,-0.67076 v 1 m 0.50043,-0.6794 v 1 m 0.50042,-0.68783 v 1 m 0.50043,-0.69608 v 1 m 0.50042,-0.70415 v 1 m 0.50042,-0.71205 v 1 m 0.50043,-0.71979 v 1 m 0.50042,-0.7274 v 1 m 0.50043,-0.73484 v 1 m 0.50042,-0.74216 v 1 m 0.50042,-0.74934 v 1 m 0.50043,-0.75642 v 1 m 0.50042,-0.76336 v 1 m 0.50043,-0.7702 v 1 m 0.50042,-0.77694 v 1 m 0.50042,-0.78357 v 1 m 0.50043,-0.79012 v 1 m 0.50042,-0.79656 v 1 m 0.50043,-0.80293 v 1 m 0.50042,-0.80921 v 1 m 0.50043,-0.81542 v 1 m 0.50042,-0.82155 v 1 m 0.50042,-0.82761 v 1 m 0.50043,-0.8336 v 1 m 0.50042,-0.83954 v 1 m 0.50043,-0.8454 v 1 m 0.50042,-0.85121 v 1 m 0.50042,-0.85697 v 1 m 0.50043,-0.86268 v 1 m 0.50042,-0.86833 v 1 m 0.50043,-0.87393 v 1 m 0.50042,-0.87951 v 1 m 0.50042,-0.88502 v 1 m 0.50043,-0.89051 v 1 m 0.50042,-0.89595 v 1 m 0.50043,-0.90136 v 1 m 0.50042,-0.90674 v 1 m 0.50042,-0.91209 v 1 m 0.50043,-0.9174 v 1 m 0.50042,-0.92269 v 1 m 0.50043,-0.92796 v 1 m 0.50042,-0.9332 v 1 m 0.50043,-0.93841 v 1 m 0.50042,-0.94362 v 1 m 0.50042,-0.9488 v 1 m 0.50043,-0.95397 v 1 m 0.50042,-0.95911 v 1 m 0.50043,-0.96426 v 1 m 0.50042,-0.96938 v 1 m 0.50042,-0.9745 v 1 m 0.50043,-0.97961 v 1 m 0.50042,-0.98471 v 1 m 0.50043,-0.98981 v 1 M 295,354.16603 v 1 m 0.50042,-1.00509 v 1 m 0.50043,-1.01019 v 1 m 0.50042,-1.01529 v 1 m 0.50043,-1.02039 v 1 m 0.50042,-1.0255 v 1 m 0.50042,-1.03062 v 1 m 0.50043,-1.03574 v 1 m 0.50042,-1.04089 v 1 m 0.50043,-1.04603 v 1 m 0.50042,-1.0512 v 1 m 0.50042,-1.05638 v 1 m 0.50043,-1.06159 v 1 m 0.50042,-1.0668 v 1 m 0.50043,-1.07204 v 1 m 0.50042,-1.07731 v 1 m 0.50043,-1.0826 v 1 m 0.50042,-1.08791 v 1 m 0.50042,-1.09326 v 1 m 0.50043,-1.09864 v 1 m 0.50042,-1.10405 v 1 m 0.50043,-1.10949 v 1 m 0.50042,-1.11498 v 1 m 0.50042,-1.12049 v 1 m 0.50043,-1.12607 v 1 m 0.50042,-1.13167 v 1 m 0.50043,-1.13732 v 1 m 0.50042,-1.14303 v 1 m 0.50042,-1.14879 v 1 m 0.50043,-1.1546 v 1 m 0.50042,-1.16046 v 1 m 0.50043,-1.1664 v 1 m 0.50042,-1.17239 v 1 m 0.50042,-1.17845 v 1 m 0.50043,-1.18458 v 1 m 0.50042,-1.19079 v 1 m 0.50043,-1.19707 v 1 m 0.50042,-1.20344 v 1 m 0.50043,-1.20988 v 1 m 0.50042,-1.21643 v 1 m 0.50042,-1.22306 v 1 m 0.50043,-1.2298 v 1 m 0.50042,-1.23664 v 1 m 0.50043,-1.24358 v 1 m 0.50042,-1.25066 v 1 m 0.50042,-1.25784 v 1 m 0.50043,-1.26516 v 1 m 0.50042,-1.2726 v 1 m 0.50043,-1.28021 v 1 m 0.50042,-1.28795 v 1 m 0.50042,-1.29585 v 1 m 0.50043,-1.30392 v 1 m 0.50042,-1.31217 v 1 m 0.50043,-1.3206 v 1 m 0.50042,-1.32924 v 1 m 0.50042,-1.33808 v 1 m 0.50043,-1.34714 v 1 m 0.50042,-1.35645 v 1 m 0.50043,-1.36601 v 1 m 0.50042,-1.37582 v 1 m 0.50043,-1.38594 v 1 m 0.50042,-1.39635 v 1 m 0.50042,-1.40709 v 1 m 0.50043,-1.41819 v 1 m 0.50042,-1.42964 v 1 m 0.50043,-1.44152 v 1 m 0.50042,-1.45382 v 1 m 0.50042,-1.46659 v 1 m 0.50043,-1.47987 v 1 m 0.50042,-1.4937 v 1 m 0.50043,-1.50813 v 1 m 0.50042,-1.52321 v 1 m 0.50042,-1.539 v 1 m 0.50043,-1.55557 v 1 m 0.50042,-1.57302 v 1 m 0.50043,-1.5914 v 1 m 0.50042,-1.61085 v 1 m 0.50042,-1.63148 v 1 m 0.50043,-1.65342 v 1 m 0.50042,-1.67687 v 1 m 0.50043,-1.70199 v 1 m 0.50042,-1.72904 v 1 m 0.50043,-1.75832 v 1 m 0.50042,-1.79015 v 1 m 0.50042,-1.825 v 1 m 0.50043,-1.86341 v 1 m 0.50042,-1.90608 v 1 m 0.50043,-1.95395 v 1 m 0.50042,-2.00821 v 1.00821 m 0.50042,-2.0788 v 1.07059 m 0.50043,-2.214 v 1.14341 m 0.50042,-2.3736 v 1.23019 m 0.50043,-2.56647 v 1.33628 m 0.50042,-2.80677 v 1.47049 m 0.50042,-3.11913 v 1.64864 m 0.50043,-3.55148 v 1.90284 m 0.50042,-4.21561 v 2.31277 m 0.50043,-5.4877 v 3.17493 M 344.04156,305 v 6.06345"
             id="path36" />
        </g>
      </g>
      <rect
         class="zoom-and-drag"
         width="303.81345"
         height="475.40732"
         style="fill:none;stroke-width:0.633499"
         id="rect37"
         x="0"
         y="0" />
    </g>
  </svg>
</svg>
