<svg width="54" height="50" viewBox="0 0 54 50" fill="none" xmlns="http://www.w3.org/2000/svg">
<path d="M47.0358 23.4305L46.0539 18.9466L30.4315 21.8597V6.65723H25.6204V20.4081L8.51421 10.3061L5.80859 14.1242L24.5185 25.111L10.1179 42.2722L14.0562 44.9666L27.9659 28.3623L38.2973 42.6101L42.4865 40.1443L32.1443 26.1252L47.0358 23.4305Z" stroke="#DFF3FA" stroke-width="0.95" stroke-miterlimit="10"/>
<path d="M19 25.8547C19 27.4086 19.5058 28.9277 20.4533 30.2197C21.4008 31.5116 22.7474 32.5182 24.3229 33.1124C25.8983 33.7067 27.6318 33.8618 29.3039 33.5579C30.9761 33.254 32.5117 32.5047 33.7166 31.4052C34.9215 30.3057 35.7415 28.9054 36.0728 27.381C36.4041 25.8567 36.2319 24.2771 35.5779 22.842C34.9239 21.4069 33.8176 20.1807 32.3988 19.3188C30.9801 18.4569 29.3127 17.998 27.6076 18C25.3238 18.0026 23.1344 18.8314 21.5204 20.3041C19.9065 21.7769 19 23.7732 19 25.8547Z" fill="#3A8BBF"/>
<path d="M22.0195 6.6076C22.0195 7.7167 22.3805 8.80102 23.0566 9.7232C23.7326 10.6454 24.6936 11.364 25.8179 11.7885C26.9422 12.2129 28.1794 12.324 29.373 12.1077C30.5665 11.8913 31.6629 11.3571 32.5234 10.5728C33.3839 9.78855 33.9699 8.78943 34.2073 7.70164C34.4447 6.61385 34.3229 5.48643 33.8572 4.46175C33.3915 3.43708 32.6028 2.56118 31.591 1.945C30.5791 1.32881 29.3895 1 28.1725 1C26.5407 1 24.9756 1.59075 23.8217 2.6424C22.6678 3.69405 22.0195 5.12034 22.0195 6.6076Z" fill="#DFF3FA" stroke="#03BAD2" stroke-width="0.95" stroke-miterlimit="10"/>
<path d="M40.3948 21.2034C40.3821 22.3833 40.7825 23.5364 41.5378 24.4947C42.2931 25.4531 43.364 26.167 44.595 26.5328C45.5219 26.8109 46.5081 26.8849 47.4724 26.7486C48.4368 26.6123 49.3521 26.2695 50.143 25.7485C50.934 25.2275 51.5782 24.543 52.0228 23.7512C52.4674 22.9594 52.6998 22.0829 52.7008 21.1934C52.7142 20.0122 52.3142 18.8578 51.5589 17.8977C50.8037 16.9376 49.7324 16.222 48.5006 15.8543C47.5736 15.5762 46.5875 15.5022 45.6231 15.6385C44.6588 15.7748 43.7436 16.1176 42.9526 16.6386C42.1617 17.1596 41.5175 17.8441 41.0729 18.6359C40.6283 19.4277 40.3959 20.304 40.3948 21.1934V21.2034Z" fill="#DFF3FA" stroke="#03BAD2" stroke-width="0.95" stroke-miterlimit="10"/>
<path d="M1.00001 12.2155C1.00001 13.3246 1.36086 14.4087 2.03696 15.3309C2.71306 16.2531 3.674 16.9719 4.79831 17.3964C5.92262 17.8208 7.15981 17.9317 8.35337 17.7153C9.54693 17.499 10.6433 16.965 11.5038 16.1807C12.3643 15.3965 12.9503 14.3971 13.1878 13.3093C13.4252 12.2215 13.3033 11.0941 12.8376 10.0694C12.3719 9.04475 11.5832 8.16885 10.5714 7.55267C9.55951 6.93649 8.36996 6.60767 7.15301 6.60767C6.34459 6.60637 5.54381 6.75064 4.79664 7.03199C4.04948 7.31334 3.37062 7.72617 2.79898 8.24716C2.22734 8.76814 1.77416 9.38702 1.46545 10.068C1.15674 10.7489 0.998573 11.4787 1.00001 12.2155Z" fill="#DFF3FA" stroke="#03BAD2" stroke-width="0.95" stroke-miterlimit="10"/>
<path d="M5.80078 43.6243C5.86765 45.072 6.54576 46.4403 7.69337 47.4431C8.84099 48.4459 10.3694 49.0056 11.9592 49.0056C13.5491 49.0056 15.0775 48.4459 16.2251 47.4431C17.3727 46.4403 18.0508 45.072 18.1177 43.6243C18.0508 42.1766 17.3727 40.8085 16.2251 39.8057C15.0775 38.8029 13.5491 38.2429 11.9592 38.2429C10.3694 38.2429 8.84099 38.8029 7.69337 39.8057C6.54576 40.8085 5.86765 42.1766 5.80078 43.6243Z" fill="#DFF3FA" stroke="#03BAD2" stroke-width="0.95" stroke-miterlimit="10"/>
<path d="M34.3402 41.3872C34.3258 42.5675 34.7255 43.7211 35.481 44.6797C36.2366 45.6384 37.3085 46.3522 38.5404 46.7166C39.468 46.9967 40.4553 47.0722 41.4211 46.9368C42.3869 46.8014 43.3037 46.4589 44.0961 45.9376C44.8884 45.4164 45.5337 44.7312 45.979 43.9384C46.4242 43.1456 46.6566 42.2678 46.6571 41.3772C46.6691 40.1961 46.2671 39.0422 45.5097 38.0837C44.7523 37.1252 43.679 36.4121 42.446 36.0481C41.5199 35.7679 40.534 35.6921 39.5695 35.8269C38.6049 35.9618 37.6893 36.3033 36.8979 36.8236C36.1065 37.3439 35.462 38.028 35.0173 38.8197C34.5727 39.6113 34.3406 40.4879 34.3402 41.3772V41.3872Z" fill="#DFF3FA" stroke="#03BAD2" stroke-width="0.95" stroke-miterlimit="10"/>
</svg>
