<svg xmlns="http://www.w3.org/2000/svg" width="100%" height="100%" viewBox="0 0 2240 2240" preserveAspectRatio="xMidYMid meet"><defs><marker viewBox="0 0 8 12" refX="0" refY="6" markerWidth="4" markerHeight="6" orient="auto" overflow="visible"><polygon points="0,0 8,6 0,12" fill="white"/></marker></defs><path class="link link--control" style="stroke: grey; stroke-width: 2px;" d="M 816.8994257071208 1018.8515890068455&#10;         L 1104.6379977772106 1131.851329204481"/><path class="link link--control" style="stroke: grey; stroke-width: 2px;" d="M 1409.793941050851 1180.4526721858676&#10;         L 1104.6379977772106 1131.851329204481"/><path class="link link--control" style="stroke: grey; stroke-width: 2px;" d="M 1179.7701084138914 855.2675080505469&#10;         L 1104.6379977772106 1131.851329204481"/><path class="link link--control" style="stroke: grey; stroke-width: 2px;" d="M 1023.6420285292905 1431.2371640382128&#10;         L 1104.6379977772106 1131.851329204481"/><path class="link link--control" style="stroke: grey; stroke-width: 2px;" d="M 567.1295354178477 933.4730376386119&#10;         L 816.8994257071208 1018.8515890068455"/><path class="link link--control" style="stroke: grey; stroke-width: 2px;" d="M 739.3994876369511 798.6079538045742&#10;         L 816.8994257071208 1018.8515890068455"/><path class="link link--control" style="stroke: grey; stroke-width: 2px;" d="M 625.8021085856138 1143.0904929170058&#10;         L 816.8994257071208 1018.8515890068455"/><path class="link link--control" style="stroke: grey; stroke-width: 2px;" d="M 1512.3930876638594 1384.2805720673398&#10;         L 1409.793941050851 1180.4526721858676"/><path class="link link--control" style="stroke: grey; stroke-width: 2px;" d="M 1668.5111512017795 1232.640304086117&#10;         L 1409.793941050851 1180.4526721858676"/><path class="link link--control" style="stroke: grey; stroke-width: 2px;" d="M 1587.6131026862367 1029.5279457404602&#10;         L 1409.793941050851 1180.4526721858676"/><path class="link link--control" style="stroke: grey; stroke-width: 2px;" d="M 1125.3908468904383 615.3041143830441&#10;         L 1179.7701084138914 855.2675080505469"/><path class="link link--control" style="stroke: grey; stroke-width: 2px;" d="M 1348.205817562048 676.0092122524917&#10;         L 1179.7701084138914 855.2675080505469"/><path class="link link--control" style="stroke: grey; stroke-width: 2px;" d="M 810.7268928099778 1518.486284787002&#10;         L 1023.6420285292905 1431.2371640382128"/><path class="link link--control" style="stroke: grey; stroke-width: 2px;" d="M 953.8117064225092 1686.5282826053308&#10;         L 1023.6420285292905 1431.2371640382128"/><path class="link link--control" style="stroke: grey; stroke-width: 2px;" d="M 1162.7109255621835 1614.9976579098686&#10;         L 1023.6420285292905 1431.2371640382128"/><rect class="node" width="130" height="40" rx="20" ry="20" style="fill: rgb(228, 26, 28);" x="1039.6379977772106" y="1111.851329204481"/><rect class="node" width="80" height="40" rx="20" ry="20" style="fill: rgb(55, 126, 184);" x="776.8994257071208" y="998.8515890068455"/><rect class="node" width="100" height="40" rx="20" ry="20" style="fill: rgb(77, 175, 74);" x="517.1295354178477" y="913.4730376386119"/><rect class="node" width="110" height="40" rx="20" ry="20" style="fill: rgb(77, 175, 74);" x="684.3994876369511" y="778.6079538045742"/><rect class="node" width="70" height="40" rx="20" ry="20" style="fill: rgb(77, 175, 74);" x="590.8021085856138" y="1123.0904929170058"/><rect class="node" width="110" height="40" rx="20" ry="20" style="fill: rgb(55, 126, 184);" x="1354.793941050851" y="1160.4526721858676"/><rect class="node" width="90" height="40" rx="20" ry="20" style="fill: rgb(77, 175, 74);" x="1467.3930876638594" y="1364.2805720673398"/><rect class="node" width="80" height="40" rx="20" ry="20" style="fill: rgb(77, 175, 74);" x="1628.5111512017795" y="1212.640304086117"/><rect class="node" width="130" height="40" rx="20" ry="20" style="fill: rgb(77, 175, 74);" x="1522.6131026862367" y="1009.5279457404602"/><rect class="node" width="170" height="40" rx="20" ry="20" style="fill: rgb(55, 126, 184);" x="1094.7701084138914" y="835.2675080505469"/><rect class="node" width="100" height="40" rx="20" ry="20" style="fill: rgb(77, 175, 74);" x="1075.3908468904383" y="595.3041143830441"/><rect class="node" width="120" height="40" rx="20" ry="20" style="fill: rgb(77, 175, 74);" x="1288.205817562048" y="656.0092122524917"/><rect class="node" width="150" height="40" rx="20" ry="20" style="fill: rgb(55, 126, 184);" x="948.6420285292905" y="1411.2371640382128"/><rect class="node" width="220" height="40" rx="20" ry="20" style="fill: rgb(77, 175, 74);" x="700.7268928099778" y="1498.486284787002"/><rect class="node" width="220" height="40" rx="20" ry="20" style="fill: rgb(77, 175, 74);" x="843.8117064225092" y="1666.5282826053308"/><rect class="node" width="240" height="40" rx="20" ry="20" style="fill: rgb(77, 175, 74);" x="1042.7109255621835" y="1594.9976579098686"/><text class="label" style="fill: white; text-anchor: middle; font-size: 16px;" x="1104.6379977772106" y="1136.9488061637096">Photography</text><text class="label" style="fill: white; text-anchor: middle; font-size: 16px;" x="816.8994257071208" y="1023.949065966074">Genres</text><text class="label" style="fill: white; text-anchor: middle; font-size: 16px;" x="567.1295354178477" y="938.5705145978404">Portrait</text><text class="label" style="fill: white; text-anchor: middle; font-size: 16px;" x="739.3994876369511" y="803.7054307638027">Landscape</text><text class="label" style="fill: white; text-anchor: middle; font-size: 16px;" x="625.8021085856138" y="1148.1879698762343">Event</text><text class="label" style="fill: white; text-anchor: middle; font-size: 16px;" x="1409.793941050851" y="1185.5501491450962">Equipment</text><text class="label" style="fill: white; text-anchor: middle; font-size: 16px;" x="1512.3930876638594" y="1389.3780490265683">Cameras</text><text class="label" style="fill: white; text-anchor: middle; font-size: 16px;" x="1668.5111512017795" y="1237.7377810453456">Lenses</text><text class="label" style="fill: white; text-anchor: middle; font-size: 16px;" x="1587.6131026862367" y="1034.6254226996887">Accessories</text><text class="label" style="fill: white; text-anchor: middle; font-size: 16px;" x="1179.7701084138914" y="860.3649850097754">Post-Processing</text><text class="label" style="fill: white; text-anchor: middle; font-size: 16px;" x="1125.3908468904383" y="620.4015913422726">Software</text><text class="label" style="fill: white; text-anchor: middle; font-size: 16px;" x="1348.205817562048" y="681.1066892117202">Techniques</text><text class="label" style="fill: white; text-anchor: middle; font-size: 16px;" x="1023.6420285292905" y="1436.3346409974413">Relationships</text><text class="label" style="fill: white; text-anchor: middle; font-size: 16px;" x="810.7268928099778" y="1523.5837617462305">Portrait -&gt; Lighting</text><text class="label" style="fill: white; text-anchor: middle; font-size: 16px;" x="953.8117064225092" y="1691.6257595645593">Landscape -&gt; Tripods</text><text class="label" style="fill: white; text-anchor: middle; font-size: 16px;" x="1162.7109255621835" y="1620.0951348690971">Event -&gt; Color Grading</text><text class="watermark" x="260" y="60" text-anchor="end" style="font-size: 60px; fill: lightgrey; opacity: 0.5;">code2diagram</text></svg>