<?xml version="1.0" encoding="UTF-8" standalone="no"?>
<!DOCTYPE svg PUBLIC "-//W3C//DTD SVG 1.1//EN"
 "http://www.w3.org/Graphics/SVG/1.1/DTD/svg11.dtd">
<!-- Generated by graphviz version 2.43.0 (0)
 -->
<!-- Title: protodot Pages: 1 -->
<svg width="311pt" height="154pt"
 viewBox="0.00 0.00 311.00 154.00" xmlns="http://www.w3.org/2000/svg" xmlns:xlink="http://www.w3.org/1999/xlink">
<g id="graph0" class="graph" transform="scale(1 1) rotate(0) translate(4 150)">
<title>protodot</title>
<!-- Node_Ja_100 -->
<g id="node1" class="node">
<title>Node_Ja_100</title>
<g id="a_node1"><a xlink:title=".Photo">
<polygon fill="#fffaf0" stroke="transparent" points="193,-4 193,-81 295,-81 295,-4 193,-4"/>
<polygon fill="#e31a1c" stroke="transparent" points="194,-64.5 194,-79.5 294,-79.5 294,-64.5 194,-64.5"/>
<text text-anchor="start" x="259" y="-70.5" font-family="Ubuntu" font-weight="bold" font-size="10.00">Photo</text>
<text text-anchor="start" x="200" y="-54.5" font-family="Ubuntu" font-size="10.00">1</text>
<text text-anchor="start" x="211" y="-54.5" font-family="Ubuntu" font-size="10.00">photoId</text>
<polygon fill="#a6cee3" stroke="transparent" points="262,-49.5 262,-64.5 294,-64.5 294,-49.5 262,-49.5"/>
<text text-anchor="start" x="264" y="-55.5" font-family="Ubuntu" font-style="italic" font-size="10.00">string</text>
<text text-anchor="start" x="200" y="-39.5" font-family="Ubuntu" font-size="10.00">2</text>
<text text-anchor="start" x="211" y="-39.5" font-family="Ubuntu" font-size="10.00">title</text>
<polygon fill="#a6cee3" stroke="transparent" points="262,-34.5 262,-49.5 294,-49.5 294,-34.5 262,-34.5"/>
<text text-anchor="start" x="264" y="-40.5" font-family="Ubuntu" font-style="italic" font-size="10.00">string</text>
<text text-anchor="start" x="200" y="-24.5" font-family="Ubuntu" font-size="10.00">3</text>
<text text-anchor="start" x="211" y="-24.5" font-family="Ubuntu" font-size="10.00">resolution</text>
<polygon fill="#a6cee3" stroke="transparent" points="262,-19.5 262,-34.5 294,-34.5 294,-19.5 262,-19.5"/>
<text text-anchor="start" x="264" y="-25.5" font-family="Ubuntu" font-style="italic" font-size="10.00">string</text>
<text text-anchor="start" x="200" y="-9.5" font-family="Ubuntu" font-size="10.00">4</text>
<text text-anchor="start" x="211" y="-9.5" font-family="Ubuntu" font-size="10.00">sizeInMB</text>
<polygon fill="#a6cee3" stroke="transparent" points="262,-4.5 262,-19.5 294,-19.5 294,-4.5 262,-4.5"/>
<text text-anchor="start" x="267" y="-10.5" font-family="Ubuntu" font-style="italic" font-size="10.00">int32</text>
<polygon fill="none" stroke="black" points="193,-4 193,-81 295,-81 295,-4 193,-4"/>
</a>
</g>
</g>
<!-- Node_Ja_101 -->
<g id="node2" class="node">
<title>Node_Ja_101</title>
<g id="a_node2"><a xlink:title=".Photographer">
<polygon fill="#fffaf0" stroke="transparent" points="8,-65 8,-142 141,-142 141,-65 8,-65"/>
<polygon fill="#e31a1c" stroke="transparent" points="9.5,-125.5 9.5,-140.5 140.5,-140.5 140.5,-125.5 9.5,-125.5"/>
<text text-anchor="start" x="59.5" y="-131.5" font-family="Ubuntu" font-weight="bold" font-size="10.00">Photographer</text>
<text text-anchor="start" x="15.5" y="-115.5" font-family="Ubuntu" font-size="10.00">1</text>
<text text-anchor="start" x="26.5" y="-115.5" font-family="Ubuntu" font-size="10.00">photographerId</text>
<polygon fill="#a6cee3" stroke="transparent" points="103.5,-110.5 103.5,-125.5 140.5,-125.5 140.5,-110.5 103.5,-110.5"/>
<text text-anchor="start" x="110.5" y="-116.5" font-family="Ubuntu" font-style="italic" font-size="10.00">string</text>
<text text-anchor="start" x="15.5" y="-100.5" font-family="Ubuntu" font-size="10.00">2</text>
<text text-anchor="start" x="26.5" y="-100.5" font-family="Ubuntu" font-size="10.00">name</text>
<polygon fill="#a6cee3" stroke="transparent" points="103.5,-95.5 103.5,-110.5 140.5,-110.5 140.5,-95.5 103.5,-95.5"/>
<text text-anchor="start" x="110.5" y="-101.5" font-family="Ubuntu" font-style="italic" font-size="10.00">string</text>
<text text-anchor="start" x="15.5" y="-85.5" font-family="Ubuntu" font-size="10.00">3</text>
<text text-anchor="start" x="26.5" y="-85.5" font-family="Ubuntu" font-size="10.00">email</text>
<polygon fill="#a6cee3" stroke="transparent" points="103.5,-80.5 103.5,-95.5 140.5,-95.5 140.5,-80.5 103.5,-80.5"/>
<text text-anchor="start" x="110.5" y="-86.5" font-family="Ubuntu" font-style="italic" font-size="10.00">string</text>
<text text-anchor="start" x="15.5" y="-70.5" font-family="Ubuntu" font-size="10.00">4</text>
<text text-anchor="start" x="26.5" y="-70.5" font-family="Ubuntu" font-size="10.00">photo</text>
<polygon fill="#fb9a99" stroke="transparent" points="103.5,-65.5 103.5,-80.5 140.5,-80.5 140.5,-65.5 103.5,-65.5"/>
<text text-anchor="start" x="105.5" y="-71.5" font-family="Ubuntu" font-weight="bold" font-size="10.00">Photo</text>
<polygon fill="none" stroke="black" points="8,-65 8,-142 141,-142 141,-65 8,-65"/>
</a>
</g>
</g>
<!-- Node_Ja_101&#45;&gt;Node_Ja_100 -->
<g id="edge1" class="edge">
<title>Node_Ja_101:e&#45;&gt;Node_Ja_100:header</title>
<g id="a_edge1"><a xlink:title="Ja_101 &#45;&#45;&gt; Ja_100">
<path fill="none" stroke="#000000" d="M141.5,-72.5C160.63,-72.5 167.77,-72.5 182.97,-72.5"/>
<polygon fill="#000000" stroke="#000000" points="183,-76 193,-72.5 183,-69 183,-76"/>
</a>
</g>
</g>
</g>
</svg>
