<svg width="48" height="44" viewBox="0 0 48 44" fill="none" xmlns="http://www.w3.org/2000/svg">
<path d="M35.3522 18.8572H13.3258C12.8427 18.8572 12.3792 18.6824 12.0375 18.371C11.6959 18.0596 11.5039 17.6372 11.5039 17.1968V3.95303C11.5039 3.51173 11.6955 3.08846 12.0369 2.77548C12.3782 2.46251 12.8417 2.28534 13.3258 2.28271H35.3522C35.8364 2.28534 36.2998 2.46251 36.6411 2.77548C36.9825 3.08846 37.1741 3.51173 37.1741 3.95303V17.1968C37.1741 17.6372 36.9822 18.0596 36.6405 18.371C36.2988 18.6824 35.8354 18.8572 35.3522 18.8572Z" fill="#3A8BBF" stroke="#DFF3FA" stroke-width="0.3" stroke-miterlimit="10"/>
<path d="M35.3548 20.1995H13.3393C12.4713 20.1995 11.6388 19.8852 11.0251 19.3259C10.4113 18.7665 10.0664 18.0078 10.0664 17.2167V3.98282C10.0664 3.19173 10.4113 2.43302 11.0251 1.87363C11.6388 1.31424 12.4713 1 13.3393 1H35.3439C36.2119 1 37.0443 1.31424 37.6581 1.87363C38.2719 2.43302 38.6167 3.19173 38.6167 3.98282V17.2266C38.6139 18.0143 38.2693 18.7689 37.6582 19.3259C37.047 19.8828 36.219 20.1969 35.3548 20.1995ZM12.9793 3.95296V17.1968C12.9778 17.2394 12.9858 17.2818 13.0027 17.3215C13.0196 17.3613 13.045 17.3975 13.0776 17.4281C13.1101 17.4587 13.1492 17.4831 13.1922 17.4997C13.2353 17.5163 13.2816 17.5247 13.3284 17.5247H35.3548C35.4503 17.5247 35.5418 17.4904 35.6094 17.4288C35.6769 17.3673 35.7148 17.2838 35.7148 17.1968V3.95296C35.7148 3.86594 35.6769 3.78243 35.6094 3.7209C35.5418 3.65937 35.4503 3.62478 35.3548 3.62478H13.3284C13.2816 3.62476 13.2353 3.63341 13.1922 3.65002C13.1492 3.66663 13.1101 3.69102 13.0776 3.72163C13.045 3.75224 13.0196 3.78844 13.0027 3.82819C12.9858 3.86795 12.9778 3.91035 12.9793 3.95296Z" fill="#DFF3FA" stroke="#3A8BBF" stroke-width="0.3" stroke-miterlimit="10"/>
<path d="M41.996 35.3621C41.6248 35.3229 41.2825 35.1601 41.0349 34.9051C40.7872 34.65 40.6517 34.3205 40.6541 33.98V28.0143C40.6541 27.8472 40.618 27.6818 40.5478 27.5274C40.4776 27.373 40.3748 27.2327 40.2451 27.1145C40.1154 26.9963 39.9615 26.9024 39.7921 26.8385C39.6227 26.7745 39.4411 26.7416 39.2577 26.7416H8.51459C8.45012 26.7416 8.38631 26.7534 8.32675 26.7758C8.26719 26.7983 8.21306 26.8312 8.16748 26.8727C8.12189 26.9142 8.08574 26.9636 8.06107 27.0179C8.0364 27.0721 8.02365 27.1305 8.02365 27.1892V34.4273C8.02594 34.4927 8.0125 34.5578 7.98423 34.6179C7.95596 34.678 7.91358 34.7319 7.86005 34.7754C7.67062 35.0128 7.40423 35.19 7.09843 35.282C6.79263 35.3741 6.46284 35.3764 6.15556 35.2886C5.84828 35.2007 5.57899 35.0272 5.38569 34.7924C5.19238 34.5577 5.08483 34.2734 5.07812 33.98V25.4493C5.07812 25.0801 5.23902 24.726 5.52545 24.4649C5.81188 24.2039 6.20035 24.0571 6.60542 24.0571H39.2468C40.4041 24.0571 41.5141 24.4762 42.3325 25.2221C43.1508 25.9679 43.6106 26.9794 43.6106 28.0342V33.9999C43.6146 34.1892 43.5747 34.3773 43.4933 34.5516C43.412 34.7259 43.2911 34.8825 43.1386 35.0111C42.9861 35.1398 42.8055 35.2376 42.6085 35.2981C42.4116 35.3585 42.2028 35.3804 41.996 35.3621Z" fill="#DFF3FA" stroke="#3A8BBF" stroke-width="0.3" stroke-miterlimit="10"/>
<path d="M22.8753 29.7146V18.9766C22.8701 18.637 23.0033 18.3075 23.2491 18.0522C23.495 17.7969 23.836 17.6338 24.2063 17.5944C24.4104 17.5778 24.616 17.6002 24.8101 17.6602C25.0042 17.7202 25.1824 17.8164 25.3334 17.9428C25.4843 18.0691 25.6047 18.2229 25.6867 18.394C25.7688 18.5652 25.8108 18.75 25.81 18.9368V29.7544C25.8108 29.9412 25.7688 30.126 25.6867 30.2971C25.6047 30.4683 25.4843 30.6221 25.3334 30.7484C25.1824 30.8747 25.0042 30.971 24.8101 31.031C24.616 31.0909 24.4104 31.1133 24.2063 31.0967C23.8351 31.0596 23.4926 30.8971 23.2463 30.6414C22.9999 30.3856 22.8676 30.0548 22.8753 29.7146Z" fill="#DFF3FA" stroke="#3A8BBF" stroke-width="0.3" stroke-miterlimit="10"/>
<path d="M6.50908 43.2466C5.42566 43.2565 4.36356 42.972 3.45822 42.4296C2.55288 41.8871 1.84527 41.1111 1.42566 40.2007C1.00606 39.2903 0.893455 38.2869 1.10219 37.3179C1.31092 36.3489 1.83152 35.4584 2.59765 34.7601C3.36379 34.0619 4.34077 33.5876 5.40395 33.3974C6.46713 33.2071 7.56835 33.3096 8.56728 33.692C9.5662 34.0745 10.4175 34.7193 11.0127 35.5444C11.6079 36.3695 11.92 37.3376 11.9093 38.325C11.895 39.6263 11.3216 40.8707 10.3119 41.7909C9.30224 42.7111 7.93691 43.2337 6.50908 43.2466ZM6.50908 36.0879C6.0236 36.0879 5.54899 36.2191 5.14532 36.4649C4.74166 36.7107 4.42706 37.0601 4.24128 37.4689C4.05549 37.8777 4.00687 38.3275 4.10158 38.7615C4.19629 39.1954 4.43008 39.5939 4.77337 39.9067C5.11666 40.2196 5.55404 40.4329 6.03019 40.5192C6.50635 40.6055 6.99989 40.5611 7.44842 40.3917C7.89695 40.2224 8.28031 39.9358 8.55003 39.5679C8.81975 39.2 8.96373 38.7675 8.96373 38.325C8.96373 37.7317 8.70507 37.1626 8.24473 36.7431C7.78439 36.3235 7.1601 36.0879 6.50908 36.0879Z" fill="#DFF3FA" stroke="#3A8BBF" stroke-width="0.3" stroke-miterlimit="10"/>
<path d="M28.2177 43.2369H20.461C20.0704 43.2369 19.6958 43.0954 19.4196 42.8437C19.1434 42.592 18.9883 42.2506 18.9883 41.8946V34.706C18.9911 34.3508 19.1472 34.011 19.4228 33.7598C19.6983 33.5086 20.0713 33.3665 20.461 33.3639H28.2614C28.6346 33.3596 28.996 33.4827 29.2746 33.7091C29.5532 33.9354 29.7287 34.2485 29.7669 34.5868C29.7867 34.7723 29.7637 34.9595 29.6991 35.1364C29.6346 35.3133 29.5301 35.4759 29.3923 35.6136C29.2545 35.7514 29.0865 35.8613 28.8992 35.9362C28.7119 36.0111 28.5095 36.0492 28.305 36.0484H21.9338V40.5525H26.745V38.7727C26.74 38.4315 26.8747 38.1009 27.1228 37.8454C27.3709 37.5899 27.7146 37.4278 28.0868 37.3907C28.29 37.3742 28.4948 37.3962 28.6882 37.4555C28.8815 37.5149 29.0591 37.6104 29.2099 37.7357C29.3607 37.8609 29.4812 38.0133 29.564 38.1833C29.6467 38.3533 29.6898 38.537 29.6905 38.7229V41.8946C29.692 42.0712 29.6548 42.2465 29.5813 42.4099C29.5078 42.5734 29.3994 42.722 29.2624 42.8469C29.1253 42.9718 28.9624 43.0704 28.783 43.1374C28.6037 43.2044 28.4115 43.2383 28.2177 43.2369Z" fill="#DFF3FA" stroke="#3A8BBF" stroke-width="0.3" stroke-miterlimit="10"/>
<path d="M42.1381 43.2467C41.0569 43.2466 40.0002 42.9538 39.102 42.4053C38.2038 41.8569 37.5048 41.0773 37.0936 40.166C36.6824 39.2547 36.5775 38.2528 36.7925 37.2871C37.0074 36.3214 37.5324 35.4357 38.3007 34.7424C39.069 34.0492 40.046 33.5797 41.1077 33.3935C42.1694 33.2074 43.2679 33.3128 44.2636 33.6967C45.2593 34.0806 46.1074 34.7255 46.7002 35.5496C47.293 36.3736 47.6037 37.3398 47.5929 38.3251C47.5785 39.6349 46.9974 40.8866 45.976 41.8082C44.9546 42.7298 43.5754 43.2468 42.1381 43.2467ZM42.1381 36.088C41.6526 36.088 41.178 36.2191 40.7743 36.4649C40.3707 36.7108 40.0561 37.0602 39.8703 37.4689C39.6845 37.8777 39.6359 38.3276 39.7306 38.7615C39.8253 39.1955 40.0591 39.5939 40.4024 39.9068C40.7457 40.2197 41.1831 40.4329 41.6592 40.5192C42.1354 40.6056 42.6289 40.5611 43.0774 40.3918C43.526 40.2225 43.9093 39.9358 44.179 39.5679C44.4488 39.2 44.5927 38.7675 44.5927 38.3251C44.5899 37.7326 44.3303 37.165 43.8706 36.746C43.4109 36.3271 42.7882 36.0906 42.1381 36.088Z" fill="#DFF3FA" stroke="#3A8BBF" stroke-width="0.3" stroke-miterlimit="10"/>
<path d="M20.4094 40.0652H10.5035C10.1321 40.0697 9.77209 39.9479 9.49375 39.7237C9.21542 39.4994 9.03866 39.1888 8.99802 38.8522C8.97988 38.667 9.00417 38.4803 9.06933 38.3041C9.13449 38.1279 9.23912 37.966 9.37656 37.8286C9.514 37.6912 9.68128 37.5814 9.86777 37.506C10.0543 37.4306 10.2559 37.3913 10.4599 37.3907H20.3221C20.6955 37.3837 21.0582 37.5041 21.3388 37.7286C21.6195 37.9531 21.7978 38.2654 21.8386 38.6037C21.8565 38.7864 21.8332 38.9705 21.77 39.1447C21.7068 39.3189 21.6051 39.4794 21.4712 39.6164C21.3372 39.7533 21.1739 39.8637 20.9913 39.9409C20.8087 40.0181 20.6107 40.0605 20.4094 40.0652Z" fill="#DFF3FA" stroke="#3A8BBF" stroke-width="0.3" stroke-miterlimit="10"/>
<path d="M33.2253 40.0652H28.327C27.9536 40.0722 27.5909 39.9516 27.3102 39.7271C27.0296 39.5026 26.8513 39.1905 26.8105 38.8522C26.7924 38.667 26.8167 38.4803 26.8818 38.3041C26.947 38.1279 27.0516 37.966 27.189 37.8286C27.3264 37.6912 27.4937 37.5814 27.6802 37.506C27.8667 37.4306 28.0683 37.3913 28.2724 37.3907H33.1817C33.555 37.3837 33.9177 37.5041 34.1984 37.7286C34.479 37.9531 34.6573 38.2654 34.6981 38.6037C34.7163 38.7897 34.6917 38.9771 34.6259 39.154C34.5601 39.3308 34.4545 39.4931 34.3159 39.6307C34.1773 39.7683 34.0087 39.878 33.8209 39.9528C33.6331 40.0276 33.4303 40.0659 33.2253 40.0652Z" fill="#DFF3FA" stroke="#3A8BBF" stroke-width="0.3" stroke-miterlimit="10"/>
<path d="M20.6259 8.19139H20.9931V10.3593C20.9931 10.5528 20.9576 10.7172 20.8865 10.8524C20.8154 10.9877 20.7152 11.0904 20.5859 11.1604C20.4566 11.2305 20.304 11.2656 20.1283 11.2656C19.9625 11.2656 19.8149 11.2355 19.6855 11.1753C19.5562 11.114 19.4545 11.0272 19.3805 10.9146C19.3065 10.8021 19.2694 10.6683 19.2694 10.5133H19.6308C19.6308 10.5992 19.652 10.6742 19.6944 10.7384C19.7379 10.8016 19.7971 10.851 19.8721 10.8865C19.9472 10.922 20.0325 10.9398 20.1283 10.9398C20.2339 10.9398 20.3238 10.9176 20.3978 10.8732C20.4719 10.8287 20.5281 10.7636 20.5666 10.6777C20.6061 10.5908 20.6259 10.4847 20.6259 10.3593V8.19139ZM23.3876 8.94958C23.3698 8.79952 23.2978 8.68303 23.1714 8.6001C23.045 8.51717 22.89 8.47571 22.7064 8.47571C22.5722 8.47571 22.4547 8.49743 22.354 8.54087C22.2543 8.58431 22.1763 8.64403 22.12 8.72005C22.0647 8.79606 22.0371 8.88244 22.0371 8.97919C22.0371 9.06014 22.0563 9.12974 22.0948 9.18799C22.1343 9.24525 22.1847 9.29313 22.2459 9.33163C22.3071 9.36914 22.3713 9.40024 22.4384 9.42492C22.5055 9.44861 22.5672 9.46786 22.6235 9.48267L22.9315 9.5656C23.0105 9.58633 23.0983 9.61496 23.1951 9.65149C23.2928 9.68801 23.3861 9.73787 23.475 9.80105C23.5648 9.86324 23.6388 9.94321 23.6971 10.0409C23.7553 10.1387 23.7845 10.2586 23.7845 10.4008C23.7845 10.5647 23.7415 10.7127 23.6556 10.845C23.5707 10.9773 23.4463 11.0825 23.2825 11.1604C23.1196 11.2384 22.9216 11.2774 22.6887 11.2774C22.4715 11.2774 22.2834 11.2424 22.1245 11.1723C21.9665 11.1022 21.8421 11.0045 21.7513 10.8791C21.6615 10.7537 21.6106 10.6081 21.5988 10.4422H21.9779C21.9877 10.5568 22.0262 10.6515 22.0934 10.7266C22.1615 10.8006 22.2474 10.8559 22.351 10.8924C22.4557 10.928 22.5682 10.9457 22.6887 10.9457C22.8288 10.9457 22.9547 10.923 23.0663 10.8776C23.1778 10.8312 23.2662 10.767 23.3313 10.6851C23.3965 10.6022 23.4291 10.5054 23.4291 10.3949C23.4291 10.2942 23.4009 10.2122 23.3447 10.149C23.2884 10.0859 23.2143 10.0345 23.1225 9.99504C23.0307 9.95555 22.9315 9.921 22.8249 9.89138L22.4517 9.78476C22.2148 9.71664 22.0272 9.6194 21.889 9.49304C21.7508 9.36667 21.6817 9.20132 21.6817 8.99696C21.6817 8.82716 21.7276 8.67908 21.8194 8.55271C21.9122 8.42536 22.0366 8.32664 22.1926 8.25655C22.3495 8.18547 22.5248 8.14993 22.7183 8.14993C22.9137 8.14993 23.0875 8.18498 23.2395 8.25507C23.3916 8.32417 23.512 8.41895 23.6008 8.53939C23.6907 8.65983 23.7381 8.79656 23.743 8.94958H23.3876ZM26.9471 9.70776C26.9471 10.0276 26.8894 10.304 26.7739 10.537C26.6584 10.77 26.4999 10.9497 26.2985 11.076C26.0971 11.2024 25.8671 11.2656 25.6085 11.2656C25.3498 11.2656 25.1198 11.2024 24.9184 11.076C24.717 10.9497 24.5586 10.77 24.4431 10.537C24.3276 10.304 24.2698 10.0276 24.2698 9.70776C24.2698 9.3879 24.3276 9.11148 24.4431 8.8785C24.5586 8.64551 24.717 8.46584 24.9184 8.33948C25.1198 8.21311 25.3498 8.14993 25.6085 8.14993C25.8671 8.14993 26.0971 8.21311 26.2985 8.33948C26.4999 8.46584 26.6584 8.64551 26.7739 8.8785C26.8894 9.11148 26.9471 9.3879 26.9471 9.70776ZM26.5917 9.70776C26.5917 9.44516 26.5478 9.22353 26.4599 9.04287C26.3731 8.86221 26.2551 8.72548 26.106 8.63268C25.9579 8.53988 25.7921 8.49348 25.6085 8.49348C25.4248 8.49348 25.2585 8.53988 25.1094 8.63268C24.9613 8.72548 24.8434 8.86221 24.7555 9.04287C24.6686 9.22353 24.6252 9.44516 24.6252 9.70776C24.6252 9.97036 24.6686 10.192 24.7555 10.3726C24.8434 10.5533 24.9613 10.69 25.1094 10.7828C25.2585 10.8756 25.4248 10.922 25.6085 10.922C25.7921 10.922 25.9579 10.8756 26.106 10.7828C26.2551 10.69 26.3731 10.5533 26.4599 10.3726C26.5478 10.192 26.5917 9.97036 26.5917 9.70776ZM29.9695 8.19139V11.2241H29.6141L27.9615 8.84296H27.9319V11.2241H27.5646V8.19139H27.92L29.5786 10.5785H29.6082V8.19139H29.9695Z" fill="#DFF3FA"/>
</svg>
