<svg width="59" height="38" viewBox="0 0 59 38" fill="none" xmlns="http://www.w3.org/2000/svg">
<path d="M33.7565 16.9724H38.9167C38.9763 16.9738 39.0357 16.9642 39.0912 16.9443C39.1467 16.9244 39.1973 16.8944 39.24 16.8564C39.2827 16.8184 39.3167 16.7733 39.3398 16.7231C39.363 16.673 39.3749 16.619 39.3749 16.5646V12.4285C39.3749 12.3742 39.363 12.3204 39.3398 12.2703C39.3167 12.2202 39.2827 12.1748 39.24 12.1368C39.1973 12.0988 39.1467 12.0688 39.0912 12.0489C39.0357 12.029 38.9763 12.0197 38.9167 12.021H33.7565C33.6379 12.021 33.5241 12.0637 33.4402 12.1402C33.3563 12.2166 33.3092 12.3204 33.3092 12.4285V16.5646C33.312 16.6737 33.3616 16.7773 33.4472 16.8535C33.5328 16.9297 33.6478 16.9725 33.7674 16.9724M26.6434 4.95159H31.8364C31.8961 4.95291 31.9554 4.94332 32.0109 4.92343C32.0665 4.90354 32.1171 4.87378 32.1597 4.8358C32.2024 4.79781 32.2364 4.75241 32.2596 4.70229C32.2827 4.65217 32.2946 4.5984 32.2946 4.54402V0.407686C32.2946 0.353305 32.2827 0.299536 32.2596 0.249418C32.2364 0.1993 32.2024 0.153896 32.1597 0.115909C32.1171 0.0779223 32.0665 0.0481709 32.0109 0.0282791C31.9554 0.00838734 31.8961 -0.00120538 31.8364 0.000120976H26.6762C26.5576 0.000120976 26.4438 0.0431007 26.3599 0.11955C26.276 0.196 26.2289 0.29957 26.2289 0.407686V4.54402C26.2289 4.65214 26.276 4.75571 26.3599 4.83216C26.4438 4.90861 26.5576 4.95159 26.6762 4.95159M26.6762 10.8575H31.8691C31.9888 10.8575 32.1037 10.815 32.1893 10.7388C32.2749 10.6626 32.3245 10.559 32.3273 10.45V6.31386C32.3274 6.25948 32.3154 6.20546 32.2923 6.15535C32.2691 6.10523 32.2352 6.05982 32.1925 6.02184C32.1498 5.98385 32.0992 5.9541 32.0436 5.93421C31.9881 5.91432 31.9287 5.90472 31.8691 5.90605H26.7089C26.5903 5.90605 26.4765 5.94903 26.3926 6.02548C26.3087 6.10193 26.2616 6.20574 26.2616 6.31386V10.45C26.2616 10.5581 26.3087 10.6616 26.3926 10.7381C26.4765 10.8145 26.5903 10.8575 26.7089 10.8575M19.5741 10.8575H24.7343C24.8529 10.8575 24.9667 10.8145 25.0506 10.7381C25.1344 10.6616 25.1815 10.5581 25.1815 10.45V6.31386C25.1815 6.20574 25.1344 6.10193 25.0506 6.02548C24.9667 5.94903 24.8529 5.90605 24.7343 5.90605H19.5741C19.4555 5.90605 19.3417 5.94903 19.2578 6.02548C19.1739 6.10193 19.1268 6.20574 19.1268 6.31386V10.45C19.1268 10.5581 19.1739 10.6616 19.2578 10.7381C19.3417 10.8145 19.4555 10.8575 19.5741 10.8575ZM12.2319 10.8575H17.4249C17.5435 10.8575 17.6573 10.8145 17.7412 10.7381C17.825 10.6616 17.8722 10.5581 17.8722 10.45V6.31386C17.8722 6.20574 17.825 6.10193 17.7412 6.02548C17.6573 5.94903 17.5435 5.90605 17.4249 5.90605H12.2647C12.146 5.90605 12.0323 5.94903 11.9484 6.02548C11.8645 6.10193 11.8173 6.20574 11.8173 6.31386V10.45C11.8173 10.5581 11.8645 10.6616 11.9484 10.7381C12.0323 10.8145 12.146 10.8575 12.2647 10.8575M26.6434 16.9525H31.8364C31.8961 16.9539 31.9554 16.9443 32.0109 16.9244C32.0665 16.9045 32.1171 16.8747 32.1597 16.8368C32.2024 16.7988 32.2364 16.7534 32.2596 16.7032C32.2827 16.6531 32.2946 16.5991 32.2946 16.5447V12.4086C32.2946 12.3005 32.2475 12.197 32.1636 12.1205C32.0797 12.0441 31.966 12.0011 31.8473 12.0011H26.6762C26.618 11.9997 26.56 12.0089 26.5058 12.0283C26.4516 12.0477 26.4022 12.0769 26.3605 12.114C26.3188 12.151 26.2857 12.1951 26.2631 12.2441C26.2405 12.293 26.2289 12.3456 26.2289 12.3987V16.5348C26.2289 16.6429 26.276 16.7467 26.3599 16.8232C26.4438 16.8996 26.5576 16.9426 26.6762 16.9426M19.5413 16.9426H24.7343C24.8529 16.9426 24.9667 16.8996 25.0506 16.8232C25.1344 16.7467 25.1815 16.6429 25.1815 16.5348V12.3987C25.183 12.3448 25.1725 12.2912 25.1506 12.2411C25.1286 12.1911 25.0957 12.1455 25.0539 12.1074C25.0121 12.0693 24.9621 12.0393 24.9072 12.0193C24.8523 11.9993 24.7934 11.9898 24.7343 11.9911H19.5741C19.4555 11.9911 19.3417 12.0341 19.2578 12.1106C19.1739 12.187 19.1268 12.2906 19.1268 12.3987V16.5348C19.1268 16.6429 19.1739 16.7467 19.2578 16.8232C19.3417 16.8996 19.4555 16.9426 19.5741 16.9426M12.2319 16.9426H17.4249C17.5435 16.9426 17.6573 16.8996 17.7412 16.8232C17.825 16.7467 17.8722 16.6429 17.8722 16.5348V12.3987C17.8722 12.2906 17.825 12.187 17.7412 12.1106C17.6573 12.0341 17.5435 11.9911 17.4249 11.9911H12.2647C12.146 11.9911 12.0323 12.0341 11.9484 12.1106C11.8645 12.187 11.8173 12.2906 11.8173 12.3987V16.5348C11.8173 16.6429 11.8645 16.7467 11.9484 16.8232C12.0323 16.8996 12.146 16.9426 12.2647 16.9426M5.33707 16.9426H10.5519C10.6705 16.9426 10.7843 16.8996 10.8682 16.8232C10.952 16.7467 10.9991 16.6429 10.9991 16.5348V12.3987C10.9991 12.2906 10.952 12.187 10.8682 12.1106C10.7843 12.0341 10.6705 11.9911 10.5519 11.9911H5.39167C5.33202 11.9898 5.27268 11.9994 5.21715 12.0193C5.16161 12.0392 5.11096 12.0689 5.06826 12.1069C5.02556 12.1449 4.99167 12.1903 4.96851 12.2404C4.94536 12.2905 4.9334 12.3443 4.93342 12.3987V16.5348C4.93627 16.6438 4.98583 16.7475 5.07146 16.8236C5.15708 16.8998 5.27202 16.9426 5.39167 16.9426M57.4193 14.3176C56.014 13.5003 54.3589 13.1138 52.6955 13.2141C51.8769 13.2222 51.0601 13.2853 50.2517 13.4029C50.0324 12.263 49.5492 11.1786 48.8344 10.222C48.1196 9.26542 47.1896 8.45841 46.1061 7.85479L45.277 7.41737L44.7315 8.13321C44.0437 9.07764 43.5416 10.1241 43.2477 11.2255C42.9619 12.1939 42.9007 13.206 43.0679 14.1972C43.2351 15.1883 43.627 16.1369 44.2187 16.9824C42.89 17.5242 41.4617 17.8343 40.0076 17.8971H1.82423C1.34867 17.8917 0.890129 18.0582 0.548761 18.36C0.207394 18.6618 0.0109632 19.0743 0.00235189 19.5077C-0.0414992 22.5104 0.528201 25.4944 1.6824 28.3071C2.73474 31.0911 4.78748 33.4699 7.50813 35.0582C10.3555 36.6292 15.003 37.524 20.2614 37.524C22.636 37.5312 25.0061 37.3381 27.3417 36.9473C30.5801 36.4202 33.7016 35.4125 36.582 33.9644C38.9431 32.7382 41.0753 31.1777 42.8987 29.3412C45.5528 26.5217 47.6395 23.2971 49.0626 19.8159H49.5971C50.7825 19.8617 51.9661 19.6919 53.0787 19.3164C54.1913 18.9408 55.2107 18.3671 56.0774 17.6286C56.8255 17.0018 57.4106 16.2307 57.7902 15.3716L58.0302 14.7453L57.4193 14.3176Z" fill="#E1F2FC"/>
</svg>
