<?xml version="1.0" encoding="UTF-8" standalone="no"?>
<!-- Created with Inkscape (http://www.inkscape.org/) -->

<svg
   version="1.1"
   id="svg1"
   width="943.86987"
   height="336.20154"
   viewBox="0 0 943.86987 336.20154"
   xmlns="http://www.w3.org/2000/svg"
   xmlns:svg="http://www.w3.org/2000/svg">
  <defs
     id="defs1" />
  <g
     id="g1"
     transform="translate(-19.844566,-11.552013)">
    <path
       style="fill:#232323"
       d="m 251.44992,336.47355 c -125.95,-6.46111 -229.89999,-11.95697 -230.99999,-12.21303 -4.850532,-1.12909 14.709367,-2.23486 235.99999,-13.34169 128.15,-6.43199 233.15835,-11.83398 233.35188,-12.00442 0.29104,-0.2563 -1.75902,-7.18898 -3.60452,-12.18945 -0.29464,-0.79832 0.48068,-1.25 2.14565,-1.25 h 2.60699 v -16.5 -16.5 h -93 -93 v -24.5 -24.5 h 92.5 c 50.875,0 92.5,-0.37955 92.5,-0.84345 0,-0.4639 -0.9,-3.45935 -2,-6.65655 -2.44528,-7.10734 -2.492,-6.5 0.5,-6.5 h 2.5 v -16.5 -16.5 l -33.25,-0.0131 C 292.5506,156.39656 115.54722,147.25127 81.363939,137.01752 32.839584,122.49037 215.72544,107.54376 442.69992,107.48681 c 25.9875,-0.007 47.25,-0.3914 47.25,-0.8553 0,-0.46389 -0.9,-3.45934 -2,-6.65655 -2.44528,-7.10734 -2.492,-6.5 0.5,-6.5 h 2.5 v -16.5 -16.5 h -5.89405 c -36.61035,0 -72.10595,-12.031998 -72.10595,-24.441858 0,-28.75323 132.87878,-33.95358 154.82061,-6.05907 10.7686,13.69006 -18.79076,27.756938 -63.33036,30.138008 l -12.49025,0.66773 v 16.34759 16.3476 h 2.56739 c 2.79767,0 2.78304,0.61529 -0.18718,7.87213 -0.75911,1.85466 -1.38021,3.92107 -1.38021,4.59201 0,0.94336 17.05778,1.3653 75.25,1.86136 176.74991,1.50671 315.22954,9.87506 337.26009,20.3807 29.38317,14.01186 -114.15728,25.54665 -347.76009,27.94571 l -65.75,0.67524 v 16.33642 16.33643 h 2.56739 c 2.79767,0 2.78304,0.61529 -0.18718,7.87212 -0.75911,1.85467 -1.38021,3.99217 -1.38021,4.75 0,1.16057 14.58821,1.37788 92.5,1.37788 h 92.5 v 24.5 24.5 h -93 -93 v 16.5 16.5 h 2.56739 c 2.79767,0 2.78304,0.61529 -0.18718,7.87212 -2.37002,5.79041 -2.40214,5.77138 10.86979,6.44277 6.7375,0.34084 111.7,5.60957 233.25,11.70829 213.22179,10.69832 226.37539,11.43476 225.20174,12.60841 -0.46938,0.46938 -108.77747,6.10579 -390.44787,20.31912 -96.36239,4.86253 -49.25607,6.02676 -321.75387,-7.95212 z m 468,-1.04661 c 119.35,-6.02405 219.025,-11.00483 221.5,-11.0684 2.475,-0.0636 3.825,-0.29723 3,-0.51924 -3.70553,-0.99715 -452.37894,-23.20993 -460.44254,-22.79543 -4.9816,0.25607 -102.43246,5.17032 -216.55746,10.92055 -114.125,5.75024 -212.67499,10.77492 -218.99999,11.16597 -9.41788,0.58227 28.331849,2.74664 208.49999,11.95424 121,6.18378 222.925,11.39513 226.5,11.58079 3.575,0.18566 9.425,0.19734 13,0.026 3.575,-0.17138 104.15,-5.24037 223.5,-11.26443 z m -473.75,-3.61426 c 0.7807,-0.31502 1.25,-2.50673 1.25,-5.83772 0,-3.34763 -0.4654,-5.50952 -1.25,-5.80654 -0.6875,-0.26027 0.775,-0.47424 3.25,-0.4755 5.1892,-0.003 7,1.10506 7,4.28204 0,2.86557 -2.40077,4.88996 -4.99467,4.21164 -2.2714,-0.59398 -2.96475,2.73456 -0.75533,3.62608 0.6875,0.27741 -0.325,0.50438 -2.25,0.50438 -1.925,0 -2.9375,-0.22697 -2.25,-0.50438 z m 7.75,-7.85142 c 0,-2.31277 -0.44799,-2.9863 -1.9863,-2.9863 -2.07927,0 -3.10726,2.51082 -2.1013,5.13232 1.04496,2.72312 4.0876,1.12572 4.0876,-2.14602 z m 111.16667,7.84703 c -1.34679,-1.34678 -0.61901,-2.53867 0.8206,-1.3439 1.77965,1.47698 4.51273,0.65063 4.51273,-1.36443 0,-0.94671 -0.6849,-1.25866 -2.00533,-0.91336 -2.5939,0.67832 -4.99467,-1.34607 -4.99467,-4.21164 0,-3.17698 1.8108,-4.28469 7,-4.28204 2.475,10e-4 3.9375,0.21523 3.25,0.4755 -0.75644,0.28636 -1.25,2.33558 -1.25,5.18987 0,5.95154 -4.16685,9.61648 -7.33333,6.45 z m 4.83333,-7.84703 c 0,-2.31277 -0.44799,-2.9863 -1.9863,-2.9863 -2.07927,0 -3.10726,2.51082 -2.1013,5.13232 1.04496,2.72312 4.0876,1.12572 4.0876,-2.14602 z m 38.5,7.54508 c 0,-0.53274 0.61693,-0.73187 1.37096,-0.44253 2.22214,0.85272 2.47515,-1.79198 0.59228,-6.19119 -1.49325,-3.4889 -2.18254,-4.08704 -4.60952,-4 -3.19207,0.11447 -4.80035,5.06977 -2.1838,6.72852 0.92835,0.58852 0.57499,0.84782 -1.16992,0.8585 -2.28818,0.014 -2.5,-0.3555 -2.5,-4.3612 v -4.37651 l 6.5,-0.1183 c 3.575,-0.0651 5.97558,0.21989 5.33462,0.63324 -0.87806,0.56624 -0.84724,1.346 0.125,3.16263 l 1.29038,2.4111 1.17124,-2.18849 c 0.64419,-1.20367 0.89888,-2.62919 0.56599,-3.16782 -0.3329,-0.53863 0.43379,-0.97244 1.70375,-0.96402 1.26996,0.008 1.85902,0.34592 1.30902,0.75 -0.55,0.40408 -2.23261,3.32219 -3.73913,6.48469 -2.37664,4.98903 -5.76087,7.79787 -5.76087,4.78138 z m 216.75,0.30634 c 0.78055,-0.31496 1.25,-2.506 1.25,-5.83406 v -5.32966 l -3.25,0.163 c -3.56167,0.17863 -5.39556,5.00432 -2.58008,6.78918 0.92835,0.58852 0.57499,0.84782 -1.16992,0.8585 -2.29061,0.014 -2.5,-0.35362 -2.5,-4.38944 v -4.40477 l 8,-0.004 c 8.59196,-0.004 10.5,0.77973 10.5,4.31332 0,2.86557 -2.40077,4.88996 -4.99467,4.21164 -2.2714,-0.59398 -2.96475,2.73456 -0.75533,3.62608 0.6875,0.27741 -0.325,0.50438 -2.25,0.50438 -1.925,0 -2.9375,-0.22697 -2.25,-0.50438 z m 7.75,-7.85142 c 0,-2.31277 -0.44799,-2.9863 -1.9863,-2.9863 -2.07927,0 -3.10726,2.51082 -2.1013,5.13232 1.04496,2.72312 4.0876,1.12572 4.0876,-2.14602 z m -304.5,-0.9863 c 0,-8.18252 0.084,-8.49567 2.25,-8.384 1.69317,0.0873 1.81691,0.22918 0.5,0.57332 -1.46655,0.38325 -1.75,1.64837 -1.75,7.81068 0,6.1623 0.28345,7.42742 1.75,7.81067 1.31691,0.34415 1.19317,0.48603 -0.5,0.57333 -2.16596,0.11166 -2.25,-0.20148 -2.25,-8.384 z m 405.25,7.81067 c 1.46655,-0.38325 1.75,-1.64837 1.75,-7.81067 0,-6.16231 -0.28345,-7.42743 -1.75,-7.81068 -1.07666,-0.28136 -0.6919,-0.50195 1,-0.57332 l 2.75,-0.116 v 8.5 8.5 l -2.75,-0.116 c -1.6919,-0.0714 -2.07666,-0.29197 -1,-0.57333 z m -196.23105,-0.56067 c 0.73884,-9.74947 9.98105,-21.81215 9.98105,-13.027 0,2.45835 0.38276,2.85035 2.75,2.81642 2.42083,-0.0347 2.78966,0.37848 3.08135,3.45184 0.18225,1.92019 0.85725,3.8258 1.5,4.23469 0.68854,0.438 0.13072,0.74971 -1.35778,0.75873 -2.35611,0.0143 -2.50009,-0.26076 -2.13587,-4.07999 0.33959,-3.56096 0.14733,-4.04913 -1.47358,-3.74144 -2.26837,0.43059 -3.17352,5.70815 -1.1942,6.96293 0.92858,0.58867 0.57543,0.84845 -1.16992,0.8606 -2.44619,0.017 -2.49278,-0.12255 -2.16467,-6.48468 0.45437,-8.81045 -1.23825,-8.38439 -3.96439,0.9979 -1.63198,5.61665 -4.07695,10.21842 -3.85199,7.25 z m 99.35691,-1.28709 c 0.32441,-0.84539 1.32237,-4.10789 2.2177,-7.25 1.4396,-5.0522 3.40644,-8.9938 3.40644,-6.8266 0,2.38678 -4.45689,15.61369 -5.26112,15.61369 -0.52407,0 -0.68743,-0.69169 -0.36302,-1.53709 z m -377.87586,-4.84848 v -4.38557 l 3.75,-0.0517 c 2.0625,-0.0285 3.75,0.29327 3.75,0.71497 0,0.42169 -1.0125,0.73099 -2.25,0.68732 -2.63632,-0.093 -3.88603,5.08493 -1.58008,6.54678 0.92835,0.58852 0.57499,0.84782 -1.16992,0.8585 -2.28896,0.014 -2.5,-0.35489 -2.5,-4.37025 z m 9.7,3.18557 c -1.64218,-1.64219 -1.50959,-5.29817 0.24496,-6.75432 2.01846,-1.67518 5.5704,-0.93249 7.17721,1.5007 2.69849,4.0863 -3.91106,8.76473 -7.42217,5.25362 z m 5.3,-3.3137 c 0,-2.31277 -0.44799,-2.9863 -1.9863,-2.9863 -2.07927,0 -3.10726,2.51082 -2.1013,5.13232 1.04496,2.72312 4.0876,1.12572 4.0876,-2.14602 z m 5.91578,0.0129 -2.08422,-4.49921 2.58422,0.0153 c 1.50744,0.009 2.09863,0.32424 1.41884,0.75672 -0.8778,0.55845 -0.84695,1.33641 0.125,3.15251 l 1.29038,2.4111 1.17124,-2.18849 c 0.64419,-1.20367 0.89888,-2.62919 0.56599,-3.16782 -0.3329,-0.53863 0.43379,-0.97244 1.70375,-0.96402 1.26996,0.008 1.85902,0.34592 1.30902,0.75 -0.55,0.40408 -1.78022,2.42219 -2.73382,4.48469 -2.21967,4.80082 -2.81753,4.71693 -5.3504,-0.75079 z m 10.08422,7.9e-4 c 0,-2.93334 0.43519,-4.5 1.25,-4.5 0.78723,0 1.25,1.45 1.25,3.91666 0,2.19766 0.54862,4.13804 1.25,4.42106 0.6875,0.27741 0.125,0.53991 -1.25,0.58333 -2.30799,0.0729 -2.5,-0.26667 -2.5,-4.42105 z m 6.61667,3.21666 c -2.9642,-2.96419 -0.0149,-8.44632 3.98174,-7.40118 1.85248,0.48444 2.05669,0.19464 1.67852,-2.38197 -0.29163,-1.98705 -0.002,-2.93351 0.89626,-2.93351 0.96456,0 1.32681,1.75189 1.32681,6.41666 0,4.22106 0.42772,6.57425 1.25,6.8772 0.6875,0.25329 -0.835,0.47829 -3.38333,0.5 -2.54834,0.0217 -5.13584,-0.46303 -5.75,-1.0772 z m 5.38333,-3.23036 c 0,-2.31277 -0.44799,-2.9863 -1.9863,-2.9863 -2.07927,0 -3.10726,2.51082 -2.1013,5.13232 1.04496,2.72312 4.0876,1.12572 4.0876,-2.14602 z m 6.7,3.3137 c -0.66,-0.66 -1.2,-2.145 -1.2,-3.3 0,-1.155 0.54,-2.64 1.2,-3.3 2.47623,-2.47623 7.8,-0.76989 7.8,2.5 0,0.8248 -1.30983,1.3 -3.58333,1.3 -2.41956,0 -3.44964,0.40597 -3.17168,1.25 0.51177,1.55397 4.75501,2.28532 4.75501,0.81955 0,-0.58825 0.5051,-1.06955 1.12244,-1.06955 0.77551,0 0.73766,0.46363 -0.12244,1.5 -1.49539,1.80183 -5.13749,1.96251 -6.8,0.3 z m 5.55,-5.05 c -0.22917,-0.6875 -1.24167,-1.25 -2.25,-1.25 -1.00833,0 -2.02083,0.5625 -2.25,1.25 -0.26389,0.79166 0.56111,1.25 2.25,1.25 1.68889,0 2.51389,-0.45834 2.25,-1.25 z m 4.75,1.86443 v -4.38557 l 3.75,-0.0517 c 2.0625,-0.0285 3.75,0.29327 3.75,0.71497 0,0.42169 -1.0125,0.73099 -2.25,0.68732 -2.63632,-0.093 -3.88603,5.08493 -1.58008,6.54678 0.92835,0.58852 0.57499,0.84782 -1.16992,0.8585 -2.28896,0.014 -2.5,-0.35489 -2.5,-4.37025 z m 25,0 v -4.38557 l 3.75,-0.0517 c 2.0625,-0.0285 3.75,0.29327 3.75,0.71497 0,0.42169 -1.0125,0.73099 -2.25,0.68732 -2.63632,-0.093 -3.88603,5.08493 -1.58008,6.54678 0.92835,0.58852 0.57499,0.84782 -1.16992,0.8585 -2.28896,0.014 -2.5,-0.35489 -2.5,-4.37025 z m 9.7,3.18557 c -0.66,-0.66 -1.2,-2.145 -1.2,-3.3 0,-1.155 0.54,-2.64 1.2,-3.3 2.47623,-2.47623 7.8,-0.76989 7.8,2.5 0,0.8248 -1.30983,1.3 -3.58333,1.3 -2.41956,0 -3.44964,0.40597 -3.17168,1.25 0.51177,1.55397 4.75501,2.28532 4.75501,0.81955 0,-0.58825 0.5051,-1.06955 1.12244,-1.06955 0.77551,0 0.73766,0.46363 -0.12244,1.5 -1.49539,1.80183 -5.13749,1.96251 -6.8,0.3 z m 5.55,-5.05 c -0.22917,-0.6875 -1.24167,-1.25 -2.25,-1.25 -1.00833,0 -2.02083,0.5625 -2.25,1.25 -0.26389,0.79166 0.56111,1.25 2.25,1.25 1.68889,0 2.51389,-0.45834 2.25,-1.25 z m 16.75,1.75 c 0,-2.93334 0.43519,-4.5 1.25,-4.5 0.78723,0 1.25,1.45 1.25,3.91666 0,2.19766 0.54862,4.13804 1.25,4.42106 0.6875,0.27741 0.125,0.53991 -1.25,0.58333 -2.30799,0.0729 -2.5,-0.26667 -2.5,-4.42105 z m 6.16667,3.83333 c -1.47453,-1.47452 -0.54073,-2.27163 1.30837,-1.11685 1.54686,0.96603 2.23776,0.97071 3.18688,0.0216 0.94911,-0.94911 0.50986,-1.45654 -2.0261,-2.34058 -2.1437,-0.7473 -3.13157,-1.68107 -2.92318,-2.76313 0.40944,-2.12608 5.93596,-2.23896 6.57903,-0.13437 0.3699,1.2106 0.2027,1.25883 -0.86667,0.25 -1.61393,-1.52257 -3.925,-1.63915 -3.925,-0.19798 0,0.57861 1.35,1.52263 3,2.09782 3.24541,1.13136 3.95954,3.26797 1.41821,4.24317 -2.08856,0.80146 -4.91978,0.77208 -5.75154,-0.0597 z m 11.03457,0.0346 c -0.38568,-0.38568 -0.70124,-2.16374 -0.70124,-3.95124 0,-1.7875 -0.5625,-3.47697 -1.25,-3.75438 -1,-0.40351 -1,-0.52018 0,-0.58334 0.6875,-0.0434 1.25,-0.75394 1.25,-1.57894 0,-0.825 0.45,-1.5 1,-1.5 0.55,0 1,0.642 1,1.42667 0,0.78467 0.7875,1.63247 1.75,1.884 1.66667,0.43555 1.66667,0.46285 0,0.57333 -1.31124,0.0869 -1.75,0.99352 -1.75,3.616 0,3.33621 1.25613,4.66386 2.34167,2.475 0.27958,-0.56375 0.39229,-0.45125 0.25046,0.25 -0.29338,1.45063 -2.83623,2.19756 -3.89089,1.1429 z m 24.29876,-0.36792 c 0,-0.55 0.45,-1 1,-1 0.55,0 1,0.45 1,1 0,0.55 -0.45,1 -1,1 -0.55,0 -1,-0.45 -1,-1 z m 6.70124,0.3679 c -0.38568,-0.38568 -0.70124,-2.16374 -0.70124,-3.95124 0,-1.7875 -0.5625,-3.47697 -1.25,-3.75438 -1,-0.40351 -1,-0.52018 0,-0.58334 0.6875,-0.0434 1.25,-0.75394 1.25,-1.57894 0,-0.825 0.45,-1.5 1,-1.5 0.55,0 1,0.642 1,1.42667 0,0.78467 0.7875,1.63247 1.75,1.884 1.66667,0.43555 1.66667,0.46285 0,0.57333 -1.31124,0.0869 -1.75,0.99352 -1.75,3.616 0,3.33621 1.25613,4.66386 2.34167,2.475 0.27958,-0.56375 0.39229,-0.45125 0.25046,0.25 -0.29338,1.45063 -2.83623,2.19756 -3.89089,1.1429 z m 7.49876,-0.5679 c -0.66,-0.66 -1.2,-2.145 -1.2,-3.3 0,-1.155 0.54,-2.64 1.2,-3.3 2.47623,-2.47623 7.8,-0.76989 7.8,2.5 0,0.8248 -1.30983,1.3 -3.58333,1.3 -2.41956,0 -3.44964,0.40597 -3.17168,1.25 0.51177,1.55397 4.75501,2.28532 4.75501,0.81955 0,-0.58825 0.5051,-1.06955 1.12244,-1.06955 0.77551,0 0.73766,0.46363 -0.12244,1.5 -1.49539,1.80183 -5.13749,1.96251 -6.8,0.3 z m 5.55,-5.05 c -0.22917,-0.6875 -1.24167,-1.25 -2.25,-1.25 -1.00833,0 -2.02083,0.5625 -2.25,1.25 -0.26389,0.79166 0.56111,1.25 2.25,1.25 1.68889,0 2.51389,-0.45834 2.25,-1.25 z m 4.75,1.86443 v -4.38557 l 3.75,-0.0517 c 2.0625,-0.0285 3.75,0.29327 3.75,0.71497 0,0.42169 -1.0125,0.73099 -2.25,0.68732 -2.63632,-0.093 -3.88603,5.08493 -1.58008,6.54678 0.92835,0.58852 0.57499,0.84782 -1.16992,0.8585 -2.28896,0.014 -2.5,-0.35489 -2.5,-4.37025 z m 9,0 v -4.38557 l 3.75,-0.0517 c 2.0625,-0.0285 3.75,0.29327 3.75,0.71497 0,0.42169 -1.0125,0.73099 -2.25,0.68732 -2.63632,-0.093 -3.88603,5.08493 -1.58008,6.54678 0.92835,0.58852 0.57499,0.84782 -1.16992,0.8585 -2.28896,0.014 -2.5,-0.35489 -2.5,-4.37025 z m 8.88,2.93345 c -0.82613,-2.15287 0.42384,-3.54788 3.17902,-3.54788 1.50309,0 2.44098,-0.57634 2.44098,-1.5 0,-1.82334 -2.1145,-1.95802 -3.925,-0.25 -1.06937,1.00883 -1.23657,0.9606 -0.86667,-0.25 1.03196,-3.37731 6.26276,-1.80463 6.62302,1.99126 0.18225,1.92019 0.85725,3.8258 1.5,4.23469 0.64276,0.40888 -0.98297,0.75031 -3.61273,0.75873 -3.2684,0.0105 -4.95771,-0.44418 -5.33862,-1.4368 z m 5.62,-1.04788 c 0,-0.83334 -0.88889,-1.5 -2,-1.5 -1.99224,0 -2.60112,1.06554 -1.33333,2.33333 1.21793,1.21793 3.33333,0.68908 3.33333,-0.83333 z m 5.68482,-3.06782 c 0.10165,-3.0636 0.71925,-6.21413 1.37244,-7.00118 1.3002,-1.56664 4.94274,-1.96615 4.94274,-0.54211 0,0.48889 -0.77026,0.82639 -1.71169,0.75 -2.34519,-0.1903 -2.87543,3.0699 -0.5954,3.66079 1.65864,0.42984 1.66333,0.47784 0.0571,0.58432 -2.09499,0.13887 -2.5307,6.63431 -0.5,7.45372 0.6875,0.27741 0.125,0.54044 -1.25,0.5845 -2.39817,0.0769 -2.49247,-0.14676 -2.31518,-5.49004 z m 7.51518,4.36782 c -1.64218,-1.64219 -1.50959,-5.29817 0.24496,-6.75432 2.01846,-1.67518 5.5704,-0.93249 7.17721,1.5007 2.69849,4.0863 -3.91106,8.76473 -7.42217,5.25362 z m 5.3,-3.3137 c 0,-2.31277 -0.44799,-2.9863 -1.9863,-2.9863 -2.07927,0 -3.10726,2.51082 -2.1013,5.13232 1.04496,2.72312 4.0876,1.12572 4.0876,-2.14602 z m 5,0.12813 v -4.38557 l 3.75,-0.0517 c 2.0625,-0.0285 3.75,0.29327 3.75,0.71497 0,0.42169 -1.0125,0.73099 -2.25,0.68732 -2.63632,-0.093 -3.88603,5.08493 -1.58008,6.54678 0.92835,0.58852 0.57499,0.84782 -1.16992,0.8585 -2.28896,0.014 -2.5,-0.35489 -2.5,-4.37025 z m 9,-0.009 v -4.39478 l 7,0.14478 7,0.14479 0.33135,3.49126 c 0.18225,1.92019 0.85725,3.8258 1.5,4.23469 0.68854,0.438 0.13072,0.74971 -1.35778,0.75873 -2.35611,0.0143 -2.50009,-0.26076 -2.13587,-4.07999 0.33959,-3.56096 0.14733,-4.04913 -1.47358,-3.74144 -2.26837,0.43059 -3.17352,5.70815 -1.1942,6.96293 0.92621,0.58716 0.56295,0.84784 -1.19635,0.8585 -2.35611,0.0143 -2.50009,-0.26076 -2.13587,-4.07999 0.33959,-3.56096 0.14733,-4.04913 -1.47358,-3.74144 -2.26837,0.43059 -3.17352,5.70815 -1.1942,6.96293 0.92835,0.58852 0.57499,0.84782 -1.16992,0.8585 -2.28975,0.014 -2.5,-0.35428 -2.5,-4.37947 z m 18.5,3.39479 c 0,-0.55 0.45,-1 1,-1 0.55,0 1,0.45 1,1 0,0.55 -0.45,1 -1,1 -0.55,0 -1,-0.45 -1,-1 z m 5.5,-3.5 c 0,-2.93334 0.43519,-4.5 1.25,-4.5 0.78723,0 1.25,1.45 1.25,3.91666 0,2.19766 0.54862,4.13804 1.25,4.42106 0.6875,0.27741 0.125,0.53991 -1.25,0.58333 -2.30799,0.0729 -2.5,-0.26667 -2.5,-4.42105 z m 6.7,3.3 c -1.64218,-1.64219 -1.50959,-5.29817 0.24496,-6.75432 2.01846,-1.67518 5.5704,-0.93249 7.17721,1.5007 2.69849,4.0863 -3.91106,8.76473 -7.42217,5.25362 z m 5.3,-3.3137 c 0,-2.31277 -0.44799,-2.9863 -1.9863,-2.9863 -2.07927,0 -3.10726,2.51082 -2.1013,5.13232 1.04496,2.72312 4.0876,1.12572 4.0876,-2.14602 z m 22.88,3.06158 c -0.82613,-2.15309 0.42384,-3.5481 3.17902,-3.5481 1.50309,0 2.44098,-0.57634 2.44098,-1.5 0,-1.82334 -2.1145,-1.95802 -3.925,-0.25 -1.06937,1.00883 -1.23657,0.9606 -0.86667,-0.25 1.03196,-3.37731 6.26276,-1.80463 6.62302,1.99126 0.18225,1.92019 0.85725,3.8258 1.5,4.23469 0.64276,0.40888 -0.98297,0.75031 -3.61273,0.75873 -3.2684,0.0105 -4.95771,-0.44418 -5.33862,-1.4368 z m 5.62,-1.04788 c 0,-0.83334 -0.88889,-1.5 -2,-1.5 -1.99224,0 -2.60112,1.06554 -1.33333,2.33333 1.21793,1.21793 3.33333,0.68908 3.33333,-0.83333 z m 5.66667,1.83333 c -1.47453,-1.47452 -0.54073,-2.27163 1.30837,-1.11685 1.54686,0.96603 2.23776,0.97071 3.18688,0.0216 0.94911,-0.94911 0.50986,-1.45654 -2.0261,-2.34058 -2.1437,-0.7473 -3.13157,-1.68107 -2.92318,-2.76313 0.40944,-2.12608 5.93596,-2.23896 6.57903,-0.13437 0.3699,1.2106 0.2027,1.25883 -0.86667,0.25 -1.61393,-1.52257 -3.925,-1.63915 -3.925,-0.19798 0,0.57861 1.35,1.52263 3,2.09782 3.24541,1.13136 3.95954,3.26797 1.41821,4.24317 -2.08856,0.80146 -4.91978,0.77208 -5.75154,-0.0597 z m 9.83333,-6.33355 c 0,-4.93334 0.36905,-7 1.25,-7 0.70125,0 1.25,1.22455 1.25,2.78942 0,2.38589 0.39782,2.78372 2.75,2.75 2.42083,-0.0347 2.78966,0.37848 3.08135,3.45184 0.18225,1.92019 0.85725,3.8258 1.5,4.23469 0.68854,0.438 0.13072,0.74971 -1.35778,0.75873 -2.35611,0.0143 -2.50009,-0.26076 -2.13587,-4.07999 0.33959,-3.56096 0.14733,-4.04913 -1.47358,-3.74144 -2.26837,0.43059 -3.17352,5.70815 -1.1942,6.96293 0.92835,0.58852 0.57499,0.84782 -1.16992,0.8585 -2.43003,0.0149 -2.5,-0.1806 -2.5,-6.98468 z m 12,2.5 c 0,-2.93334 0.43519,-4.5 1.25,-4.5 0.78723,0 1.25,1.45 1.25,3.91666 0,2.19766 0.54862,4.13804 1.25,4.42106 0.6875,0.27741 0.125,0.53991 -1.25,0.58333 -2.30799,0.0729 -2.5,-0.26667 -2.5,-4.42105 z m 6.7,3.3 c -2.78825,-2.78825 -0.69002,-7.81412 3.25,-7.78469 2.53998,0.019 5.23484,1.63318 4.29521,2.57282 -0.38328,0.38328 -1.37702,0.1324 -2.20831,-0.55751 -2.17314,-1.80354 -4.5369,-0.51698 -4.5369,2.46938 0,2.84357 2.50864,4.39135 4.26722,2.63278 1.68635,-1.68635 3.17522,-1.37082 1.73278,0.36722 -1.49539,1.80183 -5.13749,1.96251 -6.8,0.3 z m 10,0 c -1.64218,-1.64219 -1.50959,-5.29817 0.24496,-6.75432 2.01846,-1.67518 5.5704,-0.93249 7.17721,1.5007 2.69849,4.0863 -3.91106,8.76473 -7.42217,5.25362 z m 5.3,-3.3137 c 0,-2.31277 -0.44799,-2.9863 -1.9863,-2.9863 -2.07927,0 -3.10726,2.51082 -2.1013,5.13232 1.04496,2.72312 4.0876,1.12572 4.0876,-2.14602 z m 31.88,3.06158 c -0.82613,-2.15287 0.42384,-3.54788 3.17902,-3.54788 1.50309,0 2.44098,-0.57634 2.44098,-1.5 0,-1.82334 -2.1145,-1.95802 -3.925,-0.25 -1.06937,1.00883 -1.23657,0.9606 -0.86667,-0.25 1.03196,-3.37731 6.26276,-1.80463 6.62302,1.99126 0.18225,1.92019 0.85725,3.8258 1.5,4.23469 0.64276,0.40888 -0.98297,0.75031 -3.61273,0.75873 -3.2684,0.0105 -4.95771,-0.44418 -5.33862,-1.4368 z m 5.62,-1.04788 c 0,-0.83334 -0.88889,-1.5 -2,-1.5 -1.99224,0 -2.60112,1.06554 -1.33333,2.33333 1.21793,1.21793 3.33333,0.68908 3.33333,-0.83333 z m 5,1.67431 c 0,-0.45413 1.125,-1.88257 2.5,-3.17431 1.375,-1.29175 2.5,-2.72019 2.5,-3.17432 0,-1.32168 -3.78249,-0.95168 -4.33772,0.42432 -0.30132,0.74674 -0.53617,0.54544 -0.58333,-0.5 -0.0626,-1.38816 0.74812,-1.75 3.92105,-1.75 4.83174,0 4.91118,0.46469 0.80383,4.70239 l -3.19616,3.29761 h 2.61283 c 1.43706,0 2.83981,-0.5625 3.11722,-1.25 0.30132,-0.74674 0.53617,-0.54544 0.58333,0.5 0.0626,1.38816 -0.74812,1.75 -3.92105,1.75 -2.2,0 -4,-0.37156 -4,-0.82569 z m 11.58333,0.0757 c -0.32083,-0.32084 -0.58333,-2.04584 -0.58333,-3.83334 0,-1.7875 -0.5625,-3.47697 -1.25,-3.75438 -0.6875,-0.27741 -0.2375,-0.53991 1,-0.58334 1.97801,-0.0694 2.25,0.41347 2.25,3.99438 0,3.34471 0.31303,4.01134 1.75,3.72677 1.29169,-0.25579 1.75,-1.32274 1.75,-4.07398 0,-2.31562 0.47345,-3.72718 1.25,-3.72677 0.78712,4.1e-4 1.25,1.45101 1.25,3.91732 0,2.22106 0.54115,4.11604 1.25,4.3772 0.6875,0.25329 -0.85,0.47829 -3.41667,0.5 -2.56666,0.0217 -4.92916,-0.22303 -5.25,-0.54386 z m 10.91667,-3.63557 v -4.38557 l 3.75,-0.0517 c 2.0625,-0.0285 3.75,0.29327 3.75,0.71497 0,0.42169 -1.0125,0.73099 -2.25,0.68732 -2.63632,-0.093 -3.88603,5.08493 -1.58008,6.54678 0.92835,0.58852 0.57499,0.84782 -1.16992,0.8585 -2.28896,0.014 -2.5,-0.35489 -2.5,-4.37025 z m 9.7,3.18557 c -0.66,-0.66 -1.2,-2.145 -1.2,-3.3 0,-1.155 0.54,-2.64 1.2,-3.3 2.47623,-2.47623 7.8,-0.76989 7.8,2.5 0,0.8248 -1.30983,1.3 -3.58333,1.3 -2.41956,0 -3.44964,0.40597 -3.17168,1.25 0.51177,1.55397 4.75501,2.28532 4.75501,0.81955 0,-0.58825 0.5051,-1.06955 1.12244,-1.06955 0.77551,0 0.73766,0.46363 -0.12244,1.5 -1.49539,1.80183 -5.13749,1.96251 -6.8,0.3 z m 5.55,-5.05 c -0.22917,-0.6875 -1.24167,-1.25 -2.25,-1.25 -1.00833,0 -2.02083,0.5625 -2.25,1.25 -0.26389,0.79166 0.56111,1.25 2.25,1.25 1.68889,0 2.51389,-0.45834 2.25,-1.25 z m 4.75,1.86443 v -4.38557 l 3.75,-0.0517 c 2.0625,-0.0285 3.75,0.29327 3.75,0.71497 0,0.42169 -1.0125,0.73099 -2.25,0.68732 -2.63632,-0.093 -3.88603,5.08493 -1.58008,6.54678 0.92835,0.58852 0.57499,0.84782 -1.16992,0.8585 -2.28896,0.014 -2.5,-0.35489 -2.5,-4.37025 z m 9,-0.009 v -4.39478 l 7,0.14478 7,0.14479 0.33135,3.49126 c 0.18225,1.92019 0.85725,3.8258 1.5,4.23469 0.68854,0.438 0.13072,0.74971 -1.35778,0.75873 -2.35611,0.0143 -2.50009,-0.26076 -2.13587,-4.07999 0.33959,-3.56096 0.14733,-4.04913 -1.47358,-3.74144 -2.26837,0.43059 -3.17352,5.70815 -1.1942,6.96293 0.92621,0.58716 0.56295,0.84784 -1.19635,0.8585 -2.35611,0.0143 -2.50009,-0.26076 -2.13587,-4.07999 0.33959,-3.56096 0.14733,-4.04913 -1.47358,-3.74144 -2.26837,0.43059 -3.17352,5.70815 -1.1942,6.96293 0.92835,0.58852 0.57499,0.84782 -1.16992,0.8585 -2.28975,0.014 -2.5,-0.35428 -2.5,-4.37947 z m -370.30505,-7.10544 c 0.0204,-1.65 0.2445,-2.20394 0.49804,-1.23097 0.25354,0.97297 0.23687,2.32297 -0.037,3 -0.27393,0.67703 -0.48137,-0.11903 -0.46099,-1.76903 z m 2.80505,0 c 0,-1.375 0.45,-2.5 1,-2.5 0.55,0 1,1.125 1,2.5 0,1.375 -0.45,2.5 -1,2.5 -0.55,0 -1,-1.125 -1,-2.5 z m 386.19495,0 c 0.0204,-1.65 0.2445,-2.20394 0.49804,-1.23097 0.25354,0.97297 0.23687,2.32297 -0.0371,3 -0.27393,0.67703 -0.48137,-0.11903 -0.46099,-1.76903 z m 2.80505,0 c 0,-1.375 0.45,-2.5 1,-2.5 0.55,0 1,1.125 1,2.5 0,1.375 -0.45,2.5 -1,2.5 -0.55,0 -1,-1.125 -1,-2.5 z m -437,-0.5 c 0,-0.55 0.45,-1 1,-1 0.55,0 1,0.45 1,1 0,0.55 -0.45,1 -1,1 -0.55,0 -1,-0.45 -1,-1 z m 86,0 c 0,-0.55 0.45,-1 1,-1 0.55,0 1,0.45 1,1 0,0.55 -0.45,1 -1,1 -0.55,0 -1,-0.45 -1,-1 z m 146,0 c 0,-0.55 0.45,-1 1,-1 0.55,0 1,0.45 1,1 0,0.55 -0.45,1 -1,1 -0.55,0 -1,-0.45 -1,-1 z m 68,0 c 0,-0.55 0.45,-1 1,-1 0.55,0 1,0.45 1,1 0,0.55 -0.45,1 -1,1 -0.55,0 -1,-0.45 -1,-1 z m 86.76842,-88.74733 0.26843,-23.24732 H 491.46834 305.94992 v 23.49997 23.49997 l 185.25,-0.25265 185.25,-0.25264 z m -278.51842,8.03107 c 1.5125,-0.22912 3.9875,-0.22912 5.5,0 1.5125,0.22913 0.275,0.41659 -2.75,0.41659 -3.025,0 -4.2625,-0.18746 -2.75,-0.41659 z m 72,0 c 1.5125,-0.22912 3.9875,-0.22912 5.5,0 1.5125,0.22913 0.275,0.41659 -2.75,0.41659 -3.025,0 -4.2625,-0.18746 -2.75,-0.41659 z m 91.5,0.054 c 0.7807,-0.31502 1.25,-2.50673 1.25,-5.83772 0,-3.34763 -0.4654,-5.50952 -1.25,-5.80654 -0.6875,-0.26027 0.775,-0.47424 3.25,-0.4755 5.1892,-0.003 7,1.10506 7,4.28204 0,2.86557 -2.40077,4.88996 -4.99467,4.21164 -2.2714,-0.59398 -2.96475,2.73456 -0.75533,3.62608 0.6875,0.27741 -0.325,0.50438 -2.25,0.50438 -1.925,0 -2.9375,-0.22697 -2.25,-0.50438 z m 7.75,-7.85142 c 0,-2.31277 -0.44799,-2.9863 -1.9863,-2.9863 -2.07927,0 -3.10726,2.51082 -2.1013,5.13232 1.04496,2.72312 4.0876,1.12572 4.0876,-2.14602 z m 47.75,7.79744 c 1.5125,-0.22912 3.9875,-0.22912 5.5,0 1.5125,0.22913 0.275,0.41659 -2.75,0.41659 -3.025,0 -4.2625,-0.18746 -2.75,-0.41659 z m -299.87,-4.73586 c -0.82613,-2.15289 0.42384,-3.5479 3.17902,-3.5479 1.50309,0 2.44098,-0.57634 2.44098,-1.5 0,-1.82334 -2.1145,-1.95802 -3.925,-0.25 -1.06937,1.00883 -1.23657,0.9606 -0.86667,-0.25 1.03196,-3.37731 6.26276,-1.80463 6.62302,1.99126 0.18225,1.92019 0.85725,3.8258 1.5,4.23469 0.64276,0.40888 -0.98297,0.75031 -3.61273,0.75873 -3.2684,0.0105 -4.95771,-0.44418 -5.33862,-1.4368 z m 5.62,-1.04788 c 0,-0.83334 -0.88889,-1.5 -2,-1.5 -1.99224,0 -2.60112,1.06554 -1.33333,2.33333 1.21793,1.21793 3.33333,0.68908 3.33333,-0.83333 z m 5,1.67431 c 0,-0.45413 1.125,-1.88257 2.5,-3.17431 1.375,-1.29175 2.5,-2.72019 2.5,-3.17432 0,-1.32168 -3.78249,-0.95168 -4.33772,0.42432 -0.30132,0.74674 -0.53617,0.54544 -0.58333,-0.5 -0.0626,-1.38816 0.74812,-1.75 3.92105,-1.75 4.83174,0 4.91118,0.46469 0.80383,4.70239 l -3.19616,3.29759 h 2.61283 c 1.43706,0 2.83981,-0.5625 3.11722,-1.25 0.30132,-0.74674 0.53617,-0.54544 0.58333,0.5 0.0626,1.38816 -0.74812,1.75 -3.92105,1.75 -2.2,0 -4,-0.37156 -4,-0.82569 z m 11.58333,0.0757 c -0.32083,-0.32084 -0.58333,-2.04584 -0.58333,-3.83334 0,-1.7875 -0.5625,-3.47697 -1.25,-3.75438 -0.6875,-0.27741 -0.2375,-0.53991 1,-0.58334 1.97801,-0.0694 2.25,0.41347 2.25,3.99438 0,3.34471 0.31303,4.01134 1.75,3.72677 1.29169,-0.25579 1.75,-1.32274 1.75,-4.07398 0,-2.31562 0.47345,-3.72718 1.25,-3.72677 0.78712,4.1e-4 1.25,1.45101 1.25,3.91732 0,2.22106 0.54115,4.11604 1.25,4.3772 0.6875,0.25329 -0.85,0.47829 -3.41667,0.5 -2.56666,0.0217 -4.92916,-0.22303 -5.25,-0.54386 z m 10.91667,-3.63557 v -4.38557 l 3.75,-0.0517 c 2.0625,-0.0285 3.75,0.29327 3.75,0.71497 0,0.42169 -1.0125,0.73099 -2.25,0.68732 -2.63632,-0.093 -3.88603,5.08493 -1.58008,6.54678 0.92835,0.58852 0.57499,0.84782 -1.16992,0.8585 -2.28896,0.014 -2.5,-0.35489 -2.5,-4.37025 z m 9.7,3.18557 c -2.805,-2.805 -0.69173,-7.8 3.3,-7.8 2.36855,0 4.5,1.75253 4.5,3.7 0,0.8248 -1.30983,1.3 -3.58333,1.3 -2.41956,0 -3.44964,0.40597 -3.17168,1.25 0.51177,1.55397 4.75501,2.28532 4.75501,0.81955 0,-0.58825 0.5051,-1.06955 1.12244,-1.06955 0.77551,0 0.73766,0.46363 -0.12244,1.5 -1.49539,1.80183 -5.13749,1.96251 -6.8,0.3 z m 5.55,-5.05 c -0.22917,-0.6875 -1.24167,-1.25 -2.25,-1.25 -1.00833,0 -2.02083,0.5625 -2.25,1.25 -0.26389,0.79166 0.56111,1.25 2.25,1.25 1.68889,0 2.51389,-0.45834 2.25,-1.25 z m 4.75,1.86443 v -4.38557 l 3.75,-0.0517 c 2.0625,-0.0285 3.75,0.29327 3.75,0.71497 0,0.42169 -1.0125,0.73099 -2.25,0.68732 -2.63632,-0.093 -3.88603,5.08493 -1.58008,6.54678 0.92835,0.58852 0.57499,0.84782 -1.16992,0.8585 -2.28896,0.014 -2.5,-0.35489 -2.5,-4.37025 z m 9,-0.009 v -4.39478 l 7,0.14478 7,0.14479 0.33135,3.49126 c 0.18225,1.92019 0.85725,3.8258 1.5,4.23469 0.68854,0.438 0.13072,0.74971 -1.35778,0.75873 -2.35611,0.0143 -2.50009,-0.26076 -2.13587,-4.07999 0.33959,-3.56096 0.14733,-4.04913 -1.47358,-3.74144 -2.26837,0.43059 -3.17352,5.70815 -1.1942,6.96293 0.92621,0.58716 0.56295,0.84784 -1.19635,0.8585 -2.35611,0.0143 -2.50009,-0.26076 -2.13587,-4.07999 0.33959,-3.56096 0.14733,-4.04913 -1.47358,-3.74144 -2.26837,0.43059 -3.17352,5.70815 -1.1942,6.96293 0.92835,0.58852 0.57499,0.84782 -1.16992,0.8585 -2.28975,0.014 -2.5,-0.35428 -2.5,-4.37947 z m 27.91578,-0.106 -2.08422,-4.49921 2.58422,0.0153 c 1.50744,0.009 2.09863,0.32424 1.41884,0.75672 -0.8778,0.55845 -0.84695,1.33641 0.125,3.15251 l 1.29038,2.4111 1.17124,-2.18849 c 0.64419,-1.20367 0.89888,-2.62919 0.56599,-3.16782 -0.3329,-0.53863 0.43379,-0.97244 1.70375,-0.96402 1.26996,0.008 1.85902,0.34592 1.30902,0.75 -0.55,0.40408 -1.78022,2.42219 -2.73382,4.48469 -2.21967,4.80082 -2.81753,4.71693 -5.3504,-0.75079 z m 10.08422,7.9e-4 c 0,-2.93334 0.43519,-4.5 1.25,-4.5 0.78723,0 1.25,1.45 1.25,3.91666 0,2.19766 0.54862,4.13804 1.25,4.42106 0.6875,0.27741 0.125,0.53991 -1.25,0.58333 -2.30799,0.0729 -2.5,-0.26667 -2.5,-4.42105 z m 6,-0.0205 c 0,-3.41185 0.36787,-4.48723 1.5,-4.38484 4.79663,0.4338 8,-0.20473 8,-1.59465 0,-0.825 0.45,-1.5 1,-1.5 0.55,0 1,0.642 1,1.42667 0,0.78467 0.7875,1.63247 1.75,1.884 1.66667,0.43555 1.66667,0.46285 0,0.57333 -1.31124,0.0869 -1.75,0.99352 -1.75,3.616 0,3.33621 1.25613,4.66386 2.34167,2.475 0.27958,-0.56375 0.39208,-0.45125 0.25,0.25 -0.63773,3.14749 -4.09182,1.27316 -4.39672,-2.38584 -0.28553,-3.42657 -0.5095,-3.65054 -3.5,-3.5 -3.51017,0.17671 -5.31212,5.02016 -2.52503,6.78702 0.92835,0.58852 0.57499,0.84782 -1.16992,0.8585 -2.30023,0.0141 -2.5,-0.3459 -2.5,-4.50519 z m 18.08333,3.77025 c -0.32083,-0.32084 -0.58333,-2.04584 -0.58333,-3.83334 0,-1.7875 -0.5625,-3.47697 -1.25,-3.75438 -0.6875,-0.27741 -0.2375,-0.53991 1,-0.58334 1.97801,-0.0694 2.25,0.41347 2.25,3.99438 0,3.34471 0.31303,4.01134 1.75,3.72677 1.29169,-0.25579 1.75,-1.32274 1.75,-4.07398 0,-2.31562 0.47345,-3.72718 1.25,-3.72677 0.78712,4.1e-4 1.25,1.45101 1.25,3.91732 0,2.22106 0.54115,4.11604 1.25,4.3772 0.6875,0.25329 -0.85,0.47829 -3.41667,0.5 -2.56666,0.0217 -4.92916,-0.22303 -5.25,-0.54386 z m 10.79667,-0.70212 c -0.82613,-2.15287 0.42384,-3.54788 3.17902,-3.54788 1.50309,0 2.44098,-0.57634 2.44098,-1.5 0,-1.82334 -2.1145,-1.95802 -3.925,-0.25 -1.06937,1.00883 -1.23657,0.9606 -0.86667,-0.25 1.08342,-3.54572 6.26861,-1.77858 6.60204,2.25 0.24314,2.93775 0.73048,3.75 2.25,3.75 2.34461,0 2.98253,-11.41252 0.68963,-12.33772 -0.6875,-0.27741 -0.2375,-0.53991 1,-0.58334 2.10777,-0.0739 2.25,0.32668 2.25,6.33772 0,4.19766 0.43227,6.5911 1.25,6.92106 0.6875,0.27741 -2.25162,0.53991 -6.53138,0.58333 -5.93379,0.0602 -7.9137,-0.26584 -8.33862,-1.37317 z m 5.62,-1.04788 c 0,-0.83334 -0.88889,-1.5 -2,-1.5 -1.99224,0 -2.60112,1.06554 -1.33333,2.33333 1.21793,1.21793 3.33333,0.68908 3.33333,-0.83333 z m 20.5,-1.93196 v -4.43196 l 4,0.18196 c 3.79821,0.17278 4.01672,0.35808 4.33135,3.67322 0.18225,1.92019 0.85725,3.8258 1.5,4.23469 0.68854,0.438 0.13072,0.74971 -1.35778,0.75873 -2.35611,0.0143 -2.50009,-0.26076 -2.13587,-4.07999 0.33959,-3.56096 0.14733,-4.04913 -1.47358,-3.74144 -2.26837,0.43059 -3.17352,5.70815 -1.1942,6.96293 0.92835,0.58852 0.57499,0.84782 -1.16992,0.8585 -2.29291,0.014 -2.5,-0.3518 -2.5,-4.41664 z m 12.7,3.23196 c -2.805,-2.805 -0.69173,-7.8 3.3,-7.8 2.36855,0 4.5,1.75253 4.5,3.7 0,0.8248 -1.30983,1.3 -3.58333,1.3 -2.41956,0 -3.44964,0.40597 -3.17168,1.25 0.51177,1.55397 4.75501,2.28532 4.75501,0.81955 0,-0.58825 0.5051,-1.06955 1.12244,-1.06955 0.77551,0 0.73766,0.46363 -0.12244,1.5 -1.49539,1.80183 -5.13749,1.96251 -6.8,0.3 z m 5.55,-5.05 c -0.22917,-0.6875 -1.24167,-1.25 -2.25,-1.25 -1.00833,0 -2.02083,0.5625 -2.25,1.25 -0.26389,0.79166 0.56111,1.25 2.25,1.25 1.68889,0 2.51389,-0.45834 2.25,-1.25 z m 5.95124,5.6179 c -0.38568,-0.38568 -0.70124,-2.16374 -0.70124,-3.95124 0,-1.7875 -0.5625,-3.47697 -1.25,-3.75438 -1,-0.40351 -1,-0.52018 0,-0.58334 0.6875,-0.0434 1.25,-0.75394 1.25,-1.57894 0,-0.825 0.45,-1.5 1,-1.5 0.55,0 1,0.642 1,1.42667 0,0.78467 0.7875,1.63247 1.75,1.884 1.66667,0.43555 1.66667,0.46285 0,0.57333 -1.31124,0.0869 -1.75,0.99352 -1.75,3.616 0,3.33621 1.25613,4.66386 2.34167,2.475 0.27958,-0.56375 0.39229,-0.45125 0.25046,0.25 -0.29338,1.45063 -2.83623,2.19756 -3.89089,1.1429 z m 8.2314,-3.1179 c -0.67236,-2.0625 -1.71975,-4.08061 -2.32755,-4.48469 -0.6078,-0.40408 0.24491,-0.73469 1.89491,-0.73469 1.68366,0 2.48866,0.32532 1.83462,0.74141 -0.8791,0.55928 -0.85306,1.325 0.10603,3.11706 l 1.27141,2.37566 1.09195,-3.13238 c 1.37221,-3.93631 1.85438,-3.92045 3.57538,0.11763 l 1.38512,3.25 0.99185,-2.5 c 0.69338,-1.74768 0.65358,-2.72109 -0.13225,-3.23469 -0.65648,-0.42906 -0.18459,-0.74106 1.13436,-0.75 1.86966,-0.0127 2.08493,0.28597 1.25044,1.73469 -0.55443,0.9625 -1.4471,2.9875 -1.98373,4.5 -1.21478,3.42391 -2.61368,3.5257 -3.43582,0.25 -0.34511,-1.375 -1.02011,-2.5 -1.5,-2.5 -0.4799,0 -1.1549,1.125 -1.5,2.5 -0.89261,3.55643 -2.24002,3.09583 -3.65672,-1.25 z m 15.26736,2.55 c -1.64218,-1.64219 -1.50959,-5.29817 0.24496,-6.75432 2.01846,-1.67518 5.5704,-0.93249 7.17721,1.5007 2.69849,4.0863 -3.91106,8.76473 -7.42217,5.25362 z m 5.3,-3.3137 c 0,-2.31277 -0.44799,-2.9863 -1.9863,-2.9863 -2.07927,0 -3.10726,2.51082 -2.1013,5.13232 1.04496,2.72312 4.0876,1.12572 4.0876,-2.14602 z m 5,0.12813 v -4.38557 l 3.75,-0.0517 c 2.0625,-0.0285 3.75,0.29327 3.75,0.71497 0,0.42169 -1.0125,0.73099 -2.25,0.68732 -2.63632,-0.093 -3.88603,5.08493 -1.58008,6.54678 0.92835,0.58852 0.57499,0.84782 -1.16992,0.8585 -2.28896,0.014 -2.5,-0.35489 -2.5,-4.37025 z m 9.34547,-1.74459 c 0.24544,-4.35756 -0.0442,-6.38072 -1,-6.98651 -0.97406,-0.61732 -0.72438,-0.85693 0.90453,-0.86802 2.01507,-0.0137 2.25347,0.48065 2.28327,4.73469 l 0.0333,4.75 1.87702,-2.25 c 1.03236,-1.2375 2.64225,-2.25 3.57752,-2.25 1.38022,0 1.25586,0.3761 -0.6603,1.99694 l -2.36078,1.99695 2.80576,2.50305 2.80574,2.50306 h -2.72243 c -1.49734,0 -2.42634,-0.2961 -2.06444,-0.65799 0.75703,-0.75703 -1.13576,-3.34201 -2.4471,-3.34201 -1.349,0 -1.04016,2.76772 0.37244,3.33772 0.6875,0.27741 0.125,0.54073 -1.25,0.58515 -2.43965,0.0788 -2.49166,-0.0673 -2.15453,-6.05303 z m 11.15453,5.13016 c 0,-0.55 0.45,-1 1,-1 0.55,0 1,0.45 1,1 0,0.55 -0.45,1 -1,1 -0.55,0 -1,-0.45 -1,-1 z m 17.5,-6 c 0,-4.93334 0.36905,-7 1.25,-7 0.70125,0 1.25,1.22455 1.25,2.78942 0,2.38589 0.39782,2.78372 2.75,2.75 2.42083,-0.0347 2.78966,0.37848 3.08135,3.45184 0.18225,1.92019 0.85725,3.8258 1.5,4.23469 0.68854,0.438 0.13072,0.74971 -1.35778,0.75873 -2.35611,0.0143 -2.50009,-0.26076 -2.13587,-4.07999 0.33959,-3.56096 0.14733,-4.04913 -1.47358,-3.74144 -2.26837,0.43059 -3.17352,5.70815 -1.1942,6.96293 0.92835,0.58852 0.57499,0.84782 -1.16992,0.8585 -2.43003,0.0149 -2.5,-0.1806 -2.5,-6.98468 z m 12.7,5.8 c -1.64218,-1.64219 -1.50959,-5.29817 0.24496,-6.75432 2.01846,-1.67518 5.5704,-0.93249 7.17721,1.5007 2.69849,4.0863 -3.91106,8.76473 -7.42217,5.25362 z m 5.3,-3.3137 c 0,-2.31277 -0.44799,-2.9863 -1.9863,-2.9863 -2.07927,0 -3.10726,2.51082 -2.1013,5.13232 1.04496,2.72312 4.0876,1.12572 4.0876,-2.14602 z m 6.20124,3.8816 c -0.38568,-0.38568 -0.70124,-2.16374 -0.70124,-3.95124 0,-1.7875 -0.5625,-3.47697 -1.25,-3.75438 -1,-0.40351 -1,-0.52018 0,-0.58334 0.6875,-0.0434 1.25,-0.75394 1.25,-1.57894 0,-0.825 0.45,-1.5 1,-1.5 0.55,0 1,0.642 1,1.42667 0,0.78467 0.7875,1.63247 1.75,1.884 1.66667,0.43555 1.66667,0.46285 0,0.57333 -1.31124,0.0869 -1.75,0.99352 -1.75,3.616 0,3.33621 1.25613,4.66386 2.34167,2.475 0.27958,-0.56375 0.39229,-0.45125 0.25046,0.25 -0.29338,1.45063 -2.83623,2.19756 -3.89089,1.1429 z m 7.49876,-0.5679 c -1.64218,-1.64219 -1.50959,-5.29817 0.24496,-6.75432 2.01846,-1.67518 5.5704,-0.93249 7.17721,1.5007 2.69849,4.0863 -3.91106,8.76473 -7.42217,5.25362 z m 5.3,-3.3137 c 0,-2.31277 -0.44799,-2.9863 -1.9863,-2.9863 -2.07927,0 -3.10726,2.51082 -2.1013,5.13232 1.04496,2.72312 4.0876,1.12572 4.0876,-2.14602 z m 14.91578,0.0129 -2.08422,-4.49921 2.58422,0.0153 c 1.50744,0.009 2.09863,0.32424 1.41884,0.75672 -0.8778,0.55845 -0.84695,1.33641 0.125,3.15251 l 1.29038,2.4111 1.17124,-2.18849 c 0.64419,-1.20367 0.89888,-2.62919 0.56599,-3.16782 -0.3329,-0.53863 0.43379,-0.97244 1.70375,-0.96402 1.26996,0.008 1.85902,0.34592 1.30902,0.75 -0.55,0.40408 -1.78022,2.42219 -2.73382,4.48469 -2.21967,4.80082 -2.81753,4.71693 -5.3504,-0.75079 z m 10.08422,0.0688 V 223.611 l 4,0.18196 c 3.79821,0.17278 4.01672,0.35808 4.33135,3.67322 0.18225,1.92019 0.85725,3.8258 1.5,4.23469 0.68854,0.438 0.13072,0.74971 -1.35778,0.75873 -2.35611,0.0143 -2.50009,-0.26076 -2.13587,-4.07999 0.33959,-3.56096 0.14733,-4.04913 -1.47358,-3.74144 -2.26837,0.43059 -3.17352,5.70815 -1.1942,6.96293 0.92835,0.58852 0.57499,0.84782 -1.16992,0.8585 -2.29291,0.014 -2.5,-0.3518 -2.5,-4.41664 z m 12.7,3.23196 c -2.805,-2.805 -0.69173,-7.8 3.3,-7.8 2.36855,0 4.5,1.75253 4.5,3.7 0,0.8248 -1.30983,1.3 -3.58333,1.3 -2.41956,0 -3.44964,0.40597 -3.17168,1.25 0.51177,1.55397 4.75501,2.28532 4.75501,0.81955 0,-0.58825 0.5051,-1.06955 1.12244,-1.06955 0.77551,0 0.73766,0.46363 -0.12244,1.5 -1.49539,1.80183 -5.13749,1.96251 -6.8,0.3 z m 5.55,-5.05 c -0.22917,-0.6875 -1.24167,-1.25 -2.25,-1.25 -1.00833,0 -2.02083,0.5625 -2.25,1.25 -0.26389,0.79166 0.56111,1.25 2.25,1.25 1.68889,0 2.51389,-0.45834 2.25,-1.25 z m 5.95124,5.6179 c -0.38568,-0.38568 -0.70124,-2.16374 -0.70124,-3.95124 0,-1.7875 -0.5625,-3.47697 -1.25,-3.75438 -1,-0.40351 -1,-0.52018 0,-0.58334 0.6875,-0.0434 1.25,-0.75394 1.25,-1.57894 0,-0.825 0.45,-1.5 1,-1.5 0.55,0 1,0.642 1,1.42667 0,0.78467 0.7875,1.63247 1.75,1.884 1.66667,0.43555 1.66667,0.46285 0,0.57333 -1.31124,0.0869 -1.75,0.99352 -1.75,3.616 0,3.33621 1.25613,4.66386 2.34167,2.475 0.27958,-0.56375 0.39229,-0.45125 0.25046,0.25 -0.29338,1.45063 -2.83623,2.19756 -3.89089,1.1429 z M 417.94992,220.47496 c 0,-0.55 0.45,-1 1,-1 0.55,0 1,0.45 1,1 0,0.55 -0.45,1 -1,1 -0.55,0 -1,-0.45 -1,-1 z m 218,-67.04939 C 833.44058,149.3781 946.98282,137.27079 892.6657,126.05128 763.21213,99.31192 43.051642,105.75684 76.307929,133.35711 c 18.3326,15.2147 301.322801,25.36258 559.641991,20.06846 z m -395.25,-13.61289 c 0.7807,-0.31502 1.25,-2.50673 1.25,-5.83772 0,-3.34763 -0.4654,-5.50952 -1.25,-5.80654 -0.6875,-0.26027 0.775,-0.47424 3.25,-0.4755 5.1892,-0.003 7,1.10506 7,4.28204 0,2.86557 -2.40077,4.88996 -4.99467,4.21164 -2.2714,-0.59398 -2.96475,2.73456 -0.75533,3.62608 0.6875,0.27741 -0.325,0.50438 -2.25,0.50438 -1.925,0 -2.9375,-0.22697 -2.25,-0.50438 z m 7.75,-7.85142 c 0,-2.31277 -0.44799,-2.9863 -1.9863,-2.9863 -2.07927,0 -3.10726,2.51082 -2.1013,5.13232 1.04496,2.72312 4.0876,1.12572 4.0876,-2.14602 z m 111.16667,7.84703 c -1.34679,-1.34678 -0.61901,-2.53867 0.8206,-1.3439 1.77965,1.47698 4.51273,0.65063 4.51273,-1.36443 0,-0.94671 -0.6849,-1.25866 -2.00533,-0.91336 -2.5939,0.67832 -4.99467,-1.34607 -4.99467,-4.21164 0,-3.17698 1.8108,-4.28469 7,-4.28204 2.475,0.001 3.9375,0.21523 3.25,0.4755 -0.75644,0.28636 -1.25,2.33558 -1.25,5.18987 0,5.95154 -4.16685,9.61648 -7.33333,6.45 z m 4.83333,-7.84703 c 0,-2.31277 -0.44799,-2.9863 -1.9863,-2.9863 -2.07927,0 -3.10726,2.51082 -2.1013,5.13232 1.04496,2.72312 4.0876,1.12572 4.0876,-2.14602 z m 38.5,7.54508 c 0,-0.53274 0.61693,-0.73187 1.37096,-0.44253 2.22214,0.85272 2.47515,-1.79198 0.59228,-6.19119 -1.49325,-3.4889 -2.18254,-4.08704 -4.60952,-4 -3.19207,0.11447 -4.80035,5.06977 -2.1838,6.72852 0.92835,0.58852 0.57499,0.84782 -1.16992,0.8585 -2.28818,0.014 -2.5,-0.3555 -2.5,-4.3612 v -4.37651 l 6.5,-0.1183 c 3.575,-0.0651 5.97558,0.21989 5.33462,0.63324 -0.87806,0.56624 -0.84724,1.346 0.125,3.16263 l 1.29038,2.4111 1.17124,-2.18849 c 0.64419,-1.20367 0.89888,-2.62919 0.56599,-3.16782 -0.3329,-0.53863 0.43379,-0.97244 1.70375,-0.96402 1.26996,0.008 1.85902,0.34592 1.30902,0.75 -0.55,0.40408 -2.23261,3.32219 -3.73913,6.48469 -2.37664,4.98903 -5.76087,7.79787 -5.76087,4.78138 z m 216.75,0.30634 c 0.78055,-0.31496 1.25,-2.506 1.25,-5.83406 v -5.32966 l -3.25,0.163 c -3.56167,0.17863 -5.39556,5.00432 -2.58008,6.78918 0.92835,0.58852 0.57499,0.84782 -1.16992,0.8585 -2.29061,0.014 -2.5,-0.35362 -2.5,-4.38944 v -4.40477 l 8,-0.004 c 8.59196,-0.004 10.5,0.77973 10.5,4.31332 0,2.86557 -2.40077,4.88996 -4.99467,4.21164 -2.2714,-0.59398 -2.96475,2.73456 -0.75533,3.62608 0.6875,0.27741 -0.325,0.50438 -2.25,0.50438 -1.925,0 -2.9375,-0.22697 -2.25,-0.50438 z m 7.75,-7.85142 c 0,-2.31277 -0.44799,-2.9863 -1.9863,-2.9863 -2.07927,0 -3.10726,2.51082 -2.1013,5.13232 1.04496,2.72312 4.0876,1.12572 4.0876,-2.14602 z m -444.5,-0.9863 c 0,-8.18252 0.084,-8.49567 2.25,-8.384 1.69317,0.0873 1.81691,0.22918 0.5,0.57332 -1.46655,0.38325 -1.75,1.64837 -1.75,7.81068 0,6.1623 0.28345,7.42742 1.75,7.81067 1.31691,0.34415 1.19317,0.48603 -0.5,0.57333 -2.16596,0.11166 -2.25,-0.20148 -2.25,-8.384 z m 46.25,7.81067 c 1.46655,-0.38325 1.75,-1.64837 1.75,-7.81067 0,-6.16231 -0.28345,-7.42743 -1.75,-7.81068 -1.07666,-0.28136 -0.6919,-0.50195 1,-0.57332 l 2.75,-0.116 v 8.5 8.5 l -2.75,-0.116 c -1.6919,-0.0714 -2.07666,-0.29197 -1,-0.57333 z m 93.75,-7.81067 c 0,-8.18252 0.084,-8.49567 2.25,-8.384 1.69317,0.0873 1.81691,0.22918 0.5,0.57332 -1.46655,0.38325 -1.75,1.64837 -1.75,7.81068 0,6.1623 0.28345,7.42742 1.75,7.81067 1.31691,0.34415 1.19317,0.48603 -0.5,0.57333 -2.16596,0.11166 -2.25,-0.20148 -2.25,-8.384 z m 405.25,7.81067 c 1.46655,-0.38325 1.75,-1.64837 1.75,-7.81067 0,-6.16231 -0.28345,-7.42743 -1.75,-7.81068 -1.07666,-0.28136 -0.6919,-0.50195 1,-0.57332 l 2.75,-0.116 v 8.5 8.5 l -2.75,-0.116 c -1.6919,-0.0714 -2.07666,-0.29197 -1,-0.57333 z m 14.23832,-1.32358 c -2.61842,-2.89332 -2.47523,-10.44463 0.24972,-13.16958 l 2.07137,-2.07137 -1.46291,4.44368 c -1.27708,3.87918 -1.27983,4.9751 -0.0217,8.62693 1.65472,4.80285 1.62221,4.88719 -0.8365,2.17034 z m 53.9642,-0.22276 c 0.85111,-1.21514 1.54748,-4.03409 1.54748,-6.26433 0,-2.23025 -0.69637,-5.04919 -1.54748,-6.26433 -1.24793,-1.78167 -1.27415,-2.10446 -0.13545,-1.6675 1.77987,0.683 3.68293,4.78157 3.68293,7.93183 0,3.15026 -1.90306,7.24882 -3.68293,7.93182 -1.1387,0.43696 -1.11248,0.11418 0.13545,-1.66749 z m -264.43357,0.98567 c 0.73884,-9.74947 9.98105,-21.81215 9.98105,-13.027 0,2.45835 0.38276,2.85035 2.75,2.81642 2.42083,-0.0347 2.78966,0.37848 3.08135,3.45184 0.18225,1.92019 0.85725,3.8258 1.5,4.23469 0.68854,0.438 0.13072,0.74971 -1.35778,0.75873 -2.35611,0.0143 -2.50009,-0.26076 -2.13587,-4.07999 0.33959,-3.56096 0.14733,-4.04913 -1.47358,-3.74144 -2.26837,0.43059 -3.17352,5.70815 -1.1942,6.96293 0.92858,0.58867 0.57543,0.84845 -1.16992,0.8606 -2.44619,0.017 -2.49278,-0.12255 -2.16467,-6.48468 0.45437,-8.81045 -1.23825,-8.38439 -3.96439,0.9979 -1.63198,5.61665 -4.07695,10.21842 -3.85199,7.25 z m 99.35691,-1.28709 c 0.32441,-0.84539 1.32237,-4.10789 2.2177,-7.25 1.4396,-5.0522 3.40644,-8.9938 3.40644,-6.8266 0,2.38678 -4.45689,15.61369 -5.26112,15.61369 -0.52407,0 -0.68743,-0.69169 -0.36302,-1.53709 z m -441.87586,-4.84848 v -4.38557 l 3.75,-0.0517 c 2.0625,-0.0285 3.75,0.29327 3.75,0.71497 0,0.42169 -1.0125,0.73099 -2.25,0.68732 -2.63632,-0.093 -3.88603,5.08493 -1.58008,6.54678 0.92835,0.58852 0.57499,0.84782 -1.16992,0.8585 -2.28896,0.014 -2.5,-0.35489 -2.5,-4.37025 z m 9.7,3.18557 c -1.64218,-1.64219 -1.50959,-5.29817 0.24496,-6.75432 2.01846,-1.67518 5.5704,-0.93249 7.17721,1.5007 2.69849,4.0863 -3.91106,8.76473 -7.42217,5.25362 z m 5.3,-3.3137 c 0,-2.31277 -0.44799,-2.9863 -1.9863,-2.9863 -2.07927,0 -3.10726,2.51082 -2.1013,5.13232 1.04496,2.72312 4.0876,1.12572 4.0876,-2.14602 z m 5.7,3.3137 c -1.64218,-1.64219 -1.50959,-5.29817 0.24496,-6.75432 2.01846,-1.67518 5.5704,-0.93249 7.17721,1.5007 2.69849,4.0863 -3.91106,8.76473 -7.42217,5.25362 z m 5.3,-3.3137 c 0,-2.31277 -0.44799,-2.9863 -1.9863,-2.9863 -2.07927,0 -3.10726,2.51082 -2.1013,5.13232 1.04496,2.72312 4.0876,1.12572 4.0876,-2.14602 z m 6.20124,3.8816 c -0.38568,-0.38568 -0.70124,-2.16374 -0.70124,-3.95124 0,-1.7875 -0.5625,-3.47697 -1.25,-3.75438 -1,-0.40351 -1,-0.52018 0,-0.58334 0.6875,-0.0434 1.25,-0.75394 1.25,-1.57894 0,-0.825 0.45,-1.5 1,-1.5 0.55,0 1,0.642 1,1.42667 0,0.78467 0.7875,1.63247 1.75,1.884 1.66667,0.43555 1.66667,0.46285 0,0.57333 -1.31124,0.0869 -1.75,0.99352 -1.75,3.616 0,3.33621 1.25613,4.66386 2.34167,2.475 0.27958,-0.56375 0.39229,-0.45125 0.25046,0.25 -0.29338,1.45063 -2.83623,2.19756 -3.89089,1.1429 z m 31.79876,-3.75347 v -4.38557 l 3.75,-0.0517 c 2.0625,-0.0285 3.75,0.29327 3.75,0.71497 0,0.42169 -1.0125,0.73099 -2.25,0.68732 -2.63632,-0.093 -3.88603,5.08493 -1.58008,6.54678 0.92835,0.58852 0.57499,0.84782 -1.16992,0.8585 -2.28896,0.014 -2.5,-0.35489 -2.5,-4.37025 z m 9.7,3.18557 c -1.64218,-1.64219 -1.50959,-5.29817 0.24496,-6.75432 2.01846,-1.67518 5.5704,-0.93249 7.17721,1.5007 2.69849,4.0863 -3.91106,8.76473 -7.42217,5.25362 z m 5.3,-3.3137 c 0,-2.31277 -0.44799,-2.9863 -1.9863,-2.9863 -2.07927,0 -3.10726,2.51082 -2.1013,5.13232 1.04496,2.72312 4.0876,1.12572 4.0876,-2.14602 z m 5.91578,0.0129 -2.08422,-4.49921 2.58422,0.0153 c 1.50744,0.009 2.09863,0.32424 1.41884,0.75672 -0.8778,0.55845 -0.84695,1.33641 0.125,3.15251 l 1.29038,2.4111 1.17124,-2.18849 c 0.64419,-1.20367 0.89888,-2.62919 0.56599,-3.16782 -0.3329,-0.53863 0.43379,-0.97244 1.70375,-0.96402 1.26996,0.008 1.85902,0.34592 1.30902,0.75 -0.55,0.40408 -1.78022,2.42219 -2.73382,4.48469 -2.21967,4.80082 -2.81753,4.71693 -5.3504,-0.75079 z m 10.08422,7.9e-4 c 0,-2.93334 0.43519,-4.5 1.25,-4.5 0.78723,0 1.25,1.45 1.25,3.91666 0,2.19766 0.54862,4.13804 1.25,4.42106 0.6875,0.27741 0.125,0.53991 -1.25,0.58333 -2.30799,0.0729 -2.5,-0.26667 -2.5,-4.42105 z m 6.61667,3.21666 c -2.9642,-2.96419 -0.0149,-8.44632 3.98174,-7.40118 1.85248,0.48444 2.05669,0.19464 1.67852,-2.38197 -0.29163,-1.98705 -0.002,-2.93351 0.89626,-2.93351 0.96456,0 1.32681,1.75189 1.32681,6.41666 0,4.22106 0.42772,6.57425 1.25,6.8772 0.6875,0.25329 -0.835,0.47829 -3.38333,0.5 -2.54834,0.0217 -5.13584,-0.46303 -5.75,-1.0772 z m 5.38333,-3.23036 c 0,-2.31277 -0.44799,-2.9863 -1.9863,-2.9863 -2.07927,0 -3.10726,2.51082 -2.1013,5.13232 1.04496,2.72312 4.0876,1.12572 4.0876,-2.14602 z m 6.7,3.3137 c -2.805,-2.805 -0.69173,-7.8 3.3,-7.8 2.36855,0 4.5,1.75253 4.5,3.7 0,0.8248 -1.30983,1.3 -3.58333,1.3 -2.41956,0 -3.44964,0.40597 -3.17168,1.25 0.51177,1.55397 4.75501,2.28532 4.75501,0.81955 0,-0.58825 0.5051,-1.06955 1.12244,-1.06955 0.77551,0 0.73766,0.46363 -0.12244,1.5 -1.49539,1.80183 -5.13749,1.96251 -6.8,0.3 z m 5.55,-5.05 c -0.22917,-0.6875 -1.24167,-1.25 -2.25,-1.25 -1.00833,0 -2.02083,0.5625 -2.25,1.25 -0.26389,0.79166 0.56111,1.25 2.25,1.25 1.68889,0 2.51389,-0.45834 2.25,-1.25 z m 4.75,1.86443 v -4.38557 l 3.75,-0.0517 c 2.0625,-0.0285 3.75,0.29327 3.75,0.71497 0,0.42169 -1.0125,0.73099 -2.25,0.68732 -2.63632,-0.093 -3.88603,5.08493 -1.58008,6.54678 0.92835,0.58852 0.57499,0.84782 -1.16992,0.8585 -2.28896,0.014 -2.5,-0.35489 -2.5,-4.37025 z m 25,0 v -4.38557 l 3.75,-0.0517 c 2.0625,-0.0285 3.75,0.29327 3.75,0.71497 0,0.42169 -1.0125,0.73099 -2.25,0.68732 -2.63632,-0.093 -3.88603,5.08493 -1.58008,6.54678 0.92835,0.58852 0.57499,0.84782 -1.16992,0.8585 -2.28896,0.014 -2.5,-0.35489 -2.5,-4.37025 z m 9.7,3.18557 c -2.805,-2.805 -0.69173,-7.8 3.3,-7.8 2.36855,0 4.5,1.75253 4.5,3.7 0,0.8248 -1.30983,1.3 -3.58333,1.3 -2.41956,0 -3.44964,0.40597 -3.17168,1.25 0.51177,1.55397 4.75501,2.28532 4.75501,0.81955 0,-0.58825 0.5051,-1.06955 1.12244,-1.06955 0.77551,0 0.73766,0.46363 -0.12244,1.5 -1.49539,1.80183 -5.13749,1.96251 -6.8,0.3 z m 5.55,-5.05 c -0.22917,-0.6875 -1.24167,-1.25 -2.25,-1.25 -1.00833,0 -2.02083,0.5625 -2.25,1.25 -0.26389,0.79166 0.56111,1.25 2.25,1.25 1.68889,0 2.51389,-0.45834 2.25,-1.25 z m 16.75,1.75 c 0,-2.93334 0.43519,-4.5 1.25,-4.5 0.78723,0 1.25,1.45 1.25,3.91666 0,2.19766 0.54862,4.13804 1.25,4.42106 0.6875,0.27741 0.125,0.53991 -1.25,0.58333 -2.30799,0.0729 -2.5,-0.26667 -2.5,-4.42105 z m 6.16667,3.83333 c -1.47453,-1.47452 -0.54073,-2.27163 1.30837,-1.11685 1.54686,0.96603 2.23776,0.97071 3.18688,0.0216 0.94911,-0.94911 0.50986,-1.45654 -2.0261,-2.34058 -2.1437,-0.7473 -3.13157,-1.68107 -2.92318,-2.76313 0.40944,-2.12608 5.93596,-2.23896 6.57903,-0.13437 0.3699,1.2106 0.2027,1.25883 -0.86667,0.25 -1.61393,-1.52257 -3.925,-1.63915 -3.925,-0.19798 0,0.57861 1.35,1.52263 3,2.09782 3.24541,1.13136 3.95954,3.26797 1.41821,4.24317 -2.08856,0.80146 -4.91978,0.77208 -5.75154,-0.0597 z m 11.03457,0.0346 c -0.38568,-0.38568 -0.70124,-2.16374 -0.70124,-3.95124 0,-1.7875 -0.5625,-3.47697 -1.25,-3.75438 -1,-0.40351 -1,-0.52018 0,-0.58334 0.6875,-0.0434 1.25,-0.75394 1.25,-1.57894 0,-0.825 0.45,-1.5 1,-1.5 0.55,0 1,0.642 1,1.42667 0,0.78467 0.7875,1.63247 1.75,1.884 1.66667,0.43555 1.66667,0.46285 0,0.57333 -1.31124,0.0869 -1.75,0.99352 -1.75,3.616 0,3.33621 1.25613,4.66386 2.34167,2.475 0.27958,-0.56375 0.39229,-0.45125 0.25046,0.25 -0.29338,1.45063 -2.83623,2.19756 -3.89089,1.1429 z m 24.29876,-0.36792 c 0,-0.55 0.45,-1 1,-1 0.55,0 1,0.45 1,1 0,0.55 -0.45,1 -1,1 -0.55,0 -1,-0.45 -1,-1 z m 6.70124,0.3679 c -0.38568,-0.38568 -0.70124,-2.16374 -0.70124,-3.95124 0,-1.7875 -0.5625,-3.47697 -1.25,-3.75438 -1,-0.40351 -1,-0.52018 0,-0.58334 0.6875,-0.0434 1.25,-0.75394 1.25,-1.57894 0,-0.825 0.45,-1.5 1,-1.5 0.55,0 1,0.642 1,1.42667 0,0.78467 0.7875,1.63247 1.75,1.884 1.66667,0.43555 1.66667,0.46285 0,0.57333 -1.31124,0.0869 -1.75,0.99352 -1.75,3.616 0,3.33621 1.25613,4.66386 2.34167,2.475 0.27958,-0.56375 0.39229,-0.45125 0.25046,0.25 -0.29338,1.45063 -2.83623,2.19756 -3.89089,1.1429 z m 7.49876,-0.5679 c -2.805,-2.805 -0.69173,-7.8 3.3,-7.8 2.36855,0 4.5,1.75253 4.5,3.7 0,0.8248 -1.30983,1.3 -3.58333,1.3 -2.41956,0 -3.44964,0.40597 -3.17168,1.25 0.51177,1.55397 4.75501,2.28532 4.75501,0.81955 0,-0.58825 0.5051,-1.06955 1.12244,-1.06955 0.77551,0 0.73766,0.46363 -0.12244,1.5 -1.49539,1.80183 -5.13749,1.96251 -6.8,0.3 z m 5.55,-5.05 c -0.22917,-0.6875 -1.24167,-1.25 -2.25,-1.25 -1.00833,0 -2.02083,0.5625 -2.25,1.25 -0.26389,0.79166 0.56111,1.25 2.25,1.25 1.68889,0 2.51389,-0.45834 2.25,-1.25 z m 4.75,1.86443 v -4.38557 l 3.75,-0.0517 c 2.0625,-0.0285 3.75,0.29327 3.75,0.71497 0,0.42169 -1.0125,0.73099 -2.25,0.68732 -2.63632,-0.093 -3.88603,5.08493 -1.58008,6.54678 0.92835,0.58852 0.57499,0.84782 -1.16992,0.8585 -2.28896,0.014 -2.5,-0.35489 -2.5,-4.37025 z m 9,0 v -4.38557 l 3.75,-0.0517 c 2.0625,-0.0285 3.75,0.29327 3.75,0.71497 0,0.42169 -1.0125,0.73099 -2.25,0.68732 -2.63632,-0.093 -3.88603,5.08493 -1.58008,6.54678 0.92835,0.58852 0.57499,0.84782 -1.16992,0.8585 -2.28896,0.014 -2.5,-0.35489 -2.5,-4.37025 z m 8.88,2.93345 c -0.82613,-2.15287 0.42384,-3.54788 3.17902,-3.54788 1.50309,0 2.44098,-0.57634 2.44098,-1.5 0,-1.82334 -2.1145,-1.95802 -3.925,-0.25 -1.06937,1.00883 -1.23657,0.9606 -0.86667,-0.25 1.03196,-3.37731 6.26276,-1.80463 6.62302,1.99126 0.18225,1.92019 0.85725,3.8258 1.5,4.23469 0.64276,0.40888 -0.98297,0.75031 -3.61273,0.75873 -3.2684,0.0105 -4.95771,-0.44418 -5.33862,-1.4368 z m 5.62,-1.04788 c 0,-0.83334 -0.88889,-1.5 -2,-1.5 -1.99224,0 -2.60112,1.06554 -1.33333,2.33333 1.21793,1.21793 3.33333,0.68908 3.33333,-0.83333 z m 5.68482,-3.06782 c 0.10165,-3.0636 0.71925,-6.21413 1.37244,-7.00118 1.3002,-1.56664 4.94274,-1.96615 4.94274,-0.54211 0,0.48889 -0.77026,0.82639 -1.71169,0.75 -2.34519,-0.1903 -2.87543,3.0699 -0.5954,3.66079 1.65864,0.42984 1.66333,0.47784 0.0571,0.58432 -2.09499,0.13887 -2.5307,6.63431 -0.5,7.45372 0.6875,0.27741 0.125,0.54044 -1.25,0.5845 -2.39817,0.0769 -2.49247,-0.14676 -2.31518,-5.49004 z m 7.51518,4.36782 c -1.64218,-1.64219 -1.50959,-5.29817 0.24496,-6.75432 2.01846,-1.67518 5.5704,-0.93249 7.17721,1.5007 2.69849,4.0863 -3.91106,8.76473 -7.42217,5.25362 z m 5.3,-3.3137 c 0,-2.31277 -0.44799,-2.9863 -1.9863,-2.9863 -2.07927,0 -3.10726,2.51082 -2.1013,5.13232 1.04496,2.72312 4.0876,1.12572 4.0876,-2.14602 z m 5,0.12813 v -4.38557 l 3.75,-0.0517 c 2.0625,-0.0285 3.75,0.29327 3.75,0.71497 0,0.42169 -1.0125,0.73099 -2.25,0.68732 -2.63632,-0.093 -3.88603,5.08493 -1.58008,6.54678 0.92835,0.58852 0.57499,0.84782 -1.16992,0.8585 -2.28896,0.014 -2.5,-0.35489 -2.5,-4.37025 z m 9,-0.009 v -4.39478 l 7,0.14478 7,0.14479 0.33135,3.49126 c 0.18225,1.92019 0.85725,3.8258 1.5,4.23469 0.68854,0.438 0.13072,0.74971 -1.35778,0.75873 -2.35611,0.0143 -2.50009,-0.26076 -2.13587,-4.07999 0.33959,-3.56096 0.14733,-4.04913 -1.47358,-3.74144 -2.26837,0.43059 -3.17352,5.70815 -1.1942,6.96293 0.92621,0.58716 0.56295,0.84784 -1.19635,0.8585 -2.35611,0.0143 -2.50009,-0.26076 -2.13587,-4.07999 0.33959,-3.56096 0.14733,-4.04913 -1.47358,-3.74144 -2.26837,0.43059 -3.17352,5.70815 -1.1942,6.96293 0.92835,0.58852 0.57499,0.84782 -1.16992,0.8585 -2.28975,0.014 -2.5,-0.35428 -2.5,-4.37947 z m 18.5,3.39479 c 0,-0.55 0.45,-1 1,-1 0.55,0 1,0.45 1,1 0,0.55 -0.45,1 -1,1 -0.55,0 -1,-0.45 -1,-1 z m 5.5,-3.5 c 0,-2.93334 0.43519,-4.5 1.25,-4.5 0.78723,0 1.25,1.45 1.25,3.91666 0,2.19766 0.54862,4.13804 1.25,4.42106 0.6875,0.27741 0.125,0.53991 -1.25,0.58333 -2.30799,0.0729 -2.5,-0.26667 -2.5,-4.42105 z m 6.7,3.3 c -1.64218,-1.64219 -1.50959,-5.29817 0.24496,-6.75432 2.01846,-1.67518 5.5704,-0.93249 7.17721,1.5007 2.69849,4.0863 -3.91106,8.76473 -7.42217,5.25362 z m 5.3,-3.3137 c 0,-2.31277 -0.44799,-2.9863 -1.9863,-2.9863 -2.07927,0 -3.10726,2.51082 -2.1013,5.13232 1.04496,2.72312 4.0876,1.12572 4.0876,-2.14602 z m 22.88,3.06158 c -0.82613,-2.15309 0.42384,-3.5481 3.17902,-3.5481 1.50309,0 2.44098,-0.57634 2.44098,-1.5 0,-1.82334 -2.1145,-1.95802 -3.925,-0.25 -1.06937,1.00883 -1.23657,0.9606 -0.86667,-0.25 1.03196,-3.37731 6.26276,-1.80463 6.62302,1.99126 0.18225,1.92019 0.85725,3.8258 1.5,4.23469 0.64276,0.40888 -0.98297,0.75031 -3.61273,0.75873 -3.2684,0.0105 -4.95771,-0.44418 -5.33862,-1.4368 z m 5.62,-1.04788 c 0,-0.83334 -0.88889,-1.5 -2,-1.5 -1.99224,0 -2.60112,1.06554 -1.33333,2.33333 1.21793,1.21793 3.33333,0.68908 3.33333,-0.83333 z m 5.66667,1.83333 c -1.47453,-1.47452 -0.54073,-2.27163 1.30837,-1.11685 1.54686,0.96603 2.23776,0.97071 3.18688,0.0216 0.94911,-0.94911 0.50986,-1.45654 -2.0261,-2.34058 -2.1437,-0.7473 -3.13157,-1.68107 -2.92318,-2.76313 0.40944,-2.12608 5.93596,-2.23896 6.57903,-0.13437 0.3699,1.2106 0.2027,1.25883 -0.86667,0.25 -1.61393,-1.52257 -3.925,-1.63915 -3.925,-0.19798 0,0.57861 1.35,1.52263 3,2.09782 3.24541,1.13136 3.95954,3.26797 1.41821,4.24317 -2.08856,0.80146 -4.91978,0.77208 -5.75154,-0.0597 z m 9.83333,-6.33355 c 0,-4.93334 0.36905,-7 1.25,-7 0.70125,0 1.25,1.22455 1.25,2.78942 0,2.38589 0.39782,2.78372 2.75,2.75 2.42083,-0.0347 2.78966,0.37848 3.08135,3.45184 0.18225,1.92019 0.85725,3.8258 1.5,4.23469 0.68854,0.438 0.13072,0.74971 -1.35778,0.75873 -2.35611,0.0143 -2.50009,-0.26076 -2.13587,-4.07999 0.33959,-3.56096 0.14733,-4.04913 -1.47358,-3.74144 -2.26837,0.43059 -3.17352,5.70815 -1.1942,6.96293 0.92835,0.58852 0.57499,0.84782 -1.16992,0.8585 -2.43003,0.0149 -2.5,-0.1806 -2.5,-6.98468 z m 12,2.5 c 0,-2.93334 0.43519,-4.5 1.25,-4.5 0.78723,0 1.25,1.45 1.25,3.91666 0,2.19766 0.54862,4.13804 1.25,4.42106 0.6875,0.27741 0.125,0.53991 -1.25,0.58333 -2.30799,0.0729 -2.5,-0.26667 -2.5,-4.42105 z m 6.7,3.3 c -2.78825,-2.78825 -0.69002,-7.81412 3.25,-7.78469 2.53998,0.019 5.23484,1.63318 4.29521,2.57282 -0.38328,0.38328 -1.37702,0.1324 -2.20831,-0.55751 -2.17314,-1.80354 -4.5369,-0.51698 -4.5369,2.46938 0,2.84357 2.50864,4.39135 4.26722,2.63278 1.68635,-1.68635 3.17522,-1.37082 1.73278,0.36722 -1.49539,1.80183 -5.13749,1.96251 -6.8,0.3 z m 10,0 c -1.64218,-1.64219 -1.50959,-5.29817 0.24496,-6.75432 2.01846,-1.67518 5.5704,-0.93249 7.17721,1.5007 2.69849,4.0863 -3.91106,8.76473 -7.42217,5.25362 z m 5.3,-3.3137 c 0,-2.31277 -0.44799,-2.9863 -1.9863,-2.9863 -2.07927,0 -3.10726,2.51082 -2.1013,5.13232 1.04496,2.72312 4.0876,1.12572 4.0876,-2.14602 z m 31.88,3.06158 c -0.82613,-2.15287 0.42384,-3.54788 3.17902,-3.54788 1.50309,0 2.44098,-0.57634 2.44098,-1.5 0,-1.82334 -2.1145,-1.95802 -3.925,-0.25 -1.06937,1.00883 -1.23657,0.9606 -0.86667,-0.25 1.03196,-3.37731 6.26276,-1.80463 6.62302,1.99126 0.18225,1.92019 0.85725,3.8258 1.5,4.23469 0.64276,0.40888 -0.98297,0.75031 -3.61273,0.75873 -3.2684,0.0105 -4.95771,-0.44418 -5.33862,-1.4368 z m 5.62,-1.04788 c 0,-0.83334 -0.88889,-1.5 -2,-1.5 -1.99224,0 -2.60112,1.06554 -1.33333,2.33333 1.21793,1.21793 3.33333,0.68908 3.33333,-0.83333 z m 5,1.67431 c 0,-0.45413 1.125,-1.88257 2.5,-3.17431 1.375,-1.29175 2.5,-2.72019 2.5,-3.17432 0,-1.32168 -3.78249,-0.95168 -4.33772,0.42432 -0.30132,0.74674 -0.53617,0.54544 -0.58333,-0.5 -0.0626,-1.38816 0.74812,-1.75 3.92105,-1.75 4.83174,0 4.91118,0.46469 0.80383,4.70239 l -3.19616,3.29761 h 2.61283 c 1.43706,0 2.83981,-0.5625 3.11722,-1.25 0.30132,-0.74674 0.53617,-0.54544 0.58333,0.5 0.0626,1.38816 -0.74812,1.75 -3.92105,1.75 -2.2,0 -4,-0.37156 -4,-0.82569 z m 11.58333,0.0757 c -0.32083,-0.32084 -0.58333,-2.04584 -0.58333,-3.83334 0,-1.7875 -0.5625,-3.47697 -1.25,-3.75438 -0.6875,-0.27741 -0.2375,-0.53991 1,-0.58334 1.97801,-0.0694 2.25,0.41347 2.25,3.99438 0,3.34471 0.31303,4.01134 1.75,3.72677 1.29169,-0.25579 1.75,-1.32274 1.75,-4.07398 0,-2.31562 0.47345,-3.72718 1.25,-3.72677 0.78712,4.1e-4 1.25,1.45101 1.25,3.91732 0,2.22106 0.54115,4.11604 1.25,4.3772 0.6875,0.25329 -0.85,0.47829 -3.41667,0.5 -2.56666,0.0217 -4.92916,-0.22303 -5.25,-0.54386 z m 10.91667,-3.63557 v -4.38557 l 3.75,-0.0517 c 2.0625,-0.0285 3.75,0.29327 3.75,0.71497 0,0.42169 -1.0125,0.73099 -2.25,0.68732 -2.63632,-0.093 -3.88603,5.08493 -1.58008,6.54678 0.92835,0.58852 0.57499,0.84782 -1.16992,0.8585 -2.28896,0.014 -2.5,-0.35489 -2.5,-4.37025 z m 9.7,3.18557 c -2.805,-2.805 -0.69173,-7.8 3.3,-7.8 2.36855,0 4.5,1.75253 4.5,3.7 0,0.8248 -1.30983,1.3 -3.58333,1.3 -2.41956,0 -3.44964,0.40597 -3.17168,1.25 0.51177,1.55397 4.75501,2.28532 4.75501,0.81955 0,-0.58825 0.5051,-1.06955 1.12244,-1.06955 0.77551,0 0.73766,0.46363 -0.12244,1.5 -1.49539,1.80183 -5.13749,1.96251 -6.8,0.3 z m 5.55,-5.05 c -0.22917,-0.6875 -1.24167,-1.25 -2.25,-1.25 -1.00833,0 -2.02083,0.5625 -2.25,1.25 -0.26389,0.79166 0.56111,1.25 2.25,1.25 1.68889,0 2.51389,-0.45834 2.25,-1.25 z m 4.75,1.86443 v -4.38557 l 3.75,-0.0517 c 2.0625,-0.0285 3.75,0.29327 3.75,0.71497 0,0.42169 -1.0125,0.73099 -2.25,0.68732 -2.63632,-0.093 -3.88603,5.08493 -1.58008,6.54678 0.92835,0.58852 0.57499,0.84782 -1.16992,0.8585 -2.28896,0.014 -2.5,-0.35489 -2.5,-4.37025 z m 9,-0.009 v -4.39478 l 7,0.14478 7,0.14479 0.33135,3.49126 c 0.18225,1.92019 0.85725,3.8258 1.5,4.23469 0.68854,0.438 0.13072,0.74971 -1.35778,0.75873 -2.35611,0.0143 -2.50009,-0.26076 -2.13587,-4.07999 0.33959,-3.56096 0.14733,-4.04913 -1.47358,-3.74144 -2.26837,0.43059 -3.17352,5.70815 -1.1942,6.96293 0.92621,0.58716 0.56295,0.84784 -1.19635,0.8585 -2.35611,0.0143 -2.50009,-0.26076 -2.13587,-4.07999 0.33959,-3.56096 0.14733,-4.04913 -1.47358,-3.74144 -2.26837,0.43059 -3.17352,5.70815 -1.1942,6.96293 0.92835,0.58852 0.57499,0.84782 -1.16992,0.8585 -2.28975,0.014 -2.5,-0.35428 -2.5,-4.37947 z m 47.7,3.19479 c -2.78825,-2.78825 -0.69002,-7.81412 3.25,-7.78469 2.53998,0.019 5.23484,1.63318 4.29521,2.57282 -0.38328,0.38328 -1.37702,0.1324 -2.20831,-0.55751 -2.17314,-1.80354 -4.5369,-0.51698 -4.5369,2.46938 0,2.84357 2.50864,4.39135 4.26722,2.63278 1.68635,-1.68635 3.17522,-1.37082 1.73278,0.36722 -1.49539,1.80183 -5.13749,1.96251 -6.8,0.3 z m 8.55,0.53772 c 0.7995,-0.32261 1.25,-2.60673 1.25,-6.33772 0,-3.731 -0.4505,-6.01512 -1.25,-6.33772 -0.6875,-0.27741 -0.2375,-0.53991 1,-0.58334 2.10777,-0.0739 2.25,0.32668 2.25,6.33772 0,4.19766 0.43227,6.5911 1.25,6.92106 0.6875,0.27741 -0.325,0.50438 -2.25,0.50438 -1.925,0 -2.9375,-0.22697 -2.25,-0.50438 z m 7.45,-0.53772 c -1.64218,-1.64219 -1.50959,-5.29817 0.24496,-6.75432 2.01846,-1.67518 5.5704,-0.93249 7.17721,1.5007 2.69849,4.0863 -3.91106,8.76473 -7.42217,5.25362 z m 5.3,-3.3137 c 0,-2.31277 -0.44799,-2.9863 -1.9863,-2.9863 -2.07927,0 -3.10726,2.51082 -2.1013,5.13232 1.04496,2.72312 4.0876,1.12572 4.0876,-2.14602 z m 5.16667,3.84703 c -1.47453,-1.47452 -0.54073,-2.27163 1.30837,-1.11685 1.54686,0.96603 2.23776,0.97071 3.18688,0.0216 0.94911,-0.94911 0.50986,-1.45654 -2.0261,-2.34058 -2.1437,-0.7473 -3.13157,-1.68107 -2.92318,-2.76313 0.40944,-2.12608 5.93596,-2.23896 6.57903,-0.13437 0.3699,1.2106 0.2027,1.25883 -0.86667,0.25 -1.61393,-1.52257 -3.925,-1.63915 -3.925,-0.19798 0,0.57861 1.35,1.52263 3,2.09782 3.24541,1.13136 3.95954,3.26797 1.41821,4.24317 -2.08856,0.80146 -4.91978,0.77208 -5.75154,-0.0597 z m 10.53333,-0.53356 c -2.805,-2.805 -0.69173,-7.8 3.3,-7.8 2.36855,0 4.5,1.75253 4.5,3.7 0,0.8248 -1.30983,1.3 -3.58333,1.3 -2.41956,0 -3.44964,0.40597 -3.17168,1.25 0.51177,1.55397 4.75501,2.28532 4.75501,0.81955 0,-0.58825 0.5051,-1.06955 1.12244,-1.06955 0.77551,0 0.73766,0.46363 -0.12244,1.5 -1.49539,1.80183 -5.13749,1.96251 -6.8,0.3 z m 5.55,-5.05 c -0.22917,-0.6875 -1.24167,-1.25 -2.25,-1.25 -1.00833,0 -2.02083,0.5625 -2.25,1.25 -0.26389,0.79166 0.56111,1.25 2.25,1.25 1.68889,0 2.51389,-0.45834 2.25,-1.25 z m -460.55505,-5.25 c 0.0204,-1.65 0.2445,-2.20394 0.49804,-1.23097 0.25354,0.97297 0.23687,2.32297 -0.037,3 -0.27393,0.67703 -0.48137,-0.11903 -0.46099,-1.76903 z m 2.80505,0 c 0,-1.375 0.45,-2.5 1,-2.5 0.55,0 1,1.125 1,2.5 0,1.375 -0.45,2.5 -1,2.5 -0.55,0 -1,-1.125 -1,-2.5 z m 386.19495,0 c 0.0204,-1.65 0.2445,-2.20394 0.49804,-1.23097 0.25354,0.97297 0.23687,2.32297 -0.0371,3 -0.27393,0.67703 -0.48137,-0.11903 -0.46099,-1.76903 z m 2.80505,0 c 0,-1.375 0.45,-2.5 1,-2.5 0.55,0 1,1.125 1,2.5 0,1.375 -0.45,2.5 -1,2.5 -0.55,0 -1,-1.125 -1,-2.5 z m -437,-0.5 c 0,-0.55 0.45,-1 1,-1 0.55,0 1,0.45 1,1 0,0.55 -0.45,1 -1,1 -0.55,0 -1,-0.45 -1,-1 z m 86,0 c 0,-0.55 0.45,-1 1,-1 0.55,0 1,0.45 1,1 0,0.55 -0.45,1 -1,1 -0.55,0 -1,-0.45 -1,-1 z m 146,0 c 0,-0.55 0.45,-1 1,-1 0.55,0 1,0.45 1,1 0,0.55 -0.45,1 -1,1 -0.55,0 -1,-0.45 -1,-1 z m 68,0 c 0,-0.55 0.45,-1 1,-1 0.55,0 1,0.45 1,1 0,0.55 -0.45,1 -1,1 -0.55,0 -1,-0.45 -1,-1 z m -65.5,-67.09999 c 29.39102,-3.383628 51.27626,-13.605078 48.97782,-22.874968 -5.75795,-23.2225 -109.90537,-30.0274 -145.12242,-9.48218 -32.61411,19.02669 29.71832,40.004468 96.1446,32.357148 z m -75.5,-22.400008 c 0,-8.18252 0.084,-8.49567 2.25,-8.384 1.69317,0.0873 1.81691,0.22918 0.5,0.57333 -1.46655,0.38325 -1.75,1.64836 -1.75,7.81067 0,6.16231 0.28345,7.42743 1.75,7.81068 1.31691,0.34414 1.19317,0.48603 -0.5,0.57332 -2.16596,0.11167 -2.25,-0.20148 -2.25,-8.384 z m 46.25,7.81068 c 1.46655,-0.38325 1.75,-1.64837 1.75,-7.81068 0,-6.16231 -0.28345,-7.42742 -1.75,-7.81067 -1.07666,-0.28136 -0.6919,-0.50196 1,-0.57333 l 2.75,-0.116 v 8.5 8.5 l -2.75,-0.116 c -1.6919,-0.0714 -2.07666,-0.29196 -1,-0.57332 z m -39.75,-6.69624 v -4.38557 l 3.75,-0.0517 c 2.0625,-0.0285 3.75,0.29327 3.75,0.71497 0,0.42169 -1.0125,0.73099 -2.25,0.68732 -2.63632,-0.093 -3.88603,5.08493 -1.58008,6.54678 0.92835,0.58852 0.57499,0.84782 -1.16992,0.8585 -2.28896,0.014 -2.5,-0.3549 -2.5,-4.37025 z m 9.7,3.18556 c -1.64218,-1.64218 -1.50959,-5.29817 0.24496,-6.75432 2.01846,-1.67517 5.5704,-0.93249 7.17721,1.5007 2.69849,4.08631 -3.91106,8.76473 -7.42217,5.25362 z m 5.3,-3.31369 c 0,-2.31278 -0.44799,-2.98631 -1.9863,-2.98631 -2.07927,0 -3.10726,2.51083 -2.1013,5.13232 1.04496,2.72313 4.0876,1.12573 4.0876,-2.14601 z m 5.7,3.31369 c -1.64218,-1.64218 -1.50959,-5.29817 0.24496,-6.75432 2.01846,-1.67517 5.5704,-0.93249 7.17721,1.5007 2.69849,4.08631 -3.91106,8.76473 -7.42217,5.25362 z m 5.3,-3.31369 c 0,-2.31278 -0.44799,-2.98631 -1.9863,-2.98631 -2.07927,0 -3.10726,2.51083 -2.1013,5.13232 1.04496,2.72313 4.0876,1.12573 4.0876,-2.14601 z m 6.20124,3.88159 c -0.38568,-0.38568 -0.70124,-2.16373 -0.70124,-3.95123 0,-1.7875 -0.5625,-3.47698 -1.25,-3.75439 -1,-0.40351 -1,-0.52017 0,-0.58333 0.6875,-0.0434 1.25,-0.75395 1.25,-1.57895 0,-0.825 0.45,-1.5 1,-1.5 0.55,0 1,0.64201 1,1.42668 0,0.78467 0.7875,1.63247 1.75,1.884 1.66667,0.43554 1.66667,0.46284 0,0.57332 -1.31124,0.0869 -1.75,0.99353 -1.75,3.616 0,3.33621 1.25613,4.66387 2.34167,2.475 0.27958,-0.56375 0.39229,-0.45125 0.25046,0.25 -0.29338,1.45064 -2.83623,2.19757 -3.89089,1.1429 z m 19.79876,-3.75346 v -4.38557 l 3.75,-0.0517 c 2.0625,-0.0285 3.75,0.29327 3.75,0.71497 0,0.42169 -1.0125,0.73099 -2.25,0.68732 -2.63632,-0.093 -3.88603,5.08493 -1.58008,6.54678 0.92835,0.58852 0.57499,0.84782 -1.16992,0.8585 -2.28896,0.014 -2.5,-0.3549 -2.5,-4.37025 z m 9.7,3.18556 c -1.64218,-1.64218 -1.50959,-5.29817 0.24496,-6.75432 2.01846,-1.67517 5.5704,-0.93249 7.17721,1.5007 2.69849,4.08631 -3.91106,8.76473 -7.42217,5.25362 z m 5.3,-3.31369 c 0,-2.31278 -0.44799,-2.98631 -1.9863,-2.98631 -2.07927,0 -3.10726,2.51083 -2.1013,5.13232 1.04496,2.72313 4.0876,1.12573 4.0876,-2.14601 z m 5.7,3.31369 c -1.64218,-1.64218 -1.50959,-5.29817 0.24496,-6.75432 2.01846,-1.67517 5.5704,-0.93249 7.17721,1.5007 2.69849,4.08631 -3.91106,8.76473 -7.42217,5.25362 z m 5.3,-3.31369 c 0,-2.31278 -0.44799,-2.98631 -1.9863,-2.98631 -2.07927,0 -3.10726,2.51083 -2.1013,5.13232 1.04496,2.72313 4.0876,1.12573 4.0876,-2.14601 z m 6.20124,3.88159 c -0.38568,-0.38568 -0.70124,-2.16373 -0.70124,-3.95123 0,-1.7875 -0.5625,-3.47698 -1.25,-3.75439 -1,-0.40351 -1,-0.52017 0,-0.58333 0.6875,-0.0434 1.25,-0.75395 1.25,-1.57895 0,-0.825 0.45,-1.5 1,-1.5 0.55,0 1,0.64201 1,1.42668 0,0.78467 0.7875,1.63247 1.75,1.884 1.66667,0.43554 1.66667,0.46284 0,0.57332 -1.31124,0.0869 -1.75,0.99353 -1.75,3.616 0,3.33621 1.25613,4.66387 2.34167,2.475 0.27958,-0.56375 0.39229,-0.45125 0.25046,0.25 -0.29338,1.45064 -2.83623,2.19757 -3.89089,1.1429 z"
       id="path6001" />
  </g>
</svg>
